<svg width="90" height="29" viewBox="0 0 90 29" fill="none" xmlns="http://www.w3.org/2000/svg">
    <rect width="90" height="29" rx="5" fill="#3DCFCF" />
    <path d="M26.0868 16.8887C26.1964 18.0812 27.2839 19.01 29.2339 19.12V20H30.0993V19.1138C32.1185 18.9913 33.2983 18.0563 33.2983 16.6988C33.2983 15.465 32.3954 14.8288 30.7815 14.4987L30.0993 14.3587V11.9625C30.9646 12.0475 31.5156 12.4575 31.6483 13.025H33.1656C33.056 11.8763 31.9195 10.9775 30.0993 10.88V10H29.2339V10.8987C27.5103 11.045 26.3348 11.9438 26.3348 13.215C26.3348 14.34 27.2089 15.055 28.6613 15.3488L29.2339 15.4712V18.0138C28.3469 17.8975 27.7598 17.4762 27.6271 16.8887H26.0868ZM29.2267 14.1812C28.3757 14.01 27.9142 13.6612 27.9142 13.1362C27.9142 12.5487 28.4118 12.1088 29.2339 11.98V14.18L29.2267 14.1812ZM30.2247 15.6725C31.2589 15.88 31.7363 16.2162 31.7363 16.81C31.7363 17.4875 31.142 17.9525 30.0993 18.0375V15.6475L30.2247 15.6725Z" fill="#AE1212" />
    <path d="M29.6922 23.75C27.0146 23.75 24.4466 22.8281 22.5532 21.1872C20.6598 19.5462 19.5961 17.3206 19.5961 15C19.5961 12.6794 20.6598 10.4538 22.5532 8.81282C24.4466 7.17187 27.0146 6.25 29.6922 6.25C32.3699 6.25 34.9379 7.17187 36.8313 8.81282C38.7247 10.4538 39.7884 12.6794 39.7884 15C39.7884 17.3206 38.7247 19.5462 36.8313 21.1872C34.9379 22.8281 32.3699 23.75 29.6922 23.75ZM29.6922 25C32.7524 25 35.6873 23.9464 37.8512 22.0711C40.015 20.1957 41.2307 17.6522 41.2307 15C41.2307 12.3478 40.015 9.8043 37.8512 7.92893C35.6873 6.05357 32.7524 5 29.6922 5C26.632 5 23.6972 6.05357 21.5333 7.92893C19.3694 9.8043 18.1538 12.3478 18.1538 15C18.1538 17.6522 19.3694 20.1957 21.5333 22.0711C23.6972 23.9464 26.632 25 29.6922 25Z" fill="#003ECB" />
    <path d="M29.6921 21.875C27.5882 21.875 25.5705 21.1507 24.0828 19.8614C22.5952 18.572 21.7594 16.8234 21.7594 15C21.7594 13.1766 22.5952 11.428 24.0828 10.1386C25.5705 8.84933 27.5882 8.125 29.6921 8.125C31.796 8.125 33.8137 8.84933 35.3013 10.1386C36.789 11.428 37.6248 13.1766 37.6248 15C37.6248 16.8234 36.789 18.572 35.3013 19.8614C33.8137 21.1507 31.796 21.875 29.6921 21.875ZM29.6921 22.5C30.8285 22.5 31.9538 22.306 33.0038 21.9291C34.0537 21.5522 35.0077 20.9997 35.8113 20.3033C36.6149 19.6069 37.2523 18.7801 37.6872 17.8701C38.1221 16.9602 38.3459 15.9849 38.3459 15C38.3459 14.0151 38.1221 13.0398 37.6872 12.1299C37.2523 11.2199 36.6149 10.3931 35.8113 9.6967C35.0077 9.00026 34.0537 8.44781 33.0038 8.0709C31.9538 7.69399 30.8285 7.5 29.6921 7.5C27.3969 7.5 25.1958 8.29018 23.5729 9.6967C21.95 11.1032 21.0382 13.0109 21.0382 15C21.0382 16.9891 21.95 18.8968 23.5729 20.3033C25.1958 21.7098 27.3969 22.5 29.6921 22.5Z" fill="#003ECB" />
</svg>