<svg width="163" height="79" viewBox="0 0 163 79" fill="none" xmlns="http://www.w3.org/2000/svg">
<g filter="url(#filter0_d_3617_128)">
<path d="M4 44H159V67.5C159 69.433 157.433 71 155.5 71H7.5C5.567 71 4 69.433 4 67.5V44Z" fill="#1948AC"/>
</g>
<g filter="url(#filter1_d_3617_128)">
<path d="M49.99 52.69H51.69L52.69 57.31L52.47 57.21L54.26 53.8L54.69 55.79L52.01 60.34L49.99 52.69ZM53.68 52.69H55.12L56.38 57.16L56.13 57.12L58.02 52.69H59.58L55.8 60.32L53.68 52.69ZM59.5466 60H58.1166L62.3766 52.35H62.4566L64.8366 60H63.1566L61.6966 54.62L62.8366 53.9L59.5466 60ZM60.7166 57.34H62.9266L63.2866 58.56H60.1166L60.7166 57.34ZM65.7238 52.64H70.6838L70.5038 54.07H68.7438L68.0138 60H66.5138L67.2438 54.07H65.5438L65.7238 52.64ZM76.5593 59.57C76.4793 59.6233 76.336 59.6967 76.1293 59.79C75.9293 59.8767 75.686 59.9533 75.3993 60.02C75.1193 60.0933 74.8126 60.13 74.4793 60.13C74.0993 60.13 73.7026 60.0733 73.2893 59.96C72.8826 59.8467 72.5026 59.66 72.1493 59.4C71.796 59.14 71.5093 58.79 71.2893 58.35C71.0693 57.91 70.9593 57.3633 70.9593 56.71C70.9593 56.29 71.006 55.88 71.0993 55.48C71.1926 55.08 71.336 54.7067 71.5293 54.36C71.7293 54.0067 71.9793 53.7 72.2793 53.44C72.5793 53.1733 72.936 52.9667 73.3493 52.82C73.7626 52.6667 74.2326 52.59 74.7593 52.59C75.3126 52.59 75.7926 52.6767 76.1993 52.85C76.606 53.0167 76.9293 53.19 77.1693 53.37L76.4293 54.7C76.2826 54.5667 76.0793 54.4233 75.8193 54.27C75.5593 54.1167 75.2526 54.0267 74.8993 54C74.5393 53.98 74.2093 54.03 73.9093 54.15C73.616 54.2633 73.3626 54.4367 73.1493 54.67C72.936 54.9033 72.7693 55.1833 72.6493 55.51C72.536 55.8367 72.4793 56.2 72.4793 56.6C72.4793 56.9133 72.526 57.2 72.6193 57.46C72.7126 57.72 72.846 57.9433 73.0193 58.13C73.1993 58.3167 73.416 58.4633 73.6693 58.57C73.9293 58.67 74.2193 58.72 74.5393 58.72C74.826 58.72 75.0726 58.69 75.2793 58.63C75.486 58.5633 75.6593 58.4933 75.7993 58.42C75.9393 58.34 76.046 58.2767 76.1193 58.23L76.5593 59.57ZM85.0213 52.64L84.1213 60H82.6213L82.9913 57.01H79.8013L79.4313 60H77.9313L78.8313 52.64H80.3313L79.9713 55.59H83.1612L83.5213 52.64H85.0213ZM91.775 60.28L89.375 52.64H91.115L92.615 57.94L91.795 57.77L94.375 52.64H96.095L91.825 60.28H91.775ZM97.3664 52.64H98.8664L97.9664 60H96.4664L97.3664 52.64ZM99.8746 60L100.775 52.64H103.375C104.035 52.64 104.581 52.75 105.015 52.97C105.455 53.19 105.795 53.4833 106.035 53.85C106.275 54.2167 106.435 54.6267 106.515 55.08C106.601 55.5333 106.618 55.99 106.565 56.45C106.505 56.9967 106.358 57.49 106.125 57.93C105.898 58.3633 105.608 58.7367 105.255 59.05C104.908 59.3567 104.518 59.5933 104.085 59.76C103.658 59.92 103.215 60 102.755 60H99.8746ZM101.495 58.6H102.675C103.001 58.6 103.301 58.5533 103.575 58.46C103.855 58.36 104.098 58.2167 104.305 58.03C104.518 57.8433 104.691 57.61 104.825 57.33C104.958 57.0433 105.045 56.7167 105.085 56.35C105.145 55.87 105.115 55.48 104.995 55.18C104.875 54.8733 104.708 54.6367 104.495 54.47C104.281 54.3033 104.058 54.19 103.825 54.13C103.598 54.0633 103.401 54.03 103.235 54.03H102.055L101.495 58.6ZM108.441 52.64H113.461L113.301 53.99H109.781L109.581 55.63H112.691L112.521 57.01H109.411L109.211 58.61H112.871L112.701 60H107.541L108.441 52.64ZM117.771 60.07C117.351 60.07 116.931 60.0033 116.511 59.87C116.097 59.7367 115.717 59.53 115.371 59.25C115.031 58.9633 114.757 58.6 114.551 58.16C114.344 57.7133 114.241 57.1833 114.241 56.57C114.241 56.13 114.321 55.6767 114.481 55.21C114.647 54.7367 114.894 54.3033 115.221 53.91C115.554 53.51 115.971 53.1867 116.471 52.94C116.977 52.6933 117.567 52.57 118.241 52.57C118.661 52.57 119.077 52.6367 119.491 52.77C119.911 52.9033 120.291 53.1133 120.631 53.4C120.977 53.68 121.254 54.0433 121.461 54.49C121.667 54.93 121.771 55.4567 121.771 56.07C121.771 56.51 121.687 56.9667 121.521 57.44C121.361 57.9067 121.114 58.34 120.781 58.74C120.454 59.1333 120.037 59.4533 119.531 59.7C119.031 59.9467 118.444 60.07 117.771 60.07ZM117.791 58.67C118.244 58.67 118.627 58.5933 118.941 58.44C119.261 58.28 119.517 58.0733 119.711 57.82C119.904 57.5667 120.044 57.2933 120.131 57C120.224 56.7067 120.271 56.4233 120.271 56.15C120.271 55.8567 120.217 55.58 120.111 55.32C120.011 55.06 119.867 54.83 119.681 54.63C119.494 54.4233 119.274 54.2633 119.021 54.15C118.767 54.03 118.487 53.97 118.181 53.97C117.727 53.97 117.344 54.05 117.031 54.21C116.717 54.3633 116.464 54.5667 116.271 54.82C116.084 55.0733 115.947 55.3467 115.861 55.64C115.781 55.9333 115.741 56.2167 115.741 56.49C115.741 56.7767 115.791 57.0533 115.891 57.32C115.991 57.58 116.131 57.8133 116.311 58.02C116.491 58.22 116.704 58.38 116.951 58.5C117.204 58.6133 117.484 58.67 117.791 58.67Z" fill="white"/>
</g>
<g filter="url(#filter2_dd_3617_128)">
<path d="M29.9844 61.1754C29.3636 60.5758 28.8684 59.8585 28.5277 59.0655C28.1871 58.2725 28.0077 57.4195 28.0002 56.5565C27.9927 55.6934 28.1572 54.8375 28.484 54.0387C28.8109 53.2398 29.2935 52.5141 29.9038 51.9038C30.5141 51.2935 31.2398 50.8109 32.0387 50.484C32.8375 50.1572 33.6934 49.9927 34.5565 50.0002C35.4195 50.0077 36.2725 50.1871 37.0655 50.5277C37.8585 50.8684 38.5758 51.3636 39.1754 51.9844C40.3594 53.2103 41.0146 54.8522 40.9998 56.5565C40.9849 58.2608 40.3013 59.891 39.0962 61.0962C37.891 62.3013 36.2608 62.9849 34.5565 62.9998C32.8522 63.0146 31.2103 62.3594 29.9844 61.1754ZM38.2589 60.2589C39.2346 59.2831 39.7828 57.9598 39.7828 56.5799C39.7828 55.2 39.2346 53.8766 38.2589 52.9009C37.2831 51.9251 35.9598 51.377 34.5799 51.377C33.2 51.377 31.8766 51.9251 30.9009 52.9009C29.9251 53.8766 29.377 55.2 29.377 56.5799C29.377 57.9598 29.9251 59.2831 30.9009 60.2589C31.8766 61.2346 33.2 61.7828 34.5799 61.7828C35.9598 61.7828 37.2831 61.2346 38.2589 60.2589ZM32.6299 53.9799L37.8299 56.5799L32.6299 59.1799V53.9799Z" fill="white"/>
</g>
<path d="M4 3.5C4 1.567 5.567 0 7.5 0H155.5C157.433 0 159 1.567 159 3.5V44H4V3.5Z" fill="#D5E7F0"/>
<path d="M41.14 14.64V22H39.69V19.01H36.4V22H34.95V14.64H36.4V17.61H39.69V14.64H41.14ZM42.4659 19.76C42.4659 19.3133 42.5693 18.9133 42.7759 18.56C42.9893 18.2067 43.2859 17.93 43.6659 17.73C44.0459 17.5233 44.4826 17.42 44.9759 17.42C45.4759 17.42 45.9093 17.5233 46.2759 17.73C46.6426 17.93 46.9226 18.2067 47.1159 18.56C47.3159 18.9133 47.4159 19.3133 47.4159 19.76C47.4159 20.2067 47.3159 20.61 47.1159 20.97C46.9226 21.3233 46.6426 21.6033 46.2759 21.81C45.9093 22.0167 45.4693 22.12 44.9559 22.12C44.4759 22.12 44.0459 22.0267 43.6659 21.84C43.2926 21.6533 42.9993 21.3833 42.7859 21.03C42.5726 20.6767 42.4659 20.2533 42.4659 19.76ZM43.8759 19.77C43.8759 19.9967 43.9226 20.2033 44.0159 20.39C44.1093 20.57 44.2359 20.7133 44.3959 20.82C44.5559 20.9267 44.7359 20.98 44.9359 20.98C45.1559 20.98 45.3459 20.9267 45.5059 20.82C45.6659 20.7133 45.7893 20.57 45.8759 20.39C45.9626 20.2033 46.0059 19.9967 46.0059 19.77C46.0059 19.5367 45.9626 19.33 45.8759 19.15C45.7893 18.97 45.6659 18.8267 45.5059 18.72C45.3459 18.6133 45.1559 18.56 44.9359 18.56C44.7359 18.56 44.5559 18.6133 44.3959 18.72C44.2359 18.8267 44.1093 18.97 44.0159 19.15C43.9226 19.33 43.8759 19.5367 43.8759 19.77ZM51.4923 17.63L52.4523 19.88L52.1923 19.9L53.0323 17.63H54.3923L52.4223 22.26L51.0223 19.36L49.7423 22.26L47.7523 17.63H49.1123L50.1723 20.06L49.6923 19.99L50.5323 18.13L50.3023 17.63H51.4923ZM64.2102 21.39C64.1302 21.4567 63.9802 21.5467 63.7602 21.66C63.5469 21.7733 63.2836 21.8733 62.9702 21.96C62.6569 22.0467 62.3102 22.0867 61.9302 22.08C61.3502 22.0667 60.8302 21.9633 60.3702 21.77C59.9169 21.57 59.5302 21.3 59.2102 20.96C58.8969 20.62 58.6569 20.23 58.4902 19.79C58.3236 19.35 58.2402 18.88 58.2402 18.38C58.2402 17.82 58.3236 17.3067 58.4902 16.84C58.6636 16.3733 58.9069 15.97 59.2202 15.63C59.5402 15.29 59.9202 15.0267 60.3602 14.84C60.8002 14.6533 61.2869 14.56 61.8202 14.56C62.3136 14.56 62.7502 14.6267 63.1302 14.76C63.5102 14.8933 63.8202 15.0367 64.0602 15.19L63.4902 16.56C63.3236 16.4333 63.1002 16.3033 62.8202 16.17C62.5469 16.03 62.2302 15.96 61.8702 15.96C61.5902 15.96 61.3202 16.02 61.0602 16.14C60.8069 16.2533 60.5802 16.4167 60.3802 16.63C60.1869 16.8433 60.0336 17.0933 59.9202 17.38C59.8069 17.66 59.7502 17.9667 59.7502 18.3C59.7502 18.6533 59.8002 18.9767 59.9002 19.27C60.0069 19.5633 60.1569 19.8167 60.3502 20.03C60.5436 20.2367 60.7736 20.3967 61.0402 20.51C61.3136 20.6233 61.6202 20.68 61.9602 20.68C62.3536 20.68 62.6902 20.6167 62.9702 20.49C63.2502 20.3633 63.4636 20.23 63.6102 20.09L64.2102 21.39ZM65.0929 19.76C65.0929 19.3133 65.1962 18.9133 65.4029 18.56C65.6162 18.2067 65.9129 17.93 66.2929 17.73C66.6729 17.5233 67.1096 17.42 67.6029 17.42C68.1029 17.42 68.5362 17.5233 68.9029 17.73C69.2696 17.93 69.5496 18.2067 69.7429 18.56C69.9429 18.9133 70.0429 19.3133 70.0429 19.76C70.0429 20.2067 69.9429 20.61 69.7429 20.97C69.5496 21.3233 69.2696 21.6033 68.9029 21.81C68.5362 22.0167 68.0962 22.12 67.5829 22.12C67.1029 22.12 66.6729 22.0267 66.2929 21.84C65.9196 21.6533 65.6262 21.3833 65.4129 21.03C65.1996 20.6767 65.0929 20.2533 65.0929 19.76ZM66.5029 19.77C66.5029 19.9967 66.5496 20.2033 66.6429 20.39C66.7362 20.57 66.8629 20.7133 67.0229 20.82C67.1829 20.9267 67.3629 20.98 67.5629 20.98C67.7829 20.98 67.9729 20.9267 68.1329 20.82C68.2929 20.7133 68.4162 20.57 68.5029 20.39C68.5896 20.2033 68.6329 19.9967 68.6329 19.77C68.6329 19.5367 68.5896 19.33 68.5029 19.15C68.4162 18.97 68.2929 18.8267 68.1329 18.72C67.9729 18.6133 67.7829 18.56 67.5629 18.56C67.3629 18.56 67.1829 18.6133 67.0229 18.72C66.8629 18.8267 66.7362 18.97 66.6429 19.15C66.5496 19.33 66.5029 19.5367 66.5029 19.77ZM72.4158 17.63L72.5258 18.41L72.5058 18.34C72.6591 18.0667 72.8758 17.8467 73.1558 17.68C73.4358 17.5067 73.7791 17.42 74.1858 17.42C74.5991 17.42 74.9424 17.5433 75.2158 17.79C75.4958 18.03 75.6391 18.3433 75.6458 18.73V22H74.2458V19.25C74.2391 19.0567 74.1858 18.9033 74.0858 18.79C73.9924 18.67 73.8324 18.61 73.6058 18.61C73.3924 18.61 73.2058 18.68 73.0458 18.82C72.8858 18.96 72.7624 19.15 72.6758 19.39C72.5891 19.63 72.5458 19.9067 72.5458 20.22V22H71.1458V17.63H72.4158ZM80.7933 21.61C80.5999 21.7633 80.3566 21.8867 80.0633 21.98C79.7766 22.0733 79.4933 22.12 79.2133 22.12C78.7133 22.12 78.2766 22.03 77.9033 21.85C77.5366 21.6633 77.2499 21.4 77.0433 21.06C76.8433 20.7133 76.7433 20.2967 76.7433 19.81C76.7433 19.3233 76.8533 18.91 77.0733 18.57C77.2933 18.2233 77.5799 17.96 77.9333 17.78C78.2933 17.6 78.6699 17.51 79.0633 17.51C79.4566 17.51 79.7966 17.5633 80.0833 17.67C80.3766 17.7767 80.6266 17.9167 80.8333 18.09L80.1533 18.99C80.0599 18.9167 79.9299 18.8433 79.7633 18.77C79.6033 18.69 79.4133 18.65 79.1933 18.65C78.9999 18.65 78.8233 18.7 78.6633 18.8C78.5033 18.9 78.3766 19.0367 78.2833 19.21C78.1899 19.3833 78.1433 19.5833 78.1433 19.81C78.1433 20.0233 78.1933 20.22 78.2933 20.4C78.3933 20.58 78.5299 20.7233 78.7033 20.83C78.8833 20.93 79.0933 20.98 79.3333 20.98C79.4866 20.98 79.6266 20.96 79.7533 20.92C79.8866 20.8733 79.9999 20.81 80.0933 20.73L80.7933 21.61ZM84.0184 22.12C83.4851 22.12 83.0318 22.02 82.6584 21.82C82.2918 21.62 82.0118 21.3433 81.8184 20.99C81.6251 20.6367 81.5284 20.23 81.5284 19.77C81.5284 19.33 81.6418 18.9333 81.8684 18.58C82.0951 18.2267 82.3984 17.9467 82.7784 17.74C83.1584 17.5267 83.5818 17.42 84.0484 17.42C84.6751 17.42 85.1884 17.6033 85.5884 17.97C85.9951 18.33 86.2584 18.8533 86.3784 19.54L82.9784 20.62L82.6684 19.86L85.1284 19.03L84.8384 19.16C84.7851 18.9867 84.6884 18.8367 84.5484 18.71C84.4151 18.5767 84.2118 18.51 83.9384 18.51C83.7318 18.51 83.5484 18.56 83.3884 18.66C83.2351 18.7533 83.1151 18.89 83.0284 19.07C82.9484 19.2433 82.9084 19.45 82.9084 19.69C82.9084 19.9633 82.9584 20.1933 83.0584 20.38C83.1584 20.56 83.2951 20.6967 83.4684 20.79C83.6418 20.8833 83.8351 20.93 84.0484 20.93C84.2018 20.93 84.3484 20.9033 84.4884 20.85C84.6351 20.7967 84.7784 20.7267 84.9184 20.64L85.5384 21.68C85.3051 21.8133 85.0518 21.92 84.7784 22C84.5118 22.08 84.2584 22.12 84.0184 22.12ZM90.1358 22.12C89.8758 22.12 89.6191 22.0733 89.3658 21.98C89.1191 21.88 88.9124 21.74 88.7458 21.56L88.7858 21.15V24.1H87.3958V17.53H88.5958L88.7958 18.38L88.6858 18.08C88.9124 17.8867 89.1658 17.7267 89.4458 17.6C89.7258 17.4733 90.0491 17.41 90.4158 17.41C90.8224 17.41 91.1858 17.5067 91.5058 17.7C91.8258 17.8867 92.0758 18.16 92.2558 18.52C92.4424 18.8733 92.5358 19.3 92.5358 19.8C92.5358 20.2933 92.4324 20.7133 92.2258 21.06C92.0191 21.4067 91.7358 21.67 91.3758 21.85C91.0158 22.03 90.6024 22.12 90.1358 22.12ZM89.8558 21.02C90.0824 21.02 90.2891 20.97 90.4758 20.87C90.6691 20.77 90.8224 20.63 90.9358 20.45C91.0558 20.2633 91.1158 20.0533 91.1158 19.82C91.1158 19.5733 91.0624 19.36 90.9558 19.18C90.8558 18.9933 90.7158 18.85 90.5358 18.75C90.3624 18.6433 90.1691 18.59 89.9558 18.59C89.7691 18.59 89.6024 18.6167 89.4558 18.67C89.3158 18.7167 89.1891 18.79 89.0758 18.89C88.9691 18.9833 88.8758 19.1033 88.7958 19.25V20.32C88.8491 20.46 88.9258 20.5833 89.0258 20.69C89.1258 20.7967 89.2458 20.88 89.3858 20.94C89.5324 20.9933 89.6891 21.02 89.8558 21.02ZM94.046 15.71H95.446V17.61H96.506V18.7H95.446V22H94.046V18.7H93.366V17.61H94.046V15.71ZM103.214 14.64C103.98 14.64 104.59 14.7967 105.044 15.11C105.497 15.4167 105.724 15.8767 105.724 16.49C105.724 16.9433 105.61 17.3233 105.384 17.63C105.164 17.93 104.86 18.1567 104.474 18.31C104.094 18.4567 103.657 18.53 103.164 18.53L102.934 17.75C103.54 17.75 104.077 17.8333 104.544 18C105.017 18.1667 105.39 18.4067 105.664 18.72C105.937 19.0267 106.074 19.3967 106.074 19.83C106.074 20.23 106 20.57 105.854 20.85C105.714 21.1233 105.52 21.3467 105.274 21.52C105.034 21.6867 104.76 21.81 104.454 21.89C104.147 21.9633 103.83 22 103.504 22H101.054V14.64H103.214ZM103.384 17.65C103.67 17.65 103.88 17.5633 104.014 17.39C104.154 17.2167 104.224 17.02 104.224 16.8C104.224 16.5467 104.137 16.3567 103.964 16.23C103.797 16.1033 103.57 16.04 103.284 16.04H102.504V17.65H103.384ZM103.434 20.65C103.647 20.65 103.84 20.6233 104.014 20.57C104.187 20.51 104.324 20.42 104.424 20.3C104.524 20.1733 104.574 20.0167 104.574 19.83C104.574 19.6167 104.514 19.4567 104.394 19.35C104.274 19.2367 104.117 19.16 103.924 19.12C103.737 19.0733 103.54 19.05 103.334 19.05H102.504V20.65H103.434ZM109.138 22.12C108.731 22.12 108.361 22.04 108.028 21.88C107.701 21.7133 107.441 21.46 107.248 21.12C107.055 20.78 106.958 20.3467 106.958 19.82C106.958 19.3267 107.058 18.9 107.258 18.54C107.458 18.18 107.721 17.9033 108.048 17.71C108.375 17.51 108.721 17.41 109.088 17.41C109.521 17.41 109.848 17.4833 110.068 17.63C110.295 17.77 110.481 17.9267 110.628 18.1L110.568 18.27L110.698 17.63H111.998V22H110.598V21.05L110.708 21.35C110.695 21.35 110.655 21.39 110.588 21.47C110.521 21.5433 110.421 21.6333 110.288 21.74C110.161 21.84 110.001 21.9267 109.808 22C109.621 22.08 109.398 22.12 109.138 22.12ZM109.538 20.98C109.705 20.98 109.855 20.9567 109.988 20.91C110.121 20.8567 110.238 20.7833 110.338 20.69C110.438 20.59 110.525 20.4667 110.598 20.32V19.25C110.545 19.1033 110.465 18.98 110.358 18.88C110.251 18.7733 110.125 18.6933 109.978 18.64C109.831 18.58 109.668 18.55 109.488 18.55C109.288 18.55 109.101 18.6033 108.928 18.71C108.761 18.81 108.628 18.95 108.528 19.13C108.428 19.31 108.378 19.5167 108.378 19.75C108.378 19.9833 108.431 20.1933 108.538 20.38C108.645 20.5667 108.785 20.7133 108.958 20.82C109.138 20.9267 109.331 20.98 109.538 20.98ZM114.861 22.09C114.501 22.09 114.164 22.0267 113.851 21.9C113.544 21.7733 113.284 21.5967 113.071 21.37L113.651 20.6C113.864 20.7933 114.061 20.9333 114.241 21.02C114.427 21.1 114.594 21.14 114.741 21.14C114.854 21.14 114.954 21.13 115.041 21.11C115.134 21.0833 115.207 21.0467 115.261 21C115.314 20.9467 115.341 20.88 115.341 20.8C115.341 20.6867 115.294 20.5967 115.201 20.53C115.114 20.4633 115.001 20.41 114.861 20.37C114.721 20.3233 114.571 20.2767 114.411 20.23C114.011 20.1033 113.721 19.92 113.541 19.68C113.367 19.4333 113.281 19.1667 113.281 18.88C113.281 18.66 113.337 18.44 113.451 18.22C113.571 17.9933 113.757 17.8067 114.011 17.66C114.271 17.5067 114.604 17.43 115.011 17.43C115.377 17.43 115.687 17.4667 115.941 17.54C116.194 17.6133 116.434 17.7333 116.661 17.9L116.131 18.72C116.004 18.62 115.861 18.5367 115.701 18.47C115.547 18.3967 115.404 18.3567 115.271 18.35C115.151 18.3433 115.047 18.3567 114.961 18.39C114.881 18.4233 114.817 18.4667 114.771 18.52C114.724 18.5733 114.701 18.63 114.701 18.69C114.694 18.8167 114.741 18.9167 114.841 18.99C114.947 19.0633 115.081 19.12 115.241 19.16C115.401 19.2 115.557 19.2467 115.711 19.3C115.924 19.3667 116.107 19.4567 116.261 19.57C116.414 19.6833 116.531 19.82 116.611 19.98C116.697 20.1333 116.741 20.32 116.741 20.54C116.741 20.8067 116.671 21.06 116.531 21.3C116.397 21.5333 116.191 21.7233 115.911 21.87C115.637 22.0167 115.287 22.09 114.861 22.09ZM120.063 22.12C119.53 22.12 119.077 22.02 118.703 21.82C118.337 21.62 118.057 21.3433 117.863 20.99C117.67 20.6367 117.573 20.23 117.573 19.77C117.573 19.33 117.687 18.9333 117.913 18.58C118.14 18.2267 118.443 17.9467 118.823 17.74C119.203 17.5267 119.627 17.42 120.093 17.42C120.72 17.42 121.233 17.6033 121.633 17.97C122.04 18.33 122.303 18.8533 122.423 19.54L119.023 20.62L118.713 19.86L121.173 19.03L120.883 19.16C120.83 18.9867 120.733 18.8367 120.593 18.71C120.46 18.5767 120.257 18.51 119.983 18.51C119.777 18.51 119.593 18.56 119.433 18.66C119.28 18.7533 119.16 18.89 119.073 19.07C118.993 19.2433 118.953 19.45 118.953 19.69C118.953 19.9633 119.003 20.1933 119.103 20.38C119.203 20.56 119.34 20.6967 119.513 20.79C119.687 20.8833 119.88 20.93 120.093 20.93C120.247 20.93 120.393 20.9033 120.533 20.85C120.68 20.7967 120.823 20.7267 120.963 20.64L121.583 21.68C121.35 21.8133 121.097 21.92 120.823 22C120.557 22.08 120.303 22.12 120.063 22.12ZM125.221 22.12C124.814 22.12 124.451 22.0267 124.131 21.84C123.811 21.6467 123.557 21.37 123.371 21.01C123.191 20.65 123.101 20.2233 123.101 19.73C123.101 19.2367 123.201 18.8167 123.401 18.47C123.601 18.1233 123.874 17.86 124.221 17.68C124.567 17.5 124.961 17.41 125.401 17.41C125.681 17.41 125.947 17.4533 126.201 17.54C126.461 17.6267 126.677 17.76 126.851 17.94V18.38V14.11H128.241V22H126.841V21.15L126.951 21.45C126.724 21.6367 126.471 21.7967 126.191 21.93C125.911 22.0567 125.587 22.12 125.221 22.12ZM125.681 20.94C125.867 20.94 126.031 20.9167 126.171 20.87C126.317 20.8167 126.444 20.7433 126.551 20.65C126.664 20.55 126.761 20.4267 126.841 20.28V19.21C126.787 19.0633 126.704 18.94 126.591 18.84C126.484 18.7333 126.351 18.6533 126.191 18.6C126.037 18.54 125.867 18.51 125.681 18.51C125.474 18.51 125.281 18.5633 125.101 18.67C124.927 18.77 124.787 18.91 124.681 19.09C124.574 19.27 124.521 19.4767 124.521 19.71C124.521 19.9433 124.574 20.1533 124.681 20.34C124.787 20.5267 124.927 20.6733 125.101 20.78C125.281 20.8867 125.474 20.94 125.681 20.94Z" fill="#0E2483" fill-opacity="0.98"/>
<path d="M56.45 28.64H61.41V30.04H59.62V36H58.17V30.04H56.45V28.64ZM63.7235 36.12C63.1902 36.12 62.7368 36.02 62.3635 35.82C61.9968 35.62 61.7168 35.3433 61.5235 34.99C61.3302 34.6367 61.2335 34.23 61.2335 33.77C61.2335 33.33 61.3468 32.9333 61.5735 32.58C61.8002 32.2267 62.1035 31.9467 62.4835 31.74C62.8635 31.5267 63.2868 31.42 63.7535 31.42C64.3802 31.42 64.8935 31.6033 65.2935 31.97C65.7002 32.33 65.9635 32.8533 66.0835 33.54L62.6835 34.62L62.3735 33.86L64.8335 33.03L64.5435 33.16C64.4902 32.9867 64.3935 32.8367 64.2535 32.71C64.1202 32.5767 63.9168 32.51 63.6435 32.51C63.4368 32.51 63.2535 32.56 63.0935 32.66C62.9402 32.7533 62.8202 32.89 62.7335 33.07C62.6535 33.2433 62.6135 33.45 62.6135 33.69C62.6135 33.9633 62.6635 34.1933 62.7635 34.38C62.8635 34.56 63.0002 34.6967 63.1735 34.79C63.3468 34.8833 63.5402 34.93 63.7535 34.93C63.9068 34.93 64.0535 34.9033 64.1935 34.85C64.3402 34.7967 64.4835 34.7267 64.6235 34.64L65.2435 35.68C65.0102 35.8133 64.7568 35.92 64.4835 36C64.2168 36.08 63.9635 36.12 63.7235 36.12ZM68.5209 36.09C68.1609 36.09 67.8242 36.0267 67.5109 35.9C67.2042 35.7733 66.9442 35.5967 66.7309 35.37L67.3109 34.6C67.5242 34.7933 67.7209 34.9333 67.9009 35.02C68.0875 35.1 68.2542 35.14 68.4009 35.14C68.5142 35.14 68.6142 35.13 68.7009 35.11C68.7942 35.0833 68.8675 35.0467 68.9209 35C68.9742 34.9467 69.0009 34.88 69.0009 34.8C69.0009 34.6867 68.9542 34.5967 68.8609 34.53C68.7742 34.4633 68.6609 34.41 68.5209 34.37C68.3809 34.3233 68.2309 34.2767 68.0709 34.23C67.6709 34.1033 67.3809 33.92 67.2009 33.68C67.0275 33.4333 66.9409 33.1667 66.9409 32.88C66.9409 32.66 66.9975 32.44 67.1109 32.22C67.2309 31.9933 67.4175 31.8067 67.6709 31.66C67.9309 31.5067 68.2642 31.43 68.6709 31.43C69.0375 31.43 69.3475 31.4667 69.6009 31.54C69.8542 31.6133 70.0942 31.7333 70.3209 31.9L69.7909 32.72C69.6642 32.62 69.5209 32.5367 69.3609 32.47C69.2075 32.3967 69.0642 32.3567 68.9309 32.35C68.8109 32.3433 68.7075 32.3567 68.6209 32.39C68.5409 32.4233 68.4775 32.4667 68.4309 32.52C68.3842 32.5733 68.3609 32.63 68.3609 32.69C68.3542 32.8167 68.4009 32.9167 68.5009 32.99C68.6075 33.0633 68.7409 33.12 68.9009 33.16C69.0609 33.2 69.2175 33.2467 69.3709 33.3C69.5842 33.3667 69.7675 33.4567 69.9209 33.57C70.0742 33.6833 70.1909 33.82 70.2709 33.98C70.3575 34.1333 70.4009 34.32 70.4009 34.54C70.4009 34.8067 70.3309 35.06 70.1909 35.3C70.0575 35.5333 69.8509 35.7233 69.5709 35.87C69.2975 36.0167 68.9475 36.09 68.5209 36.09ZM71.9835 29.71H73.3835V31.61H74.4435V32.7H73.3835V36H71.9835V32.7H71.3035V31.61H71.9835V29.71ZM76.9291 36.09C76.5691 36.09 76.2324 36.0267 75.9191 35.9C75.6124 35.7733 75.3524 35.5967 75.1391 35.37L75.7191 34.6C75.9324 34.7933 76.1291 34.9333 76.3091 35.02C76.4957 35.1 76.6624 35.14 76.8091 35.14C76.9224 35.14 77.0224 35.13 77.1091 35.11C77.2024 35.0833 77.2757 35.0467 77.3291 35C77.3824 34.9467 77.4091 34.88 77.4091 34.8C77.4091 34.6867 77.3624 34.5967 77.2691 34.53C77.1824 34.4633 77.0691 34.41 76.9291 34.37C76.7891 34.3233 76.6391 34.2767 76.4791 34.23C76.0791 34.1033 75.7891 33.92 75.6091 33.68C75.4357 33.4333 75.3491 33.1667 75.3491 32.88C75.3491 32.66 75.4057 32.44 75.5191 32.22C75.6391 31.9933 75.8257 31.8067 76.0791 31.66C76.3391 31.5067 76.6724 31.43 77.0791 31.43C77.4457 31.43 77.7557 31.4667 78.0091 31.54C78.2624 31.6133 78.5024 31.7333 78.7291 31.9L78.1991 32.72C78.0724 32.62 77.9291 32.5367 77.7691 32.47C77.6157 32.3967 77.4724 32.3567 77.3391 32.35C77.2191 32.3433 77.1157 32.3567 77.0291 32.39C76.9491 32.4233 76.8857 32.4667 76.8391 32.52C76.7924 32.5733 76.7691 32.63 76.7691 32.69C76.7624 32.8167 76.8091 32.9167 76.9091 32.99C77.0157 33.0633 77.1491 33.12 77.3091 33.16C77.4691 33.2 77.6257 33.2467 77.7791 33.3C77.9924 33.3667 78.1757 33.4567 78.3291 33.57C78.4824 33.6833 78.5991 33.82 78.6791 33.98C78.7657 34.1333 78.8091 34.32 78.8091 34.54C78.8091 34.8067 78.7391 35.06 78.5991 35.3C78.4657 35.5333 78.2591 35.7233 77.9791 35.87C77.7057 36.0167 77.3557 36.09 76.9291 36.09ZM82.8337 28.69H84.5337L86.1037 33.31L85.8737 33.21L87.2437 29.8L87.9137 31.79L85.7937 36.34L82.8337 28.69ZM86.5237 28.69H87.9637L89.7737 33.16L89.5137 33.12L90.8637 28.69H92.4237L89.5837 36.32L86.5237 28.69ZM92.2296 33.76C92.2296 33.3133 92.3329 32.9133 92.5396 32.56C92.7529 32.2067 93.0496 31.93 93.4296 31.73C93.8096 31.5233 94.2463 31.42 94.7396 31.42C95.2396 31.42 95.6729 31.5233 96.0396 31.73C96.4063 31.93 96.6863 32.2067 96.8796 32.56C97.0796 32.9133 97.1796 33.3133 97.1796 33.76C97.1796 34.2067 97.0796 34.61 96.8796 34.97C96.6863 35.3233 96.4063 35.6033 96.0396 35.81C95.6729 36.0167 95.2329 36.12 94.7196 36.12C94.2396 36.12 93.8096 36.0267 93.4296 35.84C93.0563 35.6533 92.7629 35.3833 92.5496 35.03C92.3363 34.6767 92.2296 34.2533 92.2296 33.76ZM93.6396 33.77C93.6396 33.9967 93.6863 34.2033 93.7796 34.39C93.8729 34.57 93.9996 34.7133 94.1596 34.82C94.3196 34.9267 94.4996 34.98 94.6996 34.98C94.9196 34.98 95.1096 34.9267 95.2696 34.82C95.4296 34.7133 95.5529 34.57 95.6396 34.39C95.7263 34.2033 95.7696 33.9967 95.7696 33.77C95.7696 33.5367 95.7263 33.33 95.6396 33.15C95.5529 32.97 95.4296 32.8267 95.2696 32.72C95.1096 32.6133 94.9196 32.56 94.6996 32.56C94.4996 32.56 94.3196 32.6133 94.1596 32.72C93.9996 32.8267 93.8729 32.97 93.7796 33.15C93.6863 33.33 93.6396 33.5367 93.6396 33.77ZM99.5425 31.63L99.6725 32.83L99.6425 32.65C99.7692 32.39 99.9425 32.17 100.163 31.99C100.383 31.8033 100.599 31.66 100.813 31.56C101.033 31.46 101.199 31.41 101.313 31.41L101.243 32.81C100.916 32.77 100.636 32.8233 100.403 32.97C100.169 33.1167 99.9892 33.31 99.8625 33.55C99.7358 33.79 99.6725 34.0367 99.6725 34.29V36H98.2825V31.63H99.5425ZM102.384 36V28.11H103.784V36H102.384ZM104.894 33.03L106.874 36H105.244L103.974 33.83L104.894 33.03ZM103.364 34.79L103.224 33.46L105.864 31.52L106.714 32.27L103.364 34.79Z" fill="#0E2483" fill-opacity="0.98"/>
<defs>
<filter id="filter0_d_3617_128" x="0" y="44" width="163" height="35" filterUnits="userSpaceOnUse" color-interpolation-filters="sRGB">
<feFlood flood-opacity="0" result="BackgroundImageFix"/>
<feColorMatrix in="SourceAlpha" type="matrix" values="0 0 0 0 0 0 0 0 0 0 0 0 0 0 0 0 0 0 127 0" result="hardAlpha"/>
<feOffset dy="4"/>
<feGaussianBlur stdDeviation="2"/>
<feComposite in2="hardAlpha" operator="out"/>
<feColorMatrix type="matrix" values="0 0 0 0 0 0 0 0 0 0 0 0 0 0 0 0 0 0 0.25 0"/>
<feBlend mode="normal" in2="BackgroundImageFix" result="effect1_dropShadow_3617_128"/>
<feBlend mode="normal" in="SourceGraphic" in2="effect1_dropShadow_3617_128" result="shape"/>
</filter>
<filter id="filter1_d_3617_128" x="45.9902" y="52.35" width="79.7812" height="15.99" filterUnits="userSpaceOnUse" color-interpolation-filters="sRGB">
<feFlood flood-opacity="0" result="BackgroundImageFix"/>
<feColorMatrix in="SourceAlpha" type="matrix" values="0 0 0 0 0 0 0 0 0 0 0 0 0 0 0 0 0 0 127 0" result="hardAlpha"/>
<feOffset dy="4"/>
<feGaussianBlur stdDeviation="2"/>
<feComposite in2="hardAlpha" operator="out"/>
<feColorMatrix type="matrix" values="0 0 0 0 0 0 0 0 0 0 0 0 0 0 0 0 0 0 0.25 0"/>
<feBlend mode="normal" in2="BackgroundImageFix" result="effect1_dropShadow_3617_128"/>
<feBlend mode="normal" in="SourceGraphic" in2="effect1_dropShadow_3617_128" result="shape"/>
</filter>
<filter id="filter2_dd_3617_128" x="24" y="50" width="21" height="21" filterUnits="userSpaceOnUse" color-interpolation-filters="sRGB">
<feFlood flood-opacity="0" result="BackgroundImageFix"/>
<feColorMatrix in="SourceAlpha" type="matrix" values="0 0 0 0 0 0 0 0 0 0 0 0 0 0 0 0 0 0 127 0" result="hardAlpha"/>
<feOffset dy="4"/>
<feGaussianBlur stdDeviation="2"/>
<feComposite in2="hardAlpha" operator="out"/>
<feColorMatrix type="matrix" values="0 0 0 0 0 0 0 0 0 0 0 0 0 0 0 0 0 0 0.25 0"/>
<feBlend mode="normal" in2="BackgroundImageFix" result="effect1_dropShadow_3617_128"/>
<feColorMatrix in="SourceAlpha" type="matrix" values="0 0 0 0 0 0 0 0 0 0 0 0 0 0 0 0 0 0 127 0" result="hardAlpha"/>
<feOffset dy="4"/>
<feGaussianBlur stdDeviation="2"/>
<feComposite in2="hardAlpha" operator="out"/>
<feColorMatrix type="matrix" values="0 0 0 0 0 0 0 0 0 0 0 0 0 0 0 0 0 0 0.25 0"/>
<feBlend mode="normal" in2="effect1_dropShadow_3617_128" result="effect2_dropShadow_3617_128"/>
<feBlend mode="normal" in="SourceGraphic" in2="effect2_dropShadow_3617_128" result="shape"/>
</filter>
</defs>
</svg>
