<svg width="90" height="65" viewBox="0 0 90 65" fill="none" xmlns="http://www.w3.org/2000/svg">
    <g filter="url(#filter0_b_0_1)">
        <path d="M17.7038 17.6173C17.3123 14.9322 19.134 12.425 21.8086 11.9676L44.1505 8.14685C44.7187 8.04968 45.2995 8.0515 45.867 8.15223L67.2883 11.9538C69.9233 12.4214 71.7229 14.8808 71.3713 17.5337L67.4401 47.1961C67.2703 48.4775 66.6108 49.6433 65.6 50.449L58.0088 56.5L47.74 63.2145C46.0805 64.2995 43.9367 64.3016 42.2752 63.2196L31.9561 56.5L23.9407 50.4303C22.8938 49.6376 22.2008 48.4649 22.0114 47.1655L17.7038 17.6173Z" fill="url(#paint0_linear_0_1)" style="mix-blend-mode:darken" />
        <path d="M18.1985 17.5452C17.8462 15.1286 19.4857 12.8721 21.8929 12.4604L44.2348 8.6397C44.7462 8.55224 45.2689 8.55388 45.7797 8.64453L67.2009 12.4461C69.5724 12.8669 71.1921 15.0804 70.8756 17.4681L66.9445 47.1304C66.7916 48.2837 66.1981 49.3329 65.2884 50.0581L57.7155 56.0944L47.4663 62.796C45.9728 63.7726 44.0434 63.7744 42.548 62.8006L32.2438 56.0907L24.2425 50.0317C23.3003 49.3183 22.6767 48.2629 22.5062 47.0934L18.1985 17.5452Z" stroke="url(#paint1_linear_0_1)" />
    </g>
    <g filter="url(#filter1_d_0_1)">
        <path d="M22.8065 13.3652C21.9006 10.173 24.2983 7 27.6166 7H61.6211C64.8661 7 67.2515 10.0432 66.4764 13.1943L57.6213 49.1943C57.0716 51.4291 55.0674 53 52.766 53H37.834C35.5983 53 33.6343 51.5159 33.0239 49.3652L22.8065 13.3652Z" fill="url(#paint2_linear_0_1)" shape-rendering="crispEdges" />
    </g>
    <g filter="url(#filter2_d_0_1)">
        <path d="M26.2541 6.01978C25.6073 2.91487 27.9775 0 31.149 0H58.0164C61.1334 0 63.4907 2.82097 62.9368 5.88841L55.3535 47.8884C54.9237 50.2687 52.8518 52 50.433 52H39.899C37.5306 52 35.4872 50.3384 35.0041 48.0198L26.2541 6.01978Z" fill="url(#paint3_linear_0_1)" shape-rendering="crispEdges" />
    </g>
    <g filter="url(#filter3_d_0_1)">
        <path d="M7.136 46.668H10.736L11.096 48H12.932L10.376 39.156L4.22 48H6.224L7.136 46.668ZM9.74 42.876L10.34 45.096H8.192L9.74 42.876ZM18.9588 48L19.3068 46.32H16.0428L17.4108 39.636H15.5508L13.8468 48H18.9588ZM25.1932 48L25.5412 46.32H22.2772L23.6452 39.636H21.7852L20.0812 48H25.1932ZM28.1756 48L28.7396 45.216H30.0596L31.2356 48H33.2396L31.9076 44.94C32.4956 44.712 32.9636 44.34 33.3236 43.812C33.6836 43.284 33.8636 42.72 33.8636 42.12C33.8636 41.4 33.6116 40.812 33.1196 40.344C32.6276 39.876 32.0036 39.636 31.2356 39.636H28.0196L26.3156 48H28.1756ZM29.5316 41.316H30.9236C31.5476 41.316 31.9916 41.748 31.9916 42.336C31.9916 42.66 31.8596 42.96 31.5956 43.224C31.3316 43.476 31.0076 43.608 30.6236 43.608H29.0636L29.5316 41.316ZM34.3985 44.292C34.3985 45.432 34.7945 46.356 35.5985 47.088C36.4025 47.808 37.4225 48.168 38.6585 48.168C40.0745 48.168 41.2625 47.688 42.2105 46.728C43.1585 45.768 43.6385 44.664 43.6385 43.416C43.6385 42.276 43.2425 41.34 42.4385 40.608C41.6345 39.876 40.6145 39.504 39.3785 39.504C38.4785 39.504 37.6385 39.732 36.8585 40.176C36.0905 40.62 35.4905 41.22 35.0465 41.952C34.6145 42.684 34.3985 43.464 34.3985 44.292ZM36.2345 44.148C36.2345 43.368 36.5345 42.672 37.1345 42.072C37.7345 41.472 38.4425 41.172 39.2705 41.172C40.0265 41.172 40.6265 41.4 41.0945 41.844C41.5625 42.288 41.8025 42.864 41.8025 43.572C41.8025 44.328 41.5025 45.012 40.9145 45.612C40.3265 46.2 39.6065 46.5 38.7665 46.5C38.0105 46.5 37.3985 46.284 36.9305 45.852C36.4625 45.408 36.2345 44.844 36.2345 44.148ZM44.4566 45.084C44.4566 46.2 44.9126 47.064 45.5846 47.508C46.2566 47.94 46.9766 48.132 47.7086 48.132C49.9046 48.132 51.1646 47.016 51.6326 44.724L52.6646 39.636H50.8166L49.7966 44.64C49.5446 45.852 48.9086 46.452 47.8646 46.452C46.8566 46.452 46.2806 45.912 46.2806 45.012C46.2806 44.844 46.2926 44.7 46.3046 44.592L47.3246 39.636H45.4646L44.5766 43.992C44.4926 44.424 44.4566 44.784 44.4566 45.084ZM54.3547 48L55.3267 43.164L59.8867 48.324L61.6627 39.636H59.8267L58.8307 44.484L54.2947 39.312L52.5187 48H54.3547ZM65.537 48C68.237 48 70.157 45.708 70.157 43.392C70.157 42.3 69.797 41.4 69.065 40.692C68.333 39.984 67.397 39.636 66.245 39.636H63.293L61.589 48H65.537ZM64.805 41.328H66.065C66.725 41.328 67.265 41.544 67.661 41.964C68.069 42.384 68.273 42.924 68.273 43.584C68.273 44.292 68.009 44.928 67.481 45.492C66.965 46.044 66.329 46.32 65.573 46.32H63.785L64.805 41.328ZM76.2444 48L76.5924 46.32H72.6564L73.0164 44.532H76.6164L76.9404 42.888H73.3404L73.6644 41.316H77.5164L77.8644 39.636H72.1524L70.4484 48H76.2444ZM79.4685 48L80.0325 45.216H81.3525L82.5285 48H84.5325L83.2005 44.94C83.7885 44.712 84.2565 44.34 84.6165 43.812C84.9765 43.284 85.1565 42.72 85.1565 42.12C85.1565 41.4 84.9045 40.812 84.4125 40.344C83.9205 39.876 83.2965 39.636 82.5285 39.636H79.3125L77.6085 48H79.4685ZM80.8245 41.316H82.2165C82.8405 41.316 83.2845 41.748 83.2845 42.336C83.2845 42.66 83.1525 42.96 82.8885 43.224C82.6245 43.476 82.3005 43.608 81.9165 43.608H80.3565L80.8245 41.316Z" fill="url(#paint4_radial_0_1)" />
        <path d="M7.136 46.668V45.668H6.60875L6.31088 46.103L7.136 46.668ZM10.736 46.668L11.7014 46.4071L11.5016 45.668H10.736V46.668ZM11.096 48L10.1306 48.2609L10.3304 49H11.096V48ZM12.932 48V49H14.2619L13.8927 47.7224L12.932 48ZM10.376 39.156L11.3367 38.8784L10.7541 36.8624L9.55525 38.5847L10.376 39.156ZM4.22 48L3.39925 47.4287L2.30553 49H4.22V48ZM6.224 48V49H6.75125L7.04912 48.5649L6.224 48ZM9.74 42.876L10.7054 42.6151L10.146 40.5454L8.91973 42.304L9.74 42.876ZM10.34 45.096V46.096H11.6462L11.3054 44.8351L10.34 45.096ZM8.192 45.096L7.37173 44.524L6.27559 46.096H8.192V45.096ZM7.136 47.668H10.736V45.668H7.136V47.668ZM9.77064 46.9289L10.1306 48.2609L12.0614 47.7391L11.7014 46.4071L9.77064 46.9289ZM11.096 49H12.932V47H11.096V49ZM13.8927 47.7224L11.3367 38.8784L9.41532 39.4336L11.9713 48.2776L13.8927 47.7224ZM9.55525 38.5847L3.39925 47.4287L5.04075 48.5713L11.1967 39.7273L9.55525 38.5847ZM4.22 49H6.224V47H4.22V49ZM7.04912 48.5649L7.96112 47.233L6.31088 46.103L5.39888 47.4351L7.04912 48.5649ZM8.77464 43.1369L9.37464 45.3569L11.3054 44.8351L10.7054 42.6151L8.77464 43.1369ZM10.34 44.096H8.192V46.096H10.34V44.096ZM9.01227 45.668L10.5603 43.448L8.91973 42.304L7.37173 44.524L9.01227 45.668ZM18.9588 48V49H19.7729L19.938 48.2028L18.9588 48ZM19.3068 46.32L20.286 46.5228L20.5352 45.32H19.3068V46.32ZM16.0428 46.32L15.0631 46.1195L14.8174 47.32H16.0428V46.32ZM17.4108 39.636L18.3905 39.8365L18.6362 38.636H17.4108V39.636ZM15.5508 39.636V38.636H14.734L14.5709 39.4364L15.5508 39.636ZM13.8468 48L12.8669 47.8004L12.6225 49H13.8468V48ZM19.938 48.2028L20.286 46.5228L18.3276 46.1172L17.9796 47.7972L19.938 48.2028ZM19.3068 45.32H16.0428V47.32H19.3068V45.32ZM17.0225 46.5205L18.3905 39.8365L16.4311 39.4355L15.0631 46.1195L17.0225 46.5205ZM17.4108 38.636H15.5508V40.636H17.4108V38.636ZM14.5709 39.4364L12.8669 47.8004L14.8267 48.1996L16.5307 39.8356L14.5709 39.4364ZM13.8468 49H18.9588V47H13.8468V49ZM25.1932 48V49H26.0073L26.1724 48.2028L25.1932 48ZM25.5412 46.32L26.5204 46.5228L26.7696 45.32H25.5412V46.32ZM22.2772 46.32L21.2975 46.1195L21.0518 47.32H22.2772V46.32ZM23.6452 39.636L24.6249 39.8365L24.8706 38.636H23.6452V39.636ZM21.7852 39.636V38.636H20.9684L20.8053 39.4364L21.7852 39.636ZM20.0812 48L19.1013 47.8004L18.8569 49H20.0812V48ZM26.1724 48.2028L26.5204 46.5228L24.562 46.1172L24.214 47.7972L26.1724 48.2028ZM25.5412 45.32H22.2772V47.32H25.5412V45.32ZM23.2569 46.5205L24.6249 39.8365L22.6655 39.4355L21.2975 46.1195L23.2569 46.5205ZM23.6452 38.636H21.7852V40.636H23.6452V38.636ZM20.8053 39.4364L19.1013 47.8004L21.0611 48.1996L22.7651 39.8356L20.8053 39.4364ZM20.0812 49H25.1932V47H20.0812V49ZM28.1756 48V49H28.9933L29.1557 48.1986L28.1756 48ZM28.7396 45.216V44.216H27.9218L27.7595 45.0174L28.7396 45.216ZM30.0596 45.216L30.9807 44.8269L30.7227 44.216H30.0596V45.216ZM31.2356 48L30.3144 48.3891L30.5724 49H31.2356V48ZM33.2396 48V49H34.7655L34.1565 47.6009L33.2396 48ZM31.9076 44.94L31.546 44.0076L30.575 44.3842L30.9907 45.3391L31.9076 44.94ZM33.3236 43.812L34.1498 44.3753V44.3753L33.3236 43.812ZM33.1196 40.344L32.4303 41.0686V41.0686L33.1196 40.344ZM28.0196 39.636V38.636H27.2028L27.0397 39.4364L28.0196 39.636ZM26.3156 48L25.3357 47.8004L25.0913 49H26.3156V48ZM29.5316 41.316V40.316H28.7151L28.5518 41.1159L29.5316 41.316ZM31.5956 43.224L32.286 43.9474L32.2944 43.9393L32.3027 43.9311L31.5956 43.224ZM29.0636 43.608L28.0838 43.4079L27.8387 44.608H29.0636V43.608ZM29.1557 48.1986L29.7197 45.4146L27.7595 45.0174L27.1955 47.8014L29.1557 48.1986ZM28.7396 46.216H30.0596V44.216H28.7396V46.216ZM29.1384 45.6051L30.3144 48.3891L32.1567 47.6109L30.9807 44.8269L29.1384 45.6051ZM31.2356 49H33.2396V47H31.2356V49ZM34.1565 47.6009L32.8245 44.5409L30.9907 45.3391L32.3227 48.3991L34.1565 47.6009ZM32.2691 45.8724C33.0474 45.5706 33.6768 45.0691 34.1498 44.3753L32.4973 43.2487C32.2503 43.6109 31.9437 43.8534 31.546 44.0076L32.2691 45.8724ZM34.1498 44.3753C34.6152 43.6927 34.8636 42.9343 34.8636 42.12H32.8636C32.8636 42.5057 32.7519 42.8753 32.4973 43.2487L34.1498 44.3753ZM34.8636 42.12C34.8636 41.1355 34.506 40.2826 33.8088 39.6194L32.4303 41.0686C32.7172 41.3414 32.8636 41.6645 32.8636 42.12H34.8636ZM33.8088 39.6194C33.1118 38.9564 32.2325 38.636 31.2356 38.636V40.636C31.7746 40.636 32.1434 40.7956 32.4303 41.0686L33.8088 39.6194ZM31.2356 38.636H28.0196V40.636H31.2356V38.636ZM27.0397 39.4364L25.3357 47.8004L27.2954 48.1996L28.9994 39.8356L27.0397 39.4364ZM26.3156 49H28.1756V47H26.3156V49ZM29.5316 42.316H30.9236V40.316H29.5316V42.316ZM30.9236 42.316C30.9637 42.316 30.9863 42.3228 30.9952 42.3262C31.0039 42.3296 31.0034 42.3311 30.9989 42.3268C30.9943 42.3223 30.9909 42.317 30.9895 42.3135C30.988 42.31 30.9916 42.3159 30.9916 42.336H32.9916C32.9916 41.1579 32.0613 40.316 30.9236 40.316V42.316ZM30.9916 42.336C30.9916 42.3591 30.9918 42.4136 30.8885 42.5169L32.3027 43.9311C32.7274 43.5064 32.9916 42.9609 32.9916 42.336H30.9916ZM30.9051 42.5006C30.8294 42.5729 30.7535 42.608 30.6236 42.608V44.608C31.2616 44.608 31.8338 44.3791 32.286 43.9474L30.9051 42.5006ZM30.6236 42.608H29.0636V44.608H30.6236V42.608ZM30.0433 43.8081L30.5113 41.5161L28.5518 41.1159L28.0838 43.4079L30.0433 43.8081ZM35.5985 47.088L34.9253 47.8275L34.9314 47.833L35.5985 47.088ZM42.2105 46.728L41.499 46.0254L42.2105 46.728ZM42.4385 40.608L43.1117 39.8686L42.4385 40.608ZM36.8585 40.176L36.3638 39.3069L36.358 39.3103L36.8585 40.176ZM35.0465 41.952L34.1914 41.4333L34.1853 41.4437L35.0465 41.952ZM37.1345 42.072L37.8416 42.7791L37.1345 42.072ZM40.9145 45.612L41.6216 46.3191L41.6287 46.3119L40.9145 45.612ZM36.9305 45.852L36.2422 46.5775L36.2522 46.5868L36.9305 45.852ZM33.3985 44.292C33.3985 45.6975 33.9016 46.8954 34.9253 47.8274L36.2717 46.3486C35.6874 45.8166 35.3985 45.1665 35.3985 44.292H33.3985ZM34.9314 47.833C35.9454 48.741 37.2145 49.168 38.6585 49.168V47.168C37.6305 47.168 36.8596 46.875 36.2656 46.343L34.9314 47.833ZM38.6585 49.168C40.3258 49.168 41.7752 48.5921 42.922 47.4306L41.499 46.0254C40.7498 46.7839 39.8232 47.168 38.6585 47.168V49.168ZM42.922 47.4306C44.0359 46.3027 44.6385 44.9528 44.6385 43.416H42.6385C42.6385 44.3752 42.2811 45.2333 41.499 46.0254L42.922 47.4306ZM44.6385 43.416C44.6385 42.014 44.1378 40.8028 43.1117 39.8686L41.7653 41.3474C42.3472 41.8772 42.6385 42.538 42.6385 43.416H44.6385ZM43.1117 39.8686C42.1008 38.9482 40.8309 38.504 39.3785 38.504V40.504C40.3981 40.504 41.1682 40.8038 41.7653 41.3474L43.1117 39.8686ZM39.3785 38.504C38.301 38.504 37.291 38.7792 36.3638 39.3069L37.3532 41.0451C37.986 40.6848 38.656 40.504 39.3785 40.504V38.504ZM36.358 39.3103C35.441 39.8404 34.7205 40.5613 34.1915 41.4334L35.9015 42.4706C36.2605 41.8787 36.74 41.3996 37.359 41.0417L36.358 39.3103ZM34.1853 41.4437C33.665 42.3254 33.3985 43.2803 33.3985 44.292H35.3985C35.3985 43.6477 35.564 43.0426 35.9077 42.4603L34.1853 41.4437ZM37.2345 44.148C37.2345 43.6556 37.4127 43.208 37.8416 42.7791L36.4274 41.3649C35.6563 42.136 35.2345 43.0804 35.2345 44.148H37.2345ZM37.8416 42.7791C38.2608 42.3599 38.7171 42.172 39.2705 42.172V40.172C38.1679 40.172 37.2082 40.5841 36.4274 41.3649L37.8416 42.7791ZM39.2705 42.172C39.8059 42.172 40.1483 42.3248 40.4062 42.5695L41.7828 41.1185C41.1047 40.4752 40.2471 40.172 39.2705 40.172V42.172ZM40.4062 42.5695C40.6592 42.8094 40.8025 43.1154 40.8025 43.572H42.8025C42.8025 42.6126 42.4658 41.7666 41.7828 41.1185L40.4062 42.5695ZM40.8025 43.572C40.8025 44.0333 40.6296 44.474 40.2003 44.9121L41.6287 46.3119C42.3754 45.55 42.8025 44.6227 42.8025 43.572H40.8025ZM40.2074 44.9049C39.8069 45.3054 39.3413 45.5 38.7665 45.5V47.5C39.8717 47.5 40.8461 47.0946 41.6216 46.3191L40.2074 44.9049ZM38.7665 45.5C38.212 45.5 37.8584 45.3476 37.6088 45.1172L36.2522 46.5868C36.9386 47.2204 37.809 47.5 38.7665 47.5V45.5ZM37.6188 45.1265C37.3693 44.8899 37.2345 44.5978 37.2345 44.148H35.2345C35.2345 45.0902 35.5557 45.9261 36.2422 46.5775L37.6188 45.1265ZM45.5846 47.508L45.0333 48.3424L45.0438 48.3492L45.5846 47.508ZM51.6326 44.724L52.6123 44.9241L52.6126 44.9228L51.6326 44.724ZM52.6646 39.636L53.6446 39.8348L53.8878 38.636H52.6646V39.636ZM50.8166 39.636V38.636H49.9998L49.8367 39.4363L50.8166 39.636ZM49.7966 44.64L50.7756 44.8436L50.7764 44.8397L49.7966 44.64ZM46.3046 44.592L45.3251 44.3904L45.3158 44.4357L45.3107 44.4816L46.3046 44.592ZM47.3246 39.636L48.304 39.8376L48.5513 38.636H47.3246V39.636ZM45.4646 39.636V38.636H44.6479L44.4847 39.4363L45.4646 39.636ZM44.5766 43.992L43.5967 43.7922L43.5949 43.8011L44.5766 43.992ZM43.4566 45.084C43.4566 46.4656 44.0272 47.6776 45.0333 48.3423L46.1358 46.6737C45.7979 46.4504 45.4566 45.9344 45.4566 45.084H43.4566ZM45.0438 48.3492C45.8843 48.8895 46.7936 49.132 47.7086 49.132V47.132C47.1595 47.132 46.6288 46.9905 46.1253 46.6668L45.0438 48.3492ZM47.7086 49.132C48.9789 49.132 50.0996 48.8058 50.9761 48.0409C51.8426 47.2847 52.3512 46.2032 52.6123 44.9241L50.6528 44.5239C50.446 45.5368 50.0905 46.1593 49.661 46.5341C49.2415 46.9002 48.6342 47.132 47.7086 47.132V49.132ZM52.6126 44.9228L53.6446 39.8348L51.6845 39.4372L50.6525 44.5252L52.6126 44.9228ZM52.6646 38.636H50.8166V40.636H52.6646V38.636ZM49.8367 39.4363L48.8167 44.4403L50.7764 44.8397L51.7964 39.8357L49.8367 39.4363ZM48.8175 44.4364C48.7166 44.9217 48.5637 45.1582 48.4429 45.2716C48.3412 45.3672 48.1827 45.452 47.8646 45.452V47.452C48.5904 47.452 49.272 47.2368 49.8122 46.7294C50.3334 46.2398 50.6245 45.5703 50.7756 44.8436L48.8175 44.4364ZM47.8646 45.452C47.5317 45.452 47.4049 45.3641 47.3703 45.3323C47.3473 45.3113 47.2806 45.2416 47.2806 45.012H45.2806C45.2806 45.6824 45.5018 46.3327 46.0188 46.8067C46.5242 47.2699 47.1894 47.452 47.8646 47.452V45.452ZM47.2806 45.012C47.2806 44.8913 47.2892 44.7858 47.2984 44.7024L45.3107 44.4816C45.2959 44.6142 45.2806 44.7967 45.2806 45.012H47.2806ZM47.284 44.7936L48.304 39.8376L46.3451 39.4344L45.3251 44.3904L47.284 44.7936ZM47.3246 38.636H45.4646V40.636H47.3246V38.636ZM44.4847 39.4363L43.5967 43.7923L45.5564 44.1917L46.4444 39.8357L44.4847 39.4363ZM43.5949 43.8011C43.5017 44.2807 43.4566 44.706 43.4566 45.084H45.4566C45.4566 44.862 45.4834 44.5673 45.5582 44.1829L43.5949 43.8011ZM54.3547 48V49H55.1737L55.3351 48.1971L54.3547 48ZM55.3267 43.164L56.076 42.5018L54.743 40.9934L54.3463 42.9669L55.3267 43.164ZM59.8867 48.324L59.1374 48.9862L60.4649 50.4884L60.8664 48.5243L59.8867 48.324ZM61.6627 39.636L62.6424 39.8363L62.8878 38.636H61.6627V39.636ZM59.8267 39.636V38.636H59.0112L58.8471 39.4348L59.8267 39.636ZM58.8307 44.484L58.0789 45.1434L59.4054 46.6559L59.8102 44.6852L58.8307 44.484ZM54.2947 39.312L55.0465 38.6526L53.7184 37.1383L53.3149 39.1117L54.2947 39.312ZM52.5187 48L51.5389 47.7997L51.2936 49H52.5187V48ZM55.3351 48.1971L56.3071 43.3611L54.3463 42.9669L53.3743 47.8029L55.3351 48.1971ZM54.5774 43.8262L59.1374 48.9862L60.636 47.6618L56.076 42.5018L54.5774 43.8262ZM60.8664 48.5243L62.6424 39.8363L60.6829 39.4357L58.9069 48.1237L60.8664 48.5243ZM61.6627 38.636H59.8267V40.636H61.6627V38.636ZM58.8471 39.4348L57.8511 44.2828L59.8102 44.6852L60.8062 39.8372L58.8471 39.4348ZM59.5825 43.8246L55.0465 38.6526L53.5429 39.9714L58.0789 45.1434L59.5825 43.8246ZM53.3149 39.1117L51.5389 47.7997L53.4984 48.2003L55.2744 39.5123L53.3149 39.1117ZM52.5187 49H54.3547V47H52.5187V49ZM69.065 40.692L68.3698 41.4108V41.4108L69.065 40.692ZM63.293 39.636V38.636H62.4762L62.3131 39.4364L63.293 39.636ZM61.589 48L60.6091 47.8004L60.3647 49H61.589V48ZM64.805 41.328V40.328H63.9887L63.8252 41.1278L64.805 41.328ZM67.661 41.964L66.9334 42.65L66.9385 42.6554L66.9437 42.6608L67.661 41.964ZM67.481 45.492L66.751 44.8086L66.7505 44.8091L67.481 45.492ZM63.785 46.32L62.8052 46.1198L62.56 47.32H63.785V46.32ZM65.537 49C68.8391 49 71.157 46.2091 71.157 43.392H69.157C69.157 45.2069 67.6349 47 65.537 47V49ZM71.157 43.392C71.157 42.0551 70.705 40.887 69.7602 39.9732L68.3698 41.4108C68.889 41.913 69.157 42.5449 69.157 43.392H71.157ZM69.7602 39.9732C68.8151 39.0591 67.6169 38.636 66.245 38.636V40.636C67.1771 40.636 67.8509 40.9089 68.3698 41.4108L69.7602 39.9732ZM66.245 38.636H63.293V40.636H66.245V38.636ZM62.3131 39.4364L60.6091 47.8004L62.5689 48.1996L64.2729 39.8356L62.3131 39.4364ZM61.589 49H65.537V47H61.589V49ZM64.805 42.328H66.065V40.328H64.805V42.328ZM66.065 42.328C66.4913 42.328 66.7532 42.4589 66.9334 42.65L68.3886 41.278C67.7768 40.6291 66.9587 40.328 66.065 40.328V42.328ZM66.9437 42.6608C67.1468 42.8699 67.273 43.1483 67.273 43.584H69.273C69.273 42.6997 68.9912 41.8981 68.3783 41.2672L66.9437 42.6608ZM67.273 43.584C67.273 44.014 67.1228 44.4114 66.751 44.8086L68.211 46.1754C68.8952 45.4446 69.273 44.57 69.273 43.584H67.273ZM66.7505 44.8091C66.4237 45.1587 66.0522 45.32 65.573 45.32V47.32C66.6058 47.32 67.5063 46.9293 68.2115 46.1749L66.7505 44.8091ZM65.573 45.32H63.785V47.32H65.573V45.32ZM64.7648 46.5202L65.7848 41.5282L63.8252 41.1278L62.8052 46.1198L64.7648 46.5202ZM76.2444 48V49H77.0585L77.2236 48.2028L76.2444 48ZM76.5924 46.32L77.5716 46.5228L77.8207 45.32H76.5924V46.32ZM72.6564 46.32L71.676 46.1226L71.435 47.32H72.6564V46.32ZM73.0164 44.532V43.532H72.1976L72.036 44.3346L73.0164 44.532ZM76.6164 44.532V45.532H77.4385L77.5975 44.7254L76.6164 44.532ZM76.9404 42.888L77.9215 43.0814L78.1567 41.888H76.9404V42.888ZM73.3404 42.888L72.361 42.6861L72.1133 43.888H73.3404V42.888ZM73.6644 41.316V40.316H72.8495L72.685 41.1141L73.6644 41.316ZM77.5164 41.316V42.316H78.3305L78.4956 41.5188L77.5164 41.316ZM77.8644 39.636L78.8436 39.8388L79.0927 38.636H77.8644V39.636ZM72.1524 39.636V38.636H71.3356L71.1725 39.4364L72.1524 39.636ZM70.4484 48L69.4685 47.8004L69.2241 49H70.4484V48ZM77.2236 48.2028L77.5716 46.5228L75.6132 46.1172L75.2652 47.7972L77.2236 48.2028ZM76.5924 45.32H72.6564V47.32H76.5924V45.32ZM73.6367 46.5174L73.9967 44.7294L72.036 44.3346L71.676 46.1226L73.6367 46.5174ZM73.0164 45.532H76.6164V43.532H73.0164V45.532ZM77.5975 44.7254L77.9215 43.0814L75.9593 42.6946L75.6352 44.3386L77.5975 44.7254ZM76.9404 41.888H73.3404V43.888H76.9404V41.888ZM74.3198 43.0899L74.6438 41.5179L72.685 41.1141L72.361 42.6861L74.3198 43.0899ZM73.6644 42.316H77.5164V40.316H73.6644V42.316ZM78.4956 41.5188L78.8436 39.8388L76.8852 39.4332L76.5372 41.1132L78.4956 41.5188ZM77.8644 38.636H72.1524V40.636H77.8644V38.636ZM71.1725 39.4364L69.4685 47.8004L71.4282 48.1996L73.1322 39.8356L71.1725 39.4364ZM70.4484 49H76.2444V47H70.4484V49ZM79.4685 48V49H80.2863L80.4486 48.1986L79.4685 48ZM80.0325 45.216V44.216H79.2148L79.0524 45.0174L80.0325 45.216ZM81.3525 45.216L82.2737 44.8269L82.0157 44.216H81.3525V45.216ZM82.5285 48L81.6073 48.3891L81.8654 49H82.5285V48ZM84.5325 48V49H86.0585L85.4494 47.6009L84.5325 48ZM83.2005 44.94L82.839 44.0076L81.868 44.3842L82.2836 45.3391L83.2005 44.94ZM84.6165 43.812L85.4428 44.3753V44.3753L84.6165 43.812ZM84.4125 40.344L83.7233 41.0686V41.0686L84.4125 40.344ZM79.3125 39.636V38.636H78.4957L78.3327 39.4364L79.3125 39.636ZM77.6085 48L76.6287 47.8004L76.3843 49H77.6085V48ZM80.8245 41.316V40.316H80.0081L79.8447 41.1159L80.8245 41.316ZM82.8885 43.224L83.579 43.9474L83.5874 43.9393L83.5956 43.9311L82.8885 43.224ZM80.3565 43.608L79.3767 43.4079L79.1317 44.608H80.3565V43.608ZM80.4486 48.1986L81.0126 45.4146L79.0524 45.0174L78.4884 47.8014L80.4486 48.1986ZM80.0325 46.216H81.3525V44.216H80.0325V46.216ZM80.4313 45.6051L81.6073 48.3891L83.4497 47.6109L82.2737 44.8269L80.4313 45.6051ZM82.5285 49H84.5325V47H82.5285V49ZM85.4494 47.6009L84.1174 44.5409L82.2836 45.3391L83.6156 48.3991L85.4494 47.6009ZM83.5621 45.8724C84.3404 45.5706 84.9698 45.0691 85.4428 44.3753L83.7903 43.2487C83.5433 43.6109 83.2367 43.8534 82.839 44.0076L83.5621 45.8724ZM85.4428 44.3753C85.9082 43.6927 86.1565 42.9343 86.1565 42.12H84.1565C84.1565 42.5057 84.0449 42.8753 83.7903 43.2487L85.4428 44.3753ZM86.1565 42.12C86.1565 41.1355 85.7989 40.2826 85.1017 39.6194L83.7233 41.0686C84.0101 41.3414 84.1565 41.6645 84.1565 42.12H86.1565ZM85.1017 39.6194C84.4047 38.9564 83.5255 38.636 82.5285 38.636V40.636C83.0676 40.636 83.4363 40.7956 83.7233 41.0686L85.1017 39.6194ZM82.5285 38.636H79.3125V40.636H82.5285V38.636ZM78.3327 39.4364L76.6287 47.8004L78.5884 48.1996L80.2924 39.8356L78.3327 39.4364ZM77.6085 49H79.4685V47H77.6085V49ZM80.8245 42.316H82.2165V40.316H80.8245V42.316ZM82.2165 42.316C82.2567 42.316 82.2793 42.3228 82.2881 42.3262C82.2969 42.3296 82.2964 42.3311 82.2919 42.3268C82.2873 42.3223 82.2839 42.317 82.2825 42.3135C82.281 42.31 82.2845 42.3159 82.2845 42.336H84.2845C84.2845 41.1579 83.3543 40.316 82.2165 40.316V42.316ZM82.2845 42.336C82.2845 42.3591 82.2847 42.4136 82.1814 42.5169L83.5956 43.9311C84.0203 43.5064 84.2845 42.9609 84.2845 42.336H82.2845ZM82.1981 42.5006C82.1223 42.5729 82.0465 42.608 81.9165 42.608V44.608C82.5546 44.608 83.1267 44.3791 83.579 43.9474L82.1981 42.5006ZM81.9165 42.608H80.3565V44.608H81.9165V42.608ZM81.3363 43.8081L81.8043 41.5161L79.8447 41.1159L79.3767 43.4079L81.3363 43.8081Z" fill="#681EB1" />
    </g>
    <g filter="url(#filter4_d_0_1)">
        <path d="M43.2 19.73C43.0193 19.537 42.7696 19.4233 42.5053 19.4139C42.2411 19.4046 41.9839 19.5002 41.79 19.68C40.6077 20.7214 39.6588 22.001 39.0057 23.4349C38.3525 24.8687 38.0098 26.4244 38 28C38 28.2652 38.1054 28.5196 38.2929 28.7071C38.4804 28.8946 38.7348 29 39 29C39.2652 29 39.5196 28.8946 39.7071 28.7071C39.8946 28.5196 40 28.2652 40 28C40.0069 26.6983 40.2914 25.413 40.8346 24.23C41.3778 23.047 42.1672 21.9936 43.15 21.14C43.343 20.9593 43.4567 20.7096 43.4661 20.4453C43.4754 20.1811 43.3798 19.9239 43.2 19.73ZM53.37 24.37C52.9975 23.2922 52.4575 22.2798 51.77 21.37C50.7412 20.0372 49.4853 18.8963 48.06 18C50.3 16.57 54 13.4 54 8C54 7.73478 53.8946 7.48043 53.7071 7.29289C53.5196 7.10536 53.2652 7 53 7C52.7348 7 52.4804 7.10536 52.2929 7.29289C52.1054 7.48043 52 7.73478 52 8C52 13.4 47.41 16.17 46 16.89C45.0293 16.3726 44.1258 15.7379 43.31 15H46C46.2652 15 46.5196 14.8946 46.7071 14.7071C46.8946 14.5196 47 14.2652 47 14C47 13.7348 46.8946 13.4804 46.7071 13.2929C46.5196 13.1054 46.2652 13 46 13H41.55C41.1382 12.3755 40.8025 11.7041 40.55 11H49C49.2652 11 49.5196 10.8946 49.7071 10.7071C49.8946 10.5196 50 10.2652 50 10C50 9.73478 49.8946 9.48043 49.7071 9.29289C49.5196 9.10536 49.2652 9 49 9H40.06C40.0195 8.66821 39.9994 8.33425 40 8C40 7.73478 39.8946 7.48043 39.7071 7.29289C39.5196 7.10536 39.2652 7 39 7C38.7348 7 38.4804 7.10536 38.2929 7.29289C38.1054 7.48043 38 7.73478 38 8C38 15.57 45.3 18.79 45.61 18.92C46.735 19.4606 47.7758 20.1612 48.7 21H46C45.7348 21 45.4804 21.1054 45.2929 21.2929C45.1054 21.4804 45 21.7348 45 22C45 22.2652 45.1054 22.5196 45.2929 22.7071C45.4804 22.8946 45.7348 23 46 23H50.43C50.8446 23.6229 51.1804 24.2946 51.43 25H43C42.7348 25 42.4804 25.1054 42.2929 25.2929C42.1054 25.4804 42 25.7348 42 26C42 26.2652 42.1054 26.5196 42.2929 26.7071C42.4804 26.8946 42.7348 27 43 27H51.94C51.9802 27.3318 52.0003 27.6658 52 28C52 28.2652 52.1054 28.5196 52.2929 28.7071C52.4804 28.8946 52.7348 29 53 29C53.2652 29 53.5196 28.8946 53.7071 28.7071C53.8946 28.5196 54 28.2652 54 28C54.0036 27.2643 53.9299 26.5303 53.78 25.81C53.6826 25.3197 53.5454 24.8381 53.37 24.37Z" fill="url(#paint5_linear_0_1)" shape-rendering="crispEdges" />
    </g>
    <defs>
        <filter id="filter0_b_0_1" x="7.65088" y="-1.9248" width="73.7643" height="75.9541" filterUnits="userSpaceOnUse" color-interpolation-filters="sRGB">
            <feFlood flood-opacity="0" result="BackgroundImageFix" />
            <feGaussianBlur in="BackgroundImage" stdDeviation="5" />
            <feComposite in2="SourceAlpha" operator="in" result="effect1_backgroundBlur_0_1" />
            <feBlend mode="normal" in="SourceGraphic" in2="effect1_backgroundBlur_0_1" result="shape" />
        </filter>
        <filter id="filter1_d_0_1" x="18.6135" y="7" width="52.01" height="54" filterUnits="userSpaceOnUse" color-interpolation-filters="sRGB">
            <feFlood flood-opacity="0" result="BackgroundImageFix" />
            <feColorMatrix in="SourceAlpha" type="matrix" values="0 0 0 0 0 0 0 0 0 0 0 0 0 0 0 0 0 0 127 0" result="hardAlpha" />
            <feOffset dy="4" />
            <feGaussianBlur stdDeviation="2" />
            <feComposite in2="hardAlpha" operator="out" />
            <feColorMatrix type="matrix" values="0 0 0 0 0 0 0 0 0 0 0 0 0 0 0 0 0 0 0.25 0" />
            <feBlend mode="normal" in2="BackgroundImageFix" result="effect1_dropShadow_0_1" />
            <feBlend mode="normal" in="SourceGraphic" in2="effect1_dropShadow_0_1" result="shape" />
        </filter>
        <filter id="filter2_d_0_1" x="22.1472" y="0" width="44.8706" height="60" filterUnits="userSpaceOnUse" color-interpolation-filters="sRGB">
            <feFlood flood-opacity="0" result="BackgroundImageFix" />
            <feColorMatrix in="SourceAlpha" type="matrix" values="0 0 0 0 0 0 0 0 0 0 0 0 0 0 0 0 0 0 127 0" result="hardAlpha" />
            <feOffset dy="4" />
            <feGaussianBlur stdDeviation="2" />
            <feComposite in2="hardAlpha" operator="out" />
            <feColorMatrix type="matrix" values="0 0 0 0 0 0 0 0 0 0 0 0 0 0 0 0 0 0 0.25 0" />
            <feBlend mode="normal" in2="BackgroundImageFix" result="effect1_dropShadow_0_1" />
            <feBlend mode="normal" in="SourceGraphic" in2="effect1_dropShadow_0_1" result="shape" />
        </filter>
        <filter id="filter3_d_0_1" x="0.219971" y="39.1562" width="88.9365" height="17.168" filterUnits="userSpaceOnUse" color-interpolation-filters="sRGB">
            <feFlood flood-opacity="0" result="BackgroundImageFix" />
            <feColorMatrix in="SourceAlpha" type="matrix" values="0 0 0 0 0 0 0 0 0 0 0 0 0 0 0 0 0 0 127 0" result="hardAlpha" />
            <feOffset dy="4" />
            <feGaussianBlur stdDeviation="2" />
            <feColorMatrix type="matrix" values="0 0 0 0 0 0 0 0 0 0 0 0 0 0 0 0 0 0 0.25 0" />
            <feBlend mode="normal" in2="BackgroundImageFix" result="effect1_dropShadow_0_1" />
            <feBlend mode="normal" in="SourceGraphic" in2="effect1_dropShadow_0_1" result="shape" />
        </filter>
        <filter id="filter4_d_0_1" x="34" y="7" width="24.0001" height="30" filterUnits="userSpaceOnUse" color-interpolation-filters="sRGB">
            <feFlood flood-opacity="0" result="BackgroundImageFix" />
            <feColorMatrix in="SourceAlpha" type="matrix" values="0 0 0 0 0 0 0 0 0 0 0 0 0 0 0 0 0 0 127 0" result="hardAlpha" />
            <feOffset dy="4" />
            <feGaussianBlur stdDeviation="2" />
            <feComposite in2="hardAlpha" operator="out" />
            <feColorMatrix type="matrix" values="0 0 0 0 0 0 0 0 0 0 0 0 0 0 0 0 0 0 0.25 0" />
            <feBlend mode="normal" in2="BackgroundImageFix" result="effect1_dropShadow_0_1" />
            <feBlend mode="normal" in="SourceGraphic" in2="effect1_dropShadow_0_1" result="shape" />
        </filter>
        <linearGradient id="paint0_linear_0_1" x1="44.5" y1="8" x2="45.0182" y2="74.9997" gradientUnits="userSpaceOnUse">
            <stop offset="0.36586" stop-color="#18AAE9" />
            <stop offset="0.737678" stop-color="#6D0BBB" />
            <stop offset="0.9995" stop-color="#0A2AB3" stop-opacity="0" />
            <stop offset="0.9996" stop-color="#A921BF" stop-opacity="0.353414" />
            <stop offset="0.9997" stop-color="#8D17EA" />
        </linearGradient>
        <linearGradient id="paint1_linear_0_1" x1="44.5" y1="8" x2="44.5" y2="65" gradientUnits="userSpaceOnUse">
            <stop stop-color="#D267ED" stop-opacity="0.75" />
            <stop offset="0.333261" stop-color="#1000CE" stop-opacity="0.53" />
            <stop offset="0.979276" stop-color="#C00ED0" stop-opacity="0.8" />
        </linearGradient>
        <linearGradient id="paint2_linear_0_1" x1="45.0465" y1="3.03448" x2="47.2885" y2="53.9873" gradientUnits="userSpaceOnUse">
            <stop offset="0.161415" stop-color="#F536A9" />
            <stop offset="0.566871" stop-color="#E77AC2" stop-opacity="0.85" />
            <stop offset="0.918243" stop-color="#5C2AC9" />
            <stop offset="1" stop-color="#2D1378" stop-opacity="0.42" />
        </linearGradient>
        <linearGradient id="paint3_linear_0_1" x1="44.9535" y1="-4.48276" x2="45.6522" y2="53.4982" gradientUnits="userSpaceOnUse">
            <stop offset="0.161415" stop-color="#C12EF4" />
            <stop offset="0.788967" stop-color="#2A7CC9" />
            <stop offset="1" stop-color="#430E86" stop-opacity="0.66" />
            <stop offset="1" stop-color="#B22DBE" stop-opacity="0.85" />
        </linearGradient>
        <radialGradient id="paint4_radial_0_1" cx="0" cy="0" r="1" gradientUnits="userSpaceOnUse" gradientTransform="translate(5 39.5) rotate(48.0668) scale(67.2111 94.4005)">
            <stop offset="0.264492" stop-color="#D0CAE9" />
            <stop offset="0.567607" stop-color="#DECDEA" stop-opacity="0.764779" />
            <stop offset="0.81487" stop-color="#EAD0EA" stop-opacity="0.55" />
            <stop offset="0.939696" stop-color="#951F98" stop-opacity="0.69" />
        </radialGradient>
        <linearGradient id="paint5_linear_0_1" x1="46.0001" y1="7" x2="46" y2="30.5" gradientUnits="userSpaceOnUse">
            <stop offset="0.0146637" stop-color="#DBE3DE" />
            <stop offset="0.554191" stop-color="#DBE3DE" stop-opacity="0.98" />
            <stop offset="1" stop-color="#DBE3DE" stop-opacity="0" />
        </linearGradient>
    </defs>
</svg>