<svg width="75" height="65" viewBox="0 0 75 65" fill="none" xmlns="http://www.w3.org/2000/svg">
    <g filter="url(#filter0_b_0_1)">
        <path d="M8.70376 17.6173C8.31231 14.9322 10.134 12.425 12.8086 11.9676L35.1505 8.14685C35.7187 8.04968 36.2995 8.0515 36.867 8.15223L58.2883 11.9538C60.9233 12.4214 62.7229 14.8808 62.3713 17.5337L58.4401 47.1961C58.2703 48.4775 57.6108 49.6433 56.6 50.449L49.0088 56.5L38.74 63.2145C37.0805 64.2995 34.9367 64.3016 33.2752 63.2196L22.9561 56.5L14.9407 50.4303C13.8938 49.6376 13.2008 48.4649 13.0114 47.1655L8.70376 17.6173Z" fill="url(#paint0_linear_0_1)" style="mix-blend-mode:darken" />
        <path d="M9.19853 17.5452C8.84623 15.1286 10.4857 12.8721 12.8929 12.4604L35.2348 8.6397C35.7462 8.55224 36.2689 8.55388 36.7797 8.64453L58.2009 12.4461C60.5724 12.8669 62.1921 15.0804 61.8756 17.4681L57.9445 47.1304C57.7916 48.2837 57.1981 49.3329 56.2884 50.0581L48.7155 56.0944L38.4663 62.796C36.9728 63.7726 35.0434 63.7744 33.548 62.8006L23.2438 56.0907L15.2425 50.0317C14.3003 49.3183 13.6767 48.2629 13.5062 47.0934L9.19853 17.5452Z" stroke="url(#paint1_linear_0_1)" />
    </g>
    <g filter="url(#filter1_d_0_1)">
        <path d="M13.8065 13.3652C12.9006 10.173 15.2983 7 18.6166 7H52.6211C55.8661 7 58.2515 10.0432 57.4764 13.1943L48.6213 49.1943C48.0716 51.4291 46.0674 53 43.766 53H28.834C26.5983 53 24.6343 51.5159 24.0239 49.3652L13.8065 13.3652Z" fill="url(#paint2_linear_0_1)" shape-rendering="crispEdges" />
    </g>
    <g filter="url(#filter2_d_0_1)">
        <path d="M17.2541 6.01978C16.6073 2.91487 18.9775 0 22.149 0H49.0164C52.1334 0 54.4907 2.82097 53.9368 5.88841L46.3535 47.8884C45.9237 50.2687 43.8518 52 41.433 52H30.899C28.5306 52 26.4872 50.3384 26.0041 48.0198L17.2541 6.01978Z" fill="url(#paint3_linear_0_1)" shape-rendering="crispEdges" />
    </g>
    <g filter="url(#filter3_d_0_1)">
        <path d="M4.324 44.304C4.324 45.42 4.708 46.344 5.488 47.064C6.268 47.772 7.276 48.132 8.5 48.132C9.4 48.132 10.12 47.94 10.636 47.568L11.008 45.72C10.312 46.224 9.532 46.476 8.656 46.476C7.924 46.476 7.324 46.26 6.856 45.828C6.4 45.384 6.172 44.832 6.172 44.148C6.172 43.368 6.46 42.672 7.048 42.072C7.636 41.472 8.356 41.172 9.184 41.172C10.228 41.172 11.068 41.532 11.728 42.252L12.1 40.428C11.428 39.816 10.492 39.504 9.304 39.504C7.948 39.504 6.772 39.984 5.788 40.944C4.816 41.904 4.324 43.02 4.324 44.304ZM13.8631 48L14.5831 44.424H18.1951L17.4751 48H19.3231L21.0271 39.636H19.1791L18.5551 42.744H14.9431L15.5671 39.636H13.7071L12.0031 48H13.8631ZM23.1399 46.668H26.7399L27.0999 48H28.9359L26.3799 39.156L20.2239 48H22.2279L23.1399 46.668ZM25.7439 42.876L26.3439 45.096H24.1959L25.7439 42.876ZM31.6387 48L32.5147 43.692L34.5547 46.716L37.7107 43.932L36.8827 48H38.6827L40.4587 39.264L34.9147 44.172L31.6147 39.336L29.8507 48H31.6387ZM42.1756 48L42.7276 45.3H44.6716C45.5716 45.3 46.3156 44.988 46.9276 44.352C47.5396 43.716 47.8396 42.996 47.8396 42.18C47.8396 41.436 47.5876 40.824 47.0956 40.356C46.6036 39.876 45.9556 39.636 45.1636 39.636H42.0196L40.3156 48H42.1756ZM43.5316 41.316H44.9596C45.5836 41.316 46.0036 41.736 46.0036 42.312C46.0036 42.648 45.8836 42.948 45.6316 43.224C45.3916 43.488 45.1036 43.62 44.7556 43.62H43.0636L43.5316 41.316ZM49.7353 48L51.4393 39.636H49.5793L47.8753 48H49.7353ZM51.7852 44.292C51.7852 45.432 52.1812 46.356 52.9852 47.088C53.7892 47.808 54.8092 48.168 56.0452 48.168C57.4612 48.168 58.6492 47.688 59.5972 46.728C60.5452 45.768 61.0252 44.664 61.0252 43.416C61.0252 42.276 60.6292 41.34 59.8252 40.608C59.0212 39.876 58.0012 39.504 56.7652 39.504C55.8652 39.504 55.0252 39.732 54.2452 40.176C53.4772 40.62 52.8772 41.22 52.4332 41.952C52.0012 42.684 51.7852 43.464 51.7852 44.292ZM53.6212 44.148C53.6212 43.368 53.9212 42.672 54.5212 42.072C55.1212 41.472 55.8292 41.172 56.6572 41.172C57.4132 41.172 58.0132 41.4 58.4812 41.844C58.9492 42.288 59.1892 42.864 59.1892 43.572C59.1892 44.328 58.8892 45.012 58.3012 45.612C57.7132 46.2 56.9932 46.5 56.1532 46.5C55.3972 46.5 54.7852 46.284 54.3172 45.852C53.8492 45.408 53.6212 44.844 53.6212 44.148ZM63.1633 48L64.1353 43.164L68.6953 48.324L70.4713 39.636H68.6353L67.6393 44.484L63.1033 39.312L61.3273 48H63.1633Z" fill="url(#paint4_radial_0_1)" />
        <path d="M5.488 47.064L4.8097 47.7988L4.81589 47.8045L5.488 47.064ZM10.636 47.568L11.2208 48.3792L11.5389 48.1498L11.6163 47.7653L10.636 47.568ZM11.008 45.72L11.9883 45.9173L12.4931 43.4099L10.4215 44.9101L11.008 45.72ZM6.856 45.828L6.15838 46.5445L6.16793 46.5538L6.17772 46.5628L6.856 45.828ZM7.048 42.072L7.76221 42.7719H7.76221L7.048 42.072ZM11.728 42.252L10.9908 42.9277L12.316 44.3733L12.7078 42.4518L11.728 42.252ZM12.1 40.428L13.0798 40.6278L13.1934 40.0712L12.7733 39.6887L12.1 40.428ZM5.788 40.944L5.08966 40.2282L5.0853 40.2325L5.788 40.944ZM3.324 44.304C3.324 45.6771 3.80898 46.875 4.80972 47.7988L6.16628 46.3292C5.60702 45.813 5.324 45.1629 5.324 44.304H3.324ZM4.81589 47.8045C5.80767 48.7047 7.06774 49.132 8.5 49.132V47.132C7.48426 47.132 6.72833 46.8393 6.16011 46.3235L4.81589 47.8045ZM8.5 49.132C9.52871 49.132 10.4787 48.9142 11.2208 48.3792L10.0512 46.7568C9.76127 46.9658 9.27129 47.132 8.5 47.132V49.132ZM11.6163 47.7653L11.9883 45.9173L10.0277 45.5227L9.65567 47.3707L11.6163 47.7653ZM10.4215 44.9101C9.89836 45.2889 9.32417 45.476 8.656 45.476V47.476C9.73983 47.476 10.7256 47.1591 11.5945 46.5299L10.4215 44.9101ZM8.656 45.476C8.13517 45.476 7.78999 45.3292 7.53428 45.0932L6.17772 46.5628C6.85801 47.1908 7.71283 47.476 8.656 47.476V45.476ZM7.55362 45.1115C7.30268 44.8672 7.172 44.579 7.172 44.148H5.172C5.172 45.085 5.49732 45.9008 6.15838 46.5445L7.55362 45.1115ZM7.172 44.148C7.172 43.6438 7.34729 43.1953 7.76221 42.7719L6.33379 41.3721C5.57271 42.1487 5.172 43.0922 5.172 44.148H7.172ZM7.76221 42.7719C8.16215 42.3638 8.62475 42.172 9.184 42.172V40.172C8.08725 40.172 7.10985 40.5802 6.33379 41.3721L7.76221 42.7719ZM9.184 42.172C9.96557 42.172 10.532 42.4272 10.9908 42.9277L12.4652 41.5763C11.604 40.6368 10.4904 40.172 9.184 40.172V42.172ZM12.7078 42.4518L13.0798 40.6278L11.1202 40.2282L10.7482 42.0522L12.7078 42.4518ZM12.7733 39.6887C11.8682 38.8643 10.6658 38.504 9.304 38.504V40.504C10.3182 40.504 10.9878 40.7677 11.4267 41.1673L12.7733 39.6887ZM9.304 38.504C7.68434 38.504 6.2585 39.0879 5.08968 40.2282L6.48632 41.6598C7.2855 40.8801 8.21166 40.504 9.304 40.504V38.504ZM5.0853 40.2325C3.94003 41.3636 3.324 42.7297 3.324 44.304H5.324C5.324 43.3103 5.69197 42.4444 6.4907 41.6555L5.0853 40.2325ZM13.8631 48V49H14.6818L14.8434 48.1974L13.8631 48ZM14.5831 44.424V43.424H13.7643L13.6027 44.2266L14.5831 44.424ZM18.1951 44.424L19.1754 44.6214L19.4165 43.424H18.1951V44.424ZM17.4751 48L16.4947 47.8026L16.2537 49H17.4751V48ZM19.3231 48V49H20.1399L20.3029 48.1996L19.3231 48ZM21.0271 39.636L22.0069 39.8356L22.2513 38.636H21.0271V39.636ZM19.1791 39.636V38.636H18.3599L18.1986 39.4392L19.1791 39.636ZM18.5551 42.744V43.744H19.3742L19.5355 42.9408L18.5551 42.744ZM14.9431 42.744L13.9626 42.5472L13.7223 43.744H14.9431V42.744ZM15.5671 39.636L16.5475 39.8328L16.7878 38.636H15.5671V39.636ZM13.7071 39.636V38.636H12.8903L12.7272 39.4364L13.7071 39.636ZM12.0031 48L11.0232 47.8004L10.7788 49H12.0031V48ZM14.8434 48.1974L15.5634 44.6214L13.6027 44.2266L12.8827 47.8026L14.8434 48.1974ZM14.5831 45.424H18.1951V43.424H14.5831V45.424ZM17.2147 44.2266L16.4947 47.8026L18.4554 48.1974L19.1754 44.6214L17.2147 44.2266ZM17.4751 49H19.3231V47H17.4751V49ZM20.3029 48.1996L22.0069 39.8356L20.0472 39.4364L18.3432 47.8004L20.3029 48.1996ZM21.0271 38.636H19.1791V40.636H21.0271V38.636ZM18.1986 39.4392L17.5746 42.5472L19.5355 42.9408L20.1595 39.8328L18.1986 39.4392ZM18.5551 41.744H14.9431V43.744H18.5551V41.744ZM15.9235 42.9408L16.5475 39.8328L14.5866 39.4392L13.9626 42.5472L15.9235 42.9408ZM15.5671 38.636H13.7071V40.636H15.5671V38.636ZM12.7272 39.4364L11.0232 47.8004L12.9829 48.1996L14.6869 39.8356L12.7272 39.4364ZM12.0031 49H13.8631V47H12.0031V49ZM23.1399 46.668V45.668H22.6127L22.3148 46.103L23.1399 46.668ZM26.7399 46.668L27.7053 46.4071L27.5055 45.668H26.7399V46.668ZM27.0999 48L26.1345 48.2609L26.3343 49H27.0999V48ZM28.9359 48V49H30.2658L29.8966 47.7224L28.9359 48ZM26.3799 39.156L27.3406 38.8784L26.758 36.8624L25.5592 38.5847L26.3799 39.156ZM20.2239 48L19.4032 47.4287L18.3094 49H20.2239V48ZM22.2279 48V49H22.7552L23.053 48.5649L22.2279 48ZM25.7439 42.876L26.7093 42.6151L26.1499 40.5454L24.9236 42.304L25.7439 42.876ZM26.3439 45.096V46.096H27.6501L27.3093 44.8351L26.3439 45.096ZM24.1959 45.096L23.3756 44.524L22.2795 46.096H24.1959V45.096ZM23.1399 47.668H26.7399V45.668H23.1399V47.668ZM25.7745 46.9289L26.1345 48.2609L28.0653 47.7391L27.7053 46.4071L25.7745 46.9289ZM27.0999 49H28.9359V47H27.0999V49ZM29.8966 47.7224L27.3406 38.8784L25.4192 39.4336L27.9752 48.2776L29.8966 47.7224ZM25.5592 38.5847L19.4032 47.4287L21.0447 48.5713L27.2007 39.7273L25.5592 38.5847ZM20.2239 49H22.2279V47H20.2239V49ZM23.053 48.5649L23.965 47.233L22.3148 46.103L21.4028 47.4351L23.053 48.5649ZM24.7785 43.1369L25.3785 45.3569L27.3093 44.8351L26.7093 42.6151L24.7785 43.1369ZM26.3439 44.096H24.1959V46.096H26.3439V44.096ZM25.0162 45.668L26.5642 43.448L24.9236 42.304L23.3756 44.524L25.0162 45.668ZM31.6387 48V49H32.4558L32.6187 48.1993L31.6387 48ZM32.5147 43.692L33.3437 43.1328L32.01 41.1557L31.5348 43.4927L32.5147 43.692ZM34.5547 46.716L33.7257 47.2752L34.3624 48.2191L35.2162 47.4659L34.5547 46.716ZM37.7107 43.932L38.6906 44.1315L39.2854 41.2095L37.0492 43.1821L37.7107 43.932ZM36.8827 48L35.9028 47.8005L35.6587 49H36.8827V48ZM38.6827 48V49H39.4999L39.6627 48.1992L38.6827 48ZM40.4587 39.264L41.4387 39.4632L42.0342 36.5337L39.7959 38.5153L40.4587 39.264ZM34.9147 44.172L34.0887 44.7357L34.7281 45.6727L35.5776 44.9207L34.9147 44.172ZM31.6147 39.336L32.4407 38.7723L31.1069 36.8177L30.6348 39.1365L31.6147 39.336ZM29.8507 48L28.8708 47.8005L28.6266 49H29.8507V48ZM32.6187 48.1993L33.4947 43.8913L31.5348 43.4927L30.6588 47.8007L32.6187 48.1993ZM31.6857 44.2512L33.7257 47.2752L35.3837 46.1568L33.3437 43.1328L31.6857 44.2512ZM35.2162 47.4659L38.3722 44.6819L37.0492 43.1821L33.8932 45.9661L35.2162 47.4659ZM36.7308 43.7325L35.9028 47.8005L37.8626 48.1995L38.6906 44.1315L36.7308 43.7325ZM36.8827 49H38.6827V47H36.8827V49ZM39.6627 48.1992L41.4387 39.4632L39.4788 39.0648L37.7028 47.8008L39.6627 48.1992ZM39.7959 38.5153L34.2519 43.4233L35.5776 44.9207L41.1216 40.0127L39.7959 38.5153ZM35.7407 43.6083L32.4407 38.7723L30.7887 39.8997L34.0887 44.7357L35.7407 43.6083ZM30.6348 39.1365L28.8708 47.8005L30.8306 48.1995L32.5946 39.5355L30.6348 39.1365ZM29.8507 49H31.6387V47H29.8507V49ZM42.1756 48V49H42.9918L43.1553 48.2003L42.1756 48ZM42.7276 45.3V44.3H41.9113L41.7478 45.0997L42.7276 45.3ZM46.9276 44.352L47.6481 45.0454V45.0454L46.9276 44.352ZM47.0956 40.356L46.3972 41.0718L46.4063 41.0806L47.0956 40.356ZM42.0196 39.636V38.636H41.2028L41.0397 39.4364L42.0196 39.636ZM40.3156 48L39.3357 47.8004L39.0913 49H40.3156V48ZM43.5316 41.316V40.316H42.7143L42.5516 41.1169L43.5316 41.316ZM45.6316 43.224L44.8931 42.5497L44.8916 42.5513L45.6316 43.224ZM43.0636 43.62L42.0836 43.4209L41.84 44.62H43.0636V43.62ZM43.1553 48.2003L43.7073 45.5003L41.7478 45.0997L41.1958 47.7997L43.1553 48.2003ZM42.7276 46.3H44.6716V44.3H42.7276V46.3ZM44.6716 46.3C45.8366 46.3 46.8429 45.8822 47.6481 45.0454L46.207 43.6586C45.7882 44.0938 45.3065 44.3 44.6716 44.3V46.3ZM47.6481 45.0454C48.4255 44.2376 48.8396 43.274 48.8396 42.18H46.8396C46.8396 42.718 46.6537 43.1944 46.207 43.6586L47.6481 45.0454ZM48.8396 42.18C48.8396 41.1874 48.4928 40.3049 47.7848 39.6314L46.4063 41.0806C46.6823 41.3431 46.8396 41.6846 46.8396 42.18H48.8396ZM47.7939 39.6402C47.085 38.9487 46.1713 38.636 45.1636 38.636V40.636C45.7399 40.636 46.1221 40.8033 46.3972 41.0718L47.7939 39.6402ZM45.1636 38.636H42.0196V40.636H45.1636V38.636ZM41.0397 39.4364L39.3357 47.8004L41.2954 48.1996L42.9994 39.8356L41.0397 39.4364ZM40.3156 49H42.1756V47H40.3156V49ZM43.5316 42.316H44.9596V40.316H43.5316V42.316ZM44.9596 42.316C45.003 42.316 45.0249 42.3232 45.0303 42.3252C45.0353 42.3271 45.0297 42.3258 45.0203 42.3168C45.0109 42.3077 45.005 42.2977 45.0023 42.2912C44.9998 42.2851 45.0036 42.2903 45.0036 42.312H47.0036C47.0036 41.773 46.8025 41.258 46.4108 40.8792C46.0204 40.5016 45.5004 40.316 44.9596 40.316V42.316ZM45.0036 42.312C45.0036 42.3766 44.9922 42.4412 44.8931 42.5497L46.37 43.8983C46.7749 43.4548 47.0036 42.9194 47.0036 42.312H45.0036ZM44.8916 42.5513C44.8512 42.5958 44.8272 42.6075 44.821 42.6103C44.8159 42.6126 44.7993 42.62 44.7556 42.62V44.62C45.3988 44.62 45.9513 44.3589 46.3715 43.8967L44.8916 42.5513ZM44.7556 42.62H43.0636V44.62H44.7556V42.62ZM44.0435 43.8191L44.5116 41.5151L42.5516 41.1169L42.0836 43.4209L44.0435 43.8191ZM49.7353 48V49H50.5521L50.7152 48.1996L49.7353 48ZM51.4393 39.636L52.4192 39.8356L52.6636 38.636H51.4393V39.636ZM49.5793 39.636V38.636H48.7625L48.5994 39.4364L49.5793 39.636ZM47.8753 48L46.8954 47.8004L46.651 49H47.8753V48ZM50.7152 48.1996L52.4192 39.8356L50.4594 39.4364L48.7554 47.8004L50.7152 48.1996ZM51.4393 38.636H49.5793V40.636H51.4393V38.636ZM48.5994 39.4364L46.8954 47.8004L48.8552 48.1996L50.5592 39.8356L48.5994 39.4364ZM47.8753 49H49.7353V47H47.8753V49ZM52.9852 47.088L52.312 47.8275L52.3181 47.833L52.9852 47.088ZM59.5972 46.728L58.8857 46.0254L59.5972 46.728ZM59.8252 40.608L60.4984 39.8686L59.8252 40.608ZM54.2452 40.176L53.7505 39.3069L53.7447 39.3103L54.2452 40.176ZM52.4332 41.952L51.5781 41.4333L51.572 41.4437L52.4332 41.952ZM54.5212 42.072L55.2283 42.7791L54.5212 42.072ZM58.3012 45.612L59.0084 46.3191L59.0154 46.3119L58.3012 45.612ZM54.3172 45.852L53.6289 46.5775L53.6389 46.5868L54.3172 45.852ZM50.7852 44.292C50.7852 45.6975 51.2883 46.8954 52.312 47.8274L53.6584 46.3486C53.0741 45.8166 52.7852 45.1665 52.7852 44.292H50.7852ZM52.3181 47.833C53.3321 48.741 54.6012 49.168 56.0452 49.168V47.168C55.0172 47.168 54.2464 46.875 53.6523 46.343L52.3181 47.833ZM56.0452 49.168C57.7125 49.168 59.1619 48.5921 60.3088 47.4306L58.8857 46.0254C58.1366 46.7839 57.2099 47.168 56.0452 47.168V49.168ZM60.3088 47.4306C61.4227 46.3027 62.0252 44.9528 62.0252 43.416H60.0252C60.0252 44.3752 59.6678 45.2333 58.8857 46.0254L60.3088 47.4306ZM62.0252 43.416C62.0252 42.014 61.5246 40.8028 60.4984 39.8686L59.152 41.3474C59.7339 41.8772 60.0252 42.538 60.0252 43.416H62.0252ZM60.4984 39.8686C59.4875 38.9482 58.2177 38.504 56.7652 38.504V40.504C57.7848 40.504 58.5549 40.8038 59.152 41.3474L60.4984 39.8686ZM56.7652 38.504C55.6877 38.504 54.6777 38.7792 53.7505 39.3069L54.7399 41.0451C55.3727 40.6848 56.0428 40.504 56.7652 40.504V38.504ZM53.7447 39.3103C52.8277 39.8404 52.1072 40.5613 51.5782 41.4334L53.2882 42.4706C53.6473 41.8787 54.1267 41.3996 54.7457 41.0417L53.7447 39.3103ZM51.572 41.4437C51.0517 42.3254 50.7852 43.2803 50.7852 44.292H52.7852C52.7852 43.6477 52.9508 43.0426 53.2944 42.4603L51.572 41.4437ZM54.6212 44.148C54.6212 43.6556 54.7994 43.208 55.2283 42.7791L53.8141 41.3649C53.0431 42.136 52.6212 43.0804 52.6212 44.148H54.6212ZM55.2283 42.7791C55.6476 42.3599 56.1039 42.172 56.6572 42.172V40.172C55.5546 40.172 54.5949 40.5841 53.8141 41.3649L55.2283 42.7791ZM56.6572 42.172C57.1926 42.172 57.535 42.3248 57.793 42.5695L59.1695 41.1185C58.4914 40.4752 57.6338 40.172 56.6572 40.172V42.172ZM57.793 42.5695C58.0459 42.8094 58.1892 43.1154 58.1892 43.572H60.1892C60.1892 42.6126 59.8525 41.7666 59.1695 41.1185L57.793 42.5695ZM58.1892 43.572C58.1892 44.0333 58.0163 44.474 57.587 44.9121L59.0154 46.3119C59.7621 45.55 60.1892 44.6227 60.1892 43.572H58.1892ZM57.5941 44.9049C57.1936 45.3054 56.728 45.5 56.1532 45.5V47.5C57.2584 47.5 58.2328 47.0946 59.0083 46.3191L57.5941 44.9049ZM56.1532 45.5C55.5987 45.5 55.2451 45.3476 54.9955 45.1172L53.6389 46.5868C54.3253 47.2204 55.1957 47.5 56.1532 47.5V45.5ZM55.0055 45.1265C54.756 44.8899 54.6212 44.5978 54.6212 44.148H52.6212C52.6212 45.0902 52.9424 45.9261 53.629 46.5775L55.0055 45.1265ZM63.1633 48V49H63.9823L64.1437 48.1971L63.1633 48ZM64.1353 43.164L64.8846 42.5018L63.5516 40.9934L63.1549 42.9669L64.1353 43.164ZM68.6953 48.324L67.946 48.9862L69.2735 50.4884L69.675 48.5243L68.6953 48.324ZM70.4713 39.636L71.451 39.8363L71.6964 38.636H70.4713V39.636ZM68.6353 39.636V38.636H67.8198L67.6557 39.4348L68.6353 39.636ZM67.6393 44.484L66.8875 45.1434L68.214 46.6559L68.6188 44.6852L67.6393 44.484ZM63.1033 39.312L63.8551 38.6526L62.527 37.1383L62.1235 39.1117L63.1033 39.312ZM61.3273 48L60.3475 47.7997L60.1022 49H61.3273V48ZM64.1437 48.1971L65.1157 43.3611L63.1549 42.9669L62.1829 47.8029L64.1437 48.1971ZM63.386 43.8262L67.946 48.9862L69.4446 47.6618L64.8846 42.5018L63.386 43.8262ZM69.675 48.5243L71.451 39.8363L69.4915 39.4357L67.7155 48.1237L69.675 48.5243ZM70.4713 38.636H68.6353V40.636H70.4713V38.636ZM67.6557 39.4348L66.6597 44.2828L68.6188 44.6852L69.6148 39.8372L67.6557 39.4348ZM68.3911 43.8246L63.8551 38.6526L62.3515 39.9714L66.8875 45.1434L68.3911 43.8246ZM62.1235 39.1117L60.3475 47.7997L62.307 48.2003L64.083 39.5123L62.1235 39.1117ZM61.3273 49H63.1633V47H61.3273V49Z" fill="#681EB1" />
    </g>
    <path d="M38.8118 11.1162L37.0126 10.8412L36.2094 9.13436C36.1875 9.08762 36.1514 9.04978 36.1067 9.02676C35.9948 8.96884 35.8587 9.01694 35.8026 9.13406L34.997 10.8397L33.1974 11.112C33.1477 11.1194 33.1024 11.1439 33.0676 11.1809C33.0256 11.226 33.0024 11.2868 33.0032 11.3497C33.0039 11.4127 33.0285 11.4728 33.0716 11.5168L34.3725 12.8459L34.0636 14.721C34.0563 14.7646 34.0609 14.8095 34.0768 14.8505C34.0927 14.8916 34.1193 14.9271 34.1535 14.9532C34.1877 14.9792 34.2282 14.9947 34.2704 14.9979C34.3126 15.001 34.3548 14.9918 34.3922 14.9711L36.0024 14.0869L37.6112 14.9735C37.6551 14.998 37.7062 15.0062 37.7551 14.9974C37.8784 14.9752 37.9614 14.8529 37.9402 14.7239L37.634 12.8483L38.9369 11.5212C38.9724 11.4848 38.9958 11.4374 39.0029 11.3855C39.0222 11.2557 38.9358 11.1356 38.8118 11.1162ZM37.0863 12.661L37.341 14.2207L36.0028 13.4841L34.6635 14.2194L34.9205 12.6602L33.8384 11.5545L35.3354 11.3279L36.0055 9.90986L36.6734 11.3289L38.1701 11.5577L37.0863 12.661Z" fill="#D3C6C2" />
    <path d="M39.9995 5C40.6316 5.00002 41.2415 5.24481 41.7126 5.68757C42.1837 6.13032 42.483 6.73999 42.5532 7.4H44.0014C44.503 7.40002 44.9862 7.59821 45.3552 7.95522C45.7241 8.31223 45.9519 8.80196 45.9932 9.3272L46 9.5V13.1C46.0001 14.0962 45.6373 15.0546 44.9862 15.7787C44.3351 16.5028 43.445 16.9376 42.4984 16.994L42.2586 17.0012C41.8779 18.248 41.168 19.3555 40.2114 20.1947C39.2548 21.0339 38.0909 21.5702 36.8554 21.7412V23.6H38.8575C39.8054 23.6002 40.7172 23.9815 41.4061 24.6656C42.095 25.3497 42.5087 26.2848 42.5624 27.2792L42.5692 27.5V28.1C42.5692 28.3177 42.494 28.5279 42.3578 28.6919C42.2215 28.8558 42.0333 28.9623 41.828 28.9916L41.7127 29H30.2873C30.0802 29.0003 29.8799 28.9216 29.7237 28.7787C29.5674 28.6357 29.4658 28.4381 29.4376 28.2224L29.4308 28.1V27.5C29.4307 26.504 29.7933 25.5458 30.4442 24.8217C31.095 24.0977 31.9849 23.6627 32.9312 23.606L33.1425 23.6H35.1412V21.7412C33.9061 21.5698 32.7427 21.0333 31.7865 20.1941C30.8304 19.355 30.1208 18.2477 29.7403 17.0012L29.7117 17C28.7273 17 27.7832 16.5891 27.0871 15.8577C26.3911 15.1263 26 14.1343 26 13.1V9.5C26 8.3408 26.8954 7.4 27.9986 7.4H29.4468C29.517 6.73978 29.8165 6.12995 30.2878 5.68717C30.7592 5.24438 31.3693 4.99973 32.0016 5H39.9995ZM38.8575 25.4H33.1425C32.6913 25.3998 32.2533 25.56 31.8997 25.8545C31.5462 26.1491 31.2979 26.5607 31.1953 27.0224L31.1633 27.2H40.8344C40.77 26.7315 40.5568 26.2997 40.2295 25.9745C39.9021 25.6493 39.4798 25.4498 39.0311 25.4084L38.8586 25.4H38.8575ZM39.9995 6.8H32.0005C31.7733 6.8 31.5554 6.89482 31.3948 7.0636C31.2341 7.23239 31.1439 7.46131 31.1439 7.7V14.8976C31.1635 16.2371 31.6836 17.5148 32.5921 18.4549C33.5005 19.3949 34.7244 19.9218 35.9994 19.9218C37.2744 19.9218 38.4983 19.3949 39.4068 18.4549C40.3152 17.5148 40.8354 16.2371 40.855 14.8976V7.7C40.855 7.46131 40.7647 7.23239 40.6041 7.0636C40.4434 6.89482 40.2256 6.8 39.9984 6.8H39.9995ZM44.0014 9.2H42.5692V15.1796C43.0157 15.1126 43.4275 14.889 43.7377 14.545C44.0479 14.201 44.2382 13.7569 44.2778 13.2848L44.2857 13.1V9.5C44.2856 9.43241 44.2638 9.36684 44.2238 9.31392C44.1838 9.26099 44.128 9.22381 44.0653 9.2084L44.0002 9.2H44.0014ZM29.4308 9.2H27.9986C27.9229 9.2 27.8503 9.23161 27.7967 9.28787C27.7432 9.34413 27.7131 9.42044 27.7131 9.5V13.1C27.713 13.6061 27.8869 14.0951 28.2027 14.4772C28.5185 14.8593 28.955 15.1088 29.4319 15.1796V9.2H29.4308Z" fill="url(#paint5_angular_0_1)" />
    <defs>
        <filter id="filter0_b_0_1" x="-1.34912" y="-1.9248" width="73.7643" height="75.9541" filterUnits="userSpaceOnUse" color-interpolation-filters="sRGB">
            <feFlood flood-opacity="0" result="BackgroundImageFix" />
            <feGaussianBlur in="BackgroundImage" stdDeviation="5" />
            <feComposite in2="SourceAlpha" operator="in" result="effect1_backgroundBlur_0_1" />
            <feBlend mode="normal" in="SourceGraphic" in2="effect1_backgroundBlur_0_1" result="shape" />
        </filter>
        <filter id="filter1_d_0_1" x="9.61353" y="7" width="52.01" height="54" filterUnits="userSpaceOnUse" color-interpolation-filters="sRGB">
            <feFlood flood-opacity="0" result="BackgroundImageFix" />
            <feColorMatrix in="SourceAlpha" type="matrix" values="0 0 0 0 0 0 0 0 0 0 0 0 0 0 0 0 0 0 127 0" result="hardAlpha" />
            <feOffset dy="4" />
            <feGaussianBlur stdDeviation="2" />
            <feComposite in2="hardAlpha" operator="out" />
            <feColorMatrix type="matrix" values="0 0 0 0 0 0 0 0 0 0 0 0 0 0 0 0 0 0 0.25 0" />
            <feBlend mode="normal" in2="BackgroundImageFix" result="effect1_dropShadow_0_1" />
            <feBlend mode="normal" in="SourceGraphic" in2="effect1_dropShadow_0_1" result="shape" />
        </filter>
        <filter id="filter2_d_0_1" x="13.1472" y="0" width="44.8706" height="60" filterUnits="userSpaceOnUse" color-interpolation-filters="sRGB">
            <feFlood flood-opacity="0" result="BackgroundImageFix" />
            <feColorMatrix in="SourceAlpha" type="matrix" values="0 0 0 0 0 0 0 0 0 0 0 0 0 0 0 0 0 0 127 0" result="hardAlpha" />
            <feOffset dy="4" />
            <feGaussianBlur stdDeviation="2" />
            <feComposite in2="hardAlpha" operator="out" />
            <feColorMatrix type="matrix" values="0 0 0 0 0 0 0 0 0 0 0 0 0 0 0 0 0 0 0.25 0" />
            <feBlend mode="normal" in2="BackgroundImageFix" result="effect1_dropShadow_0_1" />
            <feBlend mode="normal" in="SourceGraphic" in2="effect1_dropShadow_0_1" result="shape" />
        </filter>
        <filter id="filter3_d_0_1" x="0.323975" y="39.1562" width="74.1473" height="17.168" filterUnits="userSpaceOnUse" color-interpolation-filters="sRGB">
            <feFlood flood-opacity="0" result="BackgroundImageFix" />
            <feColorMatrix in="SourceAlpha" type="matrix" values="0 0 0 0 0 0 0 0 0 0 0 0 0 0 0 0 0 0 127 0" result="hardAlpha" />
            <feOffset dy="4" />
            <feGaussianBlur stdDeviation="2" />
            <feColorMatrix type="matrix" values="0 0 0 0 0 0 0 0 0 0 0 0 0 0 0 0 0 0 0.25 0" />
            <feBlend mode="normal" in2="BackgroundImageFix" result="effect1_dropShadow_0_1" />
            <feBlend mode="normal" in="SourceGraphic" in2="effect1_dropShadow_0_1" result="shape" />
        </filter>
        <linearGradient id="paint0_linear_0_1" x1="35.5" y1="8" x2="36.0182" y2="74.9997" gradientUnits="userSpaceOnUse">
            <stop offset="0.36586" stop-color="#18AAE9" />
            <stop offset="0.737678" stop-color="#6D0BBB" />
            <stop offset="0.9995" stop-color="#0A2AB3" stop-opacity="0" />
            <stop offset="0.9996" stop-color="#A921BF" stop-opacity="0.353414" />
            <stop offset="0.9997" stop-color="#8D17EA" />
        </linearGradient>
        <linearGradient id="paint1_linear_0_1" x1="35.5" y1="8" x2="35.5" y2="65" gradientUnits="userSpaceOnUse">
            <stop stop-color="#D267ED" stop-opacity="0.75" />
            <stop offset="0.333261" stop-color="#1000CE" stop-opacity="0.53" />
            <stop offset="0.979276" stop-color="#C00ED0" stop-opacity="0.8" />
        </linearGradient>
        <linearGradient id="paint2_linear_0_1" x1="36.0465" y1="3.03448" x2="38.2885" y2="53.9873" gradientUnits="userSpaceOnUse">
            <stop offset="0.161415" stop-color="#F536A9" />
            <stop offset="0.566871" stop-color="#E77AC2" stop-opacity="0.85" />
            <stop offset="0.918243" stop-color="#5C2AC9" />
            <stop offset="1" stop-color="#2D1378" stop-opacity="0.42" />
        </linearGradient>
        <linearGradient id="paint3_linear_0_1" x1="35.9535" y1="-4.48276" x2="36.6522" y2="53.4982" gradientUnits="userSpaceOnUse">
            <stop offset="0.161415" stop-color="#C12EF4" />
            <stop offset="0.788967" stop-color="#2A7CC9" />
            <stop offset="1" stop-color="#430E86" stop-opacity="0.66" />
            <stop offset="1" stop-color="#B22DBE" stop-opacity="0.85" />
        </linearGradient>
        <radialGradient id="paint4_radial_0_1" cx="0" cy="0" r="1" gradientUnits="userSpaceOnUse" gradientTransform="translate(4 39.5) rotate(52.3506) scale(63.1502 86.2869)">
            <stop offset="0.264492" stop-color="#D0CAE9" />
            <stop offset="0.567607" stop-color="#DECDEA" stop-opacity="0.764779" />
            <stop offset="0.81487" stop-color="#EAD0EA" stop-opacity="0.55" />
            <stop offset="0.939696" stop-color="#951F98" stop-opacity="0.69" />
        </radialGradient>
        <radialGradient id="paint5_angular_0_1" cx="0" cy="0" r="1" gradientUnits="userSpaceOnUse" gradientTransform="translate(36 17) rotate(90) scale(12 19.7943)">
            <stop offset="0.221406" stop-color="#F9FEFE" stop-opacity="0.71" />
            <stop offset="0.380324" stop-color="#F9F1FB" />
            <stop offset="0.963619" stop-color="#D0F0F2" stop-opacity="0.853707" />
        </radialGradient>
    </defs>
</svg>
