<svg width="59" height="65" viewBox="0 0 59 65" fill="none" xmlns="http://www.w3.org/2000/svg">
    <g filter="url(#filter0_b_0_1)">
        <path d="M2.70376 17.6173C2.31231 14.9322 4.13397 12.425 6.80863 11.9676L29.1505 8.14685C29.7187 8.04968 30.2995 8.0515 30.867 8.15223L52.2883 11.9538C54.9233 12.4214 56.7229 14.8808 56.3713 17.5337L52.4401 47.1961C52.2703 48.4775 51.6108 49.6433 50.6 50.449L43.0088 56.5L32.74 63.2145C31.0805 64.2995 28.9367 64.3016 27.2752 63.2196L16.9561 56.5L8.94066 50.4303C7.89382 49.6376 7.20083 48.4649 7.01141 47.1655L2.70376 17.6173Z" fill="url(#paint0_linear_0_1)" style="mix-blend-mode:darken" />
        <path d="M3.19853 17.5452C2.84623 15.1286 4.48572 12.8721 6.89292 12.4604L29.2348 8.6397C29.7462 8.55224 30.2689 8.55388 30.7797 8.64453L52.2009 12.4461C54.5724 12.8669 56.1921 15.0804 55.8756 17.4681L51.9445 47.1304C51.7916 48.2837 51.1981 49.3329 50.2884 50.0581L42.7155 56.0944L32.4663 62.796C30.9728 63.7726 29.0434 63.7744 27.548 62.8006L17.2438 56.0907L9.24251 50.0317C8.30035 49.3183 7.67666 48.2629 7.50618 47.0934L3.19853 17.5452Z" stroke="url(#paint1_linear_0_1)" />
    </g>
    <g filter="url(#filter1_d_0_1)">
        <path d="M7.80654 13.3652C6.90055 10.173 9.29832 7 12.6166 7H46.6211C49.8661 7 52.2515 10.0432 51.4764 13.1943L42.6213 49.1943C42.0716 51.4291 40.0674 53 37.766 53H22.834C20.5983 53 18.6343 51.5159 18.0239 49.3652L7.80654 13.3652Z" fill="url(#paint2_linear_0_1)" shape-rendering="crispEdges" />
    </g>
    <g filter="url(#filter2_d_0_1)">
        <path d="M11.2541 6.01978C10.6073 2.91487 12.9775 0 16.149 0H43.0164C46.1334 0 48.4907 2.82097 47.9368 5.88841L40.3535 47.8884C39.9237 50.2687 37.8518 52 35.433 52H24.899C22.5306 52 20.4872 50.3384 20.0041 48.0198L11.2541 6.01978Z" fill="url(#paint3_linear_0_1)" shape-rendering="crispEdges" />
    </g>
    <g filter="url(#filter3_d_0_1)">
        <path d="M6.824 50L7.508 46.676H10.808L11.156 45.032H7.832L8.18 43.316H11.84L12.176 41.636H6.668L4.964 50H6.824ZM13.6689 50L15.3729 41.636H13.5129L11.8089 50H13.6689ZM15.7068 46.34C15.7068 47.432 16.0908 48.332 16.8708 49.052C17.6508 49.772 18.6468 50.132 19.8828 50.132C21.1788 50.132 22.2948 49.712 23.2428 48.872L23.9988 45.044H20.0748L19.7508 46.676H21.9828L21.7188 47.972C21.1788 48.308 20.6148 48.476 20.0388 48.476C19.3068 48.476 18.7068 48.26 18.2388 47.828C17.7828 47.396 17.5548 46.832 17.5548 46.136C17.5548 45.356 17.8428 44.66 18.4308 44.072C19.0188 43.472 19.7268 43.172 20.5308 43.172C21.5868 43.172 22.5468 43.628 23.1708 44.3L23.5308 42.476C22.8468 41.828 21.9108 41.504 20.6988 41.504C19.7868 41.504 18.9468 41.732 18.1668 42.188C17.3868 42.644 16.7868 43.244 16.3548 43.988C15.9228 44.72 15.7068 45.512 15.7068 46.34ZM26.2068 50L26.9268 46.424H30.5388L29.8188 50H31.6668L33.3708 41.636H31.5228L30.8988 44.744H27.2868L27.9108 41.636H26.0508L24.3468 50H26.2068ZM36.7677 50L38.1237 43.316H40.3557L40.7037 41.636H34.3557L34.0077 43.316H36.2757L34.9077 50H36.7677ZM45.7639 50L46.1119 48.32H42.1759L42.5359 46.532H46.1359L46.4599 44.888H42.8599L43.1839 43.316H47.0359L47.3839 41.636H41.6719L39.9679 50H45.7639ZM48.9881 50L49.5521 47.216H50.8721L52.0481 50H54.0521L52.7201 46.94C53.3081 46.712 53.7761 46.34 54.1361 45.812C54.4961 45.284 54.6761 44.72 54.6761 44.12C54.6761 43.4 54.4241 42.812 53.9321 42.344C53.4401 41.876 52.8161 41.636 52.0481 41.636H48.8321L47.1281 50H48.9881ZM50.3441 43.316H51.7361C52.3601 43.316 52.8041 43.748 52.8041 44.336C52.8041 44.66 52.6721 44.96 52.4081 45.224C52.1441 45.476 51.8201 45.608 51.4361 45.608H49.8761L50.3441 43.316Z" fill="url(#paint4_radial_0_1)" />
        <path d="M6.824 50V51H7.63918L7.80348 50.2016L6.824 50ZM7.508 46.676V45.676H6.69282L6.52852 46.4744L7.508 46.676ZM10.808 46.676V47.676H11.6185L11.7863 46.8831L10.808 46.676ZM11.156 45.032L12.1343 45.2391L12.3898 44.032H11.156V45.032ZM7.832 45.032L6.85195 44.8332L6.60885 46.032H7.832V45.032ZM8.18 43.316V42.316H7.36244L7.19995 43.1172L8.18 43.316ZM11.84 43.316V44.316H12.6598L12.8206 43.5121L11.84 43.316ZM12.176 41.636L13.1566 41.8321L13.3958 40.636H12.176V41.636ZM6.668 41.636V40.636H5.85119L5.68813 41.4364L6.668 41.636ZM4.964 50L3.98413 49.8004L3.73973 51H4.964V50ZM7.80348 50.2016L8.48748 46.8776L6.52852 46.4744L5.84452 49.7984L7.80348 50.2016ZM7.508 47.676H10.808V45.676H7.508V47.676ZM11.7863 46.8831L12.1343 45.2391L10.1777 44.8249L9.82968 46.4689L11.7863 46.8831ZM11.156 44.032H7.832V46.032H11.156V44.032ZM8.81205 45.2308L9.16005 43.5148L7.19995 43.1172L6.85195 44.8332L8.81205 45.2308ZM8.18 44.316H11.84V42.316H8.18V44.316ZM12.8206 43.5121L13.1566 41.8321L11.1954 41.4399L10.8594 43.1199L12.8206 43.5121ZM12.176 40.636H6.668V42.636H12.176V40.636ZM5.68813 41.4364L3.98413 49.8004L5.94387 50.1996L7.64787 41.8356L5.68813 41.4364ZM4.964 51H6.824V49H4.964V51ZM13.6689 50V51H14.4857L14.6487 50.1996L13.6689 50ZM15.3729 41.636L16.3527 41.8356L16.5971 40.636H15.3729V41.636ZM13.5129 41.636V40.636H12.6961L12.533 41.4364L13.5129 41.636ZM11.8089 50L10.829 49.8004L10.5846 51H11.8089V50ZM14.6487 50.1996L16.3527 41.8356L14.393 41.4364L12.689 49.8004L14.6487 50.1996ZM15.3729 40.636H13.5129V42.636H15.3729V40.636ZM12.533 41.4364L10.829 49.8004L12.7887 50.1996L14.4927 41.8356L12.533 41.4364ZM11.8089 51H13.6689V49H11.8089V51ZM16.8708 49.052L16.1925 49.7868L16.8708 49.052ZM23.2428 48.872L23.906 49.6205L24.1585 49.3967L24.2239 49.0658L23.2428 48.872ZM23.9988 45.044L24.9799 45.2377L25.2156 44.044H23.9988V45.044ZM20.0748 45.044V44.044H19.2538L19.094 44.8493L20.0748 45.044ZM19.7508 46.676L18.77 46.4813L18.5328 47.676H19.7508V46.676ZM21.9828 46.676L22.9627 46.8756L23.2071 45.676H21.9828V46.676ZM21.7188 47.972L22.2471 48.8211L22.6127 48.5936L22.6987 48.1716L21.7188 47.972ZM18.2388 47.828L17.551 48.554L17.5605 48.5628L18.2388 47.828ZM18.4308 44.072L19.138 44.7791L19.145 44.7719L18.4308 44.072ZM23.1708 44.3L22.438 44.9805L23.7722 46.4173L24.1519 44.4936L23.1708 44.3ZM23.5308 42.476L24.5119 42.6696L24.6186 42.129L24.2186 41.75L23.5308 42.476ZM18.1668 42.188L17.6621 41.3247V41.3247L18.1668 42.188ZM16.3548 43.988L17.216 44.4963L17.2196 44.4901L16.3548 43.988ZM14.7068 46.34C14.7068 47.6996 15.1992 48.8699 16.1925 49.7868L17.5491 48.3172C16.9824 47.7941 16.7068 47.1644 16.7068 46.34H14.7068ZM16.1925 49.7868C17.1854 50.7033 18.4366 51.132 19.8828 51.132V49.132C18.857 49.132 18.1162 48.8407 17.5491 48.3172L16.1925 49.7868ZM19.8828 51.132C21.4182 51.132 22.7714 50.6258 23.906 49.6205L22.5796 48.1235C21.8182 48.7982 20.9394 49.132 19.8828 49.132V51.132ZM24.2239 49.0658L24.9799 45.2377L23.0178 44.8502L22.2618 48.6783L24.2239 49.0658ZM23.9988 44.044H20.0748V46.044H23.9988V44.044ZM19.094 44.8493L18.77 46.4813L20.7317 46.8707L21.0557 45.2387L19.094 44.8493ZM19.7508 47.676H21.9828V45.676H19.7508V47.676ZM21.0029 46.4764L20.7389 47.7724L22.6987 48.1716L22.9627 46.8756L21.0029 46.4764ZM21.1905 47.1229C20.7938 47.3698 20.4109 47.476 20.0388 47.476V49.476C20.8187 49.476 21.5638 49.2462 22.2471 48.8211L21.1905 47.1229ZM20.0388 47.476C19.518 47.476 19.1728 47.3292 18.9171 47.0932L17.5605 48.5628C18.2408 49.1908 19.0956 49.476 20.0388 49.476V47.476ZM18.9266 47.102C18.6925 46.8803 18.5548 46.5902 18.5548 46.136H16.5548C16.5548 47.0738 16.8731 47.9117 17.5511 48.554L18.9266 47.102ZM18.5548 46.136C18.5548 45.6304 18.7309 45.1862 19.1379 44.7791L17.7237 43.3649C16.9548 44.1338 16.5548 45.0816 16.5548 46.136H18.5548ZM19.145 44.7719C19.5512 44.3575 20.0043 44.172 20.5308 44.172V42.172C19.4493 42.172 18.4865 42.5865 17.7166 43.3721L19.145 44.7719ZM20.5308 44.172C21.304 44.172 22 44.5087 22.438 44.9805L23.9036 43.6195C23.0937 42.7473 21.8697 42.172 20.5308 42.172V44.172ZM24.1519 44.4936L24.5119 42.6696L22.5497 42.2824L22.1897 44.1064L24.1519 44.4936ZM24.2186 41.75C23.3019 40.8816 22.0938 40.504 20.6988 40.504V42.504C21.7278 42.504 22.3917 42.7744 22.8431 43.202L24.2186 41.75ZM20.6988 40.504C19.6099 40.504 18.5957 40.7789 17.6621 41.3247L18.6715 43.0513C19.2979 42.6851 19.9637 42.504 20.6988 42.504V40.504ZM17.6621 41.3247C16.7377 41.8652 16.0116 42.5877 15.49 43.4859L17.2196 44.4901C17.5621 43.9003 18.036 43.4228 18.6715 43.0513L17.6621 41.3247ZM15.4936 43.4797C14.9719 44.3638 14.7068 45.331 14.7068 46.34H16.7068C16.7068 45.693 16.8737 45.0762 17.216 44.4963L15.4936 43.4797ZM26.2068 50V51H27.0255L27.1871 50.1974L26.2068 50ZM26.9268 46.424V45.424H26.1081L25.9465 46.2266L26.9268 46.424ZM30.5388 46.424L31.5191 46.6214L31.7602 45.424H30.5388V46.424ZM29.8188 50L28.8385 49.8026L28.5974 51H29.8188V50ZM31.6668 50V51H32.4836L32.6467 50.1996L31.6668 50ZM33.3708 41.636L34.3507 41.8356L34.5951 40.636H33.3708V41.636ZM31.5228 41.636V40.636H30.7036L30.5424 41.4392L31.5228 41.636ZM30.8988 44.744V45.744H31.718L31.8792 44.9408L30.8988 44.744ZM27.2868 44.744L26.3064 44.5472L26.0661 45.744H27.2868V44.744ZM27.9108 41.636L28.8912 41.8328L29.1315 40.636H27.9108V41.636ZM26.0508 41.636V40.636H25.234L25.0709 41.4364L26.0508 41.636ZM24.3468 50L23.3669 49.8004L23.1225 51H24.3468V50ZM27.1871 50.1974L27.9071 46.6214L25.9465 46.2266L25.2265 49.8026L27.1871 50.1974ZM26.9268 47.424H30.5388V45.424H26.9268V47.424ZM29.5585 46.2266L28.8385 49.8026L30.7991 50.1974L31.5191 46.6214L29.5585 46.2266ZM29.8188 51H31.6668V49H29.8188V51ZM32.6467 50.1996L34.3507 41.8356L32.3909 41.4364L30.6869 49.8004L32.6467 50.1996ZM33.3708 40.636H31.5228V42.636H33.3708V40.636ZM30.5424 41.4392L29.9184 44.5472L31.8792 44.9408L32.5032 41.8328L30.5424 41.4392ZM30.8988 43.744H27.2868V45.744H30.8988V43.744ZM28.2672 44.9408L28.8912 41.8328L26.9304 41.4392L26.3064 44.5472L28.2672 44.9408ZM27.9108 40.636H26.0508V42.636H27.9108V40.636ZM25.0709 41.4364L23.3669 49.8004L25.3267 50.1996L27.0307 41.8356L25.0709 41.4364ZM24.3468 51H26.2068V49H24.3468V51ZM36.7677 50V51H37.5852L37.7477 50.1988L36.7677 50ZM38.1237 43.316V42.316H37.3062L37.1436 43.1172L38.1237 43.316ZM40.3557 43.316V44.316H41.1697L41.3349 43.5188L40.3557 43.316ZM40.7037 41.636L41.6829 41.8388L41.932 40.636H40.7037V41.636ZM34.3557 41.636V40.636H33.5416L33.3764 41.4332L34.3557 41.636ZM34.0077 43.316L33.0284 43.1132L32.7793 44.316H34.0077V43.316ZM36.2757 43.316L37.2553 43.5165L37.5011 42.316H36.2757V43.316ZM34.9077 50L33.928 49.7995L33.6823 51H34.9077V50ZM37.7477 50.1988L39.1037 43.5148L37.1436 43.1172L35.7876 49.8012L37.7477 50.1988ZM38.1237 44.316H40.3557V42.316H38.1237V44.316ZM41.3349 43.5188L41.6829 41.8388L39.7244 41.4332L39.3764 43.1132L41.3349 43.5188ZM40.7037 40.636H34.3557V42.636H40.7037V40.636ZM33.3764 41.4332L33.0284 43.1132L34.9869 43.5188L35.3349 41.8388L33.3764 41.4332ZM34.0077 44.316H36.2757V42.316H34.0077V44.316ZM35.296 43.1155L33.928 49.7995L35.8873 50.2005L37.2553 43.5165L35.296 43.1155ZM34.9077 51H36.7677V49H34.9077V51ZM45.7639 50V51H46.578L46.7431 50.2028L45.7639 50ZM46.1119 48.32L47.0911 48.5228L47.3403 47.32H46.1119V48.32ZM42.1759 48.32L41.1956 48.1226L40.9545 49.32H42.1759V48.32ZM42.5359 46.532V45.532H41.7172L41.5556 46.3346L42.5359 46.532ZM46.1359 46.532V47.532H46.9581L47.117 46.7254L46.1359 46.532ZM46.4599 44.888L47.441 45.0814L47.6762 43.888H46.4599V44.888ZM42.8599 44.888L41.8805 44.6861L41.6328 45.888H42.8599V44.888ZM43.1839 43.316V42.316H42.369L42.2045 43.1141L43.1839 43.316ZM47.0359 43.316V44.316H47.85L48.0151 43.5188L47.0359 43.316ZM47.3839 41.636L48.3631 41.8388L48.6123 40.636H47.3839V41.636ZM41.6719 41.636V40.636H40.8551L40.692 41.4364L41.6719 41.636ZM39.9679 50L38.988 49.8004L38.7436 51H39.9679V50ZM46.7431 50.2028L47.0911 48.5228L45.1327 48.1172L44.7847 49.7972L46.7431 50.2028ZM46.1119 47.32H42.1759V49.32H46.1119V47.32ZM43.1562 48.5174L43.5162 46.7294L41.5556 46.3346L41.1956 48.1226L43.1562 48.5174ZM42.5359 47.532H46.1359V45.532H42.5359V47.532ZM47.117 46.7254L47.441 45.0814L45.4788 44.6946L45.1548 46.3386L47.117 46.7254ZM46.4599 43.888H42.8599V45.888H46.4599V43.888ZM43.8393 45.0899L44.1633 43.5179L42.2045 43.1141L41.8805 44.6861L43.8393 45.0899ZM43.1839 44.316H47.0359V42.316H43.1839V44.316ZM48.0151 43.5188L48.3631 41.8388L46.4047 41.4332L46.0567 43.1132L48.0151 43.5188ZM47.3839 40.636H41.6719V42.636H47.3839V40.636ZM40.692 41.4364L38.988 49.8004L40.9478 50.1996L42.6518 41.8356L40.692 41.4364ZM39.9679 51H45.7639V49H39.9679V51ZM48.9881 50V51H49.8058L49.9682 50.1986L48.9881 50ZM49.5521 47.216V46.216H48.7343L48.572 47.0174L49.5521 47.216ZM50.8721 47.216L51.7932 46.8269L51.5352 46.216H50.8721V47.216ZM52.0481 50L51.1269 50.3891L51.3849 51H52.0481V50ZM54.0521 50V51H55.578L54.969 49.6009L54.0521 50ZM52.7201 46.94L52.3585 46.0076L51.3875 46.3842L51.8032 47.3391L52.7201 46.94ZM54.1361 45.812L54.9623 46.3753V46.3753L54.1361 45.812ZM53.9321 42.344L53.2428 43.0686V43.0686L53.9321 42.344ZM48.8321 41.636V40.636H48.0153L47.8522 41.4364L48.8321 41.636ZM47.1281 50L46.1482 49.8004L45.9038 51H47.1281V50ZM50.3441 43.316V42.316H49.5276L49.3643 43.1159L50.3441 43.316ZM52.4081 45.224L53.0985 45.9474L53.1069 45.9393L53.1152 45.9311L52.4081 45.224ZM49.8761 45.608L48.8963 45.4079L48.6512 46.608H49.8761V45.608ZM49.9682 50.1986L50.5322 47.4146L48.572 47.0174L48.008 49.8014L49.9682 50.1986ZM49.5521 48.216H50.8721V46.216H49.5521V48.216ZM49.9509 47.6051L51.1269 50.3891L52.9692 49.6109L51.7932 46.8269L49.9509 47.6051ZM52.0481 51H54.0521V49H52.0481V51ZM54.969 49.6009L53.637 46.5409L51.8032 47.3391L53.1352 50.3991L54.969 49.6009ZM53.0816 47.8724C53.8599 47.5706 54.4893 47.0691 54.9623 46.3753L53.3098 45.2487C53.0628 45.6109 52.7562 45.8534 52.3585 46.0076L53.0816 47.8724ZM54.9623 46.3753C55.4277 45.6927 55.6761 44.9343 55.6761 44.12H53.6761C53.6761 44.5057 53.5644 44.8753 53.3098 45.2487L54.9623 46.3753ZM55.6761 44.12C55.6761 43.1355 55.3185 42.2826 54.6213 41.6194L53.2428 43.0686C53.5297 43.3414 53.6761 43.6645 53.6761 44.12H55.6761ZM54.6213 41.6194C53.9243 40.9564 53.045 40.636 52.0481 40.636V42.636C52.5871 42.636 52.9559 42.7956 53.2428 43.0686L54.6213 41.6194ZM52.0481 40.636H48.8321V42.636H52.0481V40.636ZM47.8522 41.4364L46.1482 49.8004L48.1079 50.1996L49.8119 41.8356L47.8522 41.4364ZM47.1281 51H48.9881V49H47.1281V51ZM50.3441 44.316H51.7361V42.316H50.3441V44.316ZM51.7361 44.316C51.7762 44.316 51.7988 44.3228 51.8077 44.3262C51.8164 44.3296 51.8159 44.3311 51.8114 44.3268C51.8068 44.3223 51.8034 44.317 51.802 44.3135C51.8005 44.31 51.8041 44.3159 51.8041 44.336H53.8041C53.8041 43.1579 52.8738 42.316 51.7361 42.316V44.316ZM51.8041 44.336C51.8041 44.3591 51.8043 44.4136 51.701 44.5169L53.1152 45.9311C53.5399 45.5064 53.8041 44.9609 53.8041 44.336H51.8041ZM51.7176 44.5006C51.6419 44.5729 51.566 44.608 51.4361 44.608V46.608C52.0741 46.608 52.6463 46.3791 53.0985 45.9474L51.7176 44.5006ZM51.4361 44.608H49.8761V46.608H51.4361V44.608ZM50.8558 45.8081L51.3238 43.5161L49.3643 43.1159L48.8963 45.4079L50.8558 45.8081Z" fill="#681EB1" />
    </g>
    <g filter="url(#filter4_d_0_1)">
        <path d="M43 23.872C43 24.148 43 24.4 42.9545 24.64C42.75 21.568 40.3182 19.132 37.3182 19.132C36.8977 19.132 36.4886 19.192 36.0909 19.276C36.1364 19.6 36.1818 19.876 36.1818 20.2C36.1818 23.02 34.2614 25.384 31.7159 25.972C32.1136 28.66 34.2614 30.748 36.9205 30.952C36.6705 31 36.4318 31 36.1818 31C33.8182 31 31.7159 29.728 30.5 27.808C29.8747 28.7925 29.0289 29.599 28.0378 30.1558C27.0467 30.7126 25.9408 31.0025 24.8182 31C24.5682 31 24.3295 31 24.0795 30.952C26.7386 30.748 28.875 28.672 29.2841 25.972C26.7273 25.384 24.8182 23.02 24.8182 20.2C24.8182 19.876 24.8636 19.6 24.8977 19.276C24.5114 19.192 24.1023 19.132 23.6818 19.132C22.2558 19.1276 20.8811 19.693 19.8335 20.7146C18.7859 21.7363 18.1431 23.1386 18.0341 24.64C18 24.4 18 24.148 18 23.872C18 20.02 20.9432 16.888 24.6023 16.768C24.1482 15.9532 23.8538 15.0503 23.7367 14.1131C23.6197 13.1758 23.6823 12.2232 23.9208 11.3119C24.1593 10.4007 24.5689 9.54937 25.1252 8.80863C25.6815 8.06789 26.3732 7.45282 27.1591 7C25.7386 8.08 24.8182 9.808 24.8182 11.8C24.8182 13.42 25.4545 14.908 26.4886 16C27.5227 14.908 28.9318 14.248 30.5 14.248C32.0568 14.248 33.4773 14.908 34.4773 16C35.5341 14.908 36.1818 13.42 36.1818 11.8C36.1818 9.808 35.25 8.08 33.8409 7C34.6268 7.45282 35.3185 8.06789 35.8748 8.80863C36.4311 9.54937 36.8407 10.4007 37.0792 11.3119C37.3177 12.2232 37.3803 13.1758 37.2633 14.1131C37.1462 15.0503 36.8518 15.9532 36.3977 16.768C40.0682 16.888 43 20.02 43 23.872ZM27.3977 16.732C28.3208 17.3667 29.3985 17.7046 30.5 17.7046C31.6015 17.7046 32.6792 17.3667 33.6023 16.732C32.7727 15.94 31.7045 15.436 30.5 15.436C29.2955 15.436 28.2273 15.94 27.3977 16.732ZM30.5 21.964C31.4318 21.964 32.2045 21.16 32.2045 20.2C32.2045 19.7226 32.025 19.2648 31.7053 18.9272C31.3856 18.5896 30.9521 18.4 30.5 18.4C30.0479 18.4 29.6144 18.5896 29.2947 18.9272C28.975 19.2648 28.7955 19.7226 28.7955 20.2C28.7955 21.16 29.5568 21.964 30.5 21.964ZM29.3295 24.748C29.2159 22.48 27.8977 20.548 26.0114 19.66C25.9886 19.84 25.9545 20.008 25.9545 20.2C25.9545 22.384 27.3977 24.208 29.3295 24.748ZM35 19.66C34.0521 20.1018 33.2372 20.8099 32.6441 21.7071C32.051 22.6042 31.7024 23.6561 31.6364 24.748C33.6023 24.208 35.0455 22.384 35.0455 20.2C35.0455 20.008 35.0114 19.84 35 19.66Z" fill="url(#paint5_angular_0_1)" />
    </g>
    <defs>
        <filter id="filter0_b_0_1" x="-7.34912" y="-1.9248" width="73.7643" height="75.9541" filterUnits="userSpaceOnUse" color-interpolation-filters="sRGB">
            <feFlood flood-opacity="0" result="BackgroundImageFix" />
            <feGaussianBlur in="BackgroundImage" stdDeviation="5" />
            <feComposite in2="SourceAlpha" operator="in" result="effect1_backgroundBlur_0_1" />
            <feBlend mode="normal" in="SourceGraphic" in2="effect1_backgroundBlur_0_1" result="shape" />
        </filter>
        <filter id="filter1_d_0_1" x="3.61353" y="7" width="52.01" height="54" filterUnits="userSpaceOnUse" color-interpolation-filters="sRGB">
            <feFlood flood-opacity="0" result="BackgroundImageFix" />
            <feColorMatrix in="SourceAlpha" type="matrix" values="0 0 0 0 0 0 0 0 0 0 0 0 0 0 0 0 0 0 127 0" result="hardAlpha" />
            <feOffset dy="4" />
            <feGaussianBlur stdDeviation="2" />
            <feComposite in2="hardAlpha" operator="out" />
            <feColorMatrix type="matrix" values="0 0 0 0 0 0 0 0 0 0 0 0 0 0 0 0 0 0 0.25 0" />
            <feBlend mode="normal" in2="BackgroundImageFix" result="effect1_dropShadow_0_1" />
            <feBlend mode="normal" in="SourceGraphic" in2="effect1_dropShadow_0_1" result="shape" />
        </filter>
        <filter id="filter2_d_0_1" x="7.14722" y="0" width="44.8706" height="60" filterUnits="userSpaceOnUse" color-interpolation-filters="sRGB">
            <feFlood flood-opacity="0" result="BackgroundImageFix" />
            <feColorMatrix in="SourceAlpha" type="matrix" values="0 0 0 0 0 0 0 0 0 0 0 0 0 0 0 0 0 0 127 0" result="hardAlpha" />
            <feOffset dy="4" />
            <feGaussianBlur stdDeviation="2" />
            <feComposite in2="hardAlpha" operator="out" />
            <feColorMatrix type="matrix" values="0 0 0 0 0 0 0 0 0 0 0 0 0 0 0 0 0 0 0.25 0" />
            <feBlend mode="normal" in2="BackgroundImageFix" result="effect1_dropShadow_0_1" />
            <feBlend mode="normal" in="SourceGraphic" in2="effect1_dropShadow_0_1" result="shape" />
        </filter>
        <filter id="filter3_d_0_1" x="0.963989" y="41.5039" width="57.712" height="16.6279" filterUnits="userSpaceOnUse" color-interpolation-filters="sRGB">
            <feFlood flood-opacity="0" result="BackgroundImageFix" />
            <feColorMatrix in="SourceAlpha" type="matrix" values="0 0 0 0 0 0 0 0 0 0 0 0 0 0 0 0 0 0 127 0" result="hardAlpha" />
            <feOffset dy="4" />
            <feGaussianBlur stdDeviation="2" />
            <feColorMatrix type="matrix" values="0 0 0 0 0 0 0 0 0 0 0 0 0 0 0 0 0 0 0.25 0" />
            <feBlend mode="normal" in2="BackgroundImageFix" result="effect1_dropShadow_0_1" />
            <feBlend mode="normal" in="SourceGraphic" in2="effect1_dropShadow_0_1" result="shape" />
        </filter>
        <filter id="filter4_d_0_1" x="14" y="7" width="33" height="32" filterUnits="userSpaceOnUse" color-interpolation-filters="sRGB">
            <feFlood flood-opacity="0" result="BackgroundImageFix" />
            <feColorMatrix in="SourceAlpha" type="matrix" values="0 0 0 0 0 0 0 0 0 0 0 0 0 0 0 0 0 0 127 0" result="hardAlpha" />
            <feOffset dy="4" />
            <feGaussianBlur stdDeviation="2" />
            <feComposite in2="hardAlpha" operator="out" />
            <feColorMatrix type="matrix" values="0 0 0 0 0 0 0 0 0 0 0 0 0 0 0 0 0 0 0.25 0" />
            <feBlend mode="normal" in2="BackgroundImageFix" result="effect1_dropShadow_0_1" />
            <feBlend mode="normal" in="SourceGraphic" in2="effect1_dropShadow_0_1" result="shape" />
        </filter>
        <linearGradient id="paint0_linear_0_1" x1="29.5" y1="8" x2="30.0182" y2="74.9997" gradientUnits="userSpaceOnUse">
            <stop offset="0.36586" stop-color="#18AAE9" />
            <stop offset="0.737678" stop-color="#6D0BBB" />
            <stop offset="0.9995" stop-color="#0A2AB3" stop-opacity="0" />
            <stop offset="0.9996" stop-color="#A921BF" stop-opacity="0.353414" />
            <stop offset="0.9997" stop-color="#8D17EA" />
        </linearGradient>
        <linearGradient id="paint1_linear_0_1" x1="29.5" y1="8" x2="29.5" y2="65" gradientUnits="userSpaceOnUse">
            <stop stop-color="#D267ED" stop-opacity="0.75" />
            <stop offset="0.333261" stop-color="#1000CE" stop-opacity="0.53" />
            <stop offset="0.979276" stop-color="#C00ED0" stop-opacity="0.8" />
        </linearGradient>
        <linearGradient id="paint2_linear_0_1" x1="30.0465" y1="3.03448" x2="32.2885" y2="53.9873" gradientUnits="userSpaceOnUse">
            <stop offset="0.161415" stop-color="#F536A9" />
            <stop offset="0.566871" stop-color="#E77AC2" stop-opacity="0.85" />
            <stop offset="0.918243" stop-color="#5C2AC9" />
            <stop offset="1" stop-color="#2D1378" stop-opacity="0.42" />
        </linearGradient>
        <linearGradient id="paint3_linear_0_1" x1="29.9535" y1="-4.48276" x2="30.6522" y2="53.4982" gradientUnits="userSpaceOnUse">
            <stop offset="0.161415" stop-color="#C12EF4" />
            <stop offset="0.788967" stop-color="#2A7CC9" />
            <stop offset="1" stop-color="#430E86" stop-opacity="0.66" />
            <stop offset="1" stop-color="#B22DBE" stop-opacity="0.85" />
        </linearGradient>
        <radialGradient id="paint4_radial_0_1" cx="0" cy="0" r="1" gradientUnits="userSpaceOnUse" gradientTransform="translate(5 41.5) rotate(55.927) scale(60.3628 79.142)">
            <stop offset="0.264492" stop-color="#D0CAE9" />
            <stop offset="0.567607" stop-color="#DECDEA" stop-opacity="0.764779" />
            <stop offset="0.81487" stop-color="#EAD0EA" stop-opacity="0.55" />
            <stop offset="0.939696" stop-color="#951F98" stop-opacity="0.69" />
        </radialGradient>
        <radialGradient id="paint5_angular_0_1" cx="0" cy="0" r="1" gradientUnits="userSpaceOnUse" gradientTransform="translate(34.6667 25.2609) rotate(65.4705) scale(20.0725 21.2937)">
            <stop offset="0.101703" stop-color="#B351D5" />
            <stop offset="0.518007" stop-color="#F7F5FE" />
            <stop offset="0.881063" stop-color="#CB84E3" />
        </radialGradient>
    </defs>
</svg>
