<svg width="82" height="65" viewBox="0 0 82 65" fill="none" xmlns="http://www.w3.org/2000/svg">
    <g filter="url(#filter0_b_0_1)">
        <path d="M14.7038 17.6173C14.3123 14.9322 16.134 12.425 18.8086 11.9676L41.1505 8.14685C41.7187 8.04968 42.2995 8.0515 42.867 8.15223L64.2883 11.9538C66.9233 12.4214 68.7229 14.8808 68.3713 17.5337L64.4401 47.1961C64.2703 48.4775 63.6108 49.6433 62.6 50.449L55.0088 56.5L44.74 63.2145C43.0805 64.2995 40.9367 64.3016 39.2752 63.2196L28.9561 56.5L20.9407 50.4303C19.8938 49.6376 19.2008 48.4649 19.0114 47.1655L14.7038 17.6173Z" fill="url(#paint0_linear_0_1)" style="mix-blend-mode:darken" />
        <path d="M15.1985 17.5452C14.8462 15.1286 16.4857 12.8721 18.8929 12.4604L41.2348 8.6397C41.7462 8.55224 42.2689 8.55388 42.7797 8.64453L64.2009 12.4461C66.5724 12.8669 68.1921 15.0804 67.8756 17.4681L63.9445 47.1304C63.7916 48.2837 63.1981 49.3329 62.2884 50.0581L54.7155 56.0944L44.4663 62.796C42.9728 63.7726 41.0434 63.7744 39.548 62.8006L29.2438 56.0907L21.2425 50.0317C20.3003 49.3183 19.6767 48.2629 19.5062 47.0934L15.1985 17.5452Z" stroke="url(#paint1_linear_0_1)" />
    </g>
    <g filter="url(#filter1_d_0_1)">
        <path d="M19.8065 13.3652C18.9006 10.173 21.2983 7 24.6166 7H58.6211C61.8661 7 64.2515 10.0432 63.4764 13.1943L54.6213 49.1943C54.0716 51.4291 52.0674 53 49.766 53H34.834C32.5983 53 30.6343 51.5159 30.0239 49.3652L19.8065 13.3652Z" fill="url(#paint2_linear_0_1)" shape-rendering="crispEdges" />
    </g>
    <g filter="url(#filter2_d_0_1)">
        <path d="M23.2541 6.01978C22.6073 2.91487 24.9775 0 28.149 0H55.0164C58.1334 0 60.4907 2.82097 59.9368 5.88841L52.3535 47.8884C51.9237 50.2687 49.8518 52 47.433 52H36.899C34.5306 52 32.4872 50.3384 32.0041 48.0198L23.2541 6.01978Z" fill="url(#paint3_linear_0_1)" shape-rendering="crispEdges" />
    </g>
    <g filter="url(#filter3_d_0_1)">
        <path d="M10.076 46L10.424 44.32H7.16L8.528 37.636H6.668L4.964 46H10.076ZM16.9944 46L17.3424 44.32H13.4064L13.7664 42.532H17.3664L17.6904 40.888H14.0904L14.4144 39.316H18.2664L18.6144 37.636H12.9024L11.1984 46H16.9944ZM18.7185 42.34C18.7185 43.432 19.1025 44.332 19.8825 45.052C20.6625 45.772 21.6585 46.132 22.8945 46.132C24.1905 46.132 25.3065 45.712 26.2545 44.872L27.0105 41.044H23.0865L22.7625 42.676H24.9945L24.7305 43.972C24.1905 44.308 23.6265 44.476 23.0505 44.476C22.3185 44.476 21.7185 44.26 21.2505 43.828C20.7945 43.396 20.5665 42.832 20.5665 42.136C20.5665 41.356 20.8545 40.66 21.4425 40.072C22.0305 39.472 22.7385 39.172 23.5425 39.172C24.5985 39.172 25.5585 39.628 26.1825 40.3L26.5425 38.476C25.8585 37.828 24.9225 37.504 23.7105 37.504C22.7985 37.504 21.9585 37.732 21.1785 38.188C20.3985 38.644 19.7985 39.244 19.3665 39.988C18.9345 40.72 18.7185 41.512 18.7185 42.34ZM33.1545 46L33.5025 44.32H29.5665L29.9265 42.532H33.5265L33.8505 40.888H30.2505L30.5745 39.316H34.4265L34.7745 37.636H29.0625L27.3585 46H33.1545ZM36.3547 46L37.3267 41.164L41.8867 46.324L43.6627 37.636H41.8267L40.8307 42.484L36.2947 37.312L34.5187 46H36.3547ZM47.537 46C50.237 46 52.157 43.708 52.157 41.392C52.157 40.3 51.797 39.4 51.065 38.692C50.333 37.984 49.397 37.636 48.245 37.636H45.293L43.589 46H47.537ZM46.805 39.328H48.065C48.725 39.328 49.265 39.544 49.661 39.964C50.069 40.384 50.273 40.924 50.273 41.584C50.273 42.292 50.009 42.928 49.481 43.492C48.965 44.044 48.329 44.32 47.573 44.32H45.785L46.805 39.328ZM54.2102 44.668H57.8102L58.1702 46H60.0062L57.4502 37.156L51.2942 46H53.2982L54.2102 44.668ZM56.8142 40.876L57.4142 43.096H55.2662L56.8142 40.876ZM62.781 46L63.345 43.216H64.665L65.841 46H67.845L66.513 42.94C67.101 42.712 67.569 42.34 67.929 41.812C68.289 41.284 68.469 40.72 68.469 40.12C68.469 39.4 68.217 38.812 67.725 38.344C67.233 37.876 66.609 37.636 65.841 37.636H62.625L60.921 46H62.781ZM64.137 39.316H65.529C66.153 39.316 66.597 39.748 66.597 40.336C66.597 40.66 66.465 40.96 66.201 41.224C65.937 41.476 65.613 41.608 65.229 41.608H63.669L64.137 39.316ZM72.3629 46L72.9509 43.06L77.1389 37.636H74.9789L72.3509 41.044L71.0669 37.636H69.1349L71.1509 42.904L70.5269 46H72.3629Z" fill="url(#paint4_radial_0_1)" />
        <path d="M10.076 46V47H10.8901L11.0552 46.2028L10.076 46ZM10.424 44.32L11.4032 44.5228L11.6524 43.32H10.424V44.32ZM7.16 44.32L6.18031 44.1195L5.9346 45.32H7.16V44.32ZM8.528 37.636L9.50769 37.8365L9.7534 36.636H8.528V37.636ZM6.668 37.636V36.636H5.85119L5.68813 37.4364L6.668 37.636ZM4.964 46L3.98413 45.8004L3.73973 47H4.964V46ZM11.0552 46.2028L11.4032 44.5228L9.44479 44.1172L9.09679 45.7972L11.0552 46.2028ZM10.424 43.32H7.16V45.32H10.424V43.32ZM8.13969 44.5205L9.50769 37.8365L7.54831 37.4355L6.18031 44.1195L8.13969 44.5205ZM8.528 36.636H6.668V38.636H8.528V36.636ZM5.68813 37.4364L3.98413 45.8004L5.94387 46.1996L7.64787 37.8356L5.68813 37.4364ZM4.964 47H10.076V45H4.964V47ZM16.9944 46V47H17.8085L17.9736 46.2028L16.9944 46ZM17.3424 44.32L18.3216 44.5228L18.5707 43.32H17.3424V44.32ZM13.4064 44.32L12.426 44.1226L12.185 45.32H13.4064V44.32ZM13.7664 42.532V41.532H12.9476L12.786 42.3346L13.7664 42.532ZM17.3664 42.532V43.532H18.1885L18.3475 42.7254L17.3664 42.532ZM17.6904 40.888L18.6715 41.0814L18.9067 39.888H17.6904V40.888ZM14.0904 40.888L13.111 40.6861L12.8632 41.888H14.0904V40.888ZM14.4144 39.316V38.316H13.5995L13.435 39.1141L14.4144 39.316ZM18.2664 39.316V40.316H19.0805L19.2456 39.5188L18.2664 39.316ZM18.6144 37.636L19.5936 37.8388L19.8427 36.636H18.6144V37.636ZM12.9024 37.636V36.636H12.0856L11.9225 37.4364L12.9024 37.636ZM11.1984 46L10.2185 45.8004L9.9741 47H11.1984V46ZM17.9736 46.2028L18.3216 44.5228L16.3632 44.1172L16.0152 45.7972L17.9736 46.2028ZM17.3424 43.32H13.4064V45.32H17.3424V43.32ZM14.3867 44.5174L14.7467 42.7294L12.786 42.3346L12.426 44.1226L14.3867 44.5174ZM13.7664 43.532H17.3664V41.532H13.7664V43.532ZM18.3475 42.7254L18.6715 41.0814L16.7092 40.6946L16.3852 42.3386L18.3475 42.7254ZM17.6904 39.888H14.0904V41.888H17.6904V39.888ZM15.0698 41.0899L15.3938 39.5179L13.435 39.1141L13.111 40.6861L15.0698 41.0899ZM14.4144 40.316H18.2664V38.316H14.4144V40.316ZM19.2456 39.5188L19.5936 37.8388L17.6352 37.4332L17.2872 39.1132L19.2456 39.5188ZM18.6144 36.636H12.9024V38.636H18.6144V36.636ZM11.9225 37.4364L10.2185 45.8004L12.1782 46.1996L13.8822 37.8356L11.9225 37.4364ZM11.1984 47H16.9944V45H11.1984V47ZM19.8825 45.052L19.2043 45.7868L19.8825 45.052ZM26.2545 44.872L26.9177 45.6205L27.1702 45.3967L27.2356 45.0658L26.2545 44.872ZM27.0105 41.044L27.9916 41.2377L28.2273 40.044H27.0105V41.044ZM23.0865 41.044V40.044H22.2655L22.1057 40.8493L23.0865 41.044ZM22.7625 42.676L21.7817 42.4813L21.5445 43.676H22.7625V42.676ZM24.9945 42.676L25.9744 42.8756L26.2188 41.676H24.9945V42.676ZM24.7305 43.972L25.2588 44.8211L25.6245 44.5936L25.7104 44.1716L24.7305 43.972ZM21.2505 43.828L20.5627 44.554L20.5723 44.5628L21.2505 43.828ZM21.4425 40.072L22.1497 40.7791L22.1567 40.7719L21.4425 40.072ZM26.1825 40.3L25.4497 40.9805L26.7839 42.4173L27.1636 40.4936L26.1825 40.3ZM26.5425 38.476L27.5236 38.6696L27.6303 38.129L27.2303 37.75L26.5425 38.476ZM21.1785 38.188L20.6738 37.3247V37.3247L21.1785 38.188ZM19.3665 39.988L20.2278 40.4963L20.2313 40.4901L19.3665 39.988ZM17.7185 42.34C17.7185 43.6996 18.2109 44.8699 19.2043 45.7868L20.5608 44.3172C19.9942 43.7941 19.7185 43.1644 19.7185 42.34H17.7185ZM19.2043 45.7868C20.1972 46.7033 21.4483 47.132 22.8945 47.132V45.132C21.8687 45.132 21.1279 44.8407 20.5608 44.3172L19.2043 45.7868ZM22.8945 47.132C24.4299 47.132 25.7831 46.6258 26.9177 45.6205L25.5913 44.1235C24.8299 44.7982 23.9511 45.132 22.8945 45.132V47.132ZM27.2356 45.0658L27.9916 41.2377L26.0295 40.8502L25.2735 44.6783L27.2356 45.0658ZM27.0105 40.044H23.0865V42.044H27.0105V40.044ZM22.1057 40.8493L21.7817 42.4813L23.7434 42.8707L24.0674 41.2387L22.1057 40.8493ZM22.7625 43.676H24.9945V41.676H22.7625V43.676ZM24.0147 42.4764L23.7507 43.7724L25.7104 44.1716L25.9744 42.8756L24.0147 42.4764ZM24.2022 43.1229C23.8055 43.3698 23.4226 43.476 23.0505 43.476V45.476C23.8304 45.476 24.5755 45.2462 25.2588 44.8211L24.2022 43.1229ZM23.0505 43.476C22.5297 43.476 22.1845 43.3292 21.9288 43.0932L20.5723 44.5628C21.2525 45.1908 22.1074 45.476 23.0505 45.476V43.476ZM21.9383 43.102C21.7042 42.8803 21.5665 42.5902 21.5665 42.136H19.5665C19.5665 43.0738 19.8848 43.9117 20.5628 44.554L21.9383 43.102ZM21.5665 42.136C21.5665 41.6304 21.7426 41.1862 22.1496 40.7791L20.7354 39.3649C19.9665 40.1338 19.5665 41.0816 19.5665 42.136H21.5665ZM22.1567 40.7719C22.5629 40.3575 23.016 40.172 23.5425 40.172V38.172C22.461 38.172 21.4982 38.5865 20.7283 39.3721L22.1567 40.7719ZM23.5425 40.172C24.3157 40.172 25.0117 40.5087 25.4497 40.9805L26.9153 39.6195C26.1054 38.7473 24.8814 38.172 23.5425 38.172V40.172ZM27.1636 40.4936L27.5236 38.6696L25.5615 38.2824L25.2015 40.1064L27.1636 40.4936ZM27.2303 37.75C26.3136 36.8816 25.1055 36.504 23.7105 36.504V38.504C24.7395 38.504 25.4034 38.7744 25.8548 39.202L27.2303 37.75ZM23.7105 36.504C22.6217 36.504 21.6074 36.7789 20.6738 37.3247L21.6832 39.0513C22.3097 38.6851 22.9754 38.504 23.7105 38.504V36.504ZM20.6738 37.3247C19.7494 37.8652 19.0233 38.5877 18.5017 39.4859L20.2313 40.4901C20.5738 39.9003 21.0477 39.4228 21.6832 39.0513L20.6738 37.3247ZM18.5053 39.4797C17.9836 40.3638 17.7185 41.331 17.7185 42.34H19.7185C19.7185 41.693 19.8855 41.0762 20.2277 40.4963L18.5053 39.4797ZM33.1545 46V47H33.9686L34.1337 46.2028L33.1545 46ZM33.5025 44.32L34.4817 44.5228L34.7309 43.32H33.5025V44.32ZM29.5665 44.32L28.5862 44.1226L28.3451 45.32H29.5665V44.32ZM29.9265 42.532V41.532H29.1078L28.9462 42.3346L29.9265 42.532ZM33.5265 42.532V43.532H34.3487L34.5077 42.7254L33.5265 42.532ZM33.8505 40.888L34.8317 41.0814L35.0668 39.888H33.8505V40.888ZM30.2505 40.888L29.2711 40.6861L29.0234 41.888H30.2505V40.888ZM30.5745 39.316V38.316H29.7596L29.5951 39.1141L30.5745 39.316ZM34.4265 39.316V40.316H35.2406L35.4057 39.5188L34.4265 39.316ZM34.7745 37.636L35.7537 37.8388L36.0029 36.636H34.7745V37.636ZM29.0625 37.636V36.636H28.2457L28.0827 37.4364L29.0625 37.636ZM27.3585 46L26.3787 45.8004L26.1343 47H27.3585V46ZM34.1337 46.2028L34.4817 44.5228L32.5233 44.1172L32.1753 45.7972L34.1337 46.2028ZM33.5025 43.32H29.5665V45.32H33.5025V43.32ZM30.5469 44.5174L30.9069 42.7294L28.9462 42.3346L28.5862 44.1226L30.5469 44.5174ZM29.9265 43.532H33.5265V41.532H29.9265V43.532ZM34.5077 42.7254L34.8317 41.0814L32.8694 40.6946L32.5454 42.3386L34.5077 42.7254ZM33.8505 39.888H30.2505V41.888H33.8505V39.888ZM31.2299 41.0899L31.5539 39.5179L29.5951 39.1141L29.2711 40.6861L31.2299 41.0899ZM30.5745 40.316H34.4265V38.316H30.5745V40.316ZM35.4057 39.5188L35.7537 37.8388L33.7953 37.4332L33.4473 39.1132L35.4057 39.5188ZM34.7745 36.636H29.0625V38.636H34.7745V36.636ZM28.0827 37.4364L26.3787 45.8004L28.3384 46.1996L30.0424 37.8356L28.0827 37.4364ZM27.3585 47H33.1545V45H27.3585V47ZM36.3547 46V47H37.1737L37.3351 46.1971L36.3547 46ZM37.3267 41.164L38.076 40.5018L36.743 38.9934L36.3463 40.9669L37.3267 41.164ZM41.8867 46.324L41.1374 46.9862L42.4649 48.4884L42.8664 46.5243L41.8867 46.324ZM43.6627 37.636L44.6424 37.8363L44.8878 36.636H43.6627V37.636ZM41.8267 37.636V36.636H41.0112L40.8471 37.4348L41.8267 37.636ZM40.8307 42.484L40.0789 43.1434L41.4054 44.6559L41.8102 42.6852L40.8307 42.484ZM36.2947 37.312L37.0465 36.6526L35.7184 35.1383L35.3149 37.1117L36.2947 37.312ZM34.5187 46L33.5389 45.7997L33.2936 47H34.5187V46ZM37.3351 46.1971L38.3071 41.3611L36.3463 40.9669L35.3743 45.8029L37.3351 46.1971ZM36.5774 41.8262L41.1374 46.9862L42.636 45.6618L38.076 40.5018L36.5774 41.8262ZM42.8664 46.5243L44.6424 37.8363L42.6829 37.4357L40.9069 46.1237L42.8664 46.5243ZM43.6627 36.636H41.8267V38.636H43.6627V36.636ZM40.8471 37.4348L39.8511 42.2828L41.8102 42.6852L42.8062 37.8372L40.8471 37.4348ZM41.5825 41.8246L37.0465 36.6526L35.5429 37.9714L40.0789 43.1434L41.5825 41.8246ZM35.3149 37.1117L33.5389 45.7997L35.4984 46.2003L37.2744 37.5123L35.3149 37.1117ZM34.5187 47H36.3547V45H34.5187V47ZM51.065 38.692L50.3698 39.4108V39.4108L51.065 38.692ZM45.293 37.636V36.636H44.4762L44.3131 37.4364L45.293 37.636ZM43.589 46L42.6091 45.8004L42.3647 47H43.589V46ZM46.805 39.328V38.328H45.9887L45.8252 39.1278L46.805 39.328ZM49.661 39.964L48.9334 40.65L48.9385 40.6554L48.9437 40.6608L49.661 39.964ZM49.481 43.492L48.751 42.8086L48.7505 42.8091L49.481 43.492ZM45.785 44.32L44.8052 44.1198L44.56 45.32H45.785V44.32ZM47.537 47C50.8391 47 53.157 44.2091 53.157 41.392H51.157C51.157 43.2069 49.6349 45 47.537 45V47ZM53.157 41.392C53.157 40.0551 52.705 38.887 51.7602 37.9732L50.3698 39.4108C50.889 39.913 51.157 40.5449 51.157 41.392H53.157ZM51.7602 37.9732C50.8151 37.0591 49.6169 36.636 48.245 36.636V38.636C49.1771 38.636 49.8509 38.9089 50.3698 39.4108L51.7602 37.9732ZM48.245 36.636H45.293V38.636H48.245V36.636ZM44.3131 37.4364L42.6091 45.8004L44.5689 46.1996L46.2729 37.8356L44.3131 37.4364ZM43.589 47H47.537V45H43.589V47ZM46.805 40.328H48.065V38.328H46.805V40.328ZM48.065 40.328C48.4913 40.328 48.7532 40.4589 48.9334 40.65L50.3886 39.278C49.7768 38.6291 48.9587 38.328 48.065 38.328V40.328ZM48.9437 40.6608C49.1468 40.8699 49.273 41.1483 49.273 41.584H51.273C51.273 40.6997 50.9912 39.8981 50.3783 39.2672L48.9437 40.6608ZM49.273 41.584C49.273 42.014 49.1228 42.4114 48.751 42.8086L50.211 44.1754C50.8952 43.4446 51.273 42.57 51.273 41.584H49.273ZM48.7505 42.8091C48.4237 43.1587 48.0522 43.32 47.573 43.32V45.32C48.6058 45.32 49.5063 44.9293 50.2115 44.1749L48.7505 42.8091ZM47.573 43.32H45.785V45.32H47.573V43.32ZM46.7648 44.5202L47.7848 39.5282L45.8252 39.1278L44.8052 44.1198L46.7648 44.5202ZM54.2102 44.668V43.668H53.683L53.3851 44.103L54.2102 44.668ZM57.8102 44.668L58.7756 44.4071L58.5758 43.668H57.8102V44.668ZM58.1702 46L57.2049 46.2609L57.4046 47H58.1702V46ZM60.0062 46V47H61.3362L60.9669 45.7224L60.0062 46ZM57.4502 37.156L58.4109 36.8784L57.8283 34.8624L56.6295 36.5847L57.4502 37.156ZM51.2942 46L50.4735 45.4287L49.3797 47H51.2942V46ZM53.2982 46V47H53.8255L54.1233 46.5649L53.2982 46ZM56.8142 40.876L57.7796 40.6151L57.2202 38.5454L55.9939 40.304L56.8142 40.876ZM57.4142 43.096V44.096H58.7204L58.3796 42.8351L57.4142 43.096ZM55.2662 43.096L54.4459 42.524L53.3498 44.096H55.2662V43.096ZM54.2102 45.668H57.8102V43.668H54.2102V45.668ZM56.8449 44.9289L57.2049 46.2609L59.1356 45.7391L58.7756 44.4071L56.8449 44.9289ZM58.1702 47H60.0062V45H58.1702V47ZM60.9669 45.7224L58.4109 36.8784L56.4895 37.4336L59.0455 46.2776L60.9669 45.7224ZM56.6295 36.5847L50.4735 45.4287L52.115 46.5713L58.271 37.7273L56.6295 36.5847ZM51.2942 47H53.2982V45H51.2942V47ZM54.1233 46.5649L55.0353 45.233L53.3851 44.103L52.4731 45.4351L54.1233 46.5649ZM55.8489 41.1369L56.4489 43.3569L58.3796 42.8351L57.7796 40.6151L55.8489 41.1369ZM57.4142 42.096H55.2662V44.096H57.4142V42.096ZM56.0865 43.668L57.6345 41.448L55.9939 40.304L54.4459 42.524L56.0865 43.668ZM62.781 46V47H63.5988L63.7611 46.1986L62.781 46ZM63.345 43.216V42.216H62.5273L62.3649 43.0174L63.345 43.216ZM64.665 43.216L65.5862 42.8269L65.3282 42.216H64.665V43.216ZM65.841 46L64.9198 46.3891L65.1779 47H65.841V46ZM67.845 46V47H69.371L68.7619 45.6009L67.845 46ZM66.513 42.94L66.1515 42.0076L65.1805 42.3842L65.5961 43.3391L66.513 42.94ZM67.929 41.812L68.7553 42.3753V42.3753L67.929 41.812ZM67.725 38.344L67.0358 39.0686V39.0686L67.725 38.344ZM62.625 37.636V36.636H61.8082L61.6452 37.4364L62.625 37.636ZM60.921 46L59.9412 45.8004L59.6968 47H60.921V46ZM64.137 39.316V38.316H63.3206L63.1572 39.1159L64.137 39.316ZM66.201 41.224L66.8915 41.9474L66.8999 41.9393L66.9081 41.9311L66.201 41.224ZM63.669 41.608L62.6892 41.4079L62.4442 42.608H63.669V41.608ZM63.7611 46.1986L64.3251 43.4146L62.3649 43.0174L61.8009 45.8014L63.7611 46.1986ZM63.345 44.216H64.665V42.216H63.345V44.216ZM63.7438 43.6051L64.9198 46.3891L66.7622 45.6109L65.5862 42.8269L63.7438 43.6051ZM65.841 47H67.845V45H65.841V47ZM68.7619 45.6009L67.4299 42.5409L65.5961 43.3391L66.9281 46.3991L68.7619 45.6009ZM66.8746 43.8724C67.6529 43.5706 68.2823 43.0691 68.7553 42.3753L67.1028 41.2487C66.8558 41.6109 66.5492 41.8534 66.1515 42.0076L66.8746 43.8724ZM68.7553 42.3753C69.2207 41.6927 69.469 40.9343 69.469 40.12H67.469C67.469 40.5057 67.3573 40.8753 67.1028 41.2487L68.7553 42.3753ZM69.469 40.12C69.469 39.1355 69.1114 38.2826 68.4142 37.6194L67.0358 39.0686C67.3226 39.3414 67.469 39.6645 67.469 40.12H69.469ZM68.4142 37.6194C67.7172 36.9564 66.838 36.636 65.841 36.636V38.636C66.3801 38.636 66.7488 38.7956 67.0358 39.0686L68.4142 37.6194ZM65.841 36.636H62.625V38.636H65.841V36.636ZM61.6452 37.4364L59.9412 45.8004L61.9009 46.1996L63.6049 37.8356L61.6452 37.4364ZM60.921 47H62.781V45H60.921V47ZM64.137 40.316H65.529V38.316H64.137V40.316ZM65.529 40.316C65.5692 40.316 65.5918 40.3228 65.6006 40.3262C65.6094 40.3296 65.6089 40.3311 65.6044 40.3268C65.5998 40.3223 65.5964 40.317 65.595 40.3135C65.5935 40.31 65.597 40.3159 65.597 40.336H67.597C67.597 39.1579 66.6668 38.316 65.529 38.316V40.316ZM65.597 40.336C65.597 40.3591 65.5972 40.4136 65.4939 40.5169L66.9081 41.9311C67.3328 41.5064 67.597 40.9609 67.597 40.336H65.597ZM65.5106 40.5006C65.4348 40.5729 65.359 40.608 65.229 40.608V42.608C65.8671 42.608 66.4392 42.3791 66.8915 41.9474L65.5106 40.5006ZM65.229 40.608H63.669V42.608H65.229V40.608ZM64.6488 41.8081L65.1168 39.5161L63.1572 39.1159L62.6892 41.4079L64.6488 41.8081ZM72.3629 46V47H73.1827L73.3435 46.1961L72.3629 46ZM72.9509 43.06L72.1594 42.4489L72.0163 42.6342L71.9704 42.8639L72.9509 43.06ZM77.1389 37.636L77.9305 38.2471L79.1745 36.636H77.1389V37.636ZM74.9789 37.636V36.636H74.4873L74.187 37.0253L74.9789 37.636ZM72.3509 41.044L71.4152 41.3966L72.0475 43.075L73.1428 41.6547L72.3509 41.044ZM71.0669 37.636L72.0027 37.2834L71.7588 36.636H71.0669V37.636ZM69.1349 37.636V36.636H67.6815L68.201 37.9934L69.1349 37.636ZM71.1509 42.904L72.1312 43.1016L72.1885 42.8174L72.0849 42.5466L71.1509 42.904ZM70.5269 46L69.5467 45.8024L69.3053 47H70.5269V46ZM73.3435 46.1961L73.9315 43.2561L71.9704 42.8639L71.3824 45.8039L73.3435 46.1961ZM73.7425 43.6711L77.9305 38.2471L76.3474 37.0249L72.1594 42.4489L73.7425 43.6711ZM77.1389 36.636H74.9789V38.636H77.1389V36.636ZM74.187 37.0253L71.559 40.4333L73.1428 41.6547L75.7708 38.2467L74.187 37.0253ZM73.2867 40.6914L72.0027 37.2834L70.1311 37.9886L71.4152 41.3966L73.2867 40.6914ZM71.0669 36.636H69.1349V38.636H71.0669V36.636ZM68.201 37.9934L70.217 43.2614L72.0849 42.5466L70.0689 37.2786L68.201 37.9934ZM70.1706 42.7064L69.5467 45.8024L71.5072 46.1976L72.1312 43.1016L70.1706 42.7064ZM70.5269 47H72.3629V45H70.5269V47Z" fill="#681EB1" />
    </g>
    <g filter="url(#filter4_d_0_1)">
        <path d="M42.4653 6L41.8357 7.05923L39.3179 11.2261H33L33.6766 12.3795L36.1466 16.4996L33.6774 20.6198L33 21.7732H39.3187L41.8357 25.94L42.4653 27L43.0949 25.94L45.6127 21.7732H52L51.301 20.6198L48.8064 16.4996L51.301 12.3795L51.9993 11.2261H45.6135L43.0957 7.05923L42.4653 6ZM42.4653 8.89518L43.8641 11.2261H41.0666L42.4653 8.89518ZM35.658 12.7328H38.4324L37.0336 15.0404L35.658 12.7328ZM40.1572 12.7328H44.7966L47.0577 16.4996L44.7966 20.2664H40.1572L37.9192 16.4996L40.1572 12.7328ZM46.5213 12.7328H49.3427L47.944 15.0637L46.5213 12.7328ZM47.944 17.9355L49.3427 20.2664H46.5213L47.944 17.9355ZM37.0336 17.9596L38.4324 20.2664H35.658L37.0336 17.9596ZM41.0666 21.7732H43.8641L42.4653 24.1041L41.0666 21.7732Z" fill="url(#paint5_angular_0_1)" shape-rendering="crispEdges" />
    </g>
    <defs>
        <filter id="filter0_b_0_1" x="4.65088" y="-1.9248" width="73.7643" height="75.9541" filterUnits="userSpaceOnUse" color-interpolation-filters="sRGB">
            <feFlood flood-opacity="0" result="BackgroundImageFix" />
            <feGaussianBlur in="BackgroundImage" stdDeviation="5" />
            <feComposite in2="SourceAlpha" operator="in" result="effect1_backgroundBlur_0_1" />
            <feBlend mode="normal" in="SourceGraphic" in2="effect1_backgroundBlur_0_1" result="shape" />
        </filter>
        <filter id="filter1_d_0_1" x="15.6135" y="7" width="52.01" height="54" filterUnits="userSpaceOnUse" color-interpolation-filters="sRGB">
            <feFlood flood-opacity="0" result="BackgroundImageFix" />
            <feColorMatrix in="SourceAlpha" type="matrix" values="0 0 0 0 0 0 0 0 0 0 0 0 0 0 0 0 0 0 127 0" result="hardAlpha" />
            <feOffset dy="4" />
            <feGaussianBlur stdDeviation="2" />
            <feComposite in2="hardAlpha" operator="out" />
            <feColorMatrix type="matrix" values="0 0 0 0 0 0 0 0 0 0 0 0 0 0 0 0 0 0 0.25 0" />
            <feBlend mode="normal" in2="BackgroundImageFix" result="effect1_dropShadow_0_1" />
            <feBlend mode="normal" in="SourceGraphic" in2="effect1_dropShadow_0_1" result="shape" />
        </filter>
        <filter id="filter2_d_0_1" x="19.1472" y="0" width="44.8706" height="60" filterUnits="userSpaceOnUse" color-interpolation-filters="sRGB">
            <feFlood flood-opacity="0" result="BackgroundImageFix" />
            <feColorMatrix in="SourceAlpha" type="matrix" values="0 0 0 0 0 0 0 0 0 0 0 0 0 0 0 0 0 0 127 0" result="hardAlpha" />
            <feOffset dy="4" />
            <feGaussianBlur stdDeviation="2" />
            <feComposite in2="hardAlpha" operator="out" />
            <feColorMatrix type="matrix" values="0 0 0 0 0 0 0 0 0 0 0 0 0 0 0 0 0 0 0.25 0" />
            <feBlend mode="normal" in2="BackgroundImageFix" result="effect1_dropShadow_0_1" />
            <feBlend mode="normal" in="SourceGraphic" in2="effect1_dropShadow_0_1" result="shape" />
        </filter>
        <filter id="filter3_d_0_1" x="0.963989" y="37.1562" width="80.1749" height="17.168" filterUnits="userSpaceOnUse" color-interpolation-filters="sRGB">
            <feFlood flood-opacity="0" result="BackgroundImageFix" />
            <feColorMatrix in="SourceAlpha" type="matrix" values="0 0 0 0 0 0 0 0 0 0 0 0 0 0 0 0 0 0 127 0" result="hardAlpha" />
            <feOffset dy="4" />
            <feGaussianBlur stdDeviation="2" />
            <feColorMatrix type="matrix" values="0 0 0 0 0 0 0 0 0 0 0 0 0 0 0 0 0 0 0.25 0" />
            <feBlend mode="normal" in2="BackgroundImageFix" result="effect1_dropShadow_0_1" />
            <feBlend mode="normal" in="SourceGraphic" in2="effect1_dropShadow_0_1" result="shape" />
        </filter>
        <filter id="filter4_d_0_1" x="29" y="6" width="27" height="29" filterUnits="userSpaceOnUse" color-interpolation-filters="sRGB">
            <feFlood flood-opacity="0" result="BackgroundImageFix" />
            <feColorMatrix in="SourceAlpha" type="matrix" values="0 0 0 0 0 0 0 0 0 0 0 0 0 0 0 0 0 0 127 0" result="hardAlpha" />
            <feOffset dy="4" />
            <feGaussianBlur stdDeviation="2" />
            <feComposite in2="hardAlpha" operator="out" />
            <feColorMatrix type="matrix" values="0 0 0 0 0 0 0 0 0 0 0 0 0 0 0 0 0 0 0.25 0" />
            <feBlend mode="normal" in2="BackgroundImageFix" result="effect1_dropShadow_0_1" />
            <feBlend mode="normal" in="SourceGraphic" in2="effect1_dropShadow_0_1" result="shape" />
        </filter>
        <linearGradient id="paint0_linear_0_1" x1="41.5" y1="8" x2="42.0182" y2="74.9997" gradientUnits="userSpaceOnUse">
            <stop offset="0.36586" stop-color="#18AAE9" />
            <stop offset="0.737678" stop-color="#6D0BBB" />
            <stop offset="0.9995" stop-color="#0A2AB3" stop-opacity="0" />
            <stop offset="0.9996" stop-color="#A921BF" stop-opacity="0.353414" />
            <stop offset="0.9997" stop-color="#8D17EA" />
        </linearGradient>
        <linearGradient id="paint1_linear_0_1" x1="41.5" y1="8" x2="41.5" y2="65" gradientUnits="userSpaceOnUse">
            <stop stop-color="#D267ED" stop-opacity="0.75" />
            <stop offset="0.333261" stop-color="#1000CE" stop-opacity="0.53" />
            <stop offset="0.979276" stop-color="#C00ED0" stop-opacity="0.8" />
        </linearGradient>
        <linearGradient id="paint2_linear_0_1" x1="42.0465" y1="3.03448" x2="44.2885" y2="53.9873" gradientUnits="userSpaceOnUse">
            <stop offset="0.161415" stop-color="#F536A9" />
            <stop offset="0.566871" stop-color="#E77AC2" stop-opacity="0.85" />
            <stop offset="0.918243" stop-color="#5C2AC9" />
            <stop offset="1" stop-color="#2D1378" stop-opacity="0.42" />
        </linearGradient>
        <linearGradient id="paint3_linear_0_1" x1="41.9535" y1="-4.48276" x2="42.6522" y2="53.4982" gradientUnits="userSpaceOnUse">
            <stop offset="0.161415" stop-color="#C12EF4" />
            <stop offset="0.788967" stop-color="#2A7CC9" />
            <stop offset="1" stop-color="#430E86" stop-opacity="0.66" />
            <stop offset="1" stop-color="#B22DBE" stop-opacity="0.85" />
        </linearGradient>
        <radialGradient id="paint4_radial_0_1" cx="0" cy="0" r="1" gradientUnits="userSpaceOnUse" gradientTransform="translate(5 37.5) rotate(52.3506) scale(63.1502 86.2869)">
            <stop offset="0.264492" stop-color="#D0CAE9" />
            <stop offset="0.567607" stop-color="#DECDEA" stop-opacity="0.764779" />
            <stop offset="0.81487" stop-color="#EAD0EA" stop-opacity="0.55" />
            <stop offset="0.939696" stop-color="#951F98" stop-opacity="0.69" />
        </radialGradient>
        <radialGradient id="paint5_angular_0_1" cx="0" cy="0" r="1" gradientUnits="userSpaceOnUse" gradientTransform="translate(30 18.5) rotate(34.2157) scale(15.1162 44.6035)">
            <stop stop-color="#D3D3D3" />
            <stop offset="0.258343" stop-color="#E2E7E3" stop-opacity="0.912829" />
            <stop offset="0.438779" stop-color="#ECF5EE" stop-opacity="0.85" />
            <stop offset="0.9388" stop-color="#D7EEDD" stop-opacity="0.9" />
        </radialGradient>
    </defs>
</svg>
