<svg width="82" height="65" viewBox="0 0 82 65" fill="none" xmlns="http://www.w3.org/2000/svg">
    <g filter="url(#filter0_b_0_1)">
        <path d="M14.7038 17.6173C14.3123 14.9322 16.134 12.425 18.8086 11.9676L41.1505 8.14685C41.7187 8.04968 42.2995 8.0515 42.867 8.15223L64.2883 11.9538C66.9233 12.4214 68.7229 14.8808 68.3713 17.5337L64.4401 47.1961C64.2703 48.4775 63.6108 49.6433 62.6 50.449L55.0088 56.5L44.74 63.2145C43.0805 64.2995 40.9367 64.3016 39.2752 63.2196L28.9561 56.5L20.9407 50.4303C19.8938 49.6376 19.2008 48.4649 19.0114 47.1655L14.7038 17.6173Z" fill="url(#paint0_linear_0_1)" style="mix-blend-mode:darken" />
        <path d="M15.1985 17.5452C14.8462 15.1286 16.4857 12.8721 18.8929 12.4604L41.2348 8.6397C41.7462 8.55224 42.2689 8.55388 42.7797 8.64453L64.2009 12.4461C66.5724 12.8669 68.1921 15.0804 67.8756 17.4681L63.9445 47.1304C63.7916 48.2837 63.1981 49.3329 62.2884 50.0581L54.7155 56.0944L44.4663 62.796C42.9728 63.7726 41.0434 63.7744 39.548 62.8006L29.2438 56.0907L21.2425 50.0317C20.3003 49.3183 19.6767 48.2629 19.5062 47.0934L15.1985 17.5452Z" stroke="url(#paint1_linear_0_1)" />
    </g>
    <g filter="url(#filter1_d_0_1)">
        <path d="M19.8065 13.3652C18.9006 10.173 21.2983 7 24.6166 7H58.6211C61.8661 7 64.2515 10.0432 63.4764 13.1943L54.6213 49.1943C54.0716 51.4291 52.0674 53 49.766 53H34.834C32.5983 53 30.6343 51.5159 30.0239 49.3652L19.8065 13.3652Z" fill="url(#paint2_linear_0_1)" shape-rendering="crispEdges" />
    </g>
    <g filter="url(#filter2_d_0_1)">
        <path d="M23.2541 6.01978C22.6073 2.91487 24.9775 0 28.149 0H55.0164C58.1334 0 60.4907 2.82097 59.9368 5.88841L52.3535 47.8884C51.9237 50.2687 49.8518 52 47.433 52H36.899C34.5306 52 32.4872 50.3384 32.0041 48.0198L23.2541 6.01978Z" fill="url(#paint3_linear_0_1)" shape-rendering="crispEdges" />
    </g>
    <g filter="url(#filter3_d_0_1)">
        <path d="M6.824 48L7.376 45.3H9.32C10.22 45.3 10.964 44.988 11.576 44.352C12.188 43.716 12.488 42.996 12.488 42.18C12.488 41.436 12.236 40.824 11.744 40.356C11.252 39.876 10.604 39.636 9.812 39.636H6.668L4.964 48H6.824ZM8.18 41.316H9.608C10.232 41.316 10.652 41.736 10.652 42.312C10.652 42.648 10.532 42.948 10.28 43.224C10.04 43.488 9.752 43.62 9.404 43.62H7.712L8.18 41.316ZM18.2717 48L18.6197 46.32H14.6837L15.0437 44.532H18.6437L18.9677 42.888H15.3677L15.6917 41.316H19.5437L19.8917 39.636H14.1797L12.4757 48H18.2717ZM21.4959 48L22.0599 45.216H23.3799L24.5559 48H26.5599L25.2279 44.94C25.8159 44.712 26.2839 44.34 26.6439 43.812C27.0039 43.284 27.1839 42.72 27.1839 42.12C27.1839 41.4 26.9319 40.812 26.4399 40.344C25.9479 39.876 25.3239 39.636 24.5559 39.636H21.3399L19.6359 48H21.4959ZM22.8519 41.316H24.2439C24.8679 41.316 25.3119 41.748 25.3119 42.336C25.3119 42.66 25.1799 42.96 24.9159 43.224C24.6519 43.476 24.3279 43.608 23.9439 43.608H22.3839L22.8519 41.316ZM29.3709 48L30.0549 44.676H33.3549L33.7029 43.032H30.3789L30.7269 41.316H34.3869L34.7229 39.636H29.2149L27.5109 48H29.3709ZM34.586 44.292C34.586 45.432 34.982 46.356 35.786 47.088C36.59 47.808 37.61 48.168 38.846 48.168C40.262 48.168 41.45 47.688 42.398 46.728C43.346 45.768 43.826 44.664 43.826 43.416C43.826 42.276 43.43 41.34 42.626 40.608C41.822 39.876 40.802 39.504 39.566 39.504C38.666 39.504 37.826 39.732 37.046 40.176C36.278 40.62 35.678 41.22 35.234 41.952C34.802 42.684 34.586 43.464 34.586 44.292ZM36.422 44.148C36.422 43.368 36.722 42.672 37.322 42.072C37.922 41.472 38.63 41.172 39.458 41.172C40.214 41.172 40.814 41.4 41.282 41.844C41.75 42.288 41.99 42.864 41.99 43.572C41.99 44.328 41.69 45.012 41.102 45.612C40.514 46.2 39.794 46.5 38.954 46.5C38.198 46.5 37.586 46.284 37.118 45.852C36.65 45.408 36.422 44.844 36.422 44.148ZM45.9881 48L46.5521 45.216H47.8721L49.0481 48H51.0521L49.7201 44.94C50.3081 44.712 50.7761 44.34 51.1361 43.812C51.4961 43.284 51.6761 42.72 51.6761 42.12C51.6761 41.4 51.4241 40.812 50.9321 40.344C50.4401 39.876 49.8161 39.636 49.0481 39.636H45.8321L44.1281 48H45.9881ZM47.3441 41.316H48.7361C49.3601 41.316 49.8041 41.748 49.8041 42.336C49.8041 42.66 49.6721 42.96 49.4081 43.224C49.1441 43.476 48.8201 43.608 48.4361 43.608H46.8761L47.3441 41.316ZM53.7911 48L54.6671 43.692L56.7071 46.716L59.8631 43.932L59.0351 48H60.8351L62.6111 39.264L57.0671 44.172L53.7671 39.336L52.0031 48H53.7911ZM68.2639 48L68.6119 46.32H64.6759L65.0359 44.532H68.6359L68.9599 42.888H65.3599L65.6839 41.316H69.5359L69.8839 39.636H64.1719L62.4679 48H68.2639ZM71.4881 48L72.0521 45.216H73.3721L74.5481 48H76.5521L75.2201 44.94C75.8081 44.712 76.2761 44.34 76.6361 43.812C76.9961 43.284 77.1761 42.72 77.1761 42.12C77.1761 41.4 76.9241 40.812 76.4321 40.344C75.9401 39.876 75.3161 39.636 74.5481 39.636H71.3321L69.6281 48H71.4881ZM72.8441 41.316H74.2361C74.8601 41.316 75.3041 41.748 75.3041 42.336C75.3041 42.66 75.1721 42.96 74.9081 43.224C74.6441 43.476 74.3201 43.608 73.9361 43.608H72.3761L72.8441 41.316Z" fill="url(#paint4_radial_0_1)" />
        <path d="M6.824 48V49H7.64024L7.80373 48.2003L6.824 48ZM7.376 45.3V44.3H6.55976L6.39627 45.0997L7.376 45.3ZM11.576 44.352L12.2966 45.0454V45.0454L11.576 44.352ZM11.744 40.356L11.0456 41.0718L11.0548 41.0806L11.744 40.356ZM6.668 39.636V38.636H5.85119L5.68813 39.4364L6.668 39.636ZM4.964 48L3.98413 47.8004L3.73973 49H4.964V48ZM8.18 41.316V40.316H7.3627L7.20001 41.1169L8.18 41.316ZM10.28 43.224L9.54151 42.5497L9.54006 42.5513L10.28 43.224ZM7.712 43.62L6.73201 43.4209L6.48845 44.62H7.712V43.62ZM7.80373 48.2003L8.35573 45.5003L6.39627 45.0997L5.84427 47.7997L7.80373 48.2003ZM7.376 46.3H9.32V44.3H7.376V46.3ZM9.32 46.3C10.4851 46.3 11.4914 45.8822 12.2966 45.0454L10.8554 43.6586C10.4366 44.0938 9.95494 44.3 9.32 44.3V46.3ZM12.2966 45.0454C13.0739 44.2376 13.488 43.274 13.488 42.18H11.488C11.488 42.718 11.3021 43.1944 10.8554 43.6586L12.2966 45.0454ZM13.488 42.18C13.488 41.1874 13.1412 40.3049 12.4332 39.6314L11.0548 41.0806C11.3308 41.3431 11.488 41.6846 11.488 42.18H13.488ZM12.4423 39.6402C11.7335 38.9487 10.8197 38.636 9.812 38.636V40.636C10.3883 40.636 10.7705 40.8033 11.0457 41.0718L12.4423 39.6402ZM9.812 38.636H6.668V40.636H9.812V38.636ZM5.68813 39.4364L3.98413 47.8004L5.94387 48.1996L7.64787 39.8356L5.68813 39.4364ZM4.964 49H6.824V47H4.964V49ZM8.18 42.316H9.608V40.316H8.18V42.316ZM9.608 42.316C9.65147 42.316 9.67332 42.3232 9.67872 42.3252C9.68373 42.3271 9.6781 42.3258 9.66878 42.3168C9.65937 42.3077 9.65339 42.2977 9.65076 42.2912C9.64825 42.2851 9.652 42.2903 9.652 42.312H11.652C11.652 41.773 11.4509 41.258 11.0592 40.8792C10.6688 40.5016 10.1488 40.316 9.608 40.316V42.316ZM9.652 42.312C9.652 42.3766 9.64065 42.4412 9.54151 42.5497L11.0185 43.8983C11.4233 43.4548 11.652 42.9194 11.652 42.312H9.652ZM9.54006 42.5513C9.49965 42.5958 9.4756 42.6075 9.4694 42.6103C9.46432 42.6126 9.44769 42.62 9.404 42.62V44.62C10.0472 44.62 10.5997 44.3589 11.0199 43.8967L9.54006 42.5513ZM9.404 42.62H7.712V44.62H9.404V42.62ZM8.69199 43.8191L9.15999 41.5151L7.20001 41.1169L6.73201 43.4209L8.69199 43.8191ZM18.2717 48V49H19.0858L19.2509 48.2028L18.2717 48ZM18.6197 46.32L19.5989 46.5228L19.8481 45.32H18.6197V46.32ZM14.6837 46.32L13.7034 46.1226L13.4623 47.32H14.6837V46.32ZM15.0437 44.532V43.532H14.225L14.0634 44.3346L15.0437 44.532ZM18.6437 44.532V45.532H19.4659L19.6248 44.7254L18.6437 44.532ZM18.9677 42.888L19.9488 43.0814L20.184 41.888H18.9677V42.888ZM15.3677 42.888L14.3883 42.6861L14.1406 43.888H15.3677V42.888ZM15.6917 41.316V40.316H14.8768L14.7123 41.1141L15.6917 41.316ZM19.5437 41.316V42.316H20.3578L20.5229 41.5188L19.5437 41.316ZM19.8917 39.636L20.8709 39.8388L21.1201 38.636H19.8917V39.636ZM14.1797 39.636V38.636H13.3629L13.1998 39.4364L14.1797 39.636ZM12.4757 48L11.4958 47.8004L11.2514 49H12.4757V48ZM19.2509 48.2028L19.5989 46.5228L17.6405 46.1172L17.2925 47.7972L19.2509 48.2028ZM18.6197 45.32H14.6837V47.32H18.6197V45.32ZM15.664 46.5174L16.024 44.7294L14.0634 44.3346L13.7034 46.1226L15.664 46.5174ZM15.0437 45.532H18.6437V43.532H15.0437V45.532ZM19.6248 44.7254L19.9488 43.0814L17.9866 42.6946L17.6626 44.3386L19.6248 44.7254ZM18.9677 41.888H15.3677V43.888H18.9677V41.888ZM16.3471 43.0899L16.6711 41.5179L14.7123 41.1141L14.3883 42.6861L16.3471 43.0899ZM15.6917 42.316H19.5437V40.316H15.6917V42.316ZM20.5229 41.5188L20.8709 39.8388L18.9125 39.4332L18.5645 41.1132L20.5229 41.5188ZM19.8917 38.636H14.1797V40.636H19.8917V38.636ZM13.1998 39.4364L11.4958 47.8004L13.4556 48.1996L15.1596 39.8356L13.1998 39.4364ZM12.4757 49H18.2717V47H12.4757V49ZM21.4959 48V49H22.3136L22.476 48.1986L21.4959 48ZM22.0599 45.216V44.216H21.2421L21.0798 45.0174L22.0599 45.216ZM23.3799 45.216L24.3011 44.8269L24.043 44.216H23.3799V45.216ZM24.5559 48L23.6347 48.3891L23.8927 49H24.5559V48ZM26.5599 48V49H28.0858L27.4768 47.6009L26.5599 48ZM25.2279 44.94L24.8663 44.0076L23.8953 44.3842L24.311 45.3391L25.2279 44.94ZM26.6439 43.812L27.4701 44.3753V44.3753L26.6439 43.812ZM26.4399 40.344L25.7507 41.0686V41.0686L26.4399 40.344ZM21.3399 39.636V38.636H20.5231L20.36 39.4364L21.3399 39.636ZM19.6359 48L18.656 47.8004L18.4116 49H19.6359V48ZM22.8519 41.316V40.316H22.0354L21.8721 41.1159L22.8519 41.316ZM24.9159 43.224L25.6064 43.9474L25.6148 43.9393L25.623 43.9311L24.9159 43.224ZM22.3839 43.608L21.4041 43.4079L21.1591 44.608H22.3839V43.608ZM22.476 48.1986L23.04 45.4146L21.0798 45.0174L20.5158 47.8014L22.476 48.1986ZM22.0599 46.216H23.3799V44.216H22.0599V46.216ZM22.4587 45.6051L23.6347 48.3891L25.4771 47.6109L24.3011 44.8269L22.4587 45.6051ZM24.5559 49H26.5599V47H24.5559V49ZM27.4768 47.6009L26.1448 44.5409L24.311 45.3391L25.643 48.3991L27.4768 47.6009ZM25.5894 45.8724C26.3677 45.5706 26.9971 45.0691 27.4701 44.3753L25.8176 43.2487C25.5706 43.6109 25.264 43.8534 24.8663 44.0076L25.5894 45.8724ZM27.4701 44.3753C27.9356 43.6927 28.1839 42.9343 28.1839 42.12H26.1839C26.1839 42.5057 26.0722 42.8753 25.8176 43.2487L27.4701 44.3753ZM28.1839 42.12C28.1839 41.1355 27.8263 40.2826 27.1291 39.6194L25.7507 41.0686C26.0375 41.3414 26.1839 41.6645 26.1839 42.12H28.1839ZM27.1291 39.6194C26.4321 38.9564 25.5528 38.636 24.5559 38.636V40.636C25.095 40.636 25.4637 40.7956 25.7507 41.0686L27.1291 39.6194ZM24.5559 38.636H21.3399V40.636H24.5559V38.636ZM20.36 39.4364L18.656 47.8004L20.6157 48.1996L22.3197 39.8356L20.36 39.4364ZM19.6359 49H21.4959V47H19.6359V49ZM22.8519 42.316H24.2439V40.316H22.8519V42.316ZM24.2439 42.316C24.284 42.316 24.3066 42.3228 24.3155 42.3262C24.3242 42.3296 24.3237 42.3311 24.3192 42.3268C24.3146 42.3223 24.3112 42.317 24.3098 42.3135C24.3083 42.31 24.3119 42.3159 24.3119 42.336H26.3119C26.3119 41.1579 25.3816 40.316 24.2439 40.316V42.316ZM24.3119 42.336C24.3119 42.3591 24.3121 42.4136 24.2088 42.5169L25.623 43.9311C26.0477 43.5064 26.3119 42.9609 26.3119 42.336H24.3119ZM24.2254 42.5006C24.1497 42.5729 24.0738 42.608 23.9439 42.608V44.608C24.5819 44.608 25.1541 44.3791 25.6064 43.9474L24.2254 42.5006ZM23.9439 42.608H22.3839V44.608H23.9439V42.608ZM23.3637 43.8081L23.8317 41.5161L21.8721 41.1159L21.4041 43.4079L23.3637 43.8081ZM29.3709 48V49H30.1861L30.3504 48.2016L29.3709 48ZM30.0549 44.676V43.676H29.2397L29.0754 44.4744L30.0549 44.676ZM33.3549 44.676V45.676H34.1654L34.3332 44.8831L33.3549 44.676ZM33.7029 43.032L34.6812 43.2391L34.9367 42.032H33.7029V43.032ZM30.3789 43.032L29.3988 42.8332L29.1557 44.032H30.3789V43.032ZM30.7269 41.316V40.316H29.9093L29.7468 41.1172L30.7269 41.316ZM34.3869 41.316V42.316H35.2067L35.3675 41.5121L34.3869 41.316ZM34.7229 39.636L35.7035 39.8321L35.9427 38.636H34.7229V39.636ZM29.2149 39.636V38.636H28.3981L28.235 39.4364L29.2149 39.636ZM27.5109 48L26.531 47.8004L26.2866 49H27.5109V48ZM30.3504 48.2016L31.0344 44.8776L29.0754 44.4744L28.3914 47.7984L30.3504 48.2016ZM30.0549 45.676H33.3549V43.676H30.0549V45.676ZM34.3332 44.8831L34.6812 43.2391L32.7246 42.8249L32.3766 44.4689L34.3332 44.8831ZM33.7029 42.032H30.3789V44.032H33.7029V42.032ZM31.3589 43.2308L31.7069 41.5148L29.7468 41.1172L29.3988 42.8332L31.3589 43.2308ZM30.7269 42.316H34.3869V40.316H30.7269V42.316ZM35.3675 41.5121L35.7035 39.8321L33.7423 39.4399L33.4063 41.1199L35.3675 41.5121ZM34.7229 38.636H29.2149V40.636H34.7229V38.636ZM28.235 39.4364L26.531 47.8004L28.4907 48.1996L30.1947 39.8356L28.235 39.4364ZM27.5109 49H29.3709V47H27.5109V49ZM35.786 47.088L35.1128 47.8275L35.1189 47.833L35.786 47.088ZM42.398 46.728L41.6865 46.0254L42.398 46.728ZM42.626 40.608L43.2992 39.8686L42.626 40.608ZM37.046 40.176L36.5513 39.3069L36.5455 39.3103L37.046 40.176ZM35.234 41.952L34.3789 41.4333L34.3728 41.4437L35.234 41.952ZM37.322 42.072L38.0291 42.7791L37.322 42.072ZM41.102 45.612L41.8091 46.3191L41.8162 46.3119L41.102 45.612ZM37.118 45.852L36.4297 46.5775L36.4397 46.5868L37.118 45.852ZM33.586 44.292C33.586 45.6975 34.0891 46.8954 35.1128 47.8274L36.4592 46.3486C35.8749 45.8166 35.586 45.1665 35.586 44.292H33.586ZM35.1189 47.833C36.1329 48.741 37.402 49.168 38.846 49.168V47.168C37.818 47.168 37.0471 46.875 36.4531 46.343L35.1189 47.833ZM38.846 49.168C40.5133 49.168 41.9627 48.5921 43.1095 47.4306L41.6865 46.0254C40.9373 46.7839 40.0107 47.168 38.846 47.168V49.168ZM43.1095 47.4306C44.2234 46.3027 44.826 44.9528 44.826 43.416H42.826C42.826 44.3752 42.4686 45.2333 41.6865 46.0254L43.1095 47.4306ZM44.826 43.416C44.826 42.014 44.3253 40.8028 43.2992 39.8686L41.9528 41.3474C42.5347 41.8772 42.826 42.538 42.826 43.416H44.826ZM43.2992 39.8686C42.2883 38.9482 41.0184 38.504 39.566 38.504V40.504C40.5856 40.504 41.3557 40.8038 41.9528 41.3474L43.2992 39.8686ZM39.566 38.504C38.4885 38.504 37.4785 38.7792 36.5513 39.3069L37.5407 41.0451C38.1735 40.6848 38.8435 40.504 39.566 40.504V38.504ZM36.5455 39.3103C35.6285 39.8404 34.908 40.5613 34.379 41.4334L36.089 42.4706C36.448 41.8787 36.9275 41.3996 37.5465 41.0417L36.5455 39.3103ZM34.3728 41.4437C33.8525 42.3254 33.586 43.2803 33.586 44.292H35.586C35.586 43.6477 35.7515 43.0426 36.0952 42.4603L34.3728 41.4437ZM37.422 44.148C37.422 43.6556 37.6002 43.208 38.0291 42.7791L36.6149 41.3649C35.8438 42.136 35.422 43.0804 35.422 44.148H37.422ZM38.0291 42.7791C38.4483 42.3599 38.9046 42.172 39.458 42.172V40.172C38.3554 40.172 37.3957 40.5841 36.6149 41.3649L38.0291 42.7791ZM39.458 42.172C39.9934 42.172 40.3358 42.3248 40.5937 42.5695L41.9703 41.1185C41.2922 40.4752 40.4346 40.172 39.458 40.172V42.172ZM40.5937 42.5695C40.8467 42.8094 40.99 43.1154 40.99 43.572H42.99C42.99 42.6126 42.6533 41.7666 41.9703 41.1185L40.5937 42.5695ZM40.99 43.572C40.99 44.0333 40.8171 44.474 40.3878 44.9121L41.8162 46.3119C42.5629 45.55 42.99 44.6227 42.99 43.572H40.99ZM40.3949 44.9049C39.9944 45.3054 39.5288 45.5 38.954 45.5V47.5C40.0592 47.5 41.0336 47.0946 41.8091 46.3191L40.3949 44.9049ZM38.954 45.5C38.3995 45.5 38.0459 45.3476 37.7963 45.1172L36.4397 46.5868C37.1261 47.2204 37.9965 47.5 38.954 47.5V45.5ZM37.8063 45.1265C37.5568 44.8899 37.422 44.5978 37.422 44.148H35.422C35.422 45.0902 35.7432 45.9261 36.4297 46.5775L37.8063 45.1265ZM45.9881 48V49H46.8058L46.9682 48.1986L45.9881 48ZM46.5521 45.216V44.216H45.7343L45.572 45.0174L46.5521 45.216ZM47.8721 45.216L48.7932 44.8269L48.5352 44.216H47.8721V45.216ZM49.0481 48L48.1269 48.3891L48.3849 49H49.0481V48ZM51.0521 48V49H52.578L51.969 47.6009L51.0521 48ZM49.7201 44.94L49.3585 44.0076L48.3875 44.3842L48.8032 45.3391L49.7201 44.94ZM51.1361 43.812L51.9623 44.3753V44.3753L51.1361 43.812ZM50.9321 40.344L50.2428 41.0686V41.0686L50.9321 40.344ZM45.8321 39.636V38.636H45.0153L44.8522 39.4364L45.8321 39.636ZM44.1281 48L43.1482 47.8004L42.9038 49H44.1281V48ZM47.3441 41.316V40.316H46.5276L46.3643 41.1159L47.3441 41.316ZM49.4081 43.224L50.0985 43.9474L50.1069 43.9393L50.1152 43.9311L49.4081 43.224ZM46.8761 43.608L45.8963 43.4079L45.6512 44.608H46.8761V43.608ZM46.9682 48.1986L47.5322 45.4146L45.572 45.0174L45.008 47.8014L46.9682 48.1986ZM46.5521 46.216H47.8721V44.216H46.5521V46.216ZM46.9509 45.6051L48.1269 48.3891L49.9692 47.6109L48.7932 44.8269L46.9509 45.6051ZM49.0481 49H51.0521V47H49.0481V49ZM51.969 47.6009L50.637 44.5409L48.8032 45.3391L50.1352 48.3991L51.969 47.6009ZM50.0816 45.8724C50.8599 45.5706 51.4893 45.0691 51.9623 44.3753L50.3098 43.2487C50.0628 43.6109 49.7562 43.8534 49.3585 44.0076L50.0816 45.8724ZM51.9623 44.3753C52.4277 43.6927 52.6761 42.9343 52.6761 42.12H50.6761C50.6761 42.5057 50.5644 42.8753 50.3098 43.2487L51.9623 44.3753ZM52.6761 42.12C52.6761 41.1355 52.3185 40.2826 51.6213 39.6194L50.2428 41.0686C50.5297 41.3414 50.6761 41.6645 50.6761 42.12H52.6761ZM51.6213 39.6194C50.9243 38.9564 50.045 38.636 49.0481 38.636V40.636C49.5871 40.636 49.9559 40.7956 50.2428 41.0686L51.6213 39.6194ZM49.0481 38.636H45.8321V40.636H49.0481V38.636ZM44.8522 39.4364L43.1482 47.8004L45.1079 48.1996L46.8119 39.8356L44.8522 39.4364ZM44.1281 49H45.9881V47H44.1281V49ZM47.3441 42.316H48.7361V40.316H47.3441V42.316ZM48.7361 42.316C48.7762 42.316 48.7988 42.3228 48.8077 42.3262C48.8164 42.3296 48.8159 42.3311 48.8114 42.3268C48.8068 42.3223 48.8034 42.317 48.802 42.3135C48.8005 42.31 48.8041 42.3159 48.8041 42.336H50.8041C50.8041 41.1579 49.8738 40.316 48.7361 40.316V42.316ZM48.8041 42.336C48.8041 42.3591 48.8043 42.4136 48.701 42.5169L50.1152 43.9311C50.5399 43.5064 50.8041 42.9609 50.8041 42.336H48.8041ZM48.7176 42.5006C48.6419 42.5729 48.566 42.608 48.4361 42.608V44.608C49.0741 44.608 49.6463 44.3791 50.0985 43.9474L48.7176 42.5006ZM48.4361 42.608H46.8761V44.608H48.4361V42.608ZM47.8558 43.8081L48.3238 41.5161L46.3643 41.1159L45.8963 43.4079L47.8558 43.8081ZM53.7911 48V49H54.6082L54.771 48.1993L53.7911 48ZM54.6671 43.692L55.4961 43.1328L54.1623 41.1557L53.6871 43.4927L54.6671 43.692ZM56.7071 46.716L55.8781 47.2752L56.5148 48.2191L57.3686 47.4659L56.7071 46.716ZM59.8631 43.932L60.843 44.1315L61.4377 41.2095L59.2015 43.1821L59.8631 43.932ZM59.0351 48L58.0552 47.8005L57.811 49H59.0351V48ZM60.8351 48V49H61.6522L61.815 48.1992L60.8351 48ZM62.6111 39.264L63.591 39.4632L64.1866 36.5337L61.9482 38.5153L62.6111 39.264ZM57.0671 44.172L56.2411 44.7357L56.8805 45.6727L57.7299 44.9207L57.0671 44.172ZM53.7671 39.336L54.5931 38.7723L53.2593 36.8177L52.7872 39.1365L53.7671 39.336ZM52.0031 48L51.0232 47.8005L50.7789 49H52.0031V48ZM54.771 48.1993L55.647 43.8913L53.6871 43.4927L52.8111 47.8007L54.771 48.1993ZM53.8381 44.2512L55.8781 47.2752L57.5361 46.1568L55.4961 43.1328L53.8381 44.2512ZM57.3686 47.4659L60.5246 44.6819L59.2015 43.1821L56.0455 45.9661L57.3686 47.4659ZM58.8832 43.7325L58.0552 47.8005L60.015 48.1995L60.843 44.1315L58.8832 43.7325ZM59.0351 49H60.8351V47H59.0351V49ZM61.815 48.1992L63.591 39.4632L61.6311 39.0648L59.8551 47.8008L61.815 48.1992ZM61.9482 38.5153L56.4042 43.4233L57.7299 44.9207L63.2739 40.0127L61.9482 38.5153ZM57.8931 43.6083L54.5931 38.7723L52.9411 39.8997L56.2411 44.7357L57.8931 43.6083ZM52.7872 39.1365L51.0232 47.8005L52.983 48.1995L54.747 39.5355L52.7872 39.1365ZM52.0031 49H53.7911V47H52.0031V49ZM68.2639 48V49H69.078L69.2431 48.2028L68.2639 48ZM68.6119 46.32L69.5911 46.5228L69.8403 45.32H68.6119V46.32ZM64.6759 46.32L63.6956 46.1226L63.4545 47.32H64.6759V46.32ZM65.0359 44.532V43.532H64.2172L64.0556 44.3346L65.0359 44.532ZM68.6359 44.532V45.532H69.4581L69.617 44.7254L68.6359 44.532ZM68.9599 42.888L69.941 43.0814L70.1762 41.888H68.9599V42.888ZM65.3599 42.888L64.3805 42.6861L64.1328 43.888H65.3599V42.888ZM65.6839 41.316V40.316H64.869L64.7045 41.1141L65.6839 41.316ZM69.5359 41.316V42.316H70.35L70.5151 41.5188L69.5359 41.316ZM69.8839 39.636L70.8631 39.8388L71.1123 38.636H69.8839V39.636ZM64.1719 39.636V38.636H63.3551L63.192 39.4364L64.1719 39.636ZM62.4679 48L61.488 47.8004L61.2436 49H62.4679V48ZM69.2431 48.2028L69.5911 46.5228L67.6327 46.1172L67.2847 47.7972L69.2431 48.2028ZM68.6119 45.32H64.6759V47.32H68.6119V45.32ZM65.6562 46.5174L66.0162 44.7294L64.0556 44.3346L63.6956 46.1226L65.6562 46.5174ZM65.0359 45.532H68.6359V43.532H65.0359V45.532ZM69.617 44.7254L69.941 43.0814L67.9788 42.6946L67.6548 44.3386L69.617 44.7254ZM68.9599 41.888H65.3599V43.888H68.9599V41.888ZM66.3393 43.0899L66.6633 41.5179L64.7045 41.1141L64.3805 42.6861L66.3393 43.0899ZM65.6839 42.316H69.5359V40.316H65.6839V42.316ZM70.5151 41.5188L70.8631 39.8388L68.9047 39.4332L68.5567 41.1132L70.5151 41.5188ZM69.8839 38.636H64.1719V40.636H69.8839V38.636ZM63.192 39.4364L61.488 47.8004L63.4478 48.1996L65.1518 39.8356L63.192 39.4364ZM62.4679 49H68.2639V47H62.4679V49ZM71.4881 48V49H72.3058L72.4682 48.1986L71.4881 48ZM72.0521 45.216V44.216H71.2343L71.072 45.0174L72.0521 45.216ZM73.3721 45.216L74.2933 44.8269L74.0352 44.216H73.3721V45.216ZM74.5481 48L73.6269 48.3891L73.8849 49H74.5481V48ZM76.5521 48V49H78.078L77.469 47.6009L76.5521 48ZM75.2201 44.94L74.8585 44.0076L73.8875 44.3842L74.3032 45.3391L75.2201 44.94ZM76.6361 43.812L77.4623 44.3753V44.3753L76.6361 43.812ZM76.4321 40.344L75.7429 41.0686V41.0686L76.4321 40.344ZM71.3321 39.636V38.636H70.5153L70.3522 39.4364L71.3321 39.636ZM69.6281 48L68.6482 47.8004L68.4038 49H69.6281V48ZM72.8441 41.316V40.316H72.0276L71.8643 41.1159L72.8441 41.316ZM74.9081 43.224L75.5985 43.9474L75.6069 43.9393L75.6152 43.9311L74.9081 43.224ZM72.3761 43.608L71.3963 43.4079L71.1512 44.608H72.3761V43.608ZM72.4682 48.1986L73.0322 45.4146L71.072 45.0174L70.508 47.8014L72.4682 48.1986ZM72.0521 46.216H73.3721V44.216H72.0521V46.216ZM72.4509 45.6051L73.6269 48.3891L75.4692 47.6109L74.2933 44.8269L72.4509 45.6051ZM74.5481 49H76.5521V47H74.5481V49ZM77.469 47.6009L76.137 44.5409L74.3032 45.3391L75.6352 48.3991L77.469 47.6009ZM75.5816 45.8724C76.3599 45.5706 76.9893 45.0691 77.4623 44.3753L75.8098 43.2487C75.5628 43.6109 75.2562 43.8534 74.8585 44.0076L75.5816 45.8724ZM77.4623 44.3753C77.9277 43.6927 78.1761 42.9343 78.1761 42.12H76.1761C76.1761 42.5057 76.0644 42.8753 75.8098 43.2487L77.4623 44.3753ZM78.1761 42.12C78.1761 41.1355 77.8185 40.2826 77.1213 39.6194L75.7429 41.0686C76.0297 41.3414 76.1761 41.6645 76.1761 42.12H78.1761ZM77.1213 39.6194C76.4243 38.9564 75.545 38.636 74.5481 38.636V40.636C75.0871 40.636 75.4559 40.7956 75.7429 41.0686L77.1213 39.6194ZM74.5481 38.636H71.3321V40.636H74.5481V38.636ZM70.3522 39.4364L68.6482 47.8004L70.6079 48.1996L72.3119 39.8356L70.3522 39.4364ZM69.6281 49H71.4881V47H69.6281V49ZM72.8441 42.316H74.2361V40.316H72.8441V42.316ZM74.2361 42.316C74.2762 42.316 74.2988 42.3228 74.3077 42.3262C74.3164 42.3296 74.3159 42.3311 74.3114 42.3268C74.3068 42.3223 74.3034 42.317 74.302 42.3135C74.3005 42.31 74.3041 42.3159 74.3041 42.336H76.3041C76.3041 41.1579 75.3738 40.316 74.2361 40.316V42.316ZM74.3041 42.336C74.3041 42.3591 74.3043 42.4136 74.201 42.5169L75.6152 43.9311C76.0399 43.5064 76.3041 42.9609 76.3041 42.336H74.3041ZM74.2176 42.5006C74.1419 42.5729 74.066 42.608 73.9361 42.608V44.608C74.5741 44.608 75.1463 44.3791 75.5985 43.9474L74.2176 42.5006ZM73.9361 42.608H72.3761V44.608H73.9361V42.608ZM73.3558 43.8081L73.8238 41.5161L71.8643 41.1159L71.3963 43.4079L73.3558 43.8081Z" fill="#681EB1" />
    </g>
    <g filter="url(#filter4_d_0_1)">
        <path d="M39.1 20.9167L42 18.8214L44.8875 20.9167L43.7875 17.5238L46.6875 15.3333H43.1375L42 11.9881L40.8625 15.3333H37.3125L40.2 17.5238L39.1 20.9167ZM52 16.5238C52 11.2619 47.525 7 42 7C36.475 7 32 11.2619 32 16.5238C32 18.9405 32.95 21.131 34.5 22.8095V32L42 29.619L49.5 32V22.8095C51.1118 21.0756 52.0011 18.8396 52 16.5238ZM42 9.38095C46.1375 9.38095 49.5 12.5833 49.5 16.5238C49.5 20.4643 46.1375 23.6667 42 23.6667C37.8625 23.6667 34.5 20.4643 34.5 16.5238C34.5 12.5833 37.8625 9.38095 42 9.38095ZM42 27.2381L37 28.4524V24.7619C38.475 25.5714 40.175 26.0476 42 26.0476C43.825 26.0476 45.525 25.5714 47 24.7619V28.4524L42 27.2381Z" fill="url(#paint5_angular_0_1)" shape-rendering="crispEdges" />
    </g>
    <defs>
        <filter id="filter0_b_0_1" x="4.65088" y="-1.9248" width="73.7643" height="75.9541" filterUnits="userSpaceOnUse" color-interpolation-filters="sRGB">
            <feFlood flood-opacity="0" result="BackgroundImageFix" />
            <feGaussianBlur in="BackgroundImage" stdDeviation="5" />
            <feComposite in2="SourceAlpha" operator="in" result="effect1_backgroundBlur_0_1" />
            <feBlend mode="normal" in="SourceGraphic" in2="effect1_backgroundBlur_0_1" result="shape" />
        </filter>
        <filter id="filter1_d_0_1" x="15.6135" y="7" width="52.01" height="54" filterUnits="userSpaceOnUse" color-interpolation-filters="sRGB">
            <feFlood flood-opacity="0" result="BackgroundImageFix" />
            <feColorMatrix in="SourceAlpha" type="matrix" values="0 0 0 0 0 0 0 0 0 0 0 0 0 0 0 0 0 0 127 0" result="hardAlpha" />
            <feOffset dy="4" />
            <feGaussianBlur stdDeviation="2" />
            <feComposite in2="hardAlpha" operator="out" />
            <feColorMatrix type="matrix" values="0 0 0 0 0 0 0 0 0 0 0 0 0 0 0 0 0 0 0.25 0" />
            <feBlend mode="normal" in2="BackgroundImageFix" result="effect1_dropShadow_0_1" />
            <feBlend mode="normal" in="SourceGraphic" in2="effect1_dropShadow_0_1" result="shape" />
        </filter>
        <filter id="filter2_d_0_1" x="19.1472" y="0" width="44.8706" height="60" filterUnits="userSpaceOnUse" color-interpolation-filters="sRGB">
            <feFlood flood-opacity="0" result="BackgroundImageFix" />
            <feColorMatrix in="SourceAlpha" type="matrix" values="0 0 0 0 0 0 0 0 0 0 0 0 0 0 0 0 0 0 127 0" result="hardAlpha" />
            <feOffset dy="4" />
            <feGaussianBlur stdDeviation="2" />
            <feComposite in2="hardAlpha" operator="out" />
            <feColorMatrix type="matrix" values="0 0 0 0 0 0 0 0 0 0 0 0 0 0 0 0 0 0 0.25 0" />
            <feBlend mode="normal" in2="BackgroundImageFix" result="effect1_dropShadow_0_1" />
            <feBlend mode="normal" in="SourceGraphic" in2="effect1_dropShadow_0_1" result="shape" />
        </filter>
        <filter id="filter3_d_0_1" x="0.963989" y="39.2637" width="80.212" height="16.9043" filterUnits="userSpaceOnUse" color-interpolation-filters="sRGB">
            <feFlood flood-opacity="0" result="BackgroundImageFix" />
            <feColorMatrix in="SourceAlpha" type="matrix" values="0 0 0 0 0 0 0 0 0 0 0 0 0 0 0 0 0 0 127 0" result="hardAlpha" />
            <feOffset dy="4" />
            <feGaussianBlur stdDeviation="2" />
            <feColorMatrix type="matrix" values="0 0 0 0 0 0 0 0 0 0 0 0 0 0 0 0 0 0 0.25 0" />
            <feBlend mode="normal" in2="BackgroundImageFix" result="effect1_dropShadow_0_1" />
            <feBlend mode="normal" in="SourceGraphic" in2="effect1_dropShadow_0_1" result="shape" />
        </filter>
        <filter id="filter4_d_0_1" x="28" y="7" width="28" height="33" filterUnits="userSpaceOnUse" color-interpolation-filters="sRGB">
            <feFlood flood-opacity="0" result="BackgroundImageFix" />
            <feColorMatrix in="SourceAlpha" type="matrix" values="0 0 0 0 0 0 0 0 0 0 0 0 0 0 0 0 0 0 127 0" result="hardAlpha" />
            <feOffset dy="4" />
            <feGaussianBlur stdDeviation="2" />
            <feComposite in2="hardAlpha" operator="out" />
            <feColorMatrix type="matrix" values="0 0 0 0 0 0 0 0 0 0 0 0 0 0 0 0 0 0 0.25 0" />
            <feBlend mode="normal" in2="BackgroundImageFix" result="effect1_dropShadow_0_1" />
            <feBlend mode="normal" in="SourceGraphic" in2="effect1_dropShadow_0_1" result="shape" />
        </filter>
        <linearGradient id="paint0_linear_0_1" x1="41.5" y1="8" x2="42.0182" y2="74.9997" gradientUnits="userSpaceOnUse">
            <stop offset="0.36586" stop-color="#18AAE9" />
            <stop offset="0.737678" stop-color="#6D0BBB" />
            <stop offset="0.9995" stop-color="#0A2AB3" stop-opacity="0" />
            <stop offset="0.9996" stop-color="#A921BF" stop-opacity="0.353414" />
            <stop offset="0.9997" stop-color="#8D17EA" />
        </linearGradient>
        <linearGradient id="paint1_linear_0_1" x1="41.5" y1="8" x2="41.5" y2="65" gradientUnits="userSpaceOnUse">
            <stop stop-color="#D267ED" stop-opacity="0.75" />
            <stop offset="0.333261" stop-color="#1000CE" stop-opacity="0.53" />
            <stop offset="0.979276" stop-color="#C00ED0" stop-opacity="0.8" />
        </linearGradient>
        <linearGradient id="paint2_linear_0_1" x1="42.0465" y1="3.03448" x2="44.2885" y2="53.9873" gradientUnits="userSpaceOnUse">
            <stop offset="0.161415" stop-color="#F536A9" />
            <stop offset="0.566871" stop-color="#E77AC2" stop-opacity="0.85" />
            <stop offset="0.918243" stop-color="#5C2AC9" />
            <stop offset="1" stop-color="#2D1378" stop-opacity="0.42" />
        </linearGradient>
        <linearGradient id="paint3_linear_0_1" x1="41.9535" y1="-4.48276" x2="42.6522" y2="53.4982" gradientUnits="userSpaceOnUse">
            <stop offset="0.161415" stop-color="#C12EF4" />
            <stop offset="0.788967" stop-color="#2A7CC9" />
            <stop offset="1" stop-color="#430E86" stop-opacity="0.66" />
            <stop offset="1" stop-color="#B22DBE" stop-opacity="0.85" />
        </linearGradient>
        <radialGradient id="paint4_radial_0_1" cx="0" cy="0" r="1" gradientUnits="userSpaceOnUse" gradientTransform="translate(5 39.5) rotate(52.3506) scale(63.1502 86.2869)">
            <stop offset="0.264492" stop-color="#D0CAE9" />
            <stop offset="0.567607" stop-color="#DECDEA" stop-opacity="0.764779" />
            <stop offset="0.81487" stop-color="#EAD0EA" stop-opacity="0.55" />
            <stop offset="0.939696" stop-color="#951F98" stop-opacity="0.69" />
        </radialGradient>
        <radialGradient id="paint5_angular_0_1" cx="0" cy="0" r="1" gradientUnits="userSpaceOnUse" gradientTransform="translate(38.5 10.5) rotate(49.6906) scale(34.6087 110.562)">
            <stop offset="0.0733869" stop-color="#F2E2F3" stop-opacity="0.89" />
            <stop offset="0.448882" stop-color="#B89EBE" />
            <stop offset="0.512967" stop-color="#CEC3D0" stop-opacity="0.77" />
        </radialGradient>
    </defs>
</svg>
