<svg width="60" height="65" viewBox="0 0 60 65" fill="none" xmlns="http://www.w3.org/2000/svg">
    <g filter="url(#filter0_b_0_1)">
        <path d="M2.70376 17.6173C2.31231 14.9322 4.13397 12.425 6.80863 11.9676L29.1505 8.14685C29.7187 8.04968 30.2995 8.0515 30.867 8.15223L52.2883 11.9538C54.9233 12.4214 56.7229 14.8808 56.3713 17.5337L52.4401 47.1961C52.2703 48.4775 51.6108 49.6433 50.6 50.449L43.0088 56.5L32.74 63.2145C31.0805 64.2995 28.9367 64.3016 27.2752 63.2196L16.9561 56.5L8.94066 50.4303C7.89382 49.6376 7.20083 48.4649 7.01141 47.1655L2.70376 17.6173Z" fill="url(#paint0_linear_0_1)" style="mix-blend-mode:darken" />
        <path d="M3.19853 17.5452C2.84623 15.1286 4.48572 12.8721 6.89292 12.4604L29.2348 8.6397C29.7462 8.55224 30.2689 8.55388 30.7797 8.64453L52.2009 12.4461C54.5724 12.8669 56.1921 15.0804 55.8756 17.4681L51.9445 47.1304C51.7916 48.2837 51.1981 49.3329 50.2884 50.0581L42.7155 56.0944L32.4663 62.796C30.9728 63.7726 29.0434 63.7744 27.548 62.8006L17.2438 56.0907L9.24251 50.0317C8.30035 49.3183 7.67666 48.2629 7.50618 47.0934L3.19853 17.5452Z" stroke="url(#paint1_linear_0_1)" />
    </g>
    <g filter="url(#filter1_d_0_1)">
        <path d="M7.80654 13.3652C6.90055 10.173 9.29832 7 12.6166 7H46.6211C49.8661 7 52.2515 10.0432 51.4764 13.1943L42.6213 49.1943C42.0716 51.4291 40.0674 53 37.766 53H22.834C20.5983 53 18.6343 51.5159 18.0239 49.3652L7.80654 13.3652Z" fill="url(#paint2_linear_0_1)" shape-rendering="crispEdges" />
    </g>
    <g filter="url(#filter2_d_0_1)">
        <path d="M11.2541 6.01978C10.6073 2.91487 12.9775 0 16.149 0H43.0164C46.1334 0 48.4907 2.82097 47.9368 5.88841L40.3535 47.8884C39.9237 50.2687 37.8518 52 35.433 52H24.899C22.5306 52 20.4872 50.3384 20.0041 48.0198L11.2541 6.01978Z" fill="url(#paint3_linear_0_1)" shape-rendering="crispEdges" />
    </g>
    <g filter="url(#filter3_d_0_1)">
        <path d="M40.4176 10.8389L35.4835 8.14118C35.3165 8.04869 35.127 8 34.9341 8C34.7412 8 34.5517 8.04869 34.3846 8.14118L29.989 10.5438L25.5934 8.14118C25.4264 8.04869 25.2369 8 25.044 8C24.8511 8 24.6616 8.04869 24.4945 8.14118L19.5604 10.8389C19.3907 10.9304 19.2494 11.0635 19.1509 11.2246C19.0524 11.3857 19.0003 11.569 19 11.7557V17.1511C19.0003 17.3379 19.0524 17.5212 19.1509 17.6823C19.2494 17.8433 19.3907 17.9764 19.5604 18.0679L23.956 20.4601V25.2443C23.9564 25.431 24.0084 25.6143 24.1069 25.7754C24.2054 25.9365 24.3467 26.0696 24.5165 26.1611L29.4615 28.8588C29.6286 28.9513 29.8181 29 30.011 29C30.2039 29 30.3934 28.9513 30.5604 28.8588L35.4835 26.1611C35.6533 26.0696 35.7946 25.9365 35.8931 25.7754C35.9916 25.6143 36.0436 25.431 36.044 25.2443V20.4601L40.4396 18.0679C40.6093 17.9764 40.7506 17.8433 40.8491 17.6823C40.9476 17.5212 40.9997 17.3379 41 17.1511V11.7557C40.9975 11.5669 40.9421 11.3821 40.8397 11.2209C40.7372 11.0596 40.5914 10.9276 40.4176 10.8389ZM21.1978 16.5399V12.3248L25.044 10.2172L28.8901 12.3248V16.5399L25.044 18.6475L21.1978 16.5399ZM33.8352 24.6331L29.989 26.7407L26.1429 24.6331V20.4179L29.989 18.3103L33.8352 20.4179V24.6331ZM38.7802 16.5399L34.9341 18.6475L31.0879 16.5399V12.3248L34.9341 10.2172L38.7802 12.3248V16.5399Z" fill="url(#paint4_angular_0_1)" shape-rendering="crispEdges" />
    </g>
    <g filter="url(#filter4_d_0_1)">
        <path d="M4.724 45.076C5.348 45.7 6.512 46.132 7.892 46.132C8.984 46.132 9.812 45.868 10.4 45.352C10.988 44.836 11.288 44.2 11.288 43.468C11.288 42.472 10.688 41.704 9.5 41.152C9.356 41.092 8.996 40.912 8.816 40.852C8.66 40.768 8.372 40.624 8.228 40.528C7.988 40.336 7.808 40.156 7.808 39.904C7.808 39.52 8.288 39.196 9.02 39.196C9.74 39.196 10.64 39.484 11.228 40.096L11.588 38.356C11 37.792 10.148 37.504 9.02 37.504C8.132 37.504 7.4 37.756 6.812 38.248C6.236 38.74 5.948 39.328 5.948 40.024C5.948 41.02 6.548 41.788 7.76 42.316C8.192 42.508 8.504 42.652 8.684 42.748C8.876 42.844 9.044 42.964 9.2 43.108C9.356 43.252 9.428 43.408 9.428 43.564C9.428 44.056 8.888 44.464 7.88 44.464C6.776 44.464 5.852 44.068 5.108 43.288L4.724 45.076ZM12.1329 42.292C12.1329 43.432 12.5289 44.356 13.3329 45.088C14.1369 45.808 15.1569 46.168 16.3929 46.168C17.8089 46.168 18.9969 45.688 19.9449 44.728C20.8929 43.768 21.3729 42.664 21.3729 41.416C21.3729 40.276 20.9769 39.34 20.1729 38.608C19.3689 37.876 18.3489 37.504 17.1129 37.504C16.2129 37.504 15.3729 37.732 14.5929 38.176C13.8249 38.62 13.2249 39.22 12.7809 39.952C12.3489 40.684 12.1329 41.464 12.1329 42.292ZM13.9689 42.148C13.9689 41.368 14.2689 40.672 14.8689 40.072C15.4689 39.472 16.1769 39.172 17.0049 39.172C17.7609 39.172 18.3609 39.4 18.8289 39.844C19.2969 40.288 19.5369 40.864 19.5369 41.572C19.5369 42.328 19.2369 43.012 18.6489 43.612C18.0609 44.2 17.3409 44.5 16.5009 44.5C15.7449 44.5 15.1329 44.284 14.6649 43.852C14.1969 43.408 13.9689 42.844 13.9689 42.148ZM26.7869 46L27.1349 44.32H23.8709L25.2389 37.636H23.3789L21.6749 46H26.7869ZM31.8573 46C34.5573 46 36.4773 43.708 36.4773 41.392C36.4773 40.3 36.1173 39.4 35.3853 38.692C34.6533 37.984 33.7173 37.636 32.5653 37.636H29.6133L27.9093 46H31.8573ZM31.1253 39.328H32.3853C33.0453 39.328 33.5853 39.544 33.9813 39.964C34.3893 40.384 34.5933 40.924 34.5933 41.584C34.5933 42.292 34.3293 42.928 33.8013 43.492C33.2853 44.044 32.6493 44.32 31.8933 44.32H30.1053L31.1253 39.328ZM38.6767 46L40.3807 37.636H38.5207L36.8167 46H38.6767ZM46.1506 46L46.4986 44.32H42.5626L42.9226 42.532H46.5226L46.8466 40.888H43.2466L43.5706 39.316H47.4226L47.7706 37.636H42.0586L40.3546 46H46.1506ZM49.3748 46L49.9388 43.216H51.2588L52.4348 46H54.4388L53.1068 42.94C53.6948 42.712 54.1628 42.34 54.5228 41.812C54.8828 41.284 55.0628 40.72 55.0628 40.12C55.0628 39.4 54.8108 38.812 54.3188 38.344C53.8268 37.876 53.2028 37.636 52.4348 37.636H49.2188L47.5148 46H49.3748ZM50.7308 39.316H52.1228C52.7468 39.316 53.1908 39.748 53.1908 40.336C53.1908 40.66 53.0588 40.96 52.7948 41.224C52.5308 41.476 52.2068 41.608 51.8228 41.608H50.2628L50.7308 39.316Z" fill="url(#paint5_radial_0_1)" />
        <path d="M4.724 45.076L3.74629 44.866L3.632 45.3982L4.01689 45.7831L4.724 45.076ZM10.4 45.352L11.0596 46.1036L10.4 45.352ZM9.5 41.152L9.92138 40.2451L9.90316 40.2366L9.88461 40.2289L9.5 41.152ZM8.816 40.852L8.3419 41.7325L8.41789 41.7734L8.49977 41.8007L8.816 40.852ZM8.228 40.528L7.60331 41.3089L7.63719 41.336L7.6733 41.36L8.228 40.528ZM11.228 40.096L10.5069 40.7888L11.8225 42.1582L12.2073 40.2986L11.228 40.096ZM11.588 38.356L12.5673 38.5586L12.6793 38.0171L12.2802 37.6343L11.588 38.356ZM6.812 38.248L6.17024 37.481L6.16251 37.4876L6.812 38.248ZM7.76 42.316L8.16615 41.4022L8.15939 41.3992L7.76 42.316ZM8.684 42.748L8.21341 43.6304L8.22502 43.6365L8.23679 43.6424L8.684 42.748ZM9.2 43.108L9.87828 42.3732H9.87828L9.2 43.108ZM5.108 43.288L5.83161 42.5978L4.52714 41.2302L4.13029 43.078L5.108 43.288ZM4.01689 45.7831C4.88678 46.653 6.34263 47.132 7.892 47.132V45.132C6.68137 45.132 5.80922 44.747 5.43111 44.3689L4.01689 45.7831ZM7.892 47.132C9.13967 47.132 10.2329 46.8291 11.0596 46.1036L9.74041 44.6004C9.39109 44.9069 8.82833 45.132 7.892 45.132V47.132ZM11.0596 46.1036C11.8469 45.4127 12.288 44.5098 12.288 43.468H10.288C10.288 43.8902 10.1291 44.2593 9.74041 44.6004L11.0596 46.1036ZM12.288 43.468C12.288 41.9494 11.3227 40.8962 9.92138 40.2451L9.07862 42.0589C10.0533 42.5118 10.288 42.9946 10.288 43.468H12.288ZM9.88461 40.2289C9.83475 40.2081 9.7463 40.1656 9.58923 40.0934C9.46864 40.038 9.28326 39.9537 9.13223 39.9033L8.49977 41.8007C8.49941 41.8006 8.50136 41.8012 8.50595 41.8029C8.51045 41.8046 8.51657 41.8069 8.52445 41.81C8.54047 41.8163 8.56059 41.8246 8.58498 41.835C8.63429 41.8562 8.6914 41.8819 8.75377 41.9106C8.8577 41.9584 9.02125 42.0359 9.11539 42.0751L9.88461 40.2289ZM9.2901 39.9715C9.07103 39.8536 8.87461 39.7572 8.7827 39.696L7.6733 41.36C7.86939 41.4908 8.24897 41.6824 8.3419 41.7325L9.2901 39.9715ZM8.8527 39.7471C8.80291 39.7073 8.77026 39.6792 8.74775 39.6579C8.72528 39.6367 8.72273 39.6314 8.72943 39.6404C8.73707 39.6506 8.75816 39.6813 8.77686 39.7314C8.79657 39.7843 8.808 39.8439 8.808 39.904H6.808C6.808 40.6864 7.39241 41.1402 7.60331 41.3089L8.8527 39.7471ZM8.808 39.904C8.808 40.0252 8.76805 40.1239 8.72563 40.1874C8.68662 40.2457 8.65342 40.2639 8.66022 40.2597C8.67842 40.2486 8.78973 40.196 9.02 40.196V38.196C8.51827 38.196 8.02358 38.3054 7.61878 38.5523C7.21838 38.7965 6.808 39.2525 6.808 39.904H8.808ZM9.02 40.196C9.52472 40.196 10.1435 40.4106 10.5069 40.7888L11.9491 39.4032C11.1365 38.5574 9.95528 38.196 9.02 38.196V40.196ZM12.2073 40.2986L12.5673 38.5586L10.6087 38.1534L10.2487 39.8934L12.2073 40.2986ZM12.2802 37.6343C11.448 36.8361 10.3125 36.504 9.02 36.504V38.504C9.98348 38.504 10.552 38.7479 10.8958 39.0777L12.2802 37.6343ZM9.02 36.504C7.92912 36.504 6.96115 36.8193 6.17028 37.4811L7.45372 39.0149C7.83885 38.6927 8.33488 38.504 9.02 38.504V36.504ZM6.16251 37.4876C5.38865 38.1486 4.948 39.0046 4.948 40.024H6.948C6.948 39.6514 7.08335 39.3314 7.46149 39.0084L6.16251 37.4876ZM4.948 40.024C4.948 40.7397 5.16937 41.4003 5.61414 41.9645C6.04703 42.5137 6.6536 42.9248 7.36061 43.2328L8.15939 41.3992C7.6544 41.1792 7.35498 40.9423 7.18486 40.7265C7.02663 40.5257 6.948 40.3043 6.948 40.024H4.948ZM7.35386 43.2298C7.79145 43.4243 8.07038 43.5541 8.21341 43.6304L9.15459 41.8656C8.93762 41.7499 8.59255 41.5917 8.16614 41.4022L7.35386 43.2298ZM8.23679 43.6424C8.33599 43.692 8.42737 43.7557 8.52172 43.8428L9.87828 42.3732C9.66063 42.1723 9.41601 41.996 9.13121 41.8536L8.23679 43.6424ZM8.52172 43.8428C8.52435 43.8452 8.49999 43.8235 8.47458 43.7717C8.44769 43.7168 8.428 43.6448 8.428 43.564H10.428C10.428 43.0693 10.191 42.6619 9.87828 42.3732L8.52172 43.8428ZM8.428 43.564C8.428 43.4971 8.44819 43.4334 8.47714 43.3866C8.50363 43.3437 8.5232 43.3372 8.50113 43.351C8.44841 43.3841 8.26419 43.464 7.88 43.464V45.464C8.50381 45.464 9.09359 45.3399 9.56287 45.046C10.0513 44.74 10.428 44.2241 10.428 43.564H8.428ZM7.88 43.464C7.04597 43.464 6.38454 43.1775 5.83161 42.5978L4.38439 43.9782C5.31946 44.9585 6.50603 45.464 7.88 45.464V43.464ZM4.13029 43.078L3.74629 44.866L5.70171 45.286L6.08571 43.498L4.13029 43.078ZM13.3329 45.088L12.6596 45.8275L12.6658 45.833L13.3329 45.088ZM19.9449 44.728L19.2333 44.0254L19.9449 44.728ZM20.1729 38.608L20.8461 37.8686L20.1729 38.608ZM14.5929 38.176L14.0982 37.3069L14.0924 37.3103L14.5929 38.176ZM12.7809 39.952L11.9258 39.4333L11.9197 39.4437L12.7809 39.952ZM14.8689 40.072L15.576 40.7791L14.8689 40.072ZM18.6489 43.612L19.356 44.3191L19.3631 44.3119L18.6489 43.612ZM14.6649 43.852L13.9766 44.5775L13.9866 44.5868L14.6649 43.852ZM11.1329 42.292C11.1329 43.6975 11.636 44.8954 12.6597 45.8274L14.0061 44.3486C13.4218 43.8166 13.1329 43.1665 13.1329 42.292H11.1329ZM12.6658 45.833C13.6797 46.741 14.9489 47.168 16.3929 47.168V45.168C15.3649 45.168 14.594 44.875 14 44.343L12.6658 45.833ZM16.3929 47.168C18.0602 47.168 19.5095 46.5921 20.6564 45.4306L19.2333 44.0254C18.4842 44.7839 17.5576 45.168 16.3929 45.168V47.168ZM20.6564 45.4306C21.7703 44.3027 22.3729 42.9528 22.3729 41.416H20.3729C20.3729 42.3752 20.0154 43.2333 19.2333 44.0254L20.6564 45.4306ZM22.3729 41.416C22.3729 40.014 21.8722 38.8028 20.8461 37.8686L19.4997 39.3474C20.0815 39.8772 20.3729 40.538 20.3729 41.416H22.3729ZM20.8461 37.8686C19.8352 36.9482 18.5653 36.504 17.1129 36.504V38.504C18.1324 38.504 18.9025 38.8038 19.4997 39.3474L20.8461 37.8686ZM17.1129 36.504C16.0353 36.504 15.0253 36.7792 14.0982 37.3069L15.0876 39.0451C15.7204 38.6848 16.3904 38.504 17.1129 38.504V36.504ZM14.0924 37.3103C13.1754 37.8404 12.4548 38.5613 11.9259 39.4334L13.6359 40.4706C13.9949 39.8787 14.4744 39.3996 15.0934 39.0417L14.0924 37.3103ZM11.9197 39.4437C11.3993 40.3254 11.1329 41.2803 11.1329 42.292H13.1329C13.1329 41.6477 13.2984 41.0426 13.6421 40.4603L11.9197 39.4437ZM14.9689 42.148C14.9689 41.6556 15.147 41.208 15.576 40.7791L14.1618 39.3649C13.3907 40.136 12.9689 41.0804 12.9689 42.148H14.9689ZM15.576 40.7791C15.9952 40.3599 16.4515 40.172 17.0049 40.172V38.172C15.9022 38.172 14.9425 38.5841 14.1618 39.3649L15.576 40.7791ZM17.0049 40.172C17.5403 40.172 17.8827 40.3248 18.1406 40.5695L19.5171 39.1185C18.8391 38.4752 17.9815 38.172 17.0049 38.172V40.172ZM18.1406 40.5695C18.3936 40.8094 18.5369 41.1154 18.5369 41.572H20.5369C20.5369 40.6126 20.2002 39.7666 19.5171 39.1185L18.1406 40.5695ZM18.5369 41.572C18.5369 42.0333 18.364 42.474 17.9347 42.9121L19.3631 44.3119C20.1098 43.55 20.5369 42.6227 20.5369 41.572H18.5369ZM17.9418 42.9049C17.5413 43.3054 17.0756 43.5 16.5009 43.5V45.5C17.6061 45.5 18.5805 45.0946 19.356 44.3191L17.9418 42.9049ZM16.5009 43.5C15.9464 43.5 15.5928 43.3476 15.3432 43.1172L13.9866 44.5868C14.673 45.2204 15.5434 45.5 16.5009 45.5V43.5ZM15.3531 43.1265C15.1037 42.8899 14.9689 42.5978 14.9689 42.148H12.9689C12.9689 43.0902 13.29 43.9261 13.9766 44.5775L15.3531 43.1265ZM26.7869 46V47H27.601L27.7661 46.2028L26.7869 46ZM27.1349 44.32L28.1142 44.5228L28.3633 43.32H27.1349V44.32ZM23.8709 44.32L22.8912 44.1195L22.6455 45.32H23.8709V44.32ZM25.2389 37.636L26.2186 37.8365L26.4643 36.636H25.2389V37.636ZM23.3789 37.636V36.636H22.5621L22.3991 37.4364L23.3789 37.636ZM21.6749 46L20.6951 45.8004L20.4507 47H21.6749V46ZM27.7661 46.2028L28.1142 44.5228L26.1557 44.1172L25.8077 45.7972L27.7661 46.2028ZM27.1349 43.32H23.8709V45.32H27.1349V43.32ZM24.8506 44.5205L26.2186 37.8365L24.2592 37.4355L22.8912 44.1195L24.8506 44.5205ZM25.2389 36.636H23.3789V38.636H25.2389V36.636ZM22.3991 37.4364L20.6951 45.8004L22.6548 46.1996L24.3588 37.8356L22.3991 37.4364ZM21.6749 47H26.7869V45H21.6749V47ZM35.3853 38.692L34.6901 39.4108L34.6901 39.4108L35.3853 38.692ZM29.6133 37.636V36.636H28.7965L28.6334 37.4364L29.6133 37.636ZM27.9093 46L26.9294 45.8004L26.685 47H27.9093V46ZM31.1253 39.328V38.328H30.309L30.1456 39.1278L31.1253 39.328ZM33.9813 39.964L33.2537 40.65L33.2588 40.6554L33.264 40.6608L33.9813 39.964ZM33.8013 43.492L33.0713 42.8086L33.0708 42.8091L33.8013 43.492ZM30.1053 44.32L29.1256 44.1198L28.8803 45.32H30.1053V44.32ZM31.8573 47C35.1594 47 37.4773 44.2091 37.4773 41.392H35.4773C35.4773 43.2069 33.9552 45 31.8573 45V47ZM37.4773 41.392C37.4773 40.0551 37.0253 38.887 36.0805 37.9732L34.6901 39.4108C35.2093 39.913 35.4773 40.5449 35.4773 41.392H37.4773ZM36.0805 37.9732C35.1354 37.0591 33.9372 36.636 32.5653 36.636V38.636C33.4974 38.636 34.1712 38.9089 34.6901 39.4108L36.0805 37.9732ZM32.5653 36.636H29.6133V38.636H32.5653V36.636ZM28.6334 37.4364L26.9294 45.8004L28.8892 46.1996L30.5932 37.8356L28.6334 37.4364ZM27.9093 47H31.8573V45H27.9093V47ZM31.1253 40.328H32.3853V38.328H31.1253V40.328ZM32.3853 40.328C32.8117 40.328 33.0735 40.4589 33.2537 40.65L34.7089 39.278C34.0971 38.6291 33.279 38.328 32.3853 38.328V40.328ZM33.264 40.6608C33.4671 40.8699 33.5933 41.1483 33.5933 41.584H35.5933C35.5933 40.6997 35.3115 39.8981 34.6986 39.2672L33.264 40.6608ZM33.5933 41.584C33.5933 42.014 33.4431 42.4114 33.0713 42.8086L34.5313 44.1754C35.2155 43.4446 35.5933 42.57 35.5933 41.584H33.5933ZM33.0708 42.8091C32.744 43.1587 32.3726 43.32 31.8933 43.32V45.32C32.9261 45.32 33.8266 44.9293 34.5318 44.1749L33.0708 42.8091ZM31.8933 43.32H30.1053V45.32H31.8933V43.32ZM31.0851 44.5202L32.1051 39.5282L30.1456 39.1278L29.1256 44.1198L31.0851 44.5202ZM38.6767 46V47H39.4935L39.6566 46.1996L38.6767 46ZM40.3807 37.636L41.3606 37.8356L41.605 36.636H40.3807V37.636ZM38.5207 37.636V36.636H37.7039L37.5408 37.4364L38.5207 37.636ZM36.8167 46L35.8368 45.8004L35.5924 47H36.8167V46ZM39.6566 46.1996L41.3606 37.8356L39.4008 37.4364L37.6968 45.8004L39.6566 46.1996ZM40.3807 36.636H38.5207V38.636H40.3807V36.636ZM37.5408 37.4364L35.8368 45.8004L37.7966 46.1996L39.5006 37.8356L37.5408 37.4364ZM36.8167 47H38.6767V45H36.8167V47ZM46.1506 46V47H46.9647L47.1298 46.2028L46.1506 46ZM46.4986 44.32L47.4778 44.5228L47.727 43.32H46.4986V44.32ZM42.5626 44.32L41.5823 44.1226L41.3412 45.32H42.5626V44.32ZM42.9226 42.532V41.532H42.1039L41.9423 42.3346L42.9226 42.532ZM46.5226 42.532V43.532H47.3448L47.5038 42.7254L46.5226 42.532ZM46.8466 40.888L47.8278 41.0814L48.0629 39.888H46.8466V40.888ZM43.2466 40.888L42.2672 40.6861L42.0195 41.888H43.2466V40.888ZM43.5706 39.316V38.316H42.7557L42.5912 39.1141L43.5706 39.316ZM47.4226 39.316V40.316H48.2367L48.4018 39.5188L47.4226 39.316ZM47.7706 37.636L48.7498 37.8388L48.999 36.636H47.7706V37.636ZM42.0586 37.636V36.636H41.2418L41.0788 37.4364L42.0586 37.636ZM40.3546 46L39.3748 45.8004L39.1304 47H40.3546V46ZM47.1298 46.2028L47.4778 44.5228L45.5194 44.1172L45.1714 45.7972L47.1298 46.2028ZM46.4986 43.32H42.5626V45.32H46.4986V43.32ZM43.543 44.5174L43.903 42.7294L41.9423 42.3346L41.5823 44.1226L43.543 44.5174ZM42.9226 43.532H46.5226V41.532H42.9226V43.532ZM47.5038 42.7254L47.8278 41.0814L45.8655 40.6946L45.5415 42.3386L47.5038 42.7254ZM46.8466 39.888H43.2466V41.888H46.8466V39.888ZM44.226 41.0899L44.55 39.5179L42.5912 39.1141L42.2672 40.6861L44.226 41.0899ZM43.5706 40.316H47.4226V38.316H43.5706V40.316ZM48.4018 39.5188L48.7498 37.8388L46.7914 37.4332L46.4434 39.1132L48.4018 39.5188ZM47.7706 36.636H42.0586V38.636H47.7706V36.636ZM41.0788 37.4364L39.3748 45.8004L41.3345 46.1996L43.0385 37.8356L41.0788 37.4364ZM40.3546 47H46.1506V45H40.3546V47ZM49.3748 46V47H50.1925L50.3549 46.1986L49.3748 46ZM49.9388 43.216V42.216H49.1211L48.9587 43.0174L49.9388 43.216ZM51.2588 43.216L52.18 42.8269L51.9219 42.216H51.2588V43.216ZM52.4348 46L51.5136 46.3891L51.7716 47H52.4348V46ZM54.4388 46V47H55.9647L55.3557 45.6009L54.4388 46ZM53.1068 42.94L52.7453 42.0076L51.7742 42.3842L52.1899 43.3391L53.1068 42.94ZM54.5228 41.812L55.349 42.3753V42.3753L54.5228 41.812ZM54.3188 38.344L53.6296 39.0686V39.0686L54.3188 38.344ZM49.2188 37.636V36.636H48.402L48.2389 37.4364L49.2188 37.636ZM47.5148 46L46.5349 45.8004L46.2905 47H47.5148V46ZM50.7308 39.316V38.316H49.9143L49.751 39.1159L50.7308 39.316ZM52.7948 41.224L53.4853 41.9474L53.4937 41.9393L53.5019 41.9311L52.7948 41.224ZM50.2628 41.608L49.283 41.4079L49.038 42.608H50.2628V41.608ZM50.3549 46.1986L50.9189 43.4146L48.9587 43.0174L48.3947 45.8014L50.3549 46.1986ZM49.9388 44.216H51.2588V42.216H49.9388V44.216ZM50.3376 43.6051L51.5136 46.3891L53.356 45.6109L52.18 42.8269L50.3376 43.6051ZM52.4348 47H54.4388V45H52.4348V47ZM55.3557 45.6009L54.0237 42.5409L52.1899 43.3391L53.5219 46.3991L55.3557 45.6009ZM53.4683 43.8724C54.2466 43.5706 54.876 43.0691 55.349 42.3753L53.6966 41.2487C53.4496 41.6109 53.1429 41.8534 52.7453 42.0076L53.4683 43.8724ZM55.349 42.3753C55.8145 41.6927 56.0628 40.9343 56.0628 40.12H54.0628C54.0628 40.5057 53.9511 40.8753 53.6966 41.2487L55.349 42.3753ZM56.0628 40.12C56.0628 39.1355 55.7052 38.2826 55.008 37.6194L53.6296 39.0686C53.9164 39.3414 54.0628 39.6645 54.0628 40.12H56.0628ZM55.008 37.6194C54.311 36.9564 53.4317 36.636 52.4348 36.636V38.636C52.9739 38.636 53.3426 38.7956 53.6296 39.0686L55.008 37.6194ZM52.4348 36.636H49.2188V38.636H52.4348V36.636ZM48.2389 37.4364L46.5349 45.8004L48.4947 46.1996L50.1987 37.8356L48.2389 37.4364ZM47.5148 47H49.3748V45H47.5148V47ZM50.7308 40.316H52.1228V38.316H50.7308V40.316ZM52.1228 40.316C52.1629 40.316 52.1855 40.3228 52.1944 40.3262C52.2031 40.3296 52.2026 40.3311 52.1981 40.3268C52.1935 40.3223 52.1902 40.317 52.1887 40.3135C52.1872 40.31 52.1908 40.3159 52.1908 40.336H54.1908C54.1908 39.1579 53.2605 38.316 52.1228 38.316V40.316ZM52.1908 40.336C52.1908 40.3591 52.191 40.4136 52.0877 40.5169L53.5019 41.9311C53.9266 41.5064 54.1908 40.9609 54.1908 40.336H52.1908ZM52.1043 40.5006C52.0286 40.5729 51.9527 40.608 51.8228 40.608V42.608C52.4608 42.608 53.033 42.3791 53.4853 41.9474L52.1043 40.5006ZM51.8228 40.608H50.2628V42.608H51.8228V40.608ZM51.2426 41.8081L51.7106 39.5161L49.751 39.1159L49.283 41.4079L51.2426 41.8081Z" fill="#681EB1" />
    </g>
    <defs>
        <filter id="filter0_b_0_1" x="-7.34912" y="-1.9248" width="73.7643" height="75.9541" filterUnits="userSpaceOnUse" color-interpolation-filters="sRGB">
            <feFlood flood-opacity="0" result="BackgroundImageFix" />
            <feGaussianBlur in="BackgroundImage" stdDeviation="5" />
            <feComposite in2="SourceAlpha" operator="in" result="effect1_backgroundBlur_0_1" />
            <feBlend mode="normal" in="SourceGraphic" in2="effect1_backgroundBlur_0_1" result="shape" />
        </filter>
        <filter id="filter1_d_0_1" x="3.61353" y="7" width="52.01" height="54" filterUnits="userSpaceOnUse" color-interpolation-filters="sRGB">
            <feFlood flood-opacity="0" result="BackgroundImageFix" />
            <feColorMatrix in="SourceAlpha" type="matrix" values="0 0 0 0 0 0 0 0 0 0 0 0 0 0 0 0 0 0 127 0" result="hardAlpha" />
            <feOffset dy="4" />
            <feGaussianBlur stdDeviation="2" />
            <feComposite in2="hardAlpha" operator="out" />
            <feColorMatrix type="matrix" values="0 0 0 0 0 0 0 0 0 0 0 0 0 0 0 0 0 0 0.25 0" />
            <feBlend mode="normal" in2="BackgroundImageFix" result="effect1_dropShadow_0_1" />
            <feBlend mode="normal" in="SourceGraphic" in2="effect1_dropShadow_0_1" result="shape" />
        </filter>
        <filter id="filter2_d_0_1" x="7.14722" y="0" width="44.8706" height="60" filterUnits="userSpaceOnUse" color-interpolation-filters="sRGB">
            <feFlood flood-opacity="0" result="BackgroundImageFix" />
            <feColorMatrix in="SourceAlpha" type="matrix" values="0 0 0 0 0 0 0 0 0 0 0 0 0 0 0 0 0 0 127 0" result="hardAlpha" />
            <feOffset dy="4" />
            <feGaussianBlur stdDeviation="2" />
            <feComposite in2="hardAlpha" operator="out" />
            <feColorMatrix type="matrix" values="0 0 0 0 0 0 0 0 0 0 0 0 0 0 0 0 0 0 0.25 0" />
            <feBlend mode="normal" in2="BackgroundImageFix" result="effect1_dropShadow_0_1" />
            <feBlend mode="normal" in="SourceGraphic" in2="effect1_dropShadow_0_1" result="shape" />
        </filter>
        <filter id="filter3_d_0_1" x="15" y="8" width="30" height="29" filterUnits="userSpaceOnUse" color-interpolation-filters="sRGB">
            <feFlood flood-opacity="0" result="BackgroundImageFix" />
            <feColorMatrix in="SourceAlpha" type="matrix" values="0 0 0 0 0 0 0 0 0 0 0 0 0 0 0 0 0 0 127 0" result="hardAlpha" />
            <feOffset dy="4" />
            <feGaussianBlur stdDeviation="2" />
            <feComposite in2="hardAlpha" operator="out" />
            <feColorMatrix type="matrix" values="0 0 0 0 0 0 0 0 0 0 0 0 0 0 0 0 0 0 0.25 0" />
            <feBlend mode="normal" in2="BackgroundImageFix" result="effect1_dropShadow_0_1" />
            <feBlend mode="normal" in="SourceGraphic" in2="effect1_dropShadow_0_1" result="shape" />
        </filter>
        <filter id="filter4_d_0_1" x="0.723999" y="37.5039" width="58.3387" height="16.6641" filterUnits="userSpaceOnUse" color-interpolation-filters="sRGB">
            <feFlood flood-opacity="0" result="BackgroundImageFix" />
            <feColorMatrix in="SourceAlpha" type="matrix" values="0 0 0 0 0 0 0 0 0 0 0 0 0 0 0 0 0 0 127 0" result="hardAlpha" />
            <feOffset dy="4" />
            <feGaussianBlur stdDeviation="2" />
            <feColorMatrix type="matrix" values="0 0 0 0 0 0 0 0 0 0 0 0 0 0 0 0 0 0 0.25 0" />
            <feBlend mode="normal" in2="BackgroundImageFix" result="effect1_dropShadow_0_1" />
            <feBlend mode="normal" in="SourceGraphic" in2="effect1_dropShadow_0_1" result="shape" />
        </filter>
        <linearGradient id="paint0_linear_0_1" x1="29.5" y1="8" x2="30.0182" y2="74.9997" gradientUnits="userSpaceOnUse">
            <stop offset="0.36586" stop-color="#18AAE9" />
            <stop offset="0.737678" stop-color="#6D0BBB" />
            <stop offset="0.9995" stop-color="#0A2AB3" stop-opacity="0" />
            <stop offset="0.9996" stop-color="#A921BF" stop-opacity="0.353414" />
            <stop offset="0.9997" stop-color="#8D17EA" />
        </linearGradient>
        <linearGradient id="paint1_linear_0_1" x1="29.5" y1="8" x2="29.5" y2="65" gradientUnits="userSpaceOnUse">
            <stop stop-color="#D267ED" stop-opacity="0.75" />
            <stop offset="0.333261" stop-color="#1000CE" stop-opacity="0.53" />
            <stop offset="0.979276" stop-color="#C00ED0" stop-opacity="0.8" />
        </linearGradient>
        <linearGradient id="paint2_linear_0_1" x1="30.0465" y1="3.03448" x2="32.2885" y2="53.9873" gradientUnits="userSpaceOnUse">
            <stop offset="0.161415" stop-color="#F536A9" />
            <stop offset="0.566871" stop-color="#E77AC2" stop-opacity="0.85" />
            <stop offset="0.918243" stop-color="#5C2AC9" />
            <stop offset="1" stop-color="#2D1378" stop-opacity="0.42" />
        </linearGradient>
        <linearGradient id="paint3_linear_0_1" x1="29.9535" y1="-4.48276" x2="30.6522" y2="53.4982" gradientUnits="userSpaceOnUse">
            <stop offset="0.161415" stop-color="#C12EF4" />
            <stop offset="0.788967" stop-color="#2A7CC9" />
            <stop offset="1" stop-color="#430E86" stop-opacity="0.66" />
            <stop offset="1" stop-color="#B22DBE" stop-opacity="0.85" />
        </linearGradient>
        <radialGradient id="paint4_angular_0_1" cx="0" cy="0" r="1" gradientUnits="userSpaceOnUse" gradientTransform="translate(30 18.5) rotate(90) scale(10.5 30.6956)">
            <stop offset="0.218193" stop-color="#B5CDBC" stop-opacity="0.76" />
            <stop offset="0.493174" stop-color="#ECF5EE" stop-opacity="0.853421" />
            <stop offset="0.924621" stop-color="#D7EEDD" />
        </radialGradient>
        <radialGradient id="paint5_radial_0_1" cx="0" cy="0" r="1" gradientUnits="userSpaceOnUse" gradientTransform="translate(5 37.5) rotate(52.3506) scale(63.1502 86.2869)">
            <stop offset="0.264492" stop-color="#D0CAE9" />
            <stop offset="0.567607" stop-color="#DECDEA" stop-opacity="0.764779" />
            <stop offset="0.81487" stop-color="#EAD0EA" stop-opacity="0.55" />
            <stop offset="0.939696" stop-color="#951F98" stop-opacity="0.69" />
        </radialGradient>
    </defs>
</svg>
