<svg width="93" height="65" viewBox="0 0 93 65" fill="none" xmlns="http://www.w3.org/2000/svg">
<g filter="url(#filter0_b_0_1)">
<path d="M18.7038 17.6173C18.3123 14.9322 20.134 12.425 22.8086 11.9676L45.1505 8.14685C45.7187 8.04968 46.2995 8.0515 46.867 8.15223L68.2883 11.9538C70.9233 12.4214 72.7229 14.8808 72.3713 17.5337L68.4401 47.1961C68.2703 48.4775 67.6108 49.6433 66.6 50.449L59.0088 56.5L48.74 63.2145C47.0805 64.2995 44.9367 64.3016 43.2752 63.2196L32.9561 56.5L24.9407 50.4303C23.8938 49.6376 23.2008 48.4649 23.0114 47.1655L18.7038 17.6173Z" fill="url(#paint0_linear_0_1)" style="mix-blend-mode:darken"/>
<path d="M19.1985 17.5452C18.8462 15.1286 20.4857 12.8721 22.8929 12.4604L45.2348 8.6397C45.7462 8.55224 46.2689 8.55388 46.7797 8.64453L68.2009 12.4461C70.5724 12.8669 72.1921 15.0804 71.8756 17.4681L67.9445 47.1304C67.7916 48.2837 67.1981 49.3329 66.2884 50.0581L58.7155 56.0944L48.4663 62.796C46.9728 63.7726 45.0434 63.7744 43.548 62.8006L33.2438 56.0907L25.2425 50.0317C24.3003 49.3183 23.6767 48.2629 23.5062 47.0934L19.1985 17.5452Z" stroke="url(#paint1_linear_0_1)"/>
</g>
<g filter="url(#filter1_d_0_1)">
<path d="M23.8065 13.3652C22.9006 10.173 25.2983 7 28.6166 7H62.6211C65.8661 7 68.2515 10.0432 67.4764 13.1943L58.6213 49.1943C58.0716 51.4291 56.0674 53 53.766 53H38.834C36.5983 53 34.6343 51.5159 34.0239 49.3652L23.8065 13.3652Z" fill="url(#paint2_linear_0_1)" shape-rendering="crispEdges"/>
</g>
<g filter="url(#filter2_d_0_1)">
<path d="M27.2541 6.01978C26.6073 2.91487 28.9775 0 32.149 0H59.0164C62.1334 0 64.4907 2.82097 63.9368 5.88841L56.3535 47.8884C55.9237 50.2687 53.8518 52 51.433 52H40.899C38.5306 52 36.4872 50.3384 36.0041 48.0198L27.2541 6.01978Z" fill="url(#paint3_linear_0_1)" shape-rendering="crispEdges"/>
</g>
<g filter="url(#filter3_d_0_1)">
<path d="M4.48 48.084C4.48 49.2 4.936 50.064 5.608 50.508C6.28 50.94 7 51.132 7.732 51.132C9.928 51.132 11.188 50.016 11.656 47.724L12.688 42.636H10.84L9.82 47.64C9.568 48.852 8.932 49.452 7.888 49.452C6.88 49.452 6.304 48.912 6.304 48.012C6.304 47.844 6.316 47.7 6.328 47.592L7.348 42.636H5.488L4.6 46.992C4.516 47.424 4.48 47.784 4.48 48.084ZM14.3781 51L15.3501 46.164L19.9101 51.324L21.6861 42.636H19.8501L18.8541 47.484L14.3181 42.312L12.5421 51H14.3781ZM21.3724 50.076C21.9964 50.7 23.1604 51.132 24.5404 51.132C25.6324 51.132 26.4604 50.868 27.0484 50.352C27.6364 49.836 27.9364 49.2 27.9364 48.468C27.9364 47.472 27.3364 46.704 26.1484 46.152C26.0044 46.092 25.6444 45.912 25.4644 45.852C25.3084 45.768 25.0204 45.624 24.8764 45.528C24.6364 45.336 24.4564 45.156 24.4564 44.904C24.4564 44.52 24.9364 44.196 25.6684 44.196C26.3884 44.196 27.2884 44.484 27.8764 45.096L28.2364 43.356C27.6484 42.792 26.7964 42.504 25.6684 42.504C24.7804 42.504 24.0484 42.756 23.4604 43.248C22.8844 43.74 22.5964 44.328 22.5964 45.024C22.5964 46.02 23.1964 46.788 24.4084 47.316C24.8404 47.508 25.1524 47.652 25.3324 47.748C25.5244 47.844 25.6924 47.964 25.8484 48.108C26.0044 48.252 26.0764 48.408 26.0764 48.564C26.0764 49.056 25.5364 49.464 24.5284 49.464C23.4244 49.464 22.5004 49.068 21.7564 48.288L21.3724 50.076ZM31.6192 51L32.9752 44.316H35.2072L35.5552 42.636H29.2072L28.8592 44.316H31.1272L29.7592 51H31.6192ZM34.9102 47.292C34.9102 48.432 35.3062 49.356 36.1102 50.088C36.9142 50.808 37.9342 51.168 39.1702 51.168C40.5862 51.168 41.7742 50.688 42.7222 49.728C43.6702 48.768 44.1502 47.664 44.1502 46.416C44.1502 45.276 43.7542 44.34 42.9502 43.608C42.1462 42.876 41.1262 42.504 39.8902 42.504C38.9902 42.504 38.1502 42.732 37.3702 43.176C36.6022 43.62 36.0022 44.22 35.5582 44.952C35.1262 45.684 34.9102 46.464 34.9102 47.292ZM36.7462 47.148C36.7462 46.368 37.0462 45.672 37.6462 45.072C38.2462 44.472 38.9542 44.172 39.7822 44.172C40.5382 44.172 41.1382 44.4 41.6062 44.844C42.0742 45.288 42.3142 45.864 42.3142 46.572C42.3142 47.328 42.0142 48.012 41.4262 48.612C40.8382 49.2 40.1182 49.5 39.2782 49.5C38.5222 49.5 37.9102 49.284 37.4422 48.852C36.9742 48.408 36.7462 47.844 36.7462 47.148ZM46.3123 51L46.8643 48.3H48.8083C49.7083 48.3 50.4523 47.988 51.0643 47.352C51.6763 46.716 51.9763 45.996 51.9763 45.18C51.9763 44.436 51.7243 43.824 51.2323 43.356C50.7403 42.876 50.0923 42.636 49.3003 42.636H46.1563L44.4523 51H46.3123ZM47.6683 44.316H49.0963C49.7203 44.316 50.1403 44.736 50.1403 45.312C50.1403 45.648 50.0203 45.948 49.7683 46.224C49.5283 46.488 49.2403 46.62 48.8923 46.62H47.2003L47.6683 44.316ZM53.824 51L54.376 48.3H56.32C57.22 48.3 57.964 47.988 58.576 47.352C59.188 46.716 59.488 45.996 59.488 45.18C59.488 44.436 59.236 43.824 58.744 43.356C58.252 42.876 57.604 42.636 56.812 42.636H53.668L51.964 51H53.824ZM55.18 44.316H56.608C57.232 44.316 57.652 44.736 57.652 45.312C57.652 45.648 57.532 45.948 57.28 46.224C57.04 46.488 56.752 46.62 56.404 46.62H54.712L55.18 44.316ZM60.6516 49.668H64.2516L64.6116 51H66.4476L63.8916 42.156L57.7356 51H59.7396L60.6516 49.668ZM63.2556 45.876L63.8556 48.096H61.7076L63.2556 45.876ZM71.5264 51C72.3544 51 73.0024 50.724 73.4944 50.184C73.9864 49.632 74.2264 48.984 74.2264 48.228C74.2264 47.424 73.8184 46.74 73.0144 46.5C73.4344 46.368 73.7584 46.104 74.0104 45.732C74.2624 45.348 74.3824 44.94 74.3824 44.52C74.3824 43.98 74.1904 43.524 73.8064 43.176C73.4224 42.816 72.9304 42.636 72.3184 42.636H69.0664L67.3624 51H71.5264ZM70.6024 44.22H71.7424C72.2584 44.22 72.5944 44.532 72.5944 44.976C72.5944 45.504 72.1264 45.972 71.5504 45.972H70.2544L70.6024 44.22ZM69.9544 47.4H71.3944C71.9824 47.4 72.3904 47.748 72.3904 48.264C72.3904 48.564 72.2704 48.828 72.0424 49.056C71.8144 49.284 71.5384 49.404 71.2144 49.404H69.5464L69.9544 47.4ZM80.0096 51L80.3576 49.32H77.0936L78.4616 42.636H76.6016L74.8976 51H80.0096ZM86.928 51L87.276 49.32H83.34L83.7 47.532H87.3L87.624 45.888H84.024L84.348 44.316H88.2L88.548 42.636H82.836L81.132 51H86.928Z" fill="url(#paint4_radial_0_1)"/>
<path d="M5.608 50.508L5.0567 51.3424L5.06724 51.3492L5.608 50.508ZM11.656 47.724L12.6358 47.9241L12.636 47.9228L11.656 47.724ZM12.688 42.636L13.668 42.8348L13.9112 41.636H12.688V42.636ZM10.84 42.636V41.636H10.0233L9.86015 42.4363L10.84 42.636ZM9.82 47.64L10.7991 47.8436L10.7999 47.8397L9.82 47.64ZM6.328 47.592L5.34853 47.3904L5.33922 47.4357L5.33412 47.4816L6.328 47.592ZM7.348 42.636L8.32747 42.8376L8.57477 41.636H7.348V42.636ZM5.488 42.636V41.636H4.67129L4.50815 42.4363L5.488 42.636ZM4.6 46.992L3.62011 46.7922L3.61838 46.8011L4.6 46.992ZM3.48 48.084C3.48 49.4656 4.05067 50.6776 5.05674 51.3423L6.15926 49.6737C5.82133 49.4504 5.48 48.9344 5.48 48.084H3.48ZM5.06724 51.3492C5.90777 51.8895 6.81703 52.132 7.732 52.132V50.132C7.18297 50.132 6.65223 49.9905 6.14876 49.6668L5.06724 51.3492ZM7.732 52.132C9.00232 52.132 10.1231 51.8058 10.9995 51.0409C11.8661 50.2847 12.3746 49.2032 12.6358 47.9241L10.6762 47.5239C10.4694 48.5368 10.114 49.1593 9.68448 49.5341C9.26493 49.9002 8.65768 50.132 7.732 50.132V52.132ZM12.636 47.9228L13.668 42.8348L11.708 42.4372L10.676 47.5252L12.636 47.9228ZM12.688 41.636H10.84V43.636H12.688V41.636ZM9.86015 42.4363L8.84015 47.4403L10.7999 47.8397L11.8199 42.8357L9.86015 42.4363ZM8.84094 47.4364C8.74004 47.9217 8.58713 48.1582 8.46638 48.2716C8.36461 48.3672 8.20614 48.452 7.888 48.452V50.452C8.61386 50.452 9.29539 50.2368 9.83562 49.7294C10.3569 49.2398 10.648 48.5703 10.7991 47.8436L8.84094 47.4364ZM7.888 48.452C7.55517 48.452 7.42832 48.3641 7.39372 48.3323C7.37076 48.3113 7.304 48.2416 7.304 48.012H5.304C5.304 48.6824 5.52524 49.3327 6.04228 49.8067C6.54768 50.2699 7.21284 50.452 7.888 50.452V48.452ZM7.304 48.012C7.304 47.8913 7.31262 47.7858 7.32188 47.7024L5.33412 47.4816C5.31938 47.6142 5.304 47.7967 5.304 48.012H7.304ZM7.30747 47.7936L8.32747 42.8376L6.36853 42.4344L5.34853 47.3904L7.30747 47.7936ZM7.348 41.636H5.488V43.636H7.348V41.636ZM4.50815 42.4363L3.62015 46.7923L5.57985 47.1917L6.46785 42.8357L4.50815 42.4363ZM3.61838 46.8011C3.52513 47.2807 3.48 47.706 3.48 48.084H5.48C5.48 47.862 5.50687 47.5673 5.58162 47.1829L3.61838 46.8011ZM14.3781 51V52H15.1971L15.3585 51.1971L14.3781 51ZM15.3501 46.164L16.0995 45.5018L14.7664 43.9934L14.3697 45.9669L15.3501 46.164ZM19.9101 51.324L19.1608 51.9862L20.4884 53.4884L20.8899 51.5243L19.9101 51.324ZM21.6861 42.636L22.6659 42.8363L22.9112 41.636H21.6861V42.636ZM19.8501 42.636V41.636H19.0347L18.8706 42.4348L19.8501 42.636ZM18.8541 47.484L18.1023 48.1434L19.4288 49.6559L19.8337 47.6852L18.8541 47.484ZM14.3181 42.312L15.0699 41.6526L13.7418 40.1383L13.3384 42.1117L14.3181 42.312ZM12.5421 51L11.5624 50.7997L11.317 52H12.5421V51ZM15.3585 51.1971L16.3305 46.3611L14.3697 45.9669L13.3977 50.8029L15.3585 51.1971ZM14.6008 46.8262L19.1608 51.9862L20.6595 50.6618L16.0995 45.5018L14.6008 46.8262ZM20.8899 51.5243L22.6659 42.8363L20.7064 42.4357L18.9304 51.1237L20.8899 51.5243ZM21.6861 41.636H19.8501V43.636H21.6861V41.636ZM18.8706 42.4348L17.8746 47.2828L19.8337 47.6852L20.8297 42.8372L18.8706 42.4348ZM19.6059 46.8246L15.0699 41.6526L13.5663 42.9714L18.1023 48.1434L19.6059 46.8246ZM13.3384 42.1117L11.5624 50.7997L13.5219 51.2003L15.2979 42.5123L13.3384 42.1117ZM12.5421 52H14.3781V50H12.5421V52ZM21.3724 50.076L20.3947 49.866L20.2804 50.3982L20.6653 50.7831L21.3724 50.076ZM27.0484 50.352L27.708 51.1036L27.0484 50.352ZM26.1484 46.152L26.5698 45.2451L26.5516 45.2366L26.5331 45.2289L26.1484 46.152ZM25.4644 45.852L24.9903 46.7325L25.0663 46.7734L25.1482 46.8007L25.4644 45.852ZM24.8764 45.528L24.2517 46.3089L24.2856 46.336L24.3217 46.36L24.8764 45.528ZM27.8764 45.096L27.1553 45.7888L28.471 47.1582L28.8557 45.2986L27.8764 45.096ZM28.2364 43.356L29.2157 43.5586L29.3277 43.0171L28.9287 42.6343L28.2364 43.356ZM23.4604 43.248L22.8187 42.481L22.811 42.4876L23.4604 43.248ZM24.4084 47.316L24.8146 46.4022L24.8078 46.3992L24.4084 47.316ZM25.3324 47.748L24.8618 48.6304L24.8735 48.6365L24.8852 48.6424L25.3324 47.748ZM25.8484 48.108L26.5267 47.3732L25.8484 48.108ZM21.7564 48.288L22.48 47.5978L21.1756 46.2302L20.7787 48.078L21.7564 48.288ZM20.6653 50.7831C21.5352 51.653 22.9911 52.132 24.5404 52.132V50.132C23.3298 50.132 22.4577 49.747 22.0795 49.3689L20.6653 50.7831ZM24.5404 52.132C25.7881 52.132 26.8813 51.8291 27.708 51.1036L26.3888 49.6004C26.0395 49.9069 25.4768 50.132 24.5404 50.132V52.132ZM27.708 51.1036C28.4953 50.4127 28.9364 49.5098 28.9364 48.468H26.9364C26.9364 48.8902 26.7776 49.2593 26.3888 49.6004L27.708 51.1036ZM28.9364 48.468C28.9364 46.9494 27.9711 45.8962 26.5698 45.2451L25.7271 47.0589C26.7018 47.5118 26.9364 47.9946 26.9364 48.468H28.9364ZM26.5331 45.2289C26.4832 45.2081 26.3947 45.1656 26.2377 45.0934C26.1171 45.038 25.9317 44.9537 25.7807 44.9033L25.1482 46.8007C25.1478 46.8006 25.1498 46.8012 25.1544 46.8029C25.1589 46.8046 25.165 46.8069 25.1729 46.81C25.1889 46.8163 25.209 46.8246 25.2334 46.835C25.2827 46.8562 25.3398 46.8819 25.4022 46.9106C25.5061 46.9584 25.6697 47.0359 25.7638 47.0751L26.5331 45.2289ZM25.9385 44.9715C25.7195 44.8536 25.5231 44.7572 25.4311 44.696L24.3217 46.36C24.5178 46.4908 24.8974 46.6824 24.9903 46.7325L25.9385 44.9715ZM25.5011 44.7471C25.4513 44.7073 25.4187 44.6792 25.3962 44.6579C25.3737 44.6367 25.3712 44.6314 25.3779 44.6404C25.3855 44.6506 25.4066 44.6813 25.4253 44.7314C25.445 44.7843 25.4564 44.8439 25.4564 44.904H23.4564C23.4564 45.6864 24.0408 46.1402 24.2517 46.3089L25.5011 44.7471ZM25.4564 44.904C25.4564 45.0252 25.4165 45.1239 25.3741 45.1874C25.3351 45.2457 25.3019 45.2639 25.3087 45.2597C25.3269 45.2486 25.4382 45.196 25.6684 45.196V43.196C25.1667 43.196 24.672 43.3054 24.2672 43.5523C23.8668 43.7965 23.4564 44.2525 23.4564 44.904H25.4564ZM25.6684 45.196C26.1732 45.196 26.792 45.4106 27.1553 45.7888L28.5975 44.4032C27.7849 43.5574 26.6037 43.196 25.6684 43.196V45.196ZM28.8557 45.2986L29.2157 43.5586L27.2572 43.1534L26.8972 44.8934L28.8557 45.2986ZM28.9287 42.6343C28.0964 41.8361 26.961 41.504 25.6684 41.504V43.504C26.6319 43.504 27.2004 43.7479 27.5442 44.0777L28.9287 42.6343ZM25.6684 41.504C24.5776 41.504 23.6096 41.8193 22.8187 42.4811L24.1022 44.0149C24.4873 43.6927 24.9833 43.504 25.6684 43.504V41.504ZM22.811 42.4876C22.0371 43.1486 21.5964 44.0046 21.5964 45.024H23.5964C23.5964 44.6514 23.7318 44.3314 24.1099 44.0084L22.811 42.4876ZM21.5964 45.024C21.5964 45.7397 21.8178 46.4003 22.2626 46.9645C22.6955 47.5137 23.302 47.9248 24.009 48.2328L24.8078 46.3992C24.3028 46.1792 24.0034 45.9423 23.8333 45.7265C23.6751 45.5257 23.5964 45.3043 23.5964 45.024H21.5964ZM24.0023 48.2298C24.4399 48.4243 24.7188 48.5541 24.8618 48.6304L25.803 46.8656C25.5861 46.7499 25.241 46.5917 24.8146 46.4022L24.0023 48.2298ZM24.8852 48.6424C24.9844 48.692 25.0758 48.7557 25.1702 48.8428L26.5267 47.3732C26.3091 47.1723 26.0644 46.996 25.7797 46.8536L24.8852 48.6424ZM25.1702 48.8428C25.1728 48.8452 25.1484 48.8235 25.123 48.7717C25.0961 48.7168 25.0764 48.6448 25.0764 48.564H27.0764C27.0764 48.0693 26.8395 47.6619 26.5267 47.3732L25.1702 48.8428ZM25.0764 48.564C25.0764 48.4971 25.0966 48.4334 25.1256 48.3866C25.1521 48.3437 25.1716 48.3372 25.1496 48.351C25.0968 48.3841 24.9126 48.464 24.5284 48.464V50.464C25.1523 50.464 25.742 50.3399 26.2113 50.046C26.6998 49.74 27.0764 49.2241 27.0764 48.564H25.0764ZM24.5284 48.464C23.6944 48.464 23.033 48.1775 22.48 47.5978L21.0328 48.9782C21.9679 49.9585 23.1545 50.464 24.5284 50.464V48.464ZM20.7787 48.078L20.3947 49.866L22.3501 50.286L22.7341 48.498L20.7787 48.078ZM31.6192 51V52H32.4367L32.5993 51.1988L31.6192 51ZM32.9752 44.316V43.316H32.1577L31.9952 44.1172L32.9752 44.316ZM35.2072 44.316V45.316H36.0213L36.1864 44.5188L35.2072 44.316ZM35.5552 42.636L36.5344 42.8388L36.7836 41.636H35.5552V42.636ZM29.2072 42.636V41.636H28.3931L28.228 42.4332L29.2072 42.636ZM28.8592 44.316L27.88 44.1132L27.6308 45.316H28.8592V44.316ZM31.1272 44.316L32.1069 44.5165L32.3526 43.316H31.1272V44.316ZM29.7592 51L28.7795 50.7995L28.5338 52H29.7592V51ZM32.5993 51.1988L33.9553 44.5148L31.9952 44.1172L30.6392 50.8012L32.5993 51.1988ZM32.9752 45.316H35.2072V43.316H32.9752V45.316ZM36.1864 44.5188L36.5344 42.8388L34.576 42.4332L34.228 44.1132L36.1864 44.5188ZM35.5552 41.636H29.2072V43.636H35.5552V41.636ZM28.228 42.4332L27.88 44.1132L29.8384 44.5188L30.1864 42.8388L28.228 42.4332ZM28.8592 45.316H31.1272V43.316H28.8592V45.316ZM30.1475 44.1155L28.7795 50.7995L30.7389 51.2005L32.1069 44.5165L30.1475 44.1155ZM29.7592 52H31.6192V50H29.7592V52ZM36.1102 50.088L35.437 50.8275L35.4431 50.833L36.1102 50.088ZM42.7222 49.728L42.0107 49.0254L42.7222 49.728ZM42.9502 43.608L43.6234 42.8686L42.9502 43.608ZM37.3702 43.176L36.8755 42.3069L36.8697 42.3103L37.3702 43.176ZM35.5582 44.952L34.7031 44.4333L34.697 44.4437L35.5582 44.952ZM37.6462 45.072L38.3533 45.7791L37.6462 45.072ZM41.4262 48.612L42.1334 49.3191L42.1404 49.3119L41.4262 48.612ZM37.4422 48.852L36.7539 49.5775L36.7639 49.5868L37.4422 48.852ZM33.9102 47.292C33.9102 48.6975 34.4133 49.8954 35.437 50.8274L36.7834 49.3486C36.1991 48.8166 35.9102 48.1665 35.9102 47.292H33.9102ZM35.4431 50.833C36.4571 51.741 37.7262 52.168 39.1702 52.168V50.168C38.1422 50.168 37.3714 49.875 36.7773 49.343L35.4431 50.833ZM39.1702 52.168C40.8375 52.168 42.2869 51.5921 43.4338 50.4306L42.0107 49.0254C41.2616 49.7839 40.3349 50.168 39.1702 50.168V52.168ZM43.4338 50.4306C44.5477 49.3027 45.1502 47.9528 45.1502 46.416H43.1502C43.1502 47.3752 42.7928 48.2333 42.0107 49.0254L43.4338 50.4306ZM45.1502 46.416C45.1502 45.014 44.6496 43.8028 43.6234 42.8686L42.277 44.3474C42.8589 44.8772 43.1502 45.538 43.1502 46.416H45.1502ZM43.6234 42.8686C42.6125 41.9482 41.3427 41.504 39.8902 41.504V43.504C40.9098 43.504 41.6799 43.8038 42.277 44.3474L43.6234 42.8686ZM39.8902 41.504C38.8127 41.504 37.8027 41.7792 36.8755 42.3069L37.8649 44.0451C38.4977 43.6848 39.1678 43.504 39.8902 43.504V41.504ZM36.8697 42.3103C35.9527 42.8404 35.2322 43.5613 34.7032 44.4334L36.4132 45.4706C36.7723 44.8787 37.2517 44.3996 37.8707 44.0417L36.8697 42.3103ZM34.697 44.4437C34.1767 45.3254 33.9102 46.2803 33.9102 47.292H35.9102C35.9102 46.6477 36.0758 46.0426 36.4194 45.4603L34.697 44.4437ZM37.7462 47.148C37.7462 46.6556 37.9244 46.208 38.3533 45.7791L36.9391 44.3649C36.1681 45.136 35.7462 46.0804 35.7462 47.148H37.7462ZM38.3533 45.7791C38.7726 45.3599 39.2289 45.172 39.7822 45.172V43.172C38.6796 43.172 37.7199 43.5841 36.9391 44.3649L38.3533 45.7791ZM39.7822 45.172C40.3176 45.172 40.66 45.3248 40.918 45.5695L42.2945 44.1185C41.6164 43.4752 40.7588 43.172 39.7822 43.172V45.172ZM40.918 45.5695C41.1709 45.8094 41.3142 46.1154 41.3142 46.572H43.3142C43.3142 45.6126 42.9775 44.7666 42.2945 44.1185L40.918 45.5695ZM41.3142 46.572C41.3142 47.0333 41.1413 47.474 40.712 47.9121L42.1404 49.3119C42.8871 48.55 43.3142 47.6227 43.3142 46.572H41.3142ZM40.7191 47.9049C40.3186 48.3054 39.853 48.5 39.2782 48.5V50.5C40.3834 50.5 41.3578 50.0946 42.1333 49.3191L40.7191 47.9049ZM39.2782 48.5C38.7237 48.5 38.3701 48.3476 38.1205 48.1172L36.7639 49.5868C37.4503 50.2204 38.3207 50.5 39.2782 50.5V48.5ZM38.1305 48.1265C37.881 47.8899 37.7462 47.5978 37.7462 47.148H35.7462C35.7462 48.0902 36.0674 48.9261 36.754 49.5775L38.1305 48.1265ZM46.3123 51V52H47.1285L47.292 51.2003L46.3123 51ZM46.8643 48.3V47.3H46.048L45.8845 48.0997L46.8643 48.3ZM51.0643 47.352L51.7849 48.0454V48.0454L51.0643 47.352ZM51.2323 43.356L50.5339 44.0718L50.5431 44.0806L51.2323 43.356ZM46.1563 42.636V41.636H45.3395L45.1764 42.4364L46.1563 42.636ZM44.4523 51L43.4724 50.8004L43.228 52H44.4523V51ZM47.6683 44.316V43.316H46.851L46.6883 44.1169L47.6683 44.316ZM49.7683 46.224L49.0298 45.5497L49.0283 45.5513L49.7683 46.224ZM47.2003 46.62L46.2203 46.4209L45.9767 47.62H47.2003V46.62ZM47.292 51.2003L47.844 48.5003L45.8845 48.0997L45.3325 50.7997L47.292 51.2003ZM46.8643 49.3H48.8083V47.3H46.8643V49.3ZM48.8083 49.3C49.9733 49.3 50.9797 48.8822 51.7849 48.0454L50.3437 46.6586C49.9249 47.0938 49.4432 47.3 48.8083 47.3V49.3ZM51.7849 48.0454C52.5622 47.2376 52.9763 46.274 52.9763 45.18H50.9763C50.9763 45.718 50.7904 46.1944 50.3437 46.6586L51.7849 48.0454ZM52.9763 45.18C52.9763 44.1874 52.6295 43.3049 51.9215 42.6314L50.5431 44.0806C50.819 44.3431 50.9763 44.6846 50.9763 45.18H52.9763ZM51.9306 42.6402C51.2218 41.9487 50.308 41.636 49.3003 41.636V43.636C49.8766 43.636 50.2588 43.8033 50.534 44.0718L51.9306 42.6402ZM49.3003 41.636H46.1563V43.636H49.3003V41.636ZM45.1764 42.4364L43.4724 50.8004L45.4322 51.1996L47.1362 42.8356L45.1764 42.4364ZM44.4523 52H46.3123V50H44.4523V52ZM47.6683 45.316H49.0963V43.316H47.6683V45.316ZM49.0963 45.316C49.1398 45.316 49.1616 45.3232 49.167 45.3252C49.172 45.3271 49.1664 45.3258 49.1571 45.3168C49.1476 45.3077 49.1417 45.2977 49.139 45.2912C49.1365 45.2851 49.1403 45.2903 49.1403 45.312H51.1403C51.1403 44.773 50.9392 44.258 50.5475 43.8792C50.1571 43.5016 49.6371 43.316 49.0963 43.316V45.316ZM49.1403 45.312C49.1403 45.3766 49.1289 45.4412 49.0298 45.5497L50.5068 46.8983C50.9116 46.4548 51.1403 45.9194 51.1403 45.312H49.1403ZM49.0283 45.5513C48.9879 45.5958 48.9639 45.6075 48.9577 45.6103C48.9526 45.6126 48.936 45.62 48.8923 45.62V47.62C49.5355 47.62 50.088 47.3589 50.5082 46.8967L49.0283 45.5513ZM48.8923 45.62H47.2003V47.62H48.8923V45.62ZM48.1803 46.8191L48.6483 44.5151L46.6883 44.1169L46.2203 46.4209L48.1803 46.8191ZM53.824 51V52H54.6402L54.8037 51.2003L53.824 51ZM54.376 48.3V47.3H53.5598L53.3963 48.0997L54.376 48.3ZM58.576 47.352L59.2966 48.0454V48.0454L58.576 47.352ZM58.744 43.356L58.0456 44.0718L58.0548 44.0806L58.744 43.356ZM53.668 42.636V41.636H52.8512L52.6881 42.4364L53.668 42.636ZM51.964 51L50.9841 50.8004L50.7397 52H51.964V51ZM55.18 44.316V43.316H54.3627L54.2 44.1169L55.18 44.316ZM57.28 46.224L56.5415 45.5497L56.5401 45.5513L57.28 46.224ZM54.712 46.62L53.732 46.4209L53.4885 47.62H54.712V46.62ZM54.8037 51.2003L55.3557 48.5003L53.3963 48.0997L52.8443 50.7997L54.8037 51.2003ZM54.376 49.3H56.32V47.3H54.376V49.3ZM56.32 49.3C57.4851 49.3 58.4914 48.8822 59.2966 48.0454L57.8554 46.6586C57.4366 47.0938 56.9549 47.3 56.32 47.3V49.3ZM59.2966 48.0454C60.0739 47.2376 60.488 46.274 60.488 45.18H58.488C58.488 45.718 58.3021 46.1944 57.8554 46.6586L59.2966 48.0454ZM60.488 45.18C60.488 44.1874 60.1412 43.3049 59.4332 42.6314L58.0548 44.0806C58.3308 44.3431 58.488 44.6846 58.488 45.18H60.488ZM59.4423 42.6402C58.7335 41.9487 57.8197 41.636 56.812 41.636V43.636C57.3883 43.636 57.7705 43.8033 58.0457 44.0718L59.4423 42.6402ZM56.812 41.636H53.668V43.636H56.812V41.636ZM52.6881 42.4364L50.9841 50.8004L52.9439 51.1996L54.6479 42.8356L52.6881 42.4364ZM51.964 52H53.824V50H51.964V52ZM55.18 45.316H56.608V43.316H55.18V45.316ZM56.608 45.316C56.6515 45.316 56.6733 45.3232 56.6787 45.3252C56.6837 45.3271 56.6781 45.3258 56.6688 45.3168C56.6594 45.3077 56.6534 45.2977 56.6508 45.2912C56.6483 45.2851 56.652 45.2903 56.652 45.312H58.652C58.652 44.773 58.4509 44.258 58.0592 43.8792C57.6688 43.5016 57.1488 43.316 56.608 43.316V45.316ZM56.652 45.312C56.652 45.3766 56.6407 45.4412 56.5415 45.5497L58.0185 46.8983C58.4233 46.4548 58.652 45.9194 58.652 45.312H56.652ZM56.5401 45.5513C56.4997 45.5958 56.4756 45.6075 56.4694 45.6103C56.4643 45.6126 56.4477 45.62 56.404 45.62V47.62C57.0472 47.62 57.5997 47.3589 58.0199 46.8967L56.5401 45.5513ZM56.404 45.62H54.712V47.62H56.404V45.62ZM55.692 46.8191L56.16 44.5151L54.2 44.1169L53.732 46.4209L55.692 46.8191ZM60.6516 49.668V48.668H60.1244L59.8265 49.103L60.6516 49.668ZM64.2516 49.668L65.217 49.4071L65.0172 48.668H64.2516V49.668ZM64.6116 51L63.6463 51.2609L63.846 52H64.6116V51ZM66.4476 51V52H67.7776L67.4083 50.7224L66.4476 51ZM63.8916 42.156L64.8523 41.8784L64.2697 39.8624L63.0709 41.5847L63.8916 42.156ZM57.7356 51L56.9149 50.4287L55.8212 52H57.7356V51ZM59.7396 51V52H60.2669L60.5648 51.5649L59.7396 51ZM63.2556 45.876L64.221 45.6151L63.6616 43.5454L62.4354 45.304L63.2556 45.876ZM63.8556 48.096V49.096H65.1618L64.821 47.8351L63.8556 48.096ZM61.7076 48.096L60.8874 47.524L59.7912 49.096H61.7076V48.096ZM60.6516 50.668H64.2516V48.668H60.6516V50.668ZM63.2863 49.9289L63.6463 51.2609L65.577 50.7391L65.217 49.4071L63.2863 49.9289ZM64.6116 52H66.4476V50H64.6116V52ZM67.4083 50.7224L64.8523 41.8784L62.9309 42.4336L65.4869 51.2776L67.4083 50.7224ZM63.0709 41.5847L56.9149 50.4287L58.5564 51.5713L64.7124 42.7273L63.0709 41.5847ZM57.7356 52H59.7396V50H57.7356V52ZM60.5648 51.5649L61.4767 50.233L59.8265 49.103L58.9145 50.4351L60.5648 51.5649ZM62.2903 46.1369L62.8903 48.3569L64.821 47.8351L64.221 45.6151L62.2903 46.1369ZM63.8556 47.096H61.7076V49.096H63.8556V47.096ZM62.5279 48.668L64.0759 46.448L62.4354 45.304L60.8874 47.524L62.5279 48.668ZM73.4944 50.184L74.2337 50.8575L74.241 50.8494L73.4944 50.184ZM73.0144 46.5L72.7146 45.546L69.6008 46.5246L72.7284 47.4582L73.0144 46.5ZM74.0104 45.732L74.8384 46.2928L74.8425 46.2868L74.8465 46.2807L74.0104 45.732ZM73.8064 43.176L73.1225 43.9055L73.1287 43.9113L73.1349 43.917L73.8064 43.176ZM69.0664 42.636V41.636H68.2496L68.0866 42.4364L69.0664 42.636ZM67.3624 51L66.3826 50.8004L66.1382 52H67.3624V51ZM70.6024 44.22V43.22H69.7815L69.6216 44.0252L70.6024 44.22ZM70.2544 45.972L69.2736 45.7772L69.0363 46.972H70.2544V45.972ZM69.9544 47.4V46.4H69.1375L68.9745 47.2005L69.9544 47.4ZM72.0424 49.056L72.7495 49.7631L72.0424 49.056ZM69.5464 49.404L68.5665 49.2045L68.3223 50.404H69.5464V49.404ZM71.5264 52C72.6052 52 73.5325 51.627 74.2336 50.8575L72.7552 49.5105C72.4724 49.821 72.1036 50 71.5264 50V52ZM74.241 50.8494C74.9026 50.1071 75.2264 49.2197 75.2264 48.228H73.2264C73.2264 48.7483 73.0703 49.1569 72.7479 49.5186L74.241 50.8494ZM75.2264 48.228C75.2264 47.0659 74.6035 45.9307 73.3005 45.5418L72.7284 47.4582C73.0334 47.5493 73.2264 47.7821 73.2264 48.228H75.2264ZM73.3143 47.454C73.9803 47.2447 74.4791 46.8232 74.8384 46.2928L73.1825 45.1712C73.0378 45.3848 72.8885 45.4913 72.7146 45.546L73.3143 47.454ZM74.8465 46.2807C75.202 45.7389 75.3824 45.1411 75.3824 44.52H73.3824C73.3824 44.7389 73.3229 44.9571 73.1744 45.1833L74.8465 46.2807ZM75.3824 44.52C75.3824 43.7184 75.086 42.9861 74.478 42.435L73.1349 43.917C73.2949 44.0619 73.3824 44.2416 73.3824 44.52H75.3824ZM74.4904 42.4465C73.893 41.8864 73.1432 41.636 72.3184 41.636V43.636C72.7176 43.636 72.9519 43.7456 73.1225 43.9055L74.4904 42.4465ZM72.3184 41.636H69.0664V43.636H72.3184V41.636ZM68.0866 42.4364L66.3826 50.8004L68.3423 51.1996L70.0463 42.8356L68.0866 42.4364ZM67.3624 52H71.5264V50H67.3624V52ZM70.6024 45.22H71.7424V43.22H70.6024V45.22ZM71.7424 45.22C71.8004 45.22 71.7605 45.2355 71.6934 45.1752C71.6612 45.1462 71.6338 45.1086 71.6157 45.0667C71.5979 45.0254 71.5944 44.9923 71.5944 44.976H73.5944C73.5944 44.4879 73.4027 44.0225 73.0305 43.6878C72.6664 43.3605 72.2005 43.22 71.7424 43.22V45.22ZM71.5944 44.976C71.5944 44.9592 71.5983 44.9487 71.5996 44.9458C71.6005 44.9437 71.5992 44.9474 71.5928 44.9536C71.5866 44.9596 71.579 44.9646 71.5714 44.9678C71.5646 44.9706 71.558 44.972 71.5504 44.972V46.972C72.6481 46.972 73.5944 46.0864 73.5944 44.976H71.5944ZM71.5504 44.972H70.2544V46.972H71.5504V44.972ZM71.2353 46.1668L71.5833 44.4148L69.6216 44.0252L69.2736 45.7772L71.2353 46.1668ZM69.9544 48.4H71.3944V46.4H69.9544V48.4ZM71.3944 48.4C71.4953 48.4 71.4981 48.4288 71.4595 48.3955C71.4402 48.3789 71.42 48.3537 71.4059 48.3224C71.3918 48.2912 71.3904 48.2686 71.3904 48.264H73.3904C73.3904 47.7237 73.1682 47.2284 72.7664 46.8815C72.3768 46.5452 71.8816 46.4 71.3944 46.4V48.4ZM71.3904 48.264C71.3904 48.2719 71.3897 48.2756 71.3895 48.2766C71.3893 48.2776 71.3889 48.279 71.3877 48.2818C71.3856 48.2865 71.3745 48.3097 71.3353 48.3489L72.7495 49.7631C73.1394 49.3733 73.3904 48.8635 73.3904 48.264H71.3904ZM71.3353 48.3489C71.3033 48.381 71.2827 48.3912 71.2741 48.3948C71.2664 48.3981 71.2499 48.404 71.2144 48.404V50.404C71.8154 50.404 72.3425 50.1701 72.7495 49.7631L71.3353 48.3489ZM71.2144 48.404H69.5464V50.404H71.2144V48.404ZM70.5263 49.6035L70.9343 47.5995L68.9745 47.2005L68.5665 49.2045L70.5263 49.6035ZM80.0096 51V52H80.8237L80.9888 51.2028L80.0096 51ZM80.3576 49.32L81.3368 49.5228L81.586 48.32H80.3576V49.32ZM77.0936 49.32L76.1139 49.1195L75.8682 50.32H77.0936V49.32ZM78.4616 42.636L79.4413 42.8365L79.687 41.636H78.4616V42.636ZM76.6016 42.636V41.636H75.7848L75.6217 42.4364L76.6016 42.636ZM74.8976 51L73.9177 50.8004L73.6733 52H74.8976V51ZM80.9888 51.2028L81.3368 49.5228L79.3784 49.1172L79.0304 50.7972L80.9888 51.2028ZM80.3576 48.32H77.0936V50.32H80.3576V48.32ZM78.0733 49.5205L79.4413 42.8365L77.4819 42.4355L76.1139 49.1195L78.0733 49.5205ZM78.4616 41.636H76.6016V43.636H78.4616V41.636ZM75.6217 42.4364L73.9177 50.8004L75.8775 51.1996L77.5815 42.8356L75.6217 42.4364ZM74.8976 52H80.0096V50H74.8976V52ZM86.928 51V52H87.7421L87.9072 51.2028L86.928 51ZM87.276 49.32L88.2552 49.5228L88.5043 48.32H87.276V49.32ZM83.34 49.32L82.3596 49.1226L82.1186 50.32H83.34V49.32ZM83.7 47.532V46.532H82.8812L82.7196 47.3346L83.7 47.532ZM87.3 47.532V48.532H88.1221L88.2811 47.7254L87.3 47.532ZM87.624 45.888L88.6051 46.0814L88.8403 44.888H87.624V45.888ZM84.024 45.888L83.0446 45.6861L82.7968 46.888H84.024V45.888ZM84.348 44.316V43.316H83.5331L83.3686 44.1141L84.348 44.316ZM88.2 44.316V45.316H89.0141L89.1792 44.5188L88.2 44.316ZM88.548 42.636L89.5272 42.8388L89.7763 41.636H88.548V42.636ZM82.836 42.636V41.636H82.0192L81.8561 42.4364L82.836 42.636ZM81.132 51L80.1521 50.8004L79.9077 52H81.132V51ZM87.9072 51.2028L88.2552 49.5228L86.2968 49.1172L85.9488 50.7972L87.9072 51.2028ZM87.276 48.32H83.34V50.32H87.276V48.32ZM84.3203 49.5174L84.6803 47.7294L82.7196 47.3346L82.3596 49.1226L84.3203 49.5174ZM83.7 48.532H87.3V46.532H83.7V48.532ZM88.2811 47.7254L88.6051 46.0814L86.6428 45.6946L86.3188 47.3386L88.2811 47.7254ZM87.624 44.888H84.024V46.888H87.624V44.888ZM85.0034 46.0899L85.3274 44.5179L83.3686 44.1141L83.0446 45.6861L85.0034 46.0899ZM84.348 45.316H88.2V43.316H84.348V45.316ZM89.1792 44.5188L89.5272 42.8388L87.5688 42.4332L87.2208 44.1132L89.1792 44.5188ZM88.548 41.636H82.836V43.636H88.548V41.636ZM81.8561 42.4364L80.1521 50.8004L82.1118 51.1996L83.8158 42.8356L81.8561 42.4364ZM81.132 52H86.928V50H81.132V52Z" fill="#681EB1"/>
</g>
<path opacity="0.3" d="M51.1375 13.3691C50.475 16.5108 47.8625 18.7221 44.5375 18.7221C42.5875 18.7221 40.8375 17.9729 39.575 16.7525C38.875 18.4321 38.5 20.2566 38.5 22.1054C38.5 26.105 41.8625 29.3554 46 29.3554C50.1375 29.3554 53.5 26.105 53.5 22.1054C53.5 19.0121 52.675 16.0275 51.1375 13.3691ZM45.8625 26.9266C44.15 26.9266 42.75 25.6216 42.75 24.0025C42.75 22.4921 43.7625 21.4287 45.4625 21.0904C47.175 20.7521 48.9375 19.9666 49.925 18.6858C50.3 19.8941 50.5 21.1629 50.5 22.4558C50.5 24.9208 48.425 26.9266 45.8625 26.9266Z" fill="#51146E"/>
<path d="M45.4625 21.0921C43.7625 21.4304 42.75 22.4937 42.75 24.0042C42.75 25.6233 44.1375 26.9283 45.8625 26.9283C48.425 26.9283 50.5 24.9225 50.5 22.4454C50.5 21.1525 50.3125 19.8837 49.925 18.6754C48.9375 19.9683 47.175 20.7537 45.4625 21.0921ZM47.875 6C47.875 6 48.8 9.20208 48.8 11.8C48.8 14.2892 47.1125 16.3071 44.5375 16.3071C41.95 16.3071 40 14.2892 40 11.8L40.0375 11.365C37.5125 14.265 36 18.0229 36 22.1071C36 27.4479 40.475 31.7738 46 31.7738C51.525 31.7738 56 27.4479 56 22.1071C56 15.5942 52.7625 9.78208 47.875 6ZM46 29.3571C41.8625 29.3571 38.5 26.1067 38.5 22.1071C38.5 20.2583 38.875 18.4338 39.575 16.7542C40.2268 17.3827 41.0009 17.8804 41.8526 18.2184C42.7043 18.5564 43.6168 18.7282 44.5375 18.7238C47.8625 18.7238 50.475 16.5125 51.1375 13.3708C52.6867 16.039 53.5002 19.0474 53.5 22.1071C53.5 26.1067 50.1375 29.3571 46 29.3571Z" fill="url(#paint5_angular_0_1)"/>
<defs>
<filter id="filter0_b_0_1" x="8.65088" y="-1.9248" width="73.7643" height="75.9541" filterUnits="userSpaceOnUse" color-interpolation-filters="sRGB">
<feFlood flood-opacity="0" result="BackgroundImageFix"/>
<feGaussianBlur in="BackgroundImage" stdDeviation="5"/>
<feComposite in2="SourceAlpha" operator="in" result="effect1_backgroundBlur_0_1"/>
<feBlend mode="normal" in="SourceGraphic" in2="effect1_backgroundBlur_0_1" result="shape"/>
</filter>
<filter id="filter1_d_0_1" x="19.6135" y="7" width="52.01" height="54" filterUnits="userSpaceOnUse" color-interpolation-filters="sRGB">
<feFlood flood-opacity="0" result="BackgroundImageFix"/>
<feColorMatrix in="SourceAlpha" type="matrix" values="0 0 0 0 0 0 0 0 0 0 0 0 0 0 0 0 0 0 127 0" result="hardAlpha"/>
<feOffset dy="4"/>
<feGaussianBlur stdDeviation="2"/>
<feComposite in2="hardAlpha" operator="out"/>
<feColorMatrix type="matrix" values="0 0 0 0 0 0 0 0 0 0 0 0 0 0 0 0 0 0 0.25 0"/>
<feBlend mode="normal" in2="BackgroundImageFix" result="effect1_dropShadow_0_1"/>
<feBlend mode="normal" in="SourceGraphic" in2="effect1_dropShadow_0_1" result="shape"/>
</filter>
<filter id="filter2_d_0_1" x="23.1472" y="0" width="44.8706" height="60" filterUnits="userSpaceOnUse" color-interpolation-filters="sRGB">
<feFlood flood-opacity="0" result="BackgroundImageFix"/>
<feColorMatrix in="SourceAlpha" type="matrix" values="0 0 0 0 0 0 0 0 0 0 0 0 0 0 0 0 0 0 127 0" result="hardAlpha"/>
<feOffset dy="4"/>
<feGaussianBlur stdDeviation="2"/>
<feComposite in2="hardAlpha" operator="out"/>
<feColorMatrix type="matrix" values="0 0 0 0 0 0 0 0 0 0 0 0 0 0 0 0 0 0 0.25 0"/>
<feBlend mode="normal" in2="BackgroundImageFix" result="effect1_dropShadow_0_1"/>
<feBlend mode="normal" in="SourceGraphic" in2="effect1_dropShadow_0_1" result="shape"/>
</filter>
<filter id="filter3_d_0_1" x="0.47998" y="42.1562" width="92.068" height="17.168" filterUnits="userSpaceOnUse" color-interpolation-filters="sRGB">
<feFlood flood-opacity="0" result="BackgroundImageFix"/>
<feColorMatrix in="SourceAlpha" type="matrix" values="0 0 0 0 0 0 0 0 0 0 0 0 0 0 0 0 0 0 127 0" result="hardAlpha"/>
<feOffset dy="4"/>
<feGaussianBlur stdDeviation="2"/>
<feColorMatrix type="matrix" values="0 0 0 0 0 0 0 0 0 0 0 0 0 0 0 0 0 0 0.25 0"/>
<feBlend mode="normal" in2="BackgroundImageFix" result="effect1_dropShadow_0_1"/>
<feBlend mode="normal" in="SourceGraphic" in2="effect1_dropShadow_0_1" result="shape"/>
</filter>
<linearGradient id="paint0_linear_0_1" x1="45.5" y1="8" x2="46.0182" y2="74.9997" gradientUnits="userSpaceOnUse">
<stop offset="0.36586" stop-color="#18AAE9"/>
<stop offset="0.737678" stop-color="#6D0BBB"/>
<stop offset="0.9995" stop-color="#0A2AB3" stop-opacity="0"/>
<stop offset="0.9996" stop-color="#A921BF" stop-opacity="0.353414"/>
<stop offset="0.9997" stop-color="#8D17EA"/>
</linearGradient>
<linearGradient id="paint1_linear_0_1" x1="45.5" y1="8" x2="45.5" y2="65" gradientUnits="userSpaceOnUse">
<stop stop-color="#D267ED" stop-opacity="0.75"/>
<stop offset="0.333261" stop-color="#1000CE" stop-opacity="0.53"/>
<stop offset="0.979276" stop-color="#C00ED0" stop-opacity="0.8"/>
</linearGradient>
<linearGradient id="paint2_linear_0_1" x1="46.0465" y1="3.03448" x2="48.2885" y2="53.9873" gradientUnits="userSpaceOnUse">
<stop offset="0.161415" stop-color="#F536A9"/>
<stop offset="0.566871" stop-color="#E77AC2" stop-opacity="0.85"/>
<stop offset="0.918243" stop-color="#5C2AC9"/>
<stop offset="1" stop-color="#2D1378" stop-opacity="0.42"/>
</linearGradient>
<linearGradient id="paint3_linear_0_1" x1="45.9535" y1="-4.48276" x2="46.6522" y2="53.4982" gradientUnits="userSpaceOnUse">
<stop offset="0.161415" stop-color="#C12EF4"/>
<stop offset="0.788967" stop-color="#2A7CC9"/>
<stop offset="1" stop-color="#430E86" stop-opacity="0.66"/>
<stop offset="1" stop-color="#B22DBE" stop-opacity="0.85"/>
</linearGradient>
<radialGradient id="paint4_radial_0_1" cx="0" cy="0" r="1" gradientUnits="userSpaceOnUse" gradientTransform="translate(4 42.5) rotate(46.7542) scale(68.6416 96.783)">
<stop offset="0.264492" stop-color="#D0CAE9"/>
<stop offset="0.567607" stop-color="#DECDEA" stop-opacity="0.764779"/>
<stop offset="0.81487" stop-color="#EAD0EA" stop-opacity="0.55"/>
<stop offset="0.939696" stop-color="#951F98" stop-opacity="0.69"/>
</radialGradient>
<radialGradient id="paint5_angular_0_1" cx="0" cy="0" r="1" gradientUnits="userSpaceOnUse" gradientTransform="translate(42.5 15) rotate(64.6225) scale(25.6661 31.5222)">
<stop offset="0.322564" stop-color="#7F259E"/>
<stop offset="0.969568" stop-color="#DBE5EA" stop-opacity="0.91"/>
</radialGradient>
</defs>
</svg>
