<svg width="63" height="65" viewBox="0 0 63 65" fill="none" xmlns="http://www.w3.org/2000/svg">
    <g filter="url(#filter0_b_0_1)">
        <path d="M4.70376 17.6173C4.31231 14.9322 6.13397 12.425 8.80863 11.9676L31.1505 8.14685C31.7187 8.04968 32.2995 8.0515 32.867 8.15223L54.2883 11.9538C56.9233 12.4214 58.7229 14.8808 58.3713 17.5337L54.4401 47.1961C54.2703 48.4775 53.6108 49.6433 52.6 50.449L45.0088 56.5L34.74 63.2145C33.0805 64.2995 30.9367 64.3016 29.2752 63.2196L18.9561 56.5L10.9407 50.4303C9.89382 49.6376 9.20083 48.4649 9.01141 47.1655L4.70376 17.6173Z" fill="url(#paint0_linear_0_1)" style="mix-blend-mode:darken" />
        <path d="M5.19853 17.5452C4.84623 15.1286 6.48572 12.8721 8.89292 12.4604L31.2348 8.6397C31.7462 8.55224 32.2689 8.55388 32.7797 8.64453L54.2009 12.4461C56.5724 12.8669 58.1921 15.0804 57.8756 17.4681L53.9445 47.1304C53.7916 48.2837 53.1981 49.3329 52.2884 50.0581L44.7155 56.0944L34.4663 62.796C32.9728 63.7726 31.0434 63.7744 29.548 62.8006L19.2438 56.0907L11.2425 50.0317C10.3003 49.3183 9.67666 48.2629 9.50618 47.0934L5.19853 17.5452Z" stroke="url(#paint1_linear_0_1)" />
    </g>
    <g filter="url(#filter1_d_0_1)">
        <path d="M9.80654 13.3652C8.90055 10.173 11.2983 7 14.6166 7H48.6211C51.8661 7 54.2515 10.0432 53.4764 13.1943L44.6213 49.1943C44.0716 51.4291 42.0674 53 39.766 53H24.834C22.5983 53 20.6343 51.5159 20.0239 49.3652L9.80654 13.3652Z" fill="url(#paint2_linear_0_1)" shape-rendering="crispEdges" />
    </g>
    <g filter="url(#filter2_d_0_1)">
        <path d="M13.2541 6.01978C12.6073 2.91487 14.9775 0 18.149 0H45.0164C48.1334 0 50.4907 2.82097 49.9368 5.88841L42.3535 47.8884C41.9237 50.2687 39.8518 52 37.433 52H26.899C24.5306 52 22.4872 50.3384 22.0041 48.0198L13.2541 6.01978Z" fill="url(#paint3_linear_0_1)" shape-rendering="crispEdges" />
    </g>
    <g filter="url(#filter3_d_0_1)">
        <path d="M9.06 44.26L10.44 49.36L15.372 40.636H13.38L10.98 44.836L9.732 40.576L6.492 44.956L5.844 40.636H4.044L5.304 49.336L9.06 44.26ZM15.4719 47.668H19.0719L19.4319 49H21.2679L18.7119 40.156L12.5559 49H14.5599L15.4719 47.668ZM18.0759 43.876L18.6759 46.096H16.5279L18.0759 43.876ZM24.0428 49L24.6068 46.216H25.9268L27.1028 49H29.1068L27.7748 45.94C28.3628 45.712 28.8307 45.34 29.1908 44.812C29.5508 44.284 29.7308 43.72 29.7308 43.12C29.7308 42.4 29.4788 41.812 28.9868 41.344C28.4948 40.876 27.8708 40.636 27.1028 40.636H23.8868L22.1827 49H24.0428ZM25.3988 42.316H26.7908C27.4148 42.316 27.8588 42.748 27.8588 43.336C27.8588 43.66 27.7268 43.96 27.4628 44.224C27.1988 44.476 26.8748 44.608 26.4908 44.608H24.9308L25.3988 42.316ZM31.9178 49L32.4818 46.216H33.8018L34.9778 49H36.9818L35.6498 45.94C36.2378 45.712 36.7057 45.34 37.0658 44.812C37.4258 44.284 37.6058 43.72 37.6058 43.12C37.6058 42.4 37.3538 41.812 36.8618 41.344C36.3698 40.876 35.7458 40.636 34.9778 40.636H31.7618L30.0577 49H31.9178ZM33.2738 42.316H34.6658C35.2898 42.316 35.7338 42.748 35.7338 43.336C35.7338 43.66 35.6018 43.96 35.3378 44.224C35.0738 44.476 34.7498 44.608 34.3658 44.608H32.8058L33.2738 42.316ZM39.8408 49L41.5448 40.636H39.6848L37.9808 49H39.8408ZM41.8907 45.292C41.8907 46.432 42.2867 47.356 43.0907 48.088C43.8947 48.808 44.9147 49.168 46.1507 49.168C47.5667 49.168 48.7547 48.688 49.7027 47.728C50.6507 46.768 51.1307 45.664 51.1307 44.416C51.1307 43.276 50.7347 42.34 49.9307 41.608C49.1267 40.876 48.1067 40.504 46.8707 40.504C45.9707 40.504 45.1307 40.732 44.3507 41.176C43.5827 41.62 42.9827 42.22 42.5387 42.952C42.1067 43.684 41.8907 44.464 41.8907 45.292ZM43.7267 45.148C43.7267 44.368 44.0267 43.672 44.6267 43.072C45.2267 42.472 45.9347 42.172 46.7627 42.172C47.5187 42.172 48.1187 42.4 48.5867 42.844C49.0547 43.288 49.2947 43.864 49.2947 44.572C49.2947 45.328 48.9947 46.012 48.4067 46.612C47.8187 47.2 47.0987 47.5 46.2587 47.5C45.5027 47.5 44.8907 47.284 44.4227 46.852C43.9547 46.408 43.7267 45.844 43.7267 45.148ZM53.2928 49L53.8568 46.216H55.1768L56.3528 49H58.3568L57.0248 45.94C57.6128 45.712 58.0807 45.34 58.4408 44.812C58.8008 44.284 58.9808 43.72 58.9808 43.12C58.9808 42.4 58.7288 41.812 58.2368 41.344C57.7448 40.876 57.1208 40.636 56.3528 40.636H53.1368L51.4327 49H53.2928ZM54.6488 42.316H56.0408C56.6648 42.316 57.1088 42.748 57.1088 43.336C57.1088 43.66 56.9768 43.96 56.7128 44.224C56.4488 44.476 56.1248 44.608 55.7408 44.608H54.1808L54.6488 42.316Z" fill="url(#paint4_radial_0_1)" />
        <path d="M9.06 44.26L10.0253 43.9988L9.48547 42.0038L8.25614 43.6652L9.06 44.26ZM10.44 49.36L9.47471 49.6212L10.1112 51.9735L11.3105 49.8521L10.44 49.36ZM15.372 40.636L16.2425 41.1281L17.0861 39.636H15.372V40.636ZM13.38 40.636V39.636H12.7997L12.5118 40.1399L13.38 40.636ZM10.98 44.836L10.0203 45.1171L10.6815 47.374L11.8482 45.3321L10.98 44.836ZM9.732 40.576L10.6917 40.2949L10.1256 38.3625L8.92805 39.9813L9.732 40.576ZM6.492 44.956L5.50306 45.1043L5.86099 47.4905L7.29595 45.5507L6.492 44.956ZM5.844 40.636L6.83294 40.4877L6.70519 39.636H5.844V40.636ZM4.044 40.636V39.636H2.88874L3.05433 40.7793L4.044 40.636ZM5.304 49.336L4.31433 49.4793L4.66259 51.884L6.10786 49.9308L5.304 49.336ZM8.09471 44.5212L9.47471 49.6212L11.4053 49.0988L10.0253 43.9988L8.09471 44.5212ZM11.3105 49.8521L16.2425 41.1281L14.5015 40.1439L9.56948 48.8679L11.3105 49.8521ZM15.372 39.636H13.38V41.636H15.372V39.636ZM12.5118 40.1399L10.1118 44.3399L11.8482 45.3321L14.2482 41.1321L12.5118 40.1399ZM11.9397 44.5549L10.6917 40.2949L8.77233 40.8571L10.0203 45.1171L11.9397 44.5549ZM8.92805 39.9813L5.68805 44.3613L7.29595 45.5507L10.5359 41.1707L8.92805 39.9813ZM7.48094 44.8077L6.83294 40.4877L4.85506 40.7843L5.50306 45.1043L7.48094 44.8077ZM5.844 39.636H4.044V41.636H5.844V39.636ZM3.05433 40.7793L4.31433 49.4793L6.29367 49.1927L5.03367 40.4927L3.05433 40.7793ZM6.10786 49.9308L9.86386 44.8548L8.25614 43.6652L4.50014 48.7412L6.10786 49.9308ZM15.4719 47.668V46.668H14.9447L14.6468 47.103L15.4719 47.668ZM19.0719 47.668L20.0373 47.4071L19.8375 46.668H19.0719V47.668ZM19.4319 49L18.4666 49.2609L18.6663 50H19.4319V49ZM21.2679 49V50H22.5979L22.2286 48.7224L21.2679 49ZM18.7119 40.156L19.6726 39.8784L19.09 37.8624L17.8912 39.5847L18.7119 40.156ZM12.5559 49L11.7352 48.4287L10.6415 50H12.5559V49ZM14.5599 49V50H15.0872L15.3851 49.5649L14.5599 49ZM18.0759 43.876L19.0413 43.6151L18.4819 41.5454L17.2557 43.304L18.0759 43.876ZM18.6759 46.096V47.096H19.9821L19.6413 45.8351L18.6759 46.096ZM16.5279 46.096L15.7077 45.524L14.6115 47.096H16.5279V46.096ZM15.4719 48.668H19.0719V46.668H15.4719V48.668ZM18.1066 47.9289L18.4666 49.2609L20.3973 48.7391L20.0373 47.4071L18.1066 47.9289ZM19.4319 50H21.2679V48H19.4319V50ZM22.2286 48.7224L19.6726 39.8784L17.7513 40.4336L20.3073 49.2776L22.2286 48.7224ZM17.8912 39.5847L11.7352 48.4287L13.3767 49.5713L19.5327 40.7273L17.8912 39.5847ZM12.5559 50H14.5599V48H12.5559V50ZM15.3851 49.5649L16.2971 48.233L14.6468 47.103L13.7348 48.4351L15.3851 49.5649ZM17.1106 44.1369L17.7106 46.3569L19.6413 45.8351L19.0413 43.6151L17.1106 44.1369ZM18.6759 45.096H16.5279V47.096H18.6759V45.096ZM17.3482 46.668L18.8962 44.448L17.2557 43.304L15.7077 45.524L17.3482 46.668ZM24.0427 49V50H24.8605L25.0228 49.1986L24.0427 49ZM24.6068 46.216V45.216H23.789L23.6267 46.0174L24.6068 46.216ZM25.9268 46.216L26.8479 45.8269L26.5899 45.216H25.9268V46.216ZM27.1028 49L26.1816 49.3891L26.4396 50H27.1028V49ZM29.1068 49V50H30.6327L30.0236 48.6009L29.1068 49ZM27.7747 45.94L27.4132 45.0076L26.4422 45.3842L26.8579 46.3391L27.7747 45.94ZM29.1908 44.812L30.017 45.3753V45.3753L29.1908 44.812ZM28.9867 41.344L28.2975 42.0686V42.0686L28.9867 41.344ZM23.8867 40.636V39.636H23.0699L22.9069 40.4364L23.8867 40.636ZM22.1828 49L21.2029 48.8004L20.9585 50H22.1828V49ZM25.3988 42.316V41.316H24.5823L24.419 42.1159L25.3988 42.316ZM27.4627 44.224L28.1532 44.9474L28.1616 44.9393L28.1699 44.9311L27.4627 44.224ZM24.9307 44.608L23.951 44.4079L23.7059 45.608H24.9307V44.608ZM25.0228 49.1986L25.5868 46.4146L23.6267 46.0174L23.0627 48.8014L25.0228 49.1986ZM24.6068 47.216H25.9268V45.216H24.6068V47.216ZM25.0056 46.6051L26.1816 49.3891L28.0239 48.6109L26.8479 45.8269L25.0056 46.6051ZM27.1028 50H29.1068V48H27.1028V50ZM30.0236 48.6009L28.6916 45.5409L26.8579 46.3391L28.1899 49.3991L30.0236 48.6009ZM28.1363 46.8724C28.9146 46.5706 29.544 46.0691 30.017 45.3753L28.3645 44.2487C28.1175 44.6109 27.8109 44.8534 27.4132 45.0076L28.1363 46.8724ZM30.017 45.3753C30.4824 44.6927 30.7308 43.9343 30.7308 43.12H28.7308C28.7308 43.5057 28.6191 43.8753 28.3645 44.2487L30.017 45.3753ZM30.7308 43.12C30.7308 42.1355 30.3731 41.2826 29.676 40.6194L28.2975 42.0686C28.5844 42.3414 28.7308 42.6645 28.7308 43.12H30.7308ZM29.676 40.6194C28.979 39.9564 28.0997 39.636 27.1028 39.636V41.636C27.6418 41.636 28.0105 41.7956 28.2975 42.0686L29.676 40.6194ZM27.1028 39.636H23.8867V41.636H27.1028V39.636ZM22.9069 40.4364L21.2029 48.8004L23.1626 49.1996L24.8666 40.8356L22.9069 40.4364ZM22.1828 50H24.0427V48H22.1828V50ZM25.3988 43.316H26.7908V41.316H25.3988V43.316ZM26.7908 43.316C26.8309 43.316 26.8535 43.3228 26.8623 43.3262C26.8711 43.3296 26.8706 43.3311 26.8661 43.3268C26.8615 43.3223 26.8581 43.317 26.8567 43.3135C26.8552 43.31 26.8587 43.3159 26.8587 43.336H28.8587C28.8587 42.1579 27.9285 41.316 26.7908 41.316V43.316ZM26.8587 43.336C26.8587 43.3591 26.859 43.4136 26.7556 43.5169L28.1699 44.9311C28.5945 44.5064 28.8587 43.9609 28.8587 43.336H26.8587ZM26.7723 43.5006C26.6965 43.5729 26.6207 43.608 26.4907 43.608V45.608C27.1288 45.608 27.701 45.3791 28.1532 44.9474L26.7723 43.5006ZM26.4907 43.608H24.9307V45.608H26.4907V43.608ZM25.9105 44.8081L26.3785 42.5161L24.419 42.1159L23.951 44.4079L25.9105 44.8081ZM31.9177 49V50H32.7355L32.8978 49.1986L31.9177 49ZM32.4818 46.216V45.216H31.664L31.5017 46.0174L32.4818 46.216ZM33.8018 46.216L34.7229 45.8269L34.4649 45.216H33.8018V46.216ZM34.9778 49L34.0566 49.3891L34.3146 50H34.9778V49ZM36.9818 49V50H38.5077L37.8986 48.6009L36.9818 49ZM35.6497 45.94L35.2882 45.0076L34.3172 45.3842L34.7329 46.3391L35.6497 45.94ZM37.0658 44.812L37.892 45.3753V45.3753L37.0658 44.812ZM36.8618 41.344L36.1725 42.0686V42.0686L36.8618 41.344ZM31.7617 40.636V39.636H30.9449L30.7819 40.4364L31.7617 40.636ZM30.0578 49L29.0779 48.8004L28.8335 50H30.0578V49ZM33.2738 42.316V41.316H32.4573L32.294 42.1159L33.2738 42.316ZM35.3377 44.224L36.0282 44.9474L36.0366 44.9393L36.0449 44.9311L35.3377 44.224ZM32.8057 44.608L31.826 44.4079L31.5809 45.608H32.8057V44.608ZM32.8978 49.1986L33.4618 46.4146L31.5017 46.0174L30.9377 48.8014L32.8978 49.1986ZM32.4818 47.216H33.8018V45.216H32.4818V47.216ZM32.8806 46.6051L34.0566 49.3891L35.8989 48.6109L34.7229 45.8269L32.8806 46.6051ZM34.9778 50H36.9818V48H34.9778V50ZM37.8986 48.6009L36.5667 45.5409L34.7329 46.3391L36.0648 49.3991L37.8986 48.6009ZM36.0113 46.8724C36.7896 46.5706 37.419 46.0691 37.892 45.3753L36.2395 44.2487C35.9925 44.6109 35.6859 44.8534 35.2882 45.0076L36.0113 46.8724ZM37.892 45.3753C38.3574 44.6927 38.6058 43.9343 38.6058 43.12H36.6058C36.6058 43.5057 36.4941 43.8753 36.2395 44.2487L37.892 45.3753ZM38.6058 43.12C38.6058 42.1355 38.2481 41.2826 37.551 40.6194L36.1725 42.0686C36.4594 42.3414 36.6058 42.6645 36.6058 43.12H38.6058ZM37.551 40.6194C36.854 39.9564 35.9747 39.636 34.9778 39.636V41.636C35.5168 41.636 35.8855 41.7956 36.1725 42.0686L37.551 40.6194ZM34.9778 39.636H31.7617V41.636H34.9778V39.636ZM30.7819 40.4364L29.0779 48.8004L31.0376 49.1996L32.7416 40.8356L30.7819 40.4364ZM30.0578 50H31.9177V48H30.0578V50ZM33.2738 43.316H34.6658V41.316H33.2738V43.316ZM34.6658 43.316C34.7059 43.316 34.7285 43.3228 34.7373 43.3262C34.7461 43.3296 34.7456 43.3311 34.7411 43.3268C34.7365 43.3223 34.7331 43.317 34.7317 43.3135C34.7302 43.31 34.7337 43.3159 34.7337 43.336H36.7337C36.7337 42.1579 35.8035 41.316 34.6658 41.316V43.316ZM34.7337 43.336C34.7337 43.3591 34.734 43.4136 34.6306 43.5169L36.0449 44.9311C36.4695 44.5064 36.7337 43.9609 36.7337 43.336H34.7337ZM34.6473 43.5006C34.5715 43.5729 34.4957 43.608 34.3657 43.608V45.608C35.0038 45.608 35.576 45.3791 36.0282 44.9474L34.6473 43.5006ZM34.3657 43.608H32.8057V45.608H34.3657V43.608ZM33.7855 44.8081L34.2535 42.5161L32.294 42.1159L31.826 44.4079L33.7855 44.8081ZM39.8408 49V50H40.6576L40.8206 49.1996L39.8408 49ZM41.5448 40.636L42.5246 40.8356L42.769 39.636H41.5448V40.636ZM39.6847 40.636V39.636H38.8679L38.7049 40.4364L39.6847 40.636ZM37.9808 49L37.0009 48.8004L36.7565 50H37.9808V49ZM40.8206 49.1996L42.5246 40.8356L40.5649 40.4364L38.8609 48.8004L40.8206 49.1996ZM41.5448 39.636H39.6847V41.636H41.5448V39.636ZM38.7049 40.4364L37.0009 48.8004L38.9606 49.1996L40.6646 40.8356L38.7049 40.4364ZM37.9808 50H39.8408V48H37.9808V50ZM43.0907 48.088L42.4174 48.8275L42.4236 48.833L43.0907 48.088ZM49.7027 47.728L48.9911 47.0254L49.7027 47.728ZM49.9307 41.608L50.6039 40.8686L49.9307 41.608ZM44.3507 41.176L43.856 40.3069L43.8502 40.3103L44.3507 41.176ZM42.5387 42.952L41.6836 42.4333L41.6775 42.4437L42.5387 42.952ZM44.6267 43.072L45.3338 43.7791L44.6267 43.072ZM48.4067 46.612L49.1138 47.3191L49.1209 47.3119L48.4067 46.612ZM44.4227 46.852L43.7344 47.5775L43.7444 47.5868L44.4227 46.852ZM40.8907 45.292C40.8907 46.6975 41.3938 47.8954 42.4175 48.8274L43.7639 47.3486C43.1796 46.8166 42.8907 46.1665 42.8907 45.292H40.8907ZM42.4236 48.833C43.4375 49.741 44.7067 50.168 46.1507 50.168V48.168C45.1227 48.168 44.3518 47.875 43.7578 47.343L42.4236 48.833ZM46.1507 50.168C47.818 50.168 49.2673 49.5921 50.4142 48.4306L48.9911 47.0254C48.242 47.7839 47.3154 48.168 46.1507 48.168V50.168ZM50.4142 48.4306C51.5281 47.3027 52.1307 45.9528 52.1307 44.416H50.1307C50.1307 45.3752 49.7733 46.2333 48.9911 47.0254L50.4142 48.4306ZM52.1307 44.416C52.1307 43.014 51.63 41.8028 50.6039 40.8686L49.2575 42.3474C49.8393 42.8772 50.1307 43.538 50.1307 44.416H52.1307ZM50.6039 40.8686C49.593 39.9482 48.3231 39.504 46.8707 39.504V41.504C47.8903 41.504 48.6604 41.8038 49.2575 42.3474L50.6039 40.8686ZM46.8707 39.504C45.7932 39.504 44.7832 39.7792 43.856 40.3069L44.8454 42.0451C45.4782 41.6848 46.1482 41.504 46.8707 41.504V39.504ZM43.8502 40.3103C42.9332 40.8404 42.2127 41.5613 41.6837 42.4334L43.3937 43.4706C43.7527 42.8787 44.2322 42.3996 44.8512 42.0417L43.8502 40.3103ZM41.6775 42.4437C41.1571 43.3254 40.8907 44.2803 40.8907 45.292H42.8907C42.8907 44.6477 43.0562 44.0426 43.3999 43.4603L41.6775 42.4437ZM44.7267 45.148C44.7267 44.6556 44.9049 44.208 45.3338 43.7791L43.9196 42.3649C43.1485 43.136 42.7267 44.0804 42.7267 45.148H44.7267ZM45.3338 43.7791C45.753 43.3599 46.2093 43.172 46.7627 43.172V41.172C45.6601 41.172 44.7004 41.5841 43.9196 42.3649L45.3338 43.7791ZM46.7627 43.172C47.2981 43.172 47.6405 43.3248 47.8984 43.5695L49.2749 42.1185C48.5969 41.4752 47.7393 41.172 46.7627 41.172V43.172ZM47.8984 43.5695C48.1514 43.8094 48.2947 44.1154 48.2947 44.572H50.2947C50.2947 43.6126 49.958 42.7666 49.2749 42.1185L47.8984 43.5695ZM48.2947 44.572C48.2947 45.0333 48.1218 45.474 47.6925 45.9121L49.1209 47.3119C49.8676 46.55 50.2947 45.6227 50.2947 44.572H48.2947ZM47.6996 45.9049C47.2991 46.3054 46.8335 46.5 46.2587 46.5V48.5C47.3639 48.5 48.3383 48.0946 49.1138 47.3191L47.6996 45.9049ZM46.2587 46.5C45.7042 46.5 45.3506 46.3476 45.101 46.1172L43.7444 47.5868C44.4308 48.2204 45.3012 48.5 46.2587 48.5V46.5ZM45.1109 46.1265C44.8615 45.8899 44.7267 45.5978 44.7267 45.148H42.7267C42.7267 46.0902 43.0479 46.9261 43.7344 47.5775L45.1109 46.1265ZM53.2928 49V50H54.1105L54.2728 49.1986L53.2928 49ZM53.8568 46.216V45.216H53.039L52.8767 46.0174L53.8568 46.216ZM55.1768 46.216L56.0979 45.8269L55.8399 45.216H55.1768V46.216ZM56.3527 49L55.4316 49.3891L55.6896 50H56.3527V49ZM58.3568 49V50H59.8827L59.2736 48.6009L58.3568 49ZM57.0247 45.94L56.6632 45.0076L55.6922 45.3842L56.1079 46.3391L57.0247 45.94ZM58.4408 44.812L59.267 45.3753V45.3753L58.4408 44.812ZM58.2368 41.344L57.5475 42.0686V42.0686L58.2368 41.344ZM53.1367 40.636V39.636H52.3199L52.1569 40.4364L53.1367 40.636ZM51.4328 49L50.4529 48.8004L50.2085 50H51.4328V49ZM54.6488 42.316V41.316H53.8323L53.669 42.1159L54.6488 42.316ZM56.7127 44.224L57.4032 44.9474L57.4116 44.9393L57.4199 44.9311L56.7127 44.224ZM54.1808 44.608L53.201 44.4079L52.9559 45.608H54.1808V44.608ZM54.2728 49.1986L54.8368 46.4146L52.8767 46.0174L52.3127 48.8014L54.2728 49.1986ZM53.8568 47.216H55.1768V45.216H53.8568V47.216ZM54.2556 46.6051L55.4316 49.3891L57.2739 48.6109L56.0979 45.8269L54.2556 46.6051ZM56.3527 50H58.3568V48H56.3527V50ZM59.2736 48.6009L57.9417 45.5409L56.1079 46.3391L57.4398 49.3991L59.2736 48.6009ZM57.3863 46.8724C58.1646 46.5706 58.794 46.0691 59.267 45.3753L57.6145 44.2487C57.3675 44.6109 57.0609 44.8534 56.6632 45.0076L57.3863 46.8724ZM59.267 45.3753C59.7324 44.6927 59.9808 43.9343 59.9808 43.12H57.9808C57.9808 43.5057 57.8691 43.8753 57.6145 44.2487L59.267 45.3753ZM59.9808 43.12C59.9808 42.1355 59.6231 41.2826 58.926 40.6194L57.5475 42.0686C57.8344 42.3414 57.9808 42.6645 57.9808 43.12H59.9808ZM58.926 40.6194C58.229 39.9564 57.3497 39.636 56.3527 39.636V41.636C56.8918 41.636 57.2605 41.7956 57.5475 42.0686L58.926 40.6194ZM56.3527 39.636H53.1367V41.636H56.3527V39.636ZM52.1569 40.4364L50.4529 48.8004L52.4126 49.1996L54.1166 40.8356L52.1569 40.4364ZM51.4328 50H53.2928V48H51.4328V50ZM54.6488 43.316H56.0407V41.316H54.6488V43.316ZM56.0407 43.316C56.0809 43.316 56.1035 43.3228 56.1124 43.3262C56.1211 43.3296 56.1206 43.3311 56.1161 43.3268C56.1115 43.3223 56.1081 43.317 56.1067 43.3135C56.1052 43.31 56.1087 43.3159 56.1087 43.336H58.1087C58.1087 42.1579 57.1785 41.316 56.0407 41.316V43.316ZM56.1087 43.336C56.1087 43.3591 56.109 43.4136 56.0056 43.5169L57.4199 44.9311C57.8445 44.5064 58.1087 43.9609 58.1087 43.336H56.1087ZM56.0223 43.5006C55.9465 43.5729 55.8707 43.608 55.7407 43.608V45.608C56.3788 45.608 56.951 45.3791 57.4032 44.9474L56.0223 43.5006ZM55.7407 43.608H54.1808V45.608H55.7407V43.608ZM55.1605 44.8081L55.6285 42.5161L53.669 42.1159L53.201 44.4079L55.1605 44.8081Z" fill="#681EB1" />
    </g>
    <g filter="url(#filter4_dd_0_1)">
        <path d="M29.8571 20.4879V31C27.45 30.4423 24.0571 28.0643 22 26.1093C23.3643 23.0646 23.9429 20.4943 23.3071 16.1484C19.1714 2.6172 43.8571 2.6172 39.7357 16.1484C39.1071 20.4879 39.6786 23.0646 41 26.1093C38.9571 28.0643 35.5429 30.4423 33.1429 31V20.4879L38.0143 17.2829L38.1429 15.5266L31.4643 16.6612L24.9071 15.5138L25.0357 17.2701L29.8571 20.4879Z" stroke="url(#paint5_linear_0_1)" stroke-width="1.2" stroke-linecap="round" stroke-linejoin="round" shape-rendering="crispEdges" />
    </g>
    <defs>
        <filter id="filter0_b_0_1" x="-5.34912" y="-1.9248" width="73.7643" height="75.9541" filterUnits="userSpaceOnUse" color-interpolation-filters="sRGB">
            <feFlood flood-opacity="0" result="BackgroundImageFix" />
            <feGaussianBlur in="BackgroundImage" stdDeviation="5" />
            <feComposite in2="SourceAlpha" operator="in" result="effect1_backgroundBlur_0_1" />
            <feBlend mode="normal" in="SourceGraphic" in2="effect1_backgroundBlur_0_1" result="shape" />
        </filter>
        <filter id="filter1_d_0_1" x="5.61353" y="7" width="52.01" height="54" filterUnits="userSpaceOnUse" color-interpolation-filters="sRGB">
            <feFlood flood-opacity="0" result="BackgroundImageFix" />
            <feColorMatrix in="SourceAlpha" type="matrix" values="0 0 0 0 0 0 0 0 0 0 0 0 0 0 0 0 0 0 127 0" result="hardAlpha" />
            <feOffset dy="4" />
            <feGaussianBlur stdDeviation="2" />
            <feComposite in2="hardAlpha" operator="out" />
            <feColorMatrix type="matrix" values="0 0 0 0 0 0 0 0 0 0 0 0 0 0 0 0 0 0 0.25 0" />
            <feBlend mode="normal" in2="BackgroundImageFix" result="effect1_dropShadow_0_1" />
            <feBlend mode="normal" in="SourceGraphic" in2="effect1_dropShadow_0_1" result="shape" />
        </filter>
        <filter id="filter2_d_0_1" x="9.14722" y="0" width="44.8706" height="60" filterUnits="userSpaceOnUse" color-interpolation-filters="sRGB">
            <feFlood flood-opacity="0" result="BackgroundImageFix" />
            <feColorMatrix in="SourceAlpha" type="matrix" values="0 0 0 0 0 0 0 0 0 0 0 0 0 0 0 0 0 0 127 0" result="hardAlpha" />
            <feOffset dy="4" />
            <feGaussianBlur stdDeviation="2" />
            <feComposite in2="hardAlpha" operator="out" />
            <feColorMatrix type="matrix" values="0 0 0 0 0 0 0 0 0 0 0 0 0 0 0 0 0 0 0.25 0" />
            <feBlend mode="normal" in2="BackgroundImageFix" result="effect1_dropShadow_0_1" />
            <feBlend mode="normal" in="SourceGraphic" in2="effect1_dropShadow_0_1" result="shape" />
        </filter>
        <filter id="filter3_d_0_1" x="0.0439453" y="40.1562" width="62.9368" height="17.2041" filterUnits="userSpaceOnUse" color-interpolation-filters="sRGB">
            <feFlood flood-opacity="0" result="BackgroundImageFix" />
            <feColorMatrix in="SourceAlpha" type="matrix" values="0 0 0 0 0 0 0 0 0 0 0 0 0 0 0 0 0 0 127 0" result="hardAlpha" />
            <feOffset dy="4" />
            <feGaussianBlur stdDeviation="2" />
            <feColorMatrix type="matrix" values="0 0 0 0 0 0 0 0 0 0 0 0 0 0 0 0 0 0 0.25 0" />
            <feBlend mode="normal" in2="BackgroundImageFix" result="effect1_dropShadow_0_1" />
            <feBlend mode="normal" in="SourceGraphic" in2="effect1_dropShadow_0_1" result="shape" />
        </filter>
        <filter id="filter4_dd_0_1" x="17.4" y="5.40039" width="28.2" height="34.1992" filterUnits="userSpaceOnUse" color-interpolation-filters="sRGB">
            <feFlood flood-opacity="0" result="BackgroundImageFix" />
            <feColorMatrix in="SourceAlpha" type="matrix" values="0 0 0 0 0 0 0 0 0 0 0 0 0 0 0 0 0 0 127 0" result="hardAlpha" />
            <feOffset dy="4" />
            <feGaussianBlur stdDeviation="2" />
            <feComposite in2="hardAlpha" operator="out" />
            <feColorMatrix type="matrix" values="0 0 0 0 0 0 0 0 0 0 0 0 0 0 0 0 0 0 0.25 0" />
            <feBlend mode="normal" in2="BackgroundImageFix" result="effect1_dropShadow_0_1" />
            <feColorMatrix in="SourceAlpha" type="matrix" values="0 0 0 0 0 0 0 0 0 0 0 0 0 0 0 0 0 0 127 0" result="hardAlpha" />
            <feOffset dy="4" />
            <feGaussianBlur stdDeviation="2" />
            <feComposite in2="hardAlpha" operator="out" />
            <feColorMatrix type="matrix" values="0 0 0 0 0 0 0 0 0 0 0 0 0 0 0 0 0 0 0.25 0" />
            <feBlend mode="normal" in2="effect1_dropShadow_0_1" result="effect2_dropShadow_0_1" />
            <feBlend mode="normal" in="SourceGraphic" in2="effect2_dropShadow_0_1" result="shape" />
        </filter>
        <linearGradient id="paint0_linear_0_1" x1="31.5" y1="8" x2="32.0182" y2="74.9997" gradientUnits="userSpaceOnUse">
            <stop offset="0.36586" stop-color="#18AAE9" />
            <stop offset="0.737678" stop-color="#6D0BBB" />
            <stop offset="0.9995" stop-color="#0A2AB3" stop-opacity="0" />
            <stop offset="0.9996" stop-color="#A921BF" stop-opacity="0.353414" />
            <stop offset="0.9997" stop-color="#8D17EA" />
        </linearGradient>
        <linearGradient id="paint1_linear_0_1" x1="31.5" y1="8" x2="31.5" y2="65" gradientUnits="userSpaceOnUse">
            <stop stop-color="#D267ED" stop-opacity="0.75" />
            <stop offset="0.333261" stop-color="#1000CE" stop-opacity="0.53" />
            <stop offset="0.979276" stop-color="#C00ED0" stop-opacity="0.8" />
        </linearGradient>
        <linearGradient id="paint2_linear_0_1" x1="32.0465" y1="3.03448" x2="34.2885" y2="53.9873" gradientUnits="userSpaceOnUse">
            <stop offset="0.161415" stop-color="#F536A9" />
            <stop offset="0.566871" stop-color="#E77AC2" stop-opacity="0.85" />
            <stop offset="0.918243" stop-color="#5C2AC9" />
            <stop offset="1" stop-color="#2D1378" stop-opacity="0.42" />
        </linearGradient>
        <linearGradient id="paint3_linear_0_1" x1="31.9535" y1="-4.48276" x2="32.6522" y2="53.4982" gradientUnits="userSpaceOnUse">
            <stop offset="0.161415" stop-color="#C12EF4" />
            <stop offset="0.788967" stop-color="#2A7CC9" />
            <stop offset="1" stop-color="#430E86" stop-opacity="0.66" />
            <stop offset="1" stop-color="#B22DBE" stop-opacity="0.85" />
        </linearGradient>
        <radialGradient id="paint4_radial_0_1" cx="0" cy="0" r="1" gradientUnits="userSpaceOnUse" gradientTransform="translate(3 40.5) rotate(48.0668) scale(67.2111 94.4005)">
            <stop offset="0.264492" stop-color="#D0CAE9" />
            <stop offset="0.567607" stop-color="#DECDEA" stop-opacity="0.764779" />
            <stop offset="0.81487" stop-color="#EAD0EA" stop-opacity="0.55" />
            <stop offset="0.939696" stop-color="#951F98" stop-opacity="0.69" />
        </radialGradient>
        <linearGradient id="paint5_linear_0_1" x1="32.4762" y1="7.39851" x2="31.5634" y2="33.0393" gradientUnits="userSpaceOnUse">
            <stop stop-color="#FCF5FF" />
            <stop offset="0.737391" stop-color="#F2E1F8" stop-opacity="0.73" />
            <stop offset="0.86588" stop-color="#EFEFEF" stop-opacity="0.4" />
            <stop offset="1" stop-color="#CDCBCE" stop-opacity="0.44" />
        </linearGradient>
    </defs>
</svg>
