<svg width="72" height="65" viewBox="0 0 72 65" fill="none" xmlns="http://www.w3.org/2000/svg">
    <g filter="url(#filter0_b_0_1)">
        <path d="M7.70376 17.6173C7.31231 14.9322 9.13397 12.425 11.8086 11.9676L34.1505 8.14685C34.7187 8.04968 35.2995 8.0515 35.867 8.15223L57.2883 11.9538C59.9233 12.4214 61.7229 14.8808 61.3713 17.5337L57.4401 47.1961C57.2703 48.4775 56.6108 49.6433 55.6 50.449L48.0088 56.5L37.74 63.2145C36.0805 64.2995 33.9367 64.3016 32.2752 63.2196L21.9561 56.5L13.9407 50.4303C12.8938 49.6376 12.2008 48.4649 12.0114 47.1655L7.70376 17.6173Z" fill="url(#paint0_linear_0_1)" style="mix-blend-mode:darken" />
        <path d="M8.19853 17.5452C7.84623 15.1286 9.48572 12.8721 11.8929 12.4604L34.2348 8.6397C34.7462 8.55224 35.2689 8.55388 35.7797 8.64453L57.2009 12.4461C59.5724 12.8669 61.1921 15.0804 60.8756 17.4681L56.9445 47.1304C56.7916 48.2837 56.1981 49.3329 55.2884 50.0581L47.7155 56.0944L37.4663 62.796C35.9728 63.7726 34.0434 63.7744 32.548 62.8006L22.2438 56.0907L14.2425 50.0317C13.3003 49.3183 12.6767 48.2629 12.5062 47.0934L8.19853 17.5452Z" stroke="url(#paint1_linear_0_1)" />
    </g>
    <g filter="url(#filter1_d_0_1)">
        <path d="M12.8065 13.3652C11.9006 10.173 14.2983 7 17.6166 7H51.6211C54.8661 7 57.2515 10.0432 56.4764 13.1943L47.6213 49.1943C47.0716 51.4291 45.0674 53 42.766 53H27.834C25.5983 53 23.6343 51.5159 23.0239 49.3652L12.8065 13.3652Z" fill="url(#paint2_linear_0_1)" shape-rendering="crispEdges" />
    </g>
    <g filter="url(#filter2_d_0_1)">
        <path d="M16.2541 6.01978C15.6073 2.91487 17.9775 0 21.149 0H48.0164C51.1334 0 53.4907 2.82097 52.9368 5.88841L45.3535 47.8884C44.9237 50.2687 42.8518 52 40.433 52H29.899C27.5306 52 25.4872 50.3384 25.0041 48.0198L16.2541 6.01978Z" fill="url(#paint3_linear_0_1)" shape-rendering="crispEdges" />
    </g>
    <g filter="url(#filter3_d_0_1)">
        <path d="M9.06 45.26L10.44 50.36L15.372 41.636H13.38L10.98 45.836L9.732 41.576L6.492 45.956L5.844 41.636H4.044L5.304 50.336L9.06 45.26ZM16.5545 50L17.2745 46.424H20.8865L20.1665 50H22.0145L23.7185 41.636H21.8705L21.2465 44.744H17.6345L18.2585 41.636H16.3985L14.6945 50H16.5545ZM25.5673 50L27.2713 41.636H25.4113L23.7073 50H25.5673ZM33.8213 50L34.1573 48.32H30.1133L35.7053 41.636H29.0693L28.7333 43.316H32.1413L26.5252 50H33.8213ZM41.415 50L41.751 48.32H37.707L43.299 41.636H36.663L36.327 43.316H39.735L34.119 50H41.415ZM48.98 50L49.772 46.184L52.208 50H54.332L51.668 45.824L55.904 41.636H53.576L49.952 45.176L50.684 41.636H48.836L47.132 50H48.98ZM57.0556 50L58.7596 41.636H56.8996L55.1956 50H57.0556ZM62.6815 50C65.3815 50 67.3015 47.708 67.3015 45.392C67.3015 44.3 66.9415 43.4 66.2095 42.692C65.4775 41.984 64.5415 41.636 63.3895 41.636H60.4375L58.7335 50H62.6815ZM61.9495 43.328H63.2095C63.8695 43.328 64.4095 43.544 64.8055 43.964C65.2135 44.384 65.4175 44.924 65.4175 45.584C65.4175 46.292 65.1535 46.928 64.6255 47.492C64.1095 48.044 63.4735 48.32 62.7175 48.32H60.9295L61.9495 43.328Z" fill="url(#paint4_radial_0_1)" />
        <path d="M9.06 45.26L10.0253 44.9988L9.48547 43.0038L8.25614 44.6652L9.06 45.26ZM10.44 50.36L9.47471 50.6212L10.1112 52.9735L11.3105 50.8521L10.44 50.36ZM15.372 41.636L16.2425 42.1281L17.0861 40.636H15.372V41.636ZM13.38 41.636V40.636H12.7997L12.5118 41.1399L13.38 41.636ZM10.98 45.836L10.0203 46.1171L10.6815 48.374L11.8482 46.3321L10.98 45.836ZM9.732 41.576L10.6917 41.2949L10.1256 39.3625L8.92805 40.9813L9.732 41.576ZM6.492 45.956L5.50306 46.1043L5.86099 48.4905L7.29595 46.5507L6.492 45.956ZM5.844 41.636L6.83294 41.4877L6.70519 40.636H5.844V41.636ZM4.044 41.636V40.636H2.88874L3.05433 41.7793L4.044 41.636ZM5.304 50.336L4.31433 50.4793L4.66259 52.884L6.10786 50.9308L5.304 50.336ZM8.09471 45.5212L9.47471 50.6212L11.4053 50.0988L10.0253 44.9988L8.09471 45.5212ZM11.3105 50.8521L16.2425 42.1281L14.5015 41.1439L9.56948 49.8679L11.3105 50.8521ZM15.372 40.636H13.38V42.636H15.372V40.636ZM12.5118 41.1399L10.1118 45.3399L11.8482 46.3321L14.2482 42.1321L12.5118 41.1399ZM11.9397 45.5549L10.6917 41.2949L8.77233 41.8571L10.0203 46.1171L11.9397 45.5549ZM8.92805 40.9813L5.68805 45.3613L7.29595 46.5507L10.5359 42.1707L8.92805 40.9813ZM7.48094 45.8077L6.83294 41.4877L4.85506 41.7843L5.50306 46.1043L7.48094 45.8077ZM5.844 40.636H4.044V42.636H5.844V40.636ZM3.05433 41.7793L4.31433 50.4793L6.29367 50.1927L5.03367 41.4927L3.05433 41.7793ZM6.10786 50.9308L9.86386 45.8548L8.25614 44.6652L4.50014 49.7412L6.10786 50.9308ZM16.5545 50V51H17.3732L17.5348 50.1974L16.5545 50ZM17.2745 46.424V45.424H16.4557L16.2941 46.2266L17.2745 46.424ZM20.8865 46.424L21.8668 46.6214L22.1079 45.424H20.8865V46.424ZM20.1665 50L19.1861 49.8026L18.9451 51H20.1665V50ZM22.0145 50V51H22.8313L22.9943 50.1996L22.0145 50ZM23.7185 41.636L24.6983 41.8356L24.9427 40.636H23.7185V41.636ZM21.8705 41.636V40.636H21.0513L20.89 41.4392L21.8705 41.636ZM21.2465 44.744V45.744H22.0657L22.2269 44.9408L21.2465 44.744ZM17.6345 44.744L16.654 44.5472L16.4137 45.744H17.6345V44.744ZM18.2585 41.636L19.2389 41.8328L19.4792 40.636H18.2585V41.636ZM16.3985 41.636V40.636H15.5817L15.4186 41.4364L16.3985 41.636ZM14.6945 50L13.7146 49.8004L13.4702 51H14.6945V50ZM17.5348 50.1974L18.2548 46.6214L16.2941 46.2266L15.5741 49.8026L17.5348 50.1974ZM17.2745 47.424H20.8865V45.424H17.2745V47.424ZM19.9061 46.2266L19.1861 49.8026L21.1468 50.1974L21.8668 46.6214L19.9061 46.2266ZM20.1665 51H22.0145V49H20.1665V51ZM22.9943 50.1996L24.6983 41.8356L22.7386 41.4364L21.0346 49.8004L22.9943 50.1996ZM23.7185 40.636H21.8705V42.636H23.7185V40.636ZM20.89 41.4392L20.266 44.5472L22.2269 44.9408L22.8509 41.8328L20.89 41.4392ZM21.2465 43.744H17.6345V45.744H21.2465V43.744ZM18.6149 44.9408L19.2389 41.8328L17.278 41.4392L16.654 44.5472L18.6149 44.9408ZM18.2585 40.636H16.3985V42.636H18.2585V40.636ZM15.4186 41.4364L13.7146 49.8004L15.6743 50.1996L17.3783 41.8356L15.4186 41.4364ZM14.6945 51H16.5545V49H14.6945V51ZM25.5673 50V51H26.3841L26.5472 50.1996L25.5673 50ZM27.2713 41.636L28.2512 41.8356L28.4956 40.636H27.2713V41.636ZM25.4113 41.636V40.636H24.5945L24.4314 41.4364L25.4113 41.636ZM23.7073 50L22.7274 49.8004L22.483 51H23.7073V50ZM26.5472 50.1996L28.2512 41.8356L26.2914 41.4364L24.5874 49.8004L26.5472 50.1996ZM27.2713 40.636H25.4113V42.636H27.2713V40.636ZM24.4314 41.4364L22.7274 49.8004L24.6872 50.1996L26.3912 41.8356L24.4314 41.4364ZM23.7073 51H25.5673V49H23.7073V51ZM33.8213 50V51H34.6411L34.8018 50.1961L33.8213 50ZM34.1572 48.32L35.1378 48.5161L35.3771 47.32H34.1572V48.32ZM30.1133 48.32L29.3463 47.6783L27.9728 49.32H30.1133V48.32ZM35.7052 41.636L36.4722 42.2777L37.8457 40.636H35.7052V41.636ZM29.0693 41.636V40.636H28.2494L28.0887 41.4399L29.0693 41.636ZM28.7332 43.316L27.7527 43.1199L27.5134 44.316H28.7332V43.316ZM32.1413 43.316L32.9069 43.9593L34.2876 42.316H32.1413V43.316ZM26.5252 50L25.7596 49.3567L24.3789 51H26.5252V50ZM34.8018 50.1961L35.1378 48.5161L33.1767 48.1239L32.8407 49.8039L34.8018 50.1961ZM34.1572 47.32H30.1133V49.32H34.1572V47.32ZM30.8802 48.9617L36.4722 42.2777L34.9383 40.9943L29.3463 47.6783L30.8802 48.9617ZM35.7052 40.636H29.0693V42.636H35.7052V40.636ZM28.0887 41.4399L27.7527 43.1199L29.7138 43.5121L30.0498 41.8321L28.0887 41.4399ZM28.7332 44.316H32.1413V42.316H28.7332V44.316ZM31.3756 42.6727L25.7596 49.3567L27.2909 50.6433L32.9069 43.9593L31.3756 42.6727ZM26.5252 51H33.8213V49H26.5252V51ZM41.415 50V51H42.2348L42.3956 50.1961L41.415 50ZM41.751 48.32L42.7316 48.5161L42.9708 47.32H41.751V48.32ZM37.707 48.32L36.94 47.6783L35.5666 49.32H37.707V48.32ZM43.299 41.636L44.066 42.2777L45.4394 40.636H43.299V41.636ZM36.663 41.636V40.636H35.8432L35.6824 41.4399L36.663 41.636ZM36.327 43.316L35.3464 43.1199L35.1072 44.316H36.327V43.316ZM39.735 43.316L40.5006 43.9593L41.8813 42.316H39.735V43.316ZM34.119 50L33.3534 49.3567L31.9727 51H34.119V50ZM42.3956 50.1961L42.7316 48.5161L40.7704 48.1239L40.4344 49.8039L42.3956 50.1961ZM41.751 47.32H37.707V49.32H41.751V47.32ZM38.474 48.9617L44.066 42.2777L42.532 40.9943L36.94 47.6783L38.474 48.9617ZM43.299 40.636H36.663V42.636H43.299V40.636ZM35.6824 41.4399L35.3464 43.1199L37.3076 43.5121L37.6436 41.8321L35.6824 41.4399ZM36.327 44.316H39.735V42.316H36.327V44.316ZM38.9694 42.6727L33.3534 49.3567L34.8846 50.6433L40.5006 43.9593L38.9694 42.6727ZM34.119 51H41.415V49H34.119V51ZM48.98 50V51H49.7937L49.9591 50.2032L48.98 50ZM49.772 46.184L50.6149 45.6459L49.2923 43.5742L48.7928 45.9808L49.772 46.184ZM52.208 50L51.3651 50.5381L51.66 51H52.208V50ZM54.332 50V51H56.1561L55.175 49.4622L54.332 50ZM51.668 45.824L50.9649 45.1129L50.3905 45.6808L50.8249 46.3618L51.668 45.824ZM55.904 41.636L56.607 42.3471L58.3378 40.636H55.904V41.636ZM53.576 41.636V40.636H53.1686L52.8772 40.9207L53.576 41.636ZM49.952 45.176L48.9727 44.9735L48.3101 48.1777L50.6507 45.8913L49.952 45.176ZM50.684 41.636L51.6633 41.8385L51.9119 40.636H50.684V41.636ZM48.836 41.636V40.636H48.0192L47.8561 41.4364L48.836 41.636ZM47.132 50L46.1521 49.8004L45.9077 51H47.132V50ZM49.9591 50.2032L50.7511 46.3872L48.7928 45.9808L48.0008 49.7968L49.9591 50.2032ZM48.9291 46.7221L51.3651 50.5381L53.0509 49.4619L50.6149 45.6459L48.9291 46.7221ZM52.208 51H54.332V49H52.208V51ZM55.175 49.4622L52.511 45.2862L50.8249 46.3618L53.4889 50.5378L55.175 49.4622ZM52.371 46.5351L56.607 42.3471L55.2009 40.9249L50.9649 45.1129L52.371 46.5351ZM55.904 40.636H53.576V42.636H55.904V40.636ZM52.8772 40.9207L49.2532 44.4607L50.6507 45.8913L54.2747 42.3513L52.8772 40.9207ZM50.9313 45.3785L51.6633 41.8385L49.7047 41.4335L48.9727 44.9735L50.9313 45.3785ZM50.684 40.636H48.836V42.636H50.684V40.636ZM47.8561 41.4364L46.1521 49.8004L48.1118 50.1996L49.8158 41.8356L47.8561 41.4364ZM47.132 51H48.98V49H47.132V51ZM57.0556 50V51H57.8724L58.0355 50.1996L57.0556 50ZM58.7596 41.636L59.7395 41.8356L59.9839 40.636H58.7596V41.636ZM56.8996 41.636V40.636H56.0828L55.9197 41.4364L56.8996 41.636ZM55.1956 50L54.2157 49.8004L53.9713 51H55.1956V50ZM58.0355 50.1996L59.7395 41.8356L57.7797 41.4364L56.0757 49.8004L58.0355 50.1996ZM58.7596 40.636H56.8996V42.636H58.7596V40.636ZM55.9197 41.4364L54.2157 49.8004L56.1755 50.1996L57.8795 41.8356L55.9197 41.4364ZM55.1956 51H57.0556V49H55.1956V51ZM66.2095 42.692L65.5143 43.4108V43.4108L66.2095 42.692ZM60.4375 41.636V40.636H59.6207L59.4577 41.4364L60.4375 41.636ZM58.7335 50L57.7537 49.8004L57.5093 51H58.7335V50ZM61.9495 43.328V42.328H61.1332L60.9698 43.1278L61.9495 43.328ZM64.8055 43.964L64.0779 44.65L64.0831 44.6554L64.0883 44.6608L64.8055 43.964ZM64.6255 47.492L63.8955 46.8086L63.895 46.8091L64.6255 47.492ZM60.9295 48.32L59.9498 48.1198L59.7045 49.32H60.9295V48.32ZM62.6815 51C65.9836 51 68.3015 48.2091 68.3015 45.392H66.3015C66.3015 47.2069 64.7794 49 62.6815 49V51ZM68.3015 45.392C68.3015 44.0551 67.8495 42.887 66.9048 41.9732L65.5143 43.4108C66.0335 43.913 66.3015 44.5449 66.3015 45.392H68.3015ZM66.9048 41.9732C65.9596 41.0591 64.7614 40.636 63.3895 40.636V42.636C64.3217 42.636 64.9954 42.9089 65.5143 43.4108L66.9048 41.9732ZM63.3895 40.636H60.4375V42.636H63.3895V40.636ZM59.4577 41.4364L57.7537 49.8004L59.7134 50.1996L61.4174 41.8356L59.4577 41.4364ZM58.7335 51H62.6815V49H58.7335V51ZM61.9495 44.328H63.2095V42.328H61.9495V44.328ZM63.2095 44.328C63.6359 44.328 63.8977 44.4589 64.0779 44.65L65.5331 43.278C64.9213 42.6291 64.1032 42.328 63.2095 42.328V44.328ZM64.0883 44.6608C64.2914 44.8699 64.4175 45.1483 64.4175 45.584H66.4175C66.4175 44.6997 66.1357 43.8981 65.5228 43.2672L64.0883 44.6608ZM64.4175 45.584C64.4175 46.014 64.2673 46.4114 63.8955 46.8086L65.3556 48.1754C66.0398 47.4446 66.4175 46.57 66.4175 45.584H64.4175ZM63.895 46.8091C63.5682 47.1587 63.1968 47.32 62.7175 47.32V49.32C63.7503 49.32 64.6509 48.9293 65.3561 48.1749L63.895 46.8091ZM62.7175 47.32H60.9295V49.32H62.7175V47.32ZM61.9093 48.5202L62.9293 43.5282L60.9698 43.1278L59.9498 48.1198L61.9093 48.5202Z" fill="#681EB1" />
    </g>
    <g clip-path="url(#clip0_0_1)">
        <g filter="url(#filter4_d_0_1)">
            <path d="M33.3425 5.09375V18.5H28.8588L36.6575 31.9062V18.5H41.1413L33.3425 5.09375Z" stroke="url(#paint5_angular_0_1)" stroke-linecap="round" stroke-linejoin="round" shape-rendering="crispEdges" />
        </g>
        <g filter="url(#filter5_d_0_1)">
            <path d="M33.3425 9.87156C31.2154 10.2533 29.2999 11.3628 27.9439 12.9986C26.5878 14.6344 25.8813 16.688 25.9524 18.7864C26.0236 20.8848 26.8677 22.8888 28.3316 24.4345C29.7955 25.9802 31.782 26.9651 33.9304 27.2103M36.6575 27.1278C38.7845 26.7461 40.7 25.6365 42.0561 24.0007C43.4121 22.365 44.1187 20.3114 44.0475 18.213C43.9764 16.1146 43.1322 14.1106 41.6683 12.5648C40.2044 11.0191 38.2179 10.0342 36.0695 9.78906L36.6575 27.1278Z" stroke="url(#paint6_angular_0_1)" stroke-linecap="round" stroke-linejoin="round" shape-rendering="crispEdges" />
        </g>
    </g>
    <defs>
        <filter id="filter0_b_0_1" x="-2.34912" y="-1.9248" width="73.7643" height="75.9541" filterUnits="userSpaceOnUse" color-interpolation-filters="sRGB">
            <feFlood flood-opacity="0" result="BackgroundImageFix" />
            <feGaussianBlur in="BackgroundImage" stdDeviation="5" />
            <feComposite in2="SourceAlpha" operator="in" result="effect1_backgroundBlur_0_1" />
            <feBlend mode="normal" in="SourceGraphic" in2="effect1_backgroundBlur_0_1" result="shape" />
        </filter>
        <filter id="filter1_d_0_1" x="8.61353" y="7" width="52.01" height="54" filterUnits="userSpaceOnUse" color-interpolation-filters="sRGB">
            <feFlood flood-opacity="0" result="BackgroundImageFix" />
            <feColorMatrix in="SourceAlpha" type="matrix" values="0 0 0 0 0 0 0 0 0 0 0 0 0 0 0 0 0 0 127 0" result="hardAlpha" />
            <feOffset dy="4" />
            <feGaussianBlur stdDeviation="2" />
            <feComposite in2="hardAlpha" operator="out" />
            <feColorMatrix type="matrix" values="0 0 0 0 0 0 0 0 0 0 0 0 0 0 0 0 0 0 0.25 0" />
            <feBlend mode="normal" in2="BackgroundImageFix" result="effect1_dropShadow_0_1" />
            <feBlend mode="normal" in="SourceGraphic" in2="effect1_dropShadow_0_1" result="shape" />
        </filter>
        <filter id="filter2_d_0_1" x="12.1472" y="0" width="44.8706" height="60" filterUnits="userSpaceOnUse" color-interpolation-filters="sRGB">
            <feFlood flood-opacity="0" result="BackgroundImageFix" />
            <feColorMatrix in="SourceAlpha" type="matrix" values="0 0 0 0 0 0 0 0 0 0 0 0 0 0 0 0 0 0 127 0" result="hardAlpha" />
            <feOffset dy="4" />
            <feGaussianBlur stdDeviation="2" />
            <feComposite in2="hardAlpha" operator="out" />
            <feColorMatrix type="matrix" values="0 0 0 0 0 0 0 0 0 0 0 0 0 0 0 0 0 0 0.25 0" />
            <feBlend mode="normal" in2="BackgroundImageFix" result="effect1_dropShadow_0_1" />
            <feBlend mode="normal" in="SourceGraphic" in2="effect1_dropShadow_0_1" result="shape" />
        </filter>
        <filter id="filter3_d_0_1" x="0.0439453" y="41.5762" width="71.2576" height="16.7842" filterUnits="userSpaceOnUse" color-interpolation-filters="sRGB">
            <feFlood flood-opacity="0" result="BackgroundImageFix" />
            <feColorMatrix in="SourceAlpha" type="matrix" values="0 0 0 0 0 0 0 0 0 0 0 0 0 0 0 0 0 0 127 0" result="hardAlpha" />
            <feOffset dy="4" />
            <feGaussianBlur stdDeviation="2" />
            <feColorMatrix type="matrix" values="0 0 0 0 0 0 0 0 0 0 0 0 0 0 0 0 0 0 0.25 0" />
            <feBlend mode="normal" in2="BackgroundImageFix" result="effect1_dropShadow_0_1" />
            <feBlend mode="normal" in="SourceGraphic" in2="effect1_dropShadow_0_1" result="shape" />
        </filter>
        <filter id="filter4_d_0_1" x="24.3588" y="4.59375" width="21.2825" height="35.8125" filterUnits="userSpaceOnUse" color-interpolation-filters="sRGB">
            <feFlood flood-opacity="0" result="BackgroundImageFix" />
            <feColorMatrix in="SourceAlpha" type="matrix" values="0 0 0 0 0 0 0 0 0 0 0 0 0 0 0 0 0 0 127 0" result="hardAlpha" />
            <feOffset dy="4" />
            <feGaussianBlur stdDeviation="2" />
            <feComposite in2="hardAlpha" operator="out" />
            <feColorMatrix type="matrix" values="0 0 0 0 0 0 0 0 0 0 0 0 0 0 0 0 0 0 0.25 0" />
            <feBlend mode="normal" in2="BackgroundImageFix" result="effect1_dropShadow_0_1" />
            <feBlend mode="normal" in="SourceGraphic" in2="effect1_dropShadow_0_1" result="shape" />
        </filter>
        <filter id="filter5_d_0_1" x="21.4475" y="9.28906" width="27.1049" height="26.4209" filterUnits="userSpaceOnUse" color-interpolation-filters="sRGB">
            <feFlood flood-opacity="0" result="BackgroundImageFix" />
            <feColorMatrix in="SourceAlpha" type="matrix" values="0 0 0 0 0 0 0 0 0 0 0 0 0 0 0 0 0 0 127 0" result="hardAlpha" />
            <feOffset dy="4" />
            <feGaussianBlur stdDeviation="2" />
            <feComposite in2="hardAlpha" operator="out" />
            <feColorMatrix type="matrix" values="0 0 0 0 0 0 0 0 0 0 0 0 0 0 0 0 0 0 0.25 0" />
            <feBlend mode="normal" in2="BackgroundImageFix" result="effect1_dropShadow_0_1" />
            <feBlend mode="normal" in="SourceGraphic" in2="effect1_dropShadow_0_1" result="shape" />
        </filter>
        <linearGradient id="paint0_linear_0_1" x1="34.5" y1="8" x2="35.0182" y2="74.9997" gradientUnits="userSpaceOnUse">
            <stop offset="0.36586" stop-color="#18AAE9" />
            <stop offset="0.737678" stop-color="#6D0BBB" />
            <stop offset="0.9995" stop-color="#0A2AB3" stop-opacity="0" />
            <stop offset="0.9996" stop-color="#A921BF" stop-opacity="0.353414" />
            <stop offset="0.9997" stop-color="#8D17EA" />
        </linearGradient>
        <linearGradient id="paint1_linear_0_1" x1="34.5" y1="8" x2="34.5" y2="65" gradientUnits="userSpaceOnUse">
            <stop stop-color="#D267ED" stop-opacity="0.75" />
            <stop offset="0.333261" stop-color="#1000CE" stop-opacity="0.53" />
            <stop offset="0.979276" stop-color="#C00ED0" stop-opacity="0.8" />
        </linearGradient>
        <linearGradient id="paint2_linear_0_1" x1="35.0465" y1="3.03448" x2="37.2885" y2="53.9873" gradientUnits="userSpaceOnUse">
            <stop offset="0.161415" stop-color="#F536A9" />
            <stop offset="0.566871" stop-color="#E77AC2" stop-opacity="0.85" />
            <stop offset="0.918243" stop-color="#5C2AC9" />
            <stop offset="1" stop-color="#2D1378" stop-opacity="0.42" />
        </linearGradient>
        <linearGradient id="paint3_linear_0_1" x1="34.9535" y1="-4.48276" x2="35.6522" y2="53.4982" gradientUnits="userSpaceOnUse">
            <stop offset="0.161415" stop-color="#C12EF4" />
            <stop offset="0.788967" stop-color="#2A7CC9" />
            <stop offset="1" stop-color="#430E86" stop-opacity="0.66" />
            <stop offset="1" stop-color="#B22DBE" stop-opacity="0.85" />
        </linearGradient>
        <radialGradient id="paint4_radial_0_1" cx="0" cy="0" r="1" gradientUnits="userSpaceOnUse" gradientTransform="translate(3 41.5) rotate(53.9003) scale(61.8817 83.2306)">
            <stop offset="0.264492" stop-color="#D0CAE9" />
            <stop offset="0.567607" stop-color="#DECDEA" stop-opacity="0.764779" />
            <stop offset="0.81487" stop-color="#EAD0EA" stop-opacity="0.55" />
            <stop offset="0.939696" stop-color="#951F98" stop-opacity="0.69" />
        </radialGradient>
        <radialGradient id="paint5_angular_0_1" cx="0" cy="0" r="1" gradientUnits="userSpaceOnUse" gradientTransform="translate(35 18.5) rotate(34.5621) scale(27.3224 81.0786)">
            <stop stop-color="#FADAFF" />
            <stop offset="0.386694" stop-color="#E8C3F5" stop-opacity="0.82" />
            <stop offset="1" stop-color="#E5CDEE" stop-opacity="0.85" />
        </radialGradient>
        <radialGradient id="paint6_angular_0_1" cx="0" cy="0" r="1" gradientUnits="userSpaceOnUse" gradientTransform="translate(35 18.4997) rotate(90) scale(8.71062 9.05244)">
            <stop stop-color="#E4D3EB" />
            <stop offset="1" stop-color="#DDBAEA" stop-opacity="0.85" />
        </radialGradient>
        <clipPath id="clip0_0_1">
            <rect width="34" height="33" fill="white" transform="translate(18 2)" />
        </clipPath>
    </defs>
</svg>
