juy <svg width="78" height="38" viewBox="0 0 78 38" fill="none" xmlns="http://www.w3.org/2000/svg">
<path d="M60.2252 37.9991C57.8824 38.0241 55.5596 37.5506 53.4012 36.6079C51.2428 35.6652 49.2948 34.2734 47.6783 32.519L39.035 23.2895L30.3916 32.519C27.0186 35.9831 22.4584 37.9271 17.7054 37.9271C12.9523 37.9271 8.39212 35.9831 5.01913 32.519C1.78589 28.7962 -0.00173646 23.9677 0.000402086 18.9632C-0.0318082 13.8985 1.87236 9.02597 5.29795 5.40731C6.94075 3.69392 8.89524 2.33396 11.0487 1.40589C13.2021 0.477817 15.5119 0 17.8448 0C20.1776 0 22.4874 0.477817 24.6409 1.40589C26.7943 2.33396 28.7488 3.69392 30.3916 5.40731L39.035 14.6368L47.6783 5.40731C49.3211 3.69392 51.2756 2.33396 53.4291 1.40589C55.5825 0.477817 57.8923 0 60.2252 0C62.558 0 64.8678 0.477817 67.0212 1.40589C69.1747 2.33396 71.1292 3.69392 72.772 5.40731C76.1287 9.06652 78 13.9187 78 18.9632C78 24.0077 76.1287 28.8598 72.772 32.519C69.4305 35.9529 64.9345 37.9166 60.2252 37.9991ZM42.9384 18.9632L51.5818 28.4811C53.882 30.8371 56.9882 32.1586 60.2252 32.1586C63.4621 32.1586 66.5683 30.8371 68.8685 28.4811C71.1561 25.8759 72.4235 22.4827 72.4235 18.9632C72.4235 15.4437 71.1561 12.0504 68.8685 9.44523C66.5683 7.08929 63.4621 5.76769 60.2252 5.76769C56.9882 5.76769 53.882 7.08929 51.5818 9.44523L42.9384 18.9632ZM17.8448 5.69574C16.2311 5.66393 14.6288 5.981 13.1405 6.62665C11.6521 7.2723 10.3105 8.23232 9.20141 9.44523C6.87181 12.0287 5.5763 15.4302 5.5763 18.9632C5.5763 22.4961 6.87181 25.8976 9.20141 28.4811C11.5016 30.8371 14.6078 32.1586 17.8448 32.1586C21.0818 32.1586 24.1879 30.8371 26.4881 28.4811L35.1315 18.9632L26.4881 9.44523C24.1423 7.15184 21.0703 5.81919 17.8448 5.69574Z" fill="#FFDC62"/>
</svg>
