<svg width="24" height="34" viewBox="0 0 24 34" fill="none" xmlns="http://www.w3.org/2000/svg">
    <path d="M23.6995 16.6254L8.42813 33.6315C8.32914 33.7479 8.20738 33.841 8.071 33.9045C7.93462 33.9681 7.78675 34.0006 7.6373 34C7.46195 33.9982 7.28935 33.9545 7.1328 33.8724C6.9251 33.756 6.75876 33.5734 6.65816 33.3515C6.55755 33.1297 6.52797 32.8801 6.57376 32.6395L8.56448 22.2516L0.710656 19.1905C0.542852 19.1228 0.393245 19.014 0.274552 18.8734C0.155859 18.7327 0.0715878 18.5644 0.0288997 18.3827C-0.0125877 18.2003 -0.00936094 18.01 0.0382845 17.8292C0.08593 17.6485 0.17647 17.4831 0.301602 17.3481L15.5729 0.341952C15.7359 0.168324 15.9482 0.0536179 16.1786 0.0146917C16.409 -0.0242345 16.6453 0.0146717 16.8528 0.125693C17.0604 0.236714 17.2282 0.413995 17.3316 0.631484C17.435 0.848973 17.4685 1.0952 17.4273 1.33398L15.4366 11.7361L23.2904 14.7972C23.459 14.8608 23.6097 14.9672 23.7287 15.1067C23.8477 15.2462 23.9314 15.4144 23.972 15.596C24.0126 15.7776 24.009 15.9668 23.9614 16.1466C23.9138 16.3264 23.8238 16.4909 23.6995 16.6254Z" fill="#4257B2" />
</svg>