<svg width="90" height="98" viewBox="0 0 90 98" fill="none" xmlns="http://www.w3.org/2000/svg">
<g clip-path="url(#clip0_680_62)">
<rect x="59" y="31.1982" width="15" height="26.5086" fill="#4257B2"/>
<rect x="20" y="43.9224" width="15" height="26.5086" fill="#4257B2"/>
<path d="M81.4837 20.0269C77.3887 20.0269 74.0625 22.9144 74.0625 26.462H62.8125C62.8125 22.9144 59.4825 20.0269 55.3912 20.0269C54.3562 20.0269 53.5162 20.7552 53.5162 21.6527C53.5162 22.5469 54.3562 23.2786 55.3912 23.2786C57.4125 23.2786 59.0625 24.7028 59.0625 26.462V32.9655H66.5625C67.5975 32.9655 68.4375 33.6971 68.4375 34.5913C68.4375 35.4856 67.5975 36.2172 66.5625 36.2172H59.0625V39.4689H66.5625C67.5975 39.4689 68.4375 40.2006 68.4375 41.0948C68.4375 41.989 67.5975 42.7206 66.5625 42.7206H59.0625V45.9724H66.5625C67.5975 45.9724 68.4375 46.704 68.4375 47.5982C68.4375 48.4924 67.5975 49.2241 66.5625 49.2241H59.0625V68.7344C59.0625 73.2186 63.27 76.8637 68.4375 76.8637C73.605 76.8637 77.8125 73.2186 77.8125 68.7344V26.462C77.8125 24.7093 79.455 23.2786 81.4837 23.2786C82.515 23.2786 83.3587 22.5469 83.3587 21.6527C83.3587 20.7552 82.5187 20.0269 81.4837 20.0269Z" fill="#3DCFCF"/>
<path d="M81.5625 0.448242C77.4263 0.448242 74.0625 3.36179 74.0625 6.95169C74.0625 10.5416 77.4263 13.4551 81.5625 13.4551C85.7025 13.4551 89.0625 10.5416 89.0625 6.95169C89.0625 3.36179 85.7025 0.448242 81.5625 0.448242Z" fill="#3DCFCF"/>
<path d="M66.5625 13.4552C64.4888 13.4552 62.8125 14.9087 62.8125 16.7069C62.8125 18.5051 64.4888 19.9586 66.5625 19.9586C68.6363 19.9586 70.3125 18.5051 70.3125 16.7069C70.3125 14.9087 68.6363 13.4552 66.5625 13.4552Z" fill="#3DCFCF"/>
<path d="M56.1247 76.2711L39.3781 39.1633V3.69997H43.1281C44.1631 3.69997 45.0031 2.96833 45.0031 2.0741C45.0031 1.17988 44.1631 0.448242 43.1281 0.448242H37.5031C36.4719 0.448242 35.6281 1.17988 35.6281 2.0741V19.9586H20.6281V2.0741C20.6281 1.17988 19.7881 0.448242 18.7531 0.448242H13.1281C12.0969 0.448242 11.2531 1.17988 11.2531 2.0741C11.2531 2.96833 12.0969 3.69997 13.1281 3.69997H16.8781V39.1633L0.130638 76.2711C-0.0981118 76.7654 -0.0231118 77.332 0.329388 77.7775C0.678138 78.2262 1.25939 78.4896 1.87814 78.4896H54.3781C54.9969 78.4896 55.5772 78.2262 55.9269 77.7775C56.2747 77.3385 56.3506 76.7735 56.1247 76.2711ZM31.8781 65.4827H24.3781C23.3469 65.4827 22.5031 64.7511 22.5031 63.8569C22.5031 62.9626 23.3469 62.231 24.3781 62.231H31.8781C32.9131 62.231 33.7531 62.9626 33.7531 63.8569C33.7531 64.7511 32.9131 65.4827 31.8781 65.4827ZM31.8781 58.9793H24.3781C23.3469 58.9793 22.5031 58.2476 22.5031 57.3534C22.5031 56.4592 23.3469 55.7276 24.3781 55.7276H31.8781C32.9131 55.7276 33.7531 56.4592 33.7531 57.3534C33.7531 58.2476 32.9131 58.9793 31.8781 58.9793ZM31.8781 52.4758H24.3781C23.3469 52.4758 22.5031 51.7442 22.5031 50.85C22.5031 49.9557 23.3469 49.2241 24.3781 49.2241H31.8781C32.9131 49.2241 33.7531 49.9557 33.7531 50.85C33.7531 51.7442 32.9131 52.4758 31.8781 52.4758Z" fill="#3DCFCF"/>
</g>
<defs>
<clipPath id="clip0_680_62">
<rect width="90" height="97.5517" fill="white" transform="translate(0 0.448242)"/>
</clipPath>
</defs>
</svg>
