<svg width="144" height="50" viewBox="0 0 144 50" fill="none" xmlns="http://www.w3.org/2000/svg">
    <path d="M0 5C0 2.23858 2.23858 0 5 0H139C141.761 0 144 2.23858 144 5V45C144 47.7614 141.761 50 139 50H5C2.23857 50 0 47.7614 0 45V5Z" fill="#4732C9" />
    <path d="M47.424 27V24.024H48.888H48.912L50.7 27H52.392L50.364 23.664C51.276 23.28 51.888 22.38 51.888 21.288C51.888 20.532 51.624 19.908 51.096 19.404C50.568 18.888 49.932 18.636 49.176 18.636H45.924V27H47.424ZM47.424 19.992H49.14C49.86 19.992 50.4 20.544 50.4 21.312C50.4 22.116 49.836 22.68 49.02 22.68H47.424V19.992ZM52.7928 24.036C52.7928 24.984 53.0808 25.752 53.6688 26.328C54.2568 26.892 55.0368 27.18 55.9848 27.18C56.8848 27.18 57.6288 26.976 58.2168 26.568V25.224C57.7128 25.692 56.9928 25.92 56.0448 25.92C54.9768 25.92 54.2688 25.308 54.2208 24.348H58.8528C58.8648 24.192 58.8768 24.012 58.8768 23.832C58.8768 22.98 58.6008 22.26 58.0488 21.684C57.5088 21.096 56.8008 20.808 55.9248 20.808C55.0128 20.808 54.2568 21.096 53.6688 21.684C53.0808 22.26 52.7928 23.028 52.7928 23.976V24.036ZM54.2568 23.328C54.2808 22.968 54.4488 22.668 54.7728 22.416C55.0968 22.164 55.4808 22.032 55.9248 22.032C56.3448 22.032 56.6928 22.164 56.9808 22.416C57.2688 22.668 57.4128 22.98 57.4128 23.328H54.2568ZM63.0097 20.76C62.0737 20.76 61.2937 21.06 60.6577 21.672C60.0217 22.284 59.7097 23.04 59.7097 23.964C59.7097 24.888 60.0217 25.644 60.6577 26.256C61.2937 26.868 62.0737 27.168 63.0097 27.168C63.8017 27.168 64.4497 26.964 64.9537 26.556V25.116C64.4497 25.608 63.8257 25.86 63.0937 25.86C62.5297 25.86 62.0617 25.68 61.6897 25.32C61.3177 24.96 61.1377 24.504 61.1377 23.964C61.1377 23.424 61.3177 22.968 61.6897 22.608C62.0617 22.248 62.5297 22.068 63.0937 22.068C63.8137 22.068 64.4377 22.32 64.9537 22.812V21.372C64.4377 20.964 63.7897 20.76 63.0097 20.76ZM67.5685 27V23.52C67.5685 22.692 68.1205 22.116 68.9005 22.116C69.6685 22.116 70.1125 22.632 70.1125 23.46V27H71.5405V23.256C71.5405 21.756 70.7245 20.832 69.3325 20.832C68.5045 20.832 67.8445 21.216 67.5685 21.792V18.636H66.1405V27H67.5685ZM75.6651 20.82C74.8131 20.82 74.0931 21.12 73.5051 21.732C72.9291 22.332 72.6411 23.076 72.6411 23.976C72.6411 24.876 72.9291 25.62 73.5051 26.232C74.0931 26.832 74.8131 27.132 75.6651 27.132C76.6611 27.132 77.3931 26.712 77.5971 26.124V27H79.0371V20.952H77.5971V21.828C77.3931 21.24 76.6611 20.82 75.6651 20.82ZM75.8571 25.824C75.3411 25.824 74.9211 25.644 74.5731 25.296C74.2371 24.948 74.0691 24.504 74.0691 23.976C74.0691 23.448 74.2371 23.004 74.5731 22.656C74.9211 22.308 75.3411 22.128 75.8571 22.128C76.3731 22.128 76.8171 22.308 77.1651 22.656C77.5251 23.004 77.7051 23.448 77.7051 23.976C77.7051 24.504 77.5251 24.948 77.1651 25.296C76.8171 25.644 76.3731 25.824 75.8571 25.824ZM81.8359 27V23.82C81.8359 22.824 82.4719 22.2 83.4679 22.2C83.6839 22.2 83.8879 22.224 84.0679 22.26V20.868C83.9479 20.844 83.8039 20.832 83.6359 20.832C82.7839 20.832 82.1239 21.216 81.8359 21.852V20.952H80.4079V27H81.8359ZM87.5652 20.82C86.7132 20.82 86.0052 21.12 85.4172 21.732C84.8292 22.332 84.5412 23.076 84.5412 23.952C84.5412 24.828 84.8292 25.572 85.4052 26.16C85.9932 26.748 86.7132 27.048 87.5652 27.048C88.5252 27.048 89.2452 26.676 89.5332 26.16V26.532C89.5332 27.264 89.3412 27.768 88.9452 28.044C88.6212 28.284 88.1412 28.404 87.5052 28.404C86.4132 28.404 85.5972 28.128 85.0452 27.588V28.956C85.6812 29.412 86.5812 29.64 87.7212 29.64C88.5972 29.64 89.3292 29.424 89.9052 29.004C90.3492 28.68 90.6252 28.296 90.7452 27.84C90.8772 27.396 90.9372 26.772 90.9372 25.992V20.952H89.4972V21.828C89.2932 21.24 88.5612 20.82 87.5652 20.82ZM87.7572 25.776C87.2412 25.776 86.8212 25.608 86.4732 25.26C86.1372 24.912 85.9692 24.468 85.9692 23.952C85.9692 23.436 86.1372 23.004 86.4732 22.656C86.8212 22.308 87.2412 22.128 87.7572 22.128C88.2732 22.128 88.7172 22.308 89.0652 22.656C89.4252 23.004 89.6052 23.436 89.6052 23.952C89.6052 24.468 89.4252 24.912 89.0652 25.26C88.7172 25.608 88.2732 25.776 87.7572 25.776ZM92.044 24.036C92.044 24.984 92.332 25.752 92.92 26.328C93.508 26.892 94.288 27.18 95.236 27.18C96.136 27.18 96.88 26.976 97.468 26.568V25.224C96.964 25.692 96.244 25.92 95.296 25.92C94.228 25.92 93.52 25.308 93.472 24.348H98.104C98.116 24.192 98.128 24.012 98.128 23.832C98.128 22.98 97.852 22.26 97.3 21.684C96.76 21.096 96.052 20.808 95.176 20.808C94.264 20.808 93.508 21.096 92.92 21.684C92.332 22.26 92.044 23.028 92.044 23.976V24.036ZM93.508 23.328C93.532 22.968 93.7 22.668 94.024 22.416C94.348 22.164 94.732 22.032 95.176 22.032C95.596 22.032 95.944 22.164 96.232 22.416C96.52 22.668 96.664 22.98 96.664 23.328H93.508ZM100.821 24.888L101.073 18.636H99.3329L99.5849 24.888H100.821ZM99.6209 26.916C99.9569 27.24 100.461 27.24 100.785 26.916C101.121 26.592 101.121 26.064 100.785 25.74C100.461 25.416 99.9569 25.416 99.6209 25.74C99.2969 26.064 99.2969 26.592 99.6209 26.916Z" fill="white" />
    <circle cx="24.5" cy="25.5" r="14.5" fill="#28149F" />
    <path d="M24.5 18L31 20.4V26.4C31 29.1 28.5238 31.8 24.5 33C20.4762 31.8 18 29.4 18 26.4V20.4L24.5 18Z" stroke="#998BED" stroke-width="1.5" stroke-linecap="round" stroke-linejoin="round" />
    <path d="M22 25.8571L23.6667 28L27 23" stroke="#998BED" stroke-width="1.5" stroke-linecap="round" stroke-linejoin="round" />
</svg>