<svg width="144" height="58" viewBox="0 0 144 58" fill="none" xmlns="http://www.w3.org/2000/svg">
    <path d="M0 20C0 17.2386 2.23858 15 5 15H139C141.761 15 144 17.2386 144 20V53C144 55.7614 141.761 58 139 58H5C2.23857 58 0 55.7614 0 53V20Z" fill="#4732C9" />
    <path d="M50.424 45V42.024H51.888H51.912L53.7 45H55.392L53.364 41.664C54.276 41.28 54.888 40.38 54.888 39.288C54.888 38.532 54.624 37.908 54.096 37.404C53.568 36.888 52.932 36.636 52.176 36.636H48.924V45H50.424ZM50.424 37.992H52.14C52.86 37.992 53.4 38.544 53.4 39.312C53.4 40.116 52.836 40.68 52.02 40.68H50.424V37.992ZM55.7928 42.036C55.7928 42.984 56.0808 43.752 56.6688 44.328C57.2568 44.892 58.0368 45.18 58.9848 45.18C59.8848 45.18 60.6288 44.976 61.2168 44.568V43.224C60.7128 43.692 59.9928 43.92 59.0448 43.92C57.9768 43.92 57.2688 43.308 57.2208 42.348H61.8528C61.8648 42.192 61.8768 42.012 61.8768 41.832C61.8768 40.98 61.6008 40.26 61.0488 39.684C60.5088 39.096 59.8008 38.808 58.9248 38.808C58.0128 38.808 57.2568 39.096 56.6688 39.684C56.0808 40.26 55.7928 41.028 55.7928 41.976V42.036ZM57.2568 41.328C57.2808 40.968 57.4488 40.668 57.7728 40.416C58.0968 40.164 58.4808 40.032 58.9248 40.032C59.3448 40.032 59.6928 40.164 59.9808 40.416C60.2688 40.668 60.4128 40.98 60.4128 41.328H57.2568ZM66.0097 38.76C65.0737 38.76 64.2937 39.06 63.6577 39.672C63.0217 40.284 62.7097 41.04 62.7097 41.964C62.7097 42.888 63.0217 43.644 63.6577 44.256C64.2937 44.868 65.0737 45.168 66.0097 45.168C66.8017 45.168 67.4497 44.964 67.9537 44.556V43.116C67.4497 43.608 66.8257 43.86 66.0937 43.86C65.5297 43.86 65.0617 43.68 64.6897 43.32C64.3177 42.96 64.1377 42.504 64.1377 41.964C64.1377 41.424 64.3177 40.968 64.6897 40.608C65.0617 40.248 65.5297 40.068 66.0937 40.068C66.8137 40.068 67.4377 40.32 67.9537 40.812V39.372C67.4377 38.964 66.7897 38.76 66.0097 38.76ZM70.5685 45V41.52C70.5685 40.692 71.1205 40.116 71.9005 40.116C72.6685 40.116 73.1125 40.632 73.1125 41.46V45H74.5405V41.256C74.5405 39.756 73.7245 38.832 72.3325 38.832C71.5045 38.832 70.8445 39.216 70.5685 39.792V36.636H69.1405V45H70.5685ZM78.6651 38.82C77.8131 38.82 77.0931 39.12 76.5051 39.732C75.9291 40.332 75.6411 41.076 75.6411 41.976C75.6411 42.876 75.9291 43.62 76.5051 44.232C77.0931 44.832 77.8131 45.132 78.6651 45.132C79.6611 45.132 80.3931 44.712 80.5971 44.124V45H82.0371V38.952H80.5971V39.828C80.3931 39.24 79.6611 38.82 78.6651 38.82ZM78.8571 43.824C78.3411 43.824 77.9211 43.644 77.5731 43.296C77.2371 42.948 77.0691 42.504 77.0691 41.976C77.0691 41.448 77.2371 41.004 77.5731 40.656C77.9211 40.308 78.3411 40.128 78.8571 40.128C79.3731 40.128 79.8171 40.308 80.1651 40.656C80.5251 41.004 80.7051 41.448 80.7051 41.976C80.7051 42.504 80.5251 42.948 80.1651 43.296C79.8171 43.644 79.3731 43.824 78.8571 43.824ZM84.8359 45V41.82C84.8359 40.824 85.4719 40.2 86.4679 40.2C86.6839 40.2 86.8879 40.224 87.0679 40.26V38.868C86.9479 38.844 86.8039 38.832 86.6359 38.832C85.7839 38.832 85.1239 39.216 84.8359 39.852V38.952H83.4079V45H84.8359ZM90.5652 38.82C89.7132 38.82 89.0052 39.12 88.4172 39.732C87.8292 40.332 87.5412 41.076 87.5412 41.952C87.5412 42.828 87.8292 43.572 88.4052 44.16C88.9932 44.748 89.7132 45.048 90.5652 45.048C91.5252 45.048 92.2452 44.676 92.5332 44.16V44.532C92.5332 45.264 92.3412 45.768 91.9452 46.044C91.6212 46.284 91.1412 46.404 90.5052 46.404C89.4132 46.404 88.5972 46.128 88.0452 45.588V46.956C88.6812 47.412 89.5812 47.64 90.7212 47.64C91.5972 47.64 92.3292 47.424 92.9052 47.004C93.3492 46.68 93.6252 46.296 93.7452 45.84C93.8772 45.396 93.9372 44.772 93.9372 43.992V38.952H92.4972V39.828C92.2932 39.24 91.5612 38.82 90.5652 38.82ZM90.7572 43.776C90.2412 43.776 89.8212 43.608 89.4732 43.26C89.1372 42.912 88.9692 42.468 88.9692 41.952C88.9692 41.436 89.1372 41.004 89.4732 40.656C89.8212 40.308 90.2412 40.128 90.7572 40.128C91.2732 40.128 91.7172 40.308 92.0652 40.656C92.4252 41.004 92.6052 41.436 92.6052 41.952C92.6052 42.468 92.4252 42.912 92.0652 43.26C91.7172 43.608 91.2732 43.776 90.7572 43.776ZM95.044 42.036C95.044 42.984 95.332 43.752 95.92 44.328C96.508 44.892 97.288 45.18 98.236 45.18C99.136 45.18 99.88 44.976 100.468 44.568V43.224C99.964 43.692 99.244 43.92 98.296 43.92C97.228 43.92 96.52 43.308 96.472 42.348H101.104C101.116 42.192 101.128 42.012 101.128 41.832C101.128 40.98 100.852 40.26 100.3 39.684C99.76 39.096 99.052 38.808 98.176 38.808C97.264 38.808 96.508 39.096 95.92 39.684C95.332 40.26 95.044 41.028 95.044 41.976V42.036ZM96.508 41.328C96.532 40.968 96.7 40.668 97.024 40.416C97.348 40.164 97.732 40.032 98.176 40.032C98.596 40.032 98.944 40.164 99.232 40.416C99.52 40.668 99.664 40.98 99.664 41.328H96.508ZM103.821 42.888L104.073 36.636H102.333L102.585 42.888H103.821ZM102.621 44.916C102.957 45.24 103.461 45.24 103.785 44.916C104.121 44.592 104.121 44.064 103.785 43.74C103.461 43.416 102.957 43.416 102.621 43.74C102.297 44.064 102.297 44.592 102.621 44.916Z" fill="white" />
    <circle cx="73.5" cy="14.5" r="14.5" fill="#28149F" />
    <path d="M73.5 7L80 9.4V15.4C80 18.1 77.5238 20.8 73.5 22C69.4762 20.8 67 18.4 67 15.4V9.4L73.5 7Z" stroke="#998BED" stroke-width="1.5" stroke-linecap="round" stroke-linejoin="round" />
    <path d="M71 14.8571L72.6667 17L76 12" stroke="#998BED" stroke-width="1.5" stroke-linecap="round" stroke-linejoin="round" />
</svg>