<svg width="144" height="50" viewBox="0 0 144 50" fill="none" xmlns="http://www.w3.org/2000/svg">
    <path d="M0 5C0 2.23858 2.23858 0 5 0H139C141.761 0 144 2.23858 144 5V45C144 47.7614 141.761 50 139 50H5C2.23857 50 0 47.7614 0 45V5Z" fill="#D28E27" />
    <path d="M52.808 22.684L55.4 28.336L58.352 19.636H56.828L55.136 24.628L52.808 19.492L50.444 24.64L48.776 19.636H47.252L50.18 28.324L52.808 22.684ZM58.2967 25.036C58.2967 25.984 58.5847 26.752 59.1727 27.328C59.7607 27.892 60.5407 28.18 61.4887 28.18C62.3887 28.18 63.1327 27.976 63.7207 27.568V26.224C63.2167 26.692 62.4967 26.92 61.5487 26.92C60.4807 26.92 59.7727 26.308 59.7247 25.348H64.3567C64.3687 25.192 64.3807 25.012 64.3807 24.832C64.3807 23.98 64.1047 23.26 63.5527 22.684C63.0127 22.096 62.3047 21.808 61.4287 21.808C60.5167 21.808 59.7607 22.096 59.1727 22.684C58.5847 23.26 58.2967 24.028 58.2967 24.976V25.036ZM59.7607 24.328C59.7847 23.968 59.9527 23.668 60.2767 23.416C60.6007 23.164 60.9847 23.032 61.4287 23.032C61.8487 23.032 62.1967 23.164 62.4847 23.416C62.7727 23.668 62.9167 23.98 62.9167 24.328H59.7607ZM65.2136 25.036C65.2136 25.984 65.5016 26.752 66.0896 27.328C66.6776 27.892 67.4576 28.18 68.4056 28.18C69.3056 28.18 70.0496 27.976 70.6376 27.568V26.224C70.1336 26.692 69.4136 26.92 68.4656 26.92C67.3976 26.92 66.6896 26.308 66.6416 25.348H71.2736C71.2856 25.192 71.2976 25.012 71.2976 24.832C71.2976 23.98 71.0216 23.26 70.4696 22.684C69.9296 22.096 69.2216 21.808 68.3456 21.808C67.4336 21.808 66.6776 22.096 66.0896 22.684C65.5016 23.26 65.2136 24.028 65.2136 24.976V25.036ZM66.6776 24.328C66.7016 23.968 66.8696 23.668 67.1936 23.416C67.5176 23.164 67.9016 23.032 68.3456 23.032C68.7656 23.032 69.1136 23.164 69.4016 23.416C69.6896 23.668 69.8336 23.98 69.8336 24.328H66.6776ZM73.8224 28V25.204L76.0064 28H77.6864L75.2024 24.844L77.4944 21.952H75.8624L73.8224 24.532V19.636H72.3944V28H73.8224ZM79.9076 28V19.636H78.4676V28H79.9076ZM82.2786 30.328H83.7426L87.2946 21.952H85.8186L84.0066 26.368L82.2426 21.952H80.7666L83.2506 28.084L82.2786 30.328ZM94.5843 28V25.024H96.0483H96.0723L97.8603 28H99.5523L97.5243 24.664C98.4363 24.28 99.0483 23.38 99.0483 22.288C99.0483 21.532 98.7843 20.908 98.2563 20.404C97.7283 19.888 97.0923 19.636 96.3363 19.636H93.0843V28H94.5843ZM94.5843 20.992H96.3003C97.0203 20.992 97.5603 21.544 97.5603 22.312C97.5603 23.116 96.9963 23.68 96.1803 23.68H94.5843V20.992ZM99.9531 25.036C99.9531 25.984 100.241 26.752 100.829 27.328C101.417 27.892 102.197 28.18 103.145 28.18C104.045 28.18 104.789 27.976 105.377 27.568V26.224C104.873 26.692 104.153 26.92 103.205 26.92C102.137 26.92 101.429 26.308 101.381 25.348H106.013C106.025 25.192 106.037 25.012 106.037 24.832C106.037 23.98 105.761 23.26 105.209 22.684C104.669 22.096 103.961 21.808 103.085 21.808C102.173 21.808 101.417 22.096 100.829 22.684C100.241 23.26 99.9531 24.028 99.9531 24.976V25.036ZM101.417 24.328C101.441 23.968 101.609 23.668 101.933 23.416C102.257 23.164 102.641 23.032 103.085 23.032C103.505 23.032 103.853 23.164 104.141 23.416C104.429 23.668 104.573 23.98 104.573 24.328H101.417ZM108.574 30.316V27.124C108.778 27.712 109.51 28.132 110.506 28.132C111.358 28.132 112.078 27.832 112.654 27.232C113.242 26.62 113.53 25.876 113.53 24.976C113.53 24.076 113.242 23.332 112.654 22.732C112.078 22.12 111.358 21.82 110.506 21.82C109.51 21.82 108.778 22.24 108.574 22.828V21.952H107.134V30.316H108.574ZM110.314 26.824C109.798 26.824 109.354 26.644 108.994 26.296C108.646 25.948 108.466 25.504 108.466 24.976C108.466 24.448 108.646 24.004 108.994 23.656C109.354 23.308 109.798 23.128 110.314 23.128C110.83 23.128 111.25 23.308 111.586 23.656C111.934 24.004 112.102 24.448 112.102 24.976C112.102 25.504 111.934 25.948 111.586 26.296C111.25 26.644 110.83 26.824 110.314 26.824ZM115.344 27.256C115.98 27.868 116.76 28.18 117.684 28.18C118.608 28.18 119.388 27.868 120.024 27.256C120.66 26.644 120.984 25.876 120.984 24.976C120.984 24.076 120.66 23.308 120.024 22.696C119.388 22.084 118.608 21.772 117.684 21.772C116.76 21.772 115.98 22.084 115.344 22.696C114.708 23.308 114.384 24.076 114.384 24.976C114.384 25.876 114.708 26.644 115.344 27.256ZM117.684 26.872C117.144 26.872 116.7 26.692 116.34 26.332C115.992 25.96 115.812 25.516 115.812 24.976C115.812 24.436 115.992 23.992 116.34 23.632C116.7 23.26 117.144 23.08 117.684 23.08C118.212 23.08 118.656 23.26 119.016 23.632C119.376 23.992 119.556 24.436 119.556 24.976C119.556 25.516 119.376 25.96 119.016 26.332C118.656 26.692 118.212 26.872 117.684 26.872ZM123.544 28V24.82C123.544 23.824 124.18 23.2 125.176 23.2C125.392 23.2 125.596 23.224 125.776 23.26V21.868C125.656 21.844 125.512 21.832 125.344 21.832C124.492 21.832 123.832 22.216 123.544 22.852V21.952H122.116V28H123.544ZM128.76 28V23.26H130.068V21.952H128.76V19.636H127.32V21.952H126.54V23.26H127.32V28H128.76Z" fill="white" />
    <circle cx="24.5" cy="25.5" r="14.5" fill="#A86A0C" />
    <path d="M33.7077 25.2424L35 26.6097L28.9723 33L25.7692 29.6061L27.0615 28.2388L28.9723 30.2558L33.7077 25.2424ZM24.3846 17C25.3639 17 26.303 17.4087 26.9955 18.1361C27.6879 18.8635 28.0769 19.8501 28.0769 20.8788C28.0769 21.9075 27.6879 22.8941 26.9955 23.6215C26.303 24.3489 25.3639 24.7576 24.3846 24.7576C23.4054 24.7576 22.4662 24.3489 21.7738 23.6215C21.0813 22.8941 20.6923 21.9075 20.6923 20.8788C20.6923 19.8501 21.0813 18.8635 21.7738 18.1361C22.4662 17.4087 23.4054 17 24.3846 17ZM24.3846 18.9394C23.895 18.9394 23.4254 19.1437 23.0792 19.5074C22.733 19.8711 22.5385 20.3644 22.5385 20.8788C22.5385 21.3931 22.733 21.8864 23.0792 22.2501C23.4254 22.6139 23.895 22.8182 24.3846 22.8182C24.8742 22.8182 25.3438 22.6139 25.69 22.2501C26.0363 21.8864 26.2308 21.3931 26.2308 20.8788C26.2308 20.3644 26.0363 19.8711 25.69 19.5074C25.3438 19.1437 24.8742 18.9394 24.3846 18.9394ZM24.3846 25.7273C25.0123 25.7273 25.7692 25.8145 26.6092 25.9794L25.0677 27.5988L24.3846 27.5697C21.6431 27.5697 18.7538 28.9855 18.7538 29.6061V30.6727H24.4769L26.2308 32.5152H17V29.6061C17 27.0267 21.92 25.7273 24.3846 25.7273Z" fill="#EFB359" />
</svg>