<svg width="144" height="58" viewBox="0 0 144 58" fill="none" xmlns="http://www.w3.org/2000/svg">
    <path d="M0 20C0 17.2386 2.23858 15 5 15H139C141.761 15 144 17.2386 144 20V53C144 55.7614 141.761 58 139 58H5C2.23857 58 0 55.7614 0 53V20Z" fill="#D28E27" />
    <path d="M37.808 39.684L40.4 45.336L43.352 36.636H41.828L40.136 41.628L37.808 36.492L35.444 41.64L33.776 36.636H32.252L35.18 45.324L37.808 39.684ZM43.2967 42.036C43.2967 42.984 43.5847 43.752 44.1727 44.328C44.7607 44.892 45.5407 45.18 46.4887 45.18C47.3887 45.18 48.1327 44.976 48.7207 44.568V43.224C48.2167 43.692 47.4967 43.92 46.5487 43.92C45.4807 43.92 44.7727 43.308 44.7247 42.348H49.3567C49.3687 42.192 49.3807 42.012 49.3807 41.832C49.3807 40.98 49.1047 40.26 48.5527 39.684C48.0127 39.096 47.3047 38.808 46.4287 38.808C45.5167 38.808 44.7607 39.096 44.1727 39.684C43.5847 40.26 43.2967 41.028 43.2967 41.976V42.036ZM44.7607 41.328C44.7847 40.968 44.9527 40.668 45.2767 40.416C45.6007 40.164 45.9847 40.032 46.4287 40.032C46.8487 40.032 47.1967 40.164 47.4847 40.416C47.7727 40.668 47.9167 40.98 47.9167 41.328H44.7607ZM50.2136 42.036C50.2136 42.984 50.5016 43.752 51.0896 44.328C51.6776 44.892 52.4576 45.18 53.4056 45.18C54.3056 45.18 55.0496 44.976 55.6376 44.568V43.224C55.1336 43.692 54.4136 43.92 53.4656 43.92C52.3976 43.92 51.6896 43.308 51.6416 42.348H56.2736C56.2856 42.192 56.2976 42.012 56.2976 41.832C56.2976 40.98 56.0216 40.26 55.4696 39.684C54.9296 39.096 54.2216 38.808 53.3456 38.808C52.4336 38.808 51.6776 39.096 51.0896 39.684C50.5016 40.26 50.2136 41.028 50.2136 41.976V42.036ZM51.6776 41.328C51.7016 40.968 51.8696 40.668 52.1936 40.416C52.5176 40.164 52.9016 40.032 53.3456 40.032C53.7656 40.032 54.1136 40.164 54.4016 40.416C54.6896 40.668 54.8336 40.98 54.8336 41.328H51.6776ZM58.8224 45V42.204L61.0064 45H62.6864L60.2024 41.844L62.4944 38.952H60.8624L58.8224 41.532V36.636H57.3944V45H58.8224ZM64.9076 45V36.636H63.4676V45H64.9076ZM67.2786 47.328H68.7426L72.2946 38.952H70.8186L69.0066 43.368L67.2426 38.952H65.7666L68.2506 45.084L67.2786 47.328ZM79.5843 45V42.024H81.0483H81.0723L82.8603 45H84.5523L82.5243 41.664C83.4363 41.28 84.0483 40.38 84.0483 39.288C84.0483 38.532 83.7843 37.908 83.2563 37.404C82.7283 36.888 82.0923 36.636 81.3363 36.636H78.0843V45H79.5843ZM79.5843 37.992H81.3003C82.0203 37.992 82.5603 38.544 82.5603 39.312C82.5603 40.116 81.9963 40.68 81.1803 40.68H79.5843V37.992ZM84.9531 42.036C84.9531 42.984 85.2411 43.752 85.8291 44.328C86.4171 44.892 87.1971 45.18 88.1451 45.18C89.0451 45.18 89.7891 44.976 90.3771 44.568V43.224C89.8731 43.692 89.1531 43.92 88.2051 43.92C87.1371 43.92 86.4291 43.308 86.3811 42.348H91.0131C91.0251 42.192 91.0371 42.012 91.0371 41.832C91.0371 40.98 90.7611 40.26 90.2091 39.684C89.6691 39.096 88.9611 38.808 88.0851 38.808C87.1731 38.808 86.4171 39.096 85.8291 39.684C85.2411 40.26 84.9531 41.028 84.9531 41.976V42.036ZM86.4171 41.328C86.4411 40.968 86.6091 40.668 86.9331 40.416C87.2571 40.164 87.6411 40.032 88.0851 40.032C88.5051 40.032 88.8531 40.164 89.1411 40.416C89.4291 40.668 89.5731 40.98 89.5731 41.328H86.4171ZM93.574 47.316V44.124C93.778 44.712 94.51 45.132 95.506 45.132C96.358 45.132 97.078 44.832 97.654 44.232C98.242 43.62 98.53 42.876 98.53 41.976C98.53 41.076 98.242 40.332 97.654 39.732C97.078 39.12 96.358 38.82 95.506 38.82C94.51 38.82 93.778 39.24 93.574 39.828V38.952H92.134V47.316H93.574ZM95.314 43.824C94.798 43.824 94.354 43.644 93.994 43.296C93.646 42.948 93.466 42.504 93.466 41.976C93.466 41.448 93.646 41.004 93.994 40.656C94.354 40.308 94.798 40.128 95.314 40.128C95.83 40.128 96.25 40.308 96.586 40.656C96.934 41.004 97.102 41.448 97.102 41.976C97.102 42.504 96.934 42.948 96.586 43.296C96.25 43.644 95.83 43.824 95.314 43.824ZM100.344 44.256C100.98 44.868 101.76 45.18 102.684 45.18C103.608 45.18 104.388 44.868 105.024 44.256C105.66 43.644 105.984 42.876 105.984 41.976C105.984 41.076 105.66 40.308 105.024 39.696C104.388 39.084 103.608 38.772 102.684 38.772C101.76 38.772 100.98 39.084 100.344 39.696C99.7085 40.308 99.3845 41.076 99.3845 41.976C99.3845 42.876 99.7085 43.644 100.344 44.256ZM102.684 43.872C102.144 43.872 101.7 43.692 101.34 43.332C100.992 42.96 100.812 42.516 100.812 41.976C100.812 41.436 100.992 40.992 101.34 40.632C101.7 40.26 102.144 40.08 102.684 40.08C103.212 40.08 103.656 40.26 104.016 40.632C104.376 40.992 104.556 41.436 104.556 41.976C104.556 42.516 104.376 42.96 104.016 43.332C103.656 43.692 103.212 43.872 102.684 43.872ZM108.544 45V41.82C108.544 40.824 109.18 40.2 110.176 40.2C110.392 40.2 110.596 40.224 110.776 40.26V38.868C110.656 38.844 110.512 38.832 110.344 38.832C109.492 38.832 108.832 39.216 108.544 39.852V38.952H107.116V45H108.544ZM113.76 45V40.26H115.068V38.952H113.76V36.636H112.32V38.952H111.54V40.26H112.32V45H113.76Z" fill="white" />
    <circle cx="71.5" cy="14.5" r="14.5" fill="#A86A0C" />
    <path d="M80.7077 13.2424L82 14.6097L75.9723 21L72.7692 17.6061L74.0615 16.2388L75.9723 18.2558L80.7077 13.2424ZM71.3846 5C72.3639 5 73.303 5.40866 73.9955 6.13607C74.6879 6.86348 75.0769 7.85007 75.0769 8.87879C75.0769 9.90751 74.6879 10.8941 73.9955 11.6215C73.303 12.3489 72.3639 12.7576 71.3846 12.7576C70.4054 12.7576 69.4662 12.3489 68.7738 11.6215C68.0813 10.8941 67.6923 9.90751 67.6923 8.87879C67.6923 7.85007 68.0813 6.86348 68.7738 6.13607C69.4662 5.40866 70.4054 5 71.3846 5ZM71.3846 6.93939C70.895 6.93939 70.4254 7.14372 70.0792 7.50743C69.733 7.87114 69.5385 8.36443 69.5385 8.87879C69.5385 9.39315 69.733 9.88644 70.0792 10.2501C70.4254 10.6139 70.895 10.8182 71.3846 10.8182C71.8742 10.8182 72.3438 10.6139 72.69 10.2501C73.0363 9.88644 73.2308 9.39315 73.2308 8.87879C73.2308 8.36443 73.0363 7.87114 72.69 7.50743C72.3438 7.14372 71.8742 6.93939 71.3846 6.93939ZM71.3846 13.7273C72.0123 13.7273 72.7692 13.8145 73.6092 13.9794L72.0677 15.5988L71.3846 15.5697C68.6431 15.5697 65.7538 16.9855 65.7538 17.6061V18.6727H71.4769L73.2308 20.5152H64V17.6061C64 15.0267 68.92 13.7273 71.3846 13.7273Z" fill="#EFB359" />
</svg>