<svg width="375" height="812" viewBox="0 0 375 812" fill="none" xmlns="http://www.w3.org/2000/svg">

    <path d="M77.1726 0H51.2777C33.4473 0 26.9816 1.85651 20.4631 5.34265C13.9446 8.8288 8.82879 13.9446 5.34265 20.4631C1.85651 26.9816 0 33.4473 0 51.2777V760.722C0 778.553 1.85651 785.018 5.34265 791.537C8.82879 798.055 13.9446 803.171 20.4631 806.657C26.9816 810.143 33.4473 812 51.2777 812H323.72C341.55 812 348.016 810.143 354.535 806.657C361.053 803.171 366.169 798.055 369.655 791.537C373.141 785.018 374.998 778.553 374.998 760.722V812H375V0H374.998V51.2777C374.998 33.4473 373.141 26.9816 369.655 20.4631C366.169 13.9446 361.053 8.8288 354.535 5.34265C348.016 1.85651 341.55 0 323.72 0H297.827C296.637 0 295.688 0.215495 294.889 0.625422C294.09 1.03535 293.455 1.63971 293.005 2.41744C292.616 3.09189 292.356 3.88602 292.255 4.86028C291.826 12.4779 290.702 16.0301 288.777 19.3633C286.799 22.7853 284.004 25.4445 280.488 27.2481C276.971 29.0518 273.266 30 265.21 30H109.79C101.734 30 98.0289 29.0518 94.5124 27.2481C90.996 25.4445 88.2005 22.7853 86.2235 19.3633C84.2978 16.0301 83.1738 12.4779 82.7449 4.86028C82.6441 3.88602 82.3843 3.09189 81.9947 2.41744C81.5453 1.63971 80.91 1.03535 80.1108 0.625422C79.3116 0.215495 78.3628 0 77.1726 0Z" fill="#003ECB" />
    <mask id="mask0_0_1" style="mask-type:alpha" maskUnits="userSpaceOnUse" x="0" y="0" width="375" height="812">
        <path d="M77.1726 0H51.2777C33.4473 0 26.9816 1.85651 20.4631 5.34265C13.9446 8.8288 8.82879 13.9446 5.34265 20.4631C1.85651 26.9816 0 33.4473 0 51.2777V760.722C0 778.553 1.85651 785.018 5.34265 791.537C8.82879 798.055 13.9446 803.171 20.4631 806.657C26.9816 810.143 33.4473 812 51.2777 812H323.72C341.55 812 348.016 810.143 354.535 806.657C361.053 803.171 366.169 798.055 369.655 791.537C373.141 785.018 374.998 778.553 374.998 760.722V812H375V0H374.998V51.2777C374.998 33.4473 373.141 26.9816 369.655 20.4631C366.169 13.9446 361.053 8.8288 354.535 5.34265C348.016 1.85651 341.55 0 323.72 0H297.827C296.637 0 295.688 0.215495 294.889 0.625422C294.09 1.03535 293.455 1.63971 293.005 2.41744C292.616 3.09189 292.356 3.88602 292.255 4.86028C291.826 12.4779 290.702 16.0301 288.777 19.3633C286.799 22.7853 284.004 25.4445 280.488 27.2481C276.971 29.0518 273.266 30 265.21 30H109.79C101.734 30 98.0289 29.0518 94.5124 27.2481C90.996 25.4445 88.2005 22.7853 86.2235 19.3633C84.2978 16.0301 83.1738 12.4779 82.7449 4.86028C82.6441 3.88602 82.3843 3.09189 81.9947 2.41744C81.5453 1.63971 80.91 1.03535 80.1108 0.625422C79.3116 0.215495 78.3628 0 77.1726 0Z" fill="white" />
    </mask>
    <g mask="url(#mask0_0_1)">
        <rect opacity="0.25" x="-300" y="258.816" width="746.307" height="245.058" transform="rotate(-27 -300 258.816)" fill="url(#paint0_linear_0_1)" />
        <rect opacity="0.25" x="171.974" y="196.581" width="373.015" height="96.7802" transform="rotate(-27 171.974 196.581)" fill="url(#paint1_linear_0_1)" />
        <path opacity="0.5" d="M202.185 210.377C177.969 196.248 157.949 209.453 154.407 239.945C153.791 245.22 157.795 252.188 162.684 255.037L241.686 301.16C246.576 304.009 250.58 301.699 249.964 295.693C246.422 261.159 226.363 224.507 202.185 210.377Z" fill="url(#paint2_linear_0_1)" />
        <path opacity="0.5" d="M229.174 170.799C229.174 191.859 217.008 201.792 201.993 193.014C186.978 184.236 174.812 160.096 174.812 139.037C174.812 117.977 186.978 108.044 201.993 116.822C217.008 125.6 229.174 149.74 229.174 170.799Z" fill="url(#paint3_linear_0_1)" />
        <path opacity="0.07" d="M217.739 197.749C193.523 183.62 173.503 196.825 169.961 227.317C169.345 232.592 173.349 239.56 178.238 242.409L257.24 288.532C262.13 291.381 266.134 289.071 265.518 283.065C261.976 248.531 241.956 211.879 217.739 197.749Z" fill="url(#paint4_linear_0_1)" />
        <path opacity="0.07" d="M244.728 158.171C244.728 179.231 232.562 189.164 217.547 180.386C202.532 171.608 190.366 147.468 190.366 126.409C190.366 105.349 202.532 95.4162 217.547 104.194C232.562 112.972 244.728 137.112 244.728 158.171Z" fill="url(#paint5_linear_0_1)" />
        <path opacity="0.2" d="M297.049 316.676L228.635 277.175V312.826L297.049 352.327V316.676Z" fill="url(#paint6_linear_0_1)" />
        <path opacity="1" d="M242.533 297.156C242.533 300.082 240.801 301.468 238.645 300.236C236.489 299.004 234.756 295.616 234.756 292.69C234.756 289.764 236.489 288.378 238.645 289.61C240.801 290.842 242.533 294.23 242.533 297.156Z" fill="#F2C94C" />
        <path opacity="0.15" d="M246.152 295.886L266.711 307.782V312.056L246.114 300.159L246.152 295.886Z" fill="white" />
        <path opacity="0.15" d="M246.152 304.471L289.965 329.766V334.116L246.152 308.822V304.471Z" fill="white" />
        <path opacity="0.2" d="M158.064 275.481L89.65 236.018V271.669L158.064 311.17V275.481Z" fill="url(#paint7_linear_0_1)" />
        <path opacity="1" d="M103.548 255.961C103.548 258.887 101.816 260.273 99.66 259.041C97.504 257.809 95.7715 254.421 95.7715 251.495C95.7715 248.569 97.504 247.183 99.66 248.415C101.816 249.647 103.548 253.035 103.548 255.961Z" fill="#F2994A" />
        <path opacity="0.15" d="M107.052 254.883L119.449 262.044V266.395L107.052 259.234V254.883Z" fill="white" />
        <path opacity="0.15" d="M107.167 263.469L150.98 288.763V293.114L107.167 267.819V263.469Z" fill="white" />
        <path opacity="0.3" d="M202.147 314.905L331.777 389.749L331.815 457.316L213.62 389.094L202.186 392.829L202.147 314.905Z" fill="url(#paint8_linear_0_1)" />
        <path opacity="1" d="M228.481 352.75C228.481 358.333 225.208 360.912 221.127 358.564C217.046 356.215 213.774 349.786 213.774 344.242C213.774 338.659 217.046 336.08 221.127 338.428C225.17 340.777 228.481 347.206 228.481 352.75Z" fill="#F2C94C" />
        <path opacity="0.15" d="M235.488 350.594L263.901 366.995V372.924L235.488 356.523V350.594Z" fill="white" />
        <path opacity="0.15" d="M235.488 362.491L320.342 411.463V417.392L235.488 368.42V362.491Z" fill="white" />
        <path opacity="0.15" d="M235.488 374.387L301.823 412.695V418.624L235.488 380.316V374.387Z" fill="white" />
        <path opacity="0.3" d="M184.629 334.309L55 259.503L55.0385 327.071L173.233 395.293L184.668 412.233L184.629 334.309Z" fill="url(#paint9_linear_0_1)" />
        <path opacity="1" d="M158.295 341.739C158.295 347.322 161.606 353.713 165.649 356.061C169.73 358.41 173.002 355.792 173.002 350.209C173.002 344.627 169.691 338.236 165.649 335.887C161.606 333.577 158.295 336.195 158.295 341.739Z" fill="#F2994A" />
        <path opacity="0.15" d="M151.288 331.537L122.875 315.136V321.065L151.288 337.466V331.537Z" fill="white" />
        <path opacity="0.15" d="M151.327 343.395L66.4729 294.423V300.352L151.288 349.324L151.327 343.395Z" fill="white" />
        <path opacity="0.15" d="M151.327 355.291L84.9915 316.984V322.913L151.327 361.22V355.291Z" fill="white" />
        <path opacity="0.2" d="M108.977 376.389C111.287 377.698 113.135 380.932 113.135 383.627V395.37L120.912 399.836C123.222 401.145 125.07 404.379 125.07 407.035C125.07 409.692 123.222 410.77 120.912 409.461L113.135 404.956V416.699C113.135 419.355 111.287 420.433 108.977 419.124C106.667 417.815 104.819 414.581 104.819 411.925V400.182L97.042 395.716C94.732 394.407 92.884 391.173 92.884 388.517C92.884 385.86 94.732 384.782 97.042 386.091L104.819 390.557V378.815C104.78 376.12 106.667 375.042 108.977 376.389Z" fill="url(#paint10_linear_0_1)" />
        <path opacity="0.2" d="M276.259 225.97L286.962 246.991C288.425 249.878 288.194 252.766 286.423 253.459C284.652 254.152 282.034 252.342 280.571 249.455L280.456 249.185V272.516C280.456 275.173 278.608 276.251 276.298 274.942C273.988 273.594 272.14 270.399 272.14 267.742V244.411L272.024 244.527C270.561 245.72 267.905 244.488 266.172 241.755C264.401 239.021 264.17 235.864 265.633 234.671L276.259 225.97Z" fill="url(#paint11_linear_0_1)" />
        <path opacity="0.2" d="M184.63 263.55L168.152 254.04V248.496L184.63 258.006C185.977 258.776 187.941 260.354 189.596 262.78C191.406 265.359 192.676 268.632 192.676 272.174C192.676 276.101 191.675 278.334 189.789 278.95C188.018 279.527 185.9 278.526 184.63 277.795L177.854 273.868L177.815 273.829C177.238 273.483 176.314 273.136 175.582 273.367C174.966 273.56 174.312 274.137 174.312 276.332C174.312 278.526 175.005 279.835 175.544 280.644C176.237 281.645 177.161 282.338 177.738 282.646L177.815 282.684L198.528 294.658V300.202L177.931 288.305C176.506 287.574 174.466 285.995 172.695 283.531C170.77 280.798 169.461 277.371 169.461 273.56C169.461 269.748 170.77 267.823 172.656 267.284C174.427 266.784 176.468 267.515 177.892 268.362L184.591 272.251C185.554 272.828 186.285 273.059 186.786 272.905C187.171 272.79 187.864 272.251 187.864 269.44C187.864 267.592 187.286 266.399 186.709 265.629C186.054 264.589 185.207 263.858 184.63 263.55Z" fill="white" />
        <path opacity="1" d="M171.193 252.847C171.193 257.813 168.267 260.162 164.686 258.121C161.106 256.042 158.18 250.344 158.18 245.339C158.18 240.373 161.106 238.024 164.686 240.065C168.267 242.144 171.193 247.88 171.193 252.847Z" fill="#F2994A" />
        <path opacity="1" d="M206.998 302.127C206.998 307.093 204.072 309.442 200.491 307.401C196.911 305.322 193.985 299.624 193.985 294.619C193.985 289.653 196.911 287.304 200.491 289.345C204.072 291.424 206.998 297.16 206.998 302.127Z" fill="#F2C94C" />
    </g>


    <defs>
        <linearGradient id="paint0_linear_0_1" x1="471.014" y1="346.342" x2="309.607" y2="575.75" gradientUnits="userSpaceOnUse">
            <stop stop-color="white" />
            <stop offset="1" stop-color="white" stop-opacity="0" />
        </linearGradient>
        <linearGradient id="paint1_linear_0_1" x1="558.262" y1="229.28" x2="508.033" y2="314.419" gradientUnits="userSpaceOnUse">
            <stop stop-color="white" />
            <stop offset="1" stop-color="white" stop-opacity="0" />
        </linearGradient>
        <linearGradient id="paint2_linear_0_1" x1="302.084" y1="187.336" x2="203.737" y2="259.076" gradientUnits="userSpaceOnUse">
            <stop stop-color="white" />
            <stop offset="1" stop-color="white" stop-opacity="0" />
        </linearGradient>
        <linearGradient id="paint3_linear_0_1" x1="251.965" y1="118.472" x2="153.619" y2="190.213" gradientUnits="userSpaceOnUse">
            <stop stop-color="white" />
            <stop offset="1" stop-color="white" stop-opacity="0" />
        </linearGradient>
        <linearGradient id="paint4_linear_0_1" x1="317.644" y1="174.703" x2="219.298" y2="246.444" gradientUnits="userSpaceOnUse">
            <stop stop-color="white" />
            <stop offset="1" stop-color="white" stop-opacity="0" />
        </linearGradient>
        <linearGradient id="paint5_linear_0_1" x1="267.525" y1="105.839" x2="169.18" y2="177.58" gradientUnits="userSpaceOnUse">
            <stop stop-color="white" />
            <stop offset="1" stop-color="white" stop-opacity="0" />
        </linearGradient>
        <linearGradient id="paint6_linear_0_1" x1="270.553" y1="301.386" x2="255.12" y2="328.123" gradientUnits="userSpaceOnUse">
            <stop stop-color="white" />
            <stop offset="1" stop-color="white" stop-opacity="0" />
        </linearGradient>
        <linearGradient id="paint7_linear_0_1" x1="131.568" y1="260.196" x2="116.136" y2="286.933" gradientUnits="userSpaceOnUse">
            <stop stop-color="white" />
            <stop offset="1" stop-color="white" stop-opacity="0" />
        </linearGradient>
        <linearGradient id="paint8_linear_0_1" x1="257.826" y1="317.104" x2="274.587" y2="453.046" gradientUnits="userSpaceOnUse">
            <stop stop-color="white" />
            <stop offset="1" stop-color="white" stop-opacity="0" />
        </linearGradient>
        <linearGradient id="paint9_linear_0_1" x1="156.363" y1="307.251" x2="89.422" y2="359.665" gradientUnits="userSpaceOnUse">
            <stop stop-color="white" />
            <stop offset="1" stop-color="white" stop-opacity="0" />
        </linearGradient>
        <linearGradient id="paint10_linear_0_1" x1="117.006" y1="391.387" x2="96.8485" y2="407.295" gradientUnits="userSpaceOnUse">
            <stop stop-color="white" />
            <stop offset="1" stop-color="white" stop-opacity="0" />
        </linearGradient>
        <linearGradient id="paint11_linear_0_1" x1="283.868" y1="247.175" x2="264.34" y2="258.061" gradientUnits="userSpaceOnUse">
            <stop stop-color="white" />
            <stop offset="1" stop-color="white" stop-opacity="0" />
        </linearGradient>
    </defs>
</svg>