<svg width="375" height="812" viewBox="0 0 375 812" fill="none" xmlns="http://www.w3.org/2000/svg">
    <mask id="mask0_901_476" style="mask-type:alpha" maskUnits="userSpaceOnUse" x="0" y="0" width="375" height="812">
        <path d="M77.1726 0H51.2777C33.4473 0 26.9816 1.85651 20.4631 5.34265C13.9446 8.8288 8.82879 13.9446 5.34265 20.4631C1.85651 26.9816 0 33.4473 0 51.2777V760.722C0 778.553 1.85651 785.018 5.34265 791.537C8.82879 798.055 13.9446 803.171 20.4631 806.657C26.9816 810.143 33.4473 812 51.2777 812H323.72C341.55 812 348.016 810.143 354.535 806.657C361.053 803.171 366.169 798.055 369.655 791.537C373.141 785.018 374.998 778.553 374.998 760.722V812H375V0H374.998V51.2777C374.998 33.4473 373.141 26.9816 369.655 20.4631C366.169 13.9446 361.053 8.8288 354.535 5.34265C348.016 1.85651 341.55 0 323.72 0H297.827C296.637 0 295.688 0.215495 294.889 0.625422C294.09 1.03535 293.455 1.63971 293.005 2.41744C292.616 3.09189 292.356 3.88602 292.255 4.86028C291.826 12.4779 290.702 16.0301 288.777 19.3633C286.799 22.7853 284.004 25.4445 280.488 27.2481C276.971 29.0518 273.266 30 265.21 30H109.79C101.734 30 98.0289 29.0518 94.5124 27.2481C90.996 25.4445 88.2005 22.7853 86.2235 19.3633C84.2978 16.0301 83.1738 12.4779 82.7449 4.86028C82.6441 3.88602 82.3843 3.09189 81.9947 2.41744C81.5453 1.63971 80.91 1.03535 80.1108 0.625422C79.3116 0.215495 78.3628 0 77.1726 0Z" fill="#003ECB" />
    </mask>
    <g mask="url(#mask0_901_476)">
        <path d="M77.1726 0H51.2777C33.4473 0 26.9816 1.85651 20.4631 5.34265C13.9446 8.8288 8.82879 13.9446 5.34265 20.4631C1.85651 26.9816 0 33.4473 0 51.2777V760.722C0 778.553 1.85651 785.018 5.34265 791.537C8.82879 798.055 13.9446 803.171 20.4631 806.657C26.9816 810.143 33.4473 812 51.2777 812H323.72C341.55 812 348.016 810.143 354.535 806.657C361.053 803.171 366.169 798.055 369.655 791.537C373.141 785.018 374.998 778.553 374.998 760.722V812H375V0H374.998V51.2777C374.998 33.4473 373.141 26.9816 369.655 20.4631C366.169 13.9446 361.053 8.8288 354.535 5.34265C348.016 1.85651 341.55 0 323.72 0H297.827C296.637 0 295.688 0.215495 294.889 0.625422C294.09 1.03535 293.455 1.63971 293.005 2.41744C292.616 3.09189 292.356 3.88602 292.255 4.86028C291.826 12.4779 290.702 16.0301 288.777 19.3633C286.799 22.7853 284.004 25.4445 280.488 27.2481C276.971 29.0518 273.266 30 265.21 30H109.79C101.734 30 98.0289 29.0518 94.5124 27.2481C90.996 25.4445 88.2005 22.7853 86.2235 19.3633C84.2978 16.0301 83.1738 12.4779 82.7449 4.86028C82.6441 3.88602 82.3843 3.09189 81.9947 2.41744C81.5453 1.63971 80.91 1.03535 80.1108 0.625422C79.3116 0.215495 78.3628 0 77.1726 0Z" fill="#003ECB" />
        <rect opacity="0.25" x="-300" y="258.816" width="746.307" height="245.058" transform="rotate(-27 -300 258.816)" fill="url(#paint0_linear_901_476)" />
        <rect opacity="0.25" x="171.974" y="196.581" width="373.015" height="96.7802" transform="rotate(-27 171.974 196.581)" fill="url(#paint1_linear_901_476)" />
        <path opacity="0.07" d="M301.659 270.062C312.385 261.466 318.985 245.469 318.985 223.883C318.985 179.555 291.181 128.597 256.941 110.48C222.659 92.3247 195.35 113.602 195.68 158.277C195.845 179.516 202.363 202.297 212.882 222.11C221.009 237.374 226.331 254.412 228.105 270.254C228.806 277.038 233.137 284.054 238.129 286.752L276.412 307.374C281.445 310.111 285.735 307.644 286.519 301.67C288.252 287.754 293.491 276.653 301.659 270.062Z" fill="url(#paint2_linear_901_476)" />
        <path opacity="0.07" d="M285.776 343.299V333.817C285.776 328.729 282.641 322.986 278.722 320.788L235.736 297.584C231.817 295.464 228.682 297.853 228.682 302.942V312.424C228.682 320.056 232.972 328.536 238.583 332.699L275.958 352.859C281.486 354.825 285.776 350.855 285.776 343.299Z" fill="url(#paint3_linear_901_476)" />
        <path opacity="0.4" d="M280.991 285.403C291.717 276.807 298.317 260.81 298.317 239.225C298.317 194.896 270.513 143.938 236.273 125.821C201.95 107.666 174.682 128.944 175.012 173.619C175.177 194.858 181.695 217.639 192.214 237.451C200.341 252.716 205.663 269.753 207.437 285.596C208.138 292.38 212.47 299.395 217.461 302.094L255.744 322.716C260.777 325.453 265.067 322.986 265.851 317.011C267.625 303.096 272.864 291.956 280.991 285.403Z" fill="url(#paint4_linear_901_476)" />
        <path opacity="0.4" d="M265.15 358.641V349.159C265.15 344.07 262.015 338.327 258.096 336.13L215.11 312.925C211.191 310.805 208.055 313.195 208.055 318.283V327.765C208.055 335.398 212.346 343.878 217.956 348.041L255.332 368.2C260.86 370.166 265.15 366.196 265.15 358.641Z" fill="url(#paint5_linear_901_476)" />
        <path opacity="0.3" d="M174.847 361.956L52.0773 295.733L52.1186 355.519L164.038 415.882L174.888 430.877L174.847 361.956Z" fill="url(#paint6_linear_901_476)" />
        <path d="M39 319.054V302.826L85.3686 327.804V344.032L39 319.054Z" fill="#F2994A" />
        <path opacity="0.15" d="M143.288 359.489L116.391 344.995V350.238L143.288 364.731V359.489Z" fill="white" />
        <path opacity="0.15" d="M143.288 370.012L91.4329 342.066V347.308L143.288 375.254V370.012Z" fill="white" />
        <path opacity="0.15" d="M143.288 380.497L80.4595 346.615V351.857L143.288 385.739V380.497Z" fill="white" />
        <path d="M149.93 368.547C149.93 373.481 153.065 379.148 156.902 381.229C160.738 383.311 163.873 380.998 163.873 376.064C163.873 371.13 160.738 365.464 156.902 363.382C153.024 361.301 149.93 363.613 149.93 368.547Z" fill="#F2994A" />
        <path opacity="0.3" d="M184.417 325.992L307.146 392.215L307.187 452L195.267 391.636L184.459 394.951L184.417 325.992Z" fill="url(#paint7_linear_901_476)" />
        <path d="M271.462 402.738V386.51L317.789 411.488V427.716L271.462 402.738Z" fill="#F2C94C" />
        <path opacity="0.15" d="M215.976 357.6L242.873 372.094V377.336L215.976 362.842V357.6Z" fill="white" />
        <path opacity="0.15" d="M215.976 368.085L264.531 394.258V399.5L215.976 373.366V368.085Z" fill="white" />
        <path opacity="0.15" d="M215.976 378.608L278.805 412.49V417.732L215.976 383.85V378.608Z" fill="white" />
        <path d="M209.334 359.489C209.334 364.423 206.199 366.736 202.363 364.654C198.526 362.573 195.391 356.906 195.391 351.972C195.391 347.038 198.526 344.726 202.363 346.807C206.24 348.889 209.334 354.555 209.334 359.489Z" fill="#F2C94C" />
        <path opacity="0.15" d="M321.378 320.981L324.472 327.38L298.4 333.046L325.503 368.316L322.409 371.361L289.118 327.997L321.378 320.981Z" fill="white" />
        <path d="M330 328.151C330 333.123 326.865 335.475 323.028 333.432C319.192 331.35 316.056 325.645 316.056 320.634C316.056 315.662 319.192 313.31 323.028 315.353C326.865 317.435 330 323.178 330 328.151Z" fill="#F2994A" />
        <path d="M330 372.325C330 377.297 326.865 379.649 323.028 377.606C319.192 375.524 316.056 369.819 316.056 364.808C316.056 359.836 319.192 357.485 323.028 359.527C326.865 361.648 330 367.352 330 372.325Z" fill="#F2994A" />
        <path d="M300.256 333.624C300.256 338.597 297.121 340.948 293.285 338.905C289.448 336.824 286.313 331.119 286.313 326.108C286.313 321.135 289.448 318.784 293.285 320.827C297.121 322.909 300.256 328.652 300.256 333.624Z" fill="#F2C94C" />
        <path opacity="0.3" d="M105.748 201.603L174.888 238.878V358.564L105.748 321.29V201.603Z" fill="url(#paint8_linear_901_476)" />
        <path opacity="0.15" d="M112.554 272.644L168.081 302.595V307.837L112.554 277.886V272.644Z" fill="white" />
        <path opacity="0.15" d="M116.432 284.979L164.162 310.728V315.97L116.432 290.221V284.979Z" fill="white" />
        <path d="M136.605 306.372L88.5038 280.431V293.806L136.605 319.748V306.372Z" fill="#F2C94C" />
        <path d="M148.197 248.668C148.197 254.45 144.608 257.187 140.194 254.797C135.78 252.369 132.191 245.739 132.191 239.918C132.191 234.136 135.78 231.4 140.194 233.79C144.608 236.218 148.197 242.886 148.197 248.668Z" fill="#F2C94C" />
        <path d="M140.153 259.461C133.016 255.568 127.117 259.23 126.086 267.595C125.921 269.059 127.076 270.987 128.519 271.758L151.786 284.478C153.23 285.249 154.385 284.632 154.22 282.975C153.23 273.415 147.29 263.354 140.153 259.461Z" fill="#F2C94C" />
        <path opacity="0.2" d="M207.313 444.83C182.355 414.841 200.424 403.971 207.313 421.548C214.202 411.449 232.271 441.747 207.313 444.83Z" fill="url(#paint9_linear_901_476)" />
    </g>
    <defs>
        <linearGradient id="paint0_linear_901_476" x1="471.014" y1="346.342" x2="309.607" y2="575.75" gradientUnits="userSpaceOnUse">
            <stop stop-color="white" />
            <stop offset="1" stop-color="white" stop-opacity="0" />
        </linearGradient>
        <linearGradient id="paint1_linear_901_476" x1="558.262" y1="229.28" x2="508.033" y2="314.419" gradientUnits="userSpaceOnUse">
            <stop stop-color="white" />
            <stop offset="1" stop-color="white" stop-opacity="0" />
        </linearGradient>
        <linearGradient id="paint2_linear_901_476" x1="305.729" y1="160.404" x2="187.281" y2="275.825" gradientUnits="userSpaceOnUse">
            <stop stop-color="white" />
            <stop offset="1" stop-color="white" stop-opacity="0" />
        </linearGradient>
        <linearGradient id="paint3_linear_901_476" x1="371.065" y1="227.434" x2="252.617" y2="342.855" gradientUnits="userSpaceOnUse">
            <stop stop-color="white" />
            <stop offset="1" stop-color="white" stop-opacity="0" />
        </linearGradient>
        <linearGradient id="paint4_linear_901_476" x1="285.095" y1="175.738" x2="166.647" y2="291.159" gradientUnits="userSpaceOnUse">
            <stop stop-color="white" />
            <stop offset="1" stop-color="white" stop-opacity="0.21" />
        </linearGradient>
        <linearGradient id="paint5_linear_901_476" x1="350.431" y1="242.768" x2="231.983" y2="358.189" gradientUnits="userSpaceOnUse">
            <stop stop-color="white" />
            <stop offset="1" stop-color="white" stop-opacity="0" />
        </linearGradient>
        <linearGradient id="paint6_linear_901_476" x1="148.077" y1="338.01" x2="88.0104" y2="388.343" gradientUnits="userSpaceOnUse">
            <stop stop-color="white" />
            <stop offset="1" stop-color="white" stop-opacity="0" />
        </linearGradient>
        <linearGradient id="paint7_linear_901_476" x1="237.134" y1="327.94" x2="251.016" y2="448.445" gradientUnits="userSpaceOnUse">
            <stop stop-color="white" />
            <stop offset="1" stop-color="white" stop-opacity="0" />
        </linearGradient>
        <linearGradient id="paint8_linear_901_476" x1="182.281" y1="212.152" x2="126.944" y2="314.755" gradientUnits="userSpaceOnUse">
            <stop stop-color="white" />
            <stop offset="1" stop-color="white" stop-opacity="0" />
        </linearGradient>
        <linearGradient id="paint9_linear_901_476" x1="212.582" y1="422.705" x2="195.196" y2="438.779" gradientUnits="userSpaceOnUse">
            <stop stop-color="white" />
            <stop offset="1" stop-color="white" stop-opacity="0" />
        </linearGradient>
    </defs>
</svg>