<svg width="375" height="812" viewBox="0 0 375 812" fill="none" xmlns="http://www.w3.org/2000/svg">
    <path d="M77.1726 0H51.2777C33.4473 0 26.9816 1.85651 20.4631 5.34265C13.9446 8.8288 8.82879 13.9446 5.34265 20.4631C1.85651 26.9816 0 33.4473 0 51.2777V760.722C0 778.553 1.85651 785.018 5.34265 791.537C8.82879 798.055 13.9446 803.171 20.4631 806.657C26.9816 810.143 33.4473 812 51.2777 812H323.72C341.55 812 348.016 810.143 354.535 806.657C361.053 803.171 366.169 798.055 369.655 791.537C373.141 785.018 374.998 778.553 374.998 760.722V812H375V0H374.998V51.2777C374.998 33.4473 373.141 26.9816 369.655 20.4631C366.169 13.9446 361.053 8.8288 354.535 5.34265C348.016 1.85651 341.55 0 323.72 0H297.827C296.637 0 295.688 0.215495 294.889 0.625422C294.09 1.03535 293.455 1.63971 293.005 2.41744C292.616 3.09189 292.356 3.88602 292.255 4.86028C291.826 12.4779 290.702 16.0301 288.777 19.3633C286.799 22.7853 284.004 25.4445 280.488 27.2481C276.971 29.0518 273.266 30 265.21 30H109.79C101.734 30 98.0289 29.0518 94.5124 27.2481C90.996 25.4445 88.2005 22.7853 86.2235 19.3633C84.2978 16.0301 83.1738 12.4779 82.7449 4.86028C82.6441 3.88602 82.3843 3.09189 81.9947 2.41744C81.5453 1.63971 80.91 1.03535 80.1108 0.625422C79.3116 0.215495 78.3628 0 77.1726 0Z" fill="#003ECB" />
    <mask id="mask0_901_466" style="mask-type:alpha" maskUnits="userSpaceOnUse" x="0" y="0" width="375" height="812">
        <path d="M77.1726 0H51.2777C33.4473 0 26.9816 1.85651 20.4631 5.34265C13.9446 8.8288 8.82879 13.9446 5.34265 20.4631C1.85651 26.9816 0 33.4473 0 51.2777V760.722C0 778.553 1.85651 785.018 5.34265 791.537C8.82879 798.055 13.9446 803.171 20.4631 806.657C26.9816 810.143 33.4473 812 51.2777 812H323.72C341.55 812 348.016 810.143 354.535 806.657C361.053 803.171 366.169 798.055 369.655 791.537C373.141 785.018 374.998 778.553 374.998 760.722V812H375V0H374.998V51.2777C374.998 33.4473 373.141 26.9816 369.655 20.4631C366.169 13.9446 361.053 8.8288 354.535 5.34265C348.016 1.85651 341.55 0 323.72 0H297.827C296.637 0 295.688 0.215495 294.889 0.625422C294.09 1.03535 293.455 1.63971 293.005 2.41744C292.616 3.09189 292.356 3.88602 292.255 4.86028C291.826 12.4779 290.702 16.0301 288.777 19.3633C286.799 22.7853 284.004 25.4445 280.488 27.2481C276.971 29.0518 273.266 30 265.21 30H109.79C101.734 30 98.0289 29.0518 94.5124 27.2481C90.996 25.4445 88.2005 22.7853 86.2235 19.3633C84.2978 16.0301 83.1738 12.4779 82.7449 4.86028C82.6441 3.88602 82.3843 3.09189 81.9947 2.41744C81.5453 1.63971 80.91 1.03535 80.1108 0.625422C79.3116 0.215495 78.3628 0 77.1726 0Z" fill="#003ECB" />
    </mask>
    <g mask="url(#mask0_901_466)">
        <rect opacity="0.25" x="-290" y="267.816" width="746.307" height="245.058" transform="rotate(-27 -290 267.816)" fill="url(#paint0_linear_901_466)" />
        <rect opacity="0.25" x="171.974" y="196.581" width="373.015" height="96.7802" transform="rotate(-27 171.974 196.581)" fill="url(#paint1_linear_901_466)" />
        <path opacity="0.1" d="M177.652 150.233L330.766 380.732L177.69 292.336L177.652 150.233Z" fill="url(#paint2_linear_901_466)" />
        <path opacity="0.4" d="M323.836 396.825C325.414 397.749 326.107 395.863 324.875 394.015L162.945 150.271C161.867 148.616 160.25 148.577 160.25 150.194L160.288 300.421C160.288 301.499 161.02 302.77 161.944 303.309L323.836 396.825ZM184.235 219.648C184.235 218.031 185.852 218.07 186.93 219.725L257.924 326.447C259.156 328.295 258.463 330.182 256.884 329.258L185.929 288.255C185.005 287.716 184.274 286.446 184.274 285.368L184.235 219.648Z" fill="url(#paint3_linear_901_466)" />
        <path opacity="0.3" d="M236.749 155.276L351.325 221.458V281.171L246.875 220.803L236.788 224.114L236.749 155.276Z" fill="url(#paint4_linear_901_466)" />
        <path d="M260.003 188.733C260.003 193.661 257.077 195.971 253.496 193.892C249.916 191.813 246.99 186.153 246.99 181.225C246.99 176.297 249.916 173.987 253.496 176.066C257.115 178.145 260.003 183.805 260.003 188.733Z" fill="#F2C94C" />
        <path opacity="0.15" d="M266.202 186.808L291.304 201.322V206.558L266.202 192.044V186.808Z" fill="white" />
        <path opacity="0.15" d="M266.202 197.318L341.161 240.631V245.867L266.202 202.554V197.318Z" fill="white" />
        <path opacity="0.15" d="M266.202 207.829L324.837 241.709V246.945L266.202 213.065V207.829Z" fill="white" />
        <path opacity="0.3" d="M140.537 302.423L26 236.242V295.955L130.45 356.285L140.576 371.261L140.537 302.423Z" fill="url(#paint5_linear_901_466)" />
        <path d="M117.284 308.968C117.284 313.896 120.21 319.556 123.79 321.635C127.371 323.714 130.297 321.404 130.297 316.476C130.297 311.548 127.371 305.888 123.79 303.809C120.21 301.769 117.284 304.079 117.284 308.968Z" fill="#F2994A" />
        <path opacity="0.15" d="M111.085 299.959L85.9829 285.445V290.681L111.085 305.195V299.959Z" fill="white" />
        <path opacity="0.15" d="M111.123 310.431L36.1254 267.119V272.355L111.085 315.667L111.123 310.431Z" fill="white" />
        <path opacity="0.15" d="M111.123 320.942L52.4879 287.062V292.298L111.123 326.178V320.942Z" fill="white" />
        <path opacity="0.2" d="M99.8046 148L147.66 175.643L147.699 279.323L99.8046 251.68V148Z" fill="url(#paint6_linear_901_466)" />
        <path d="M84.8279 176.451L122.481 198.204V210.639L84.8279 188.887V176.451Z" fill="#F2994A" />
        <path opacity="0.15" d="M99.8046 236.28L147.66 263.923V279.285L99.8046 251.642V236.28Z" fill="white" />
        <path opacity="0.15" d="M105.695 166.826L125.33 178.145V183.381L105.695 172.062V166.826Z" fill="white" />
        <path opacity="0.15" d="M105.734 177.337L140.461 197.395V202.631L105.734 182.573V177.337Z" fill="white" />
        <path opacity="0.15" d="M126.1 234.702V239.938L105.734 228.157V222.921L126.1 234.702Z" fill="white" />
        <path opacity="0.2" d="M200.905 334.301L153.05 306.658L153.088 410.339L200.944 437.982L200.905 334.301Z" fill="url(#paint7_linear_901_466)" />
        <path d="M215.882 380.039L178.229 358.287V370.722L215.882 392.475V380.039Z" fill="#F2C94C" />
        <path opacity="0.15" d="M200.944 422.582L153.089 394.939V410.3L200.944 437.943V422.582Z" fill="white" />
        <path opacity="0.15" d="M160.288 326.255L179.923 337.574V342.81L160.288 331.491V326.255Z" fill="white" />
        <path opacity="0.15" d="M160.288 336.765L195.015 356.824V362.06L160.288 342.001V336.765Z" fill="white" />
        <path opacity="0.15" d="M174.649 390.665V395.901L195.015 407.682V402.446L174.649 390.665Z" fill="white" />
        <path opacity="0.2" d="M298.58 268.351C300.89 269.66 302.738 272.894 302.738 275.55V287.293L310.515 291.759C312.825 293.068 314.673 296.302 314.673 298.958C314.673 301.615 312.825 302.693 310.515 301.384L302.738 296.918V308.66C302.738 311.317 300.89 312.395 298.58 311.086C296.27 309.777 294.422 306.543 294.422 303.886V292.144L286.645 287.639C284.335 286.33 282.487 283.096 282.487 280.401C282.487 277.745 284.335 276.667 286.645 277.976L294.422 282.442V270.699C294.422 268.081 296.27 267.003 298.58 268.351Z" fill="url(#paint8_linear_901_466)" />
    </g>
    <defs>
        <linearGradient id="paint0_linear_901_466" x1="481.013" y1="355.342" x2="319.606" y2="584.75" gradientUnits="userSpaceOnUse">
            <stop stop-color="white" />
            <stop offset="1" stop-color="white" stop-opacity="0" />
        </linearGradient>
        <linearGradient id="paint1_linear_901_466" x1="558.262" y1="229.28" x2="508.033" y2="314.419" gradientUnits="userSpaceOnUse">
            <stop stop-color="white" />
            <stop offset="1" stop-color="white" stop-opacity="0" />
        </linearGradient>
        <linearGradient id="paint2_linear_901_466" x1="289.185" y1="204.96" x2="210.796" y2="340.653" gradientUnits="userSpaceOnUse">
            <stop stop-color="white" />
            <stop offset="1" stop-color="white" stop-opacity="0" />
        </linearGradient>
        <linearGradient id="paint3_linear_901_466" x1="280.806" y1="207.393" x2="201.422" y2="344.723" gradientUnits="userSpaceOnUse">
            <stop stop-color="white" />
            <stop offset="0.8963" stop-color="white" stop-opacity="0" />
        </linearGradient>
        <linearGradient id="paint4_linear_901_466" x1="285.986" y1="157.229" x2="300.721" y2="277.358" gradientUnits="userSpaceOnUse">
            <stop stop-color="white" />
            <stop offset="1" stop-color="white" stop-opacity="0" />
        </linearGradient>
        <linearGradient id="paint5_linear_901_466" x1="115.567" y1="278.494" x2="56.4078" y2="324.792" gradientUnits="userSpaceOnUse">
            <stop stop-color="white" />
            <stop offset="1" stop-color="white" stop-opacity="0" />
        </linearGradient>
        <linearGradient id="paint6_linear_901_466" x1="146.183" y1="174.8" x2="104.817" y2="246.405" gradientUnits="userSpaceOnUse">
            <stop stop-color="white" />
            <stop offset="1" stop-color="white" stop-opacity="0" />
        </linearGradient>
        <linearGradient id="paint7_linear_901_466" x1="199.453" y1="333.46" x2="158.087" y2="405.065" gradientUnits="userSpaceOnUse">
            <stop stop-color="white" />
            <stop offset="1" stop-color="white" stop-opacity="0" />
        </linearGradient>
        <linearGradient id="paint8_linear_901_466" x1="306.617" y1="283.353" x2="286.459" y2="299.262" gradientUnits="userSpaceOnUse">
            <stop stop-color="white" />
            <stop offset="1" stop-color="white" stop-opacity="0" />
        </linearGradient>
    </defs>
</svg>