<svg width="375" height="812" viewBox="0 0 375 812" fill="none" xmlns="http://www.w3.org/2000/svg">
    <path d="M77.1726 0H51.2777C33.4473 0 26.9816 1.85651 20.4631 5.34265C13.9446 8.8288 8.82879 13.9446 5.34265 20.4631C1.85651 26.9816 0 33.4473 0 51.2777V760.722C0 778.553 1.85651 785.018 5.34265 791.537C8.82879 798.055 13.9446 803.171 20.4631 806.657C26.9816 810.143 33.4473 812 51.2777 812H323.72C341.55 812 348.016 810.143 354.535 806.657C361.053 803.171 366.169 798.055 369.655 791.537C373.141 785.018 374.998 778.553 374.998 760.722V812H375V0H374.998V51.2777C374.998 33.4473 373.141 26.9816 369.655 20.4631C366.169 13.9446 361.053 8.8288 354.535 5.34265C348.016 1.85651 341.55 0 323.72 0H297.827C296.637 0 295.688 0.215495 294.889 0.625422C294.09 1.03535 293.455 1.63971 293.005 2.41744C292.616 3.09189 292.356 3.88602 292.255 4.86028C291.826 12.4779 290.702 16.0301 288.777 19.3633C286.799 22.7853 284.004 25.4445 280.488 27.2481C276.971 29.0518 273.266 30 265.21 30H109.79C101.734 30 98.0289 29.0518 94.5124 27.2481C90.996 25.4445 88.2005 22.7853 86.2235 19.3633C84.2978 16.0301 83.1738 12.4779 82.7449 4.86028C82.6441 3.88602 82.3843 3.09189 81.9947 2.41744C81.5453 1.63971 80.91 1.03535 80.1108 0.625422C79.3116 0.215495 78.3628 0 77.1726 0Z" fill="#003ECB" />
    <mask id="mask0_901_493" style="mask-type:alpha" maskUnits="userSpaceOnUse" x="-5" y="-10" width="375" height="812">
        <path d="M72.1726 -10H46.2777C28.4473 -10 21.9816 -8.14349 15.4631 -4.65735C8.94457 -1.1712 3.82879 3.94457 0.342651 10.4631C-3.14349 16.9816 -5 23.4473 -5 41.2777V750.722C-5 768.553 -3.14349 775.018 0.342651 781.537C3.82879 788.055 8.94457 793.171 15.4631 796.657C21.9816 800.143 28.4473 802 46.2777 802H318.72C336.55 802 343.016 800.143 349.535 796.657C356.053 793.171 361.169 788.055 364.655 781.537C368.141 775.018 369.998 768.553 369.998 750.722V802H370V-10H369.998V41.2777C369.998 23.4473 368.141 16.9816 364.655 10.4631C361.169 3.94457 356.053 -1.1712 349.535 -4.65735C343.016 -8.14349 336.55 -10 318.72 -10H292.827C291.637 -10 290.688 -9.78451 289.889 -9.37458C289.09 -8.96465 288.455 -8.36029 288.005 -7.58256C287.616 -6.90811 287.356 -6.11398 287.255 -5.13972C286.826 2.47791 285.702 6.03014 283.777 9.36325C281.799 12.7853 279.004 15.4445 275.488 17.2481C271.971 19.0518 268.266 20 260.21 20H104.79C96.7339 20 93.0289 19.0518 89.5124 17.2481C85.996 15.4445 83.2005 12.7853 81.2235 9.36325C79.2978 6.03014 78.1738 2.47791 77.7449 -5.13972C77.6441 -6.11398 77.3843 -6.90811 76.9947 -7.58256C76.5453 -8.36029 75.91 -8.96465 75.1108 -9.37458C74.3116 -9.78451 73.3628 -10 72.1726 -10Z" fill="#003ECB" />
    </mask>
    <g mask="url(#mask0_901_493)">
        <rect opacity="0.25" x="-300" y="258.816" width="746.307" height="245.058" transform="rotate(-27 -300 258.816)" fill="url(#paint0_linear_901_493)" />
        <rect opacity="0.25" x="171.974" y="196.581" width="373.015" height="96.7802" transform="rotate(-27 171.974 196.581)" fill="url(#paint1_linear_901_493)" />
        <path opacity="0.3" d="M208.71 243.683L323.286 309.865V369.578L218.836 309.21L208.749 312.521L208.71 243.683Z" fill="url(#paint2_linear_901_493)" />
        <path d="M232.002 277.14C232.002 282.068 229.076 284.378 225.496 282.299C221.915 280.22 218.989 274.56 218.989 269.632C218.989 264.704 221.915 262.394 225.496 264.473C229.076 266.514 232.002 272.212 232.002 277.14Z" fill="#F2994A" />
        <path opacity="0.15" d="M238.163 275.215L263.265 289.729V294.965L238.163 280.451V275.215Z" fill="white" />
        <path opacity="0.15" d="M238.163 285.725L313.122 329.038V334.274L238.163 290.961V285.725Z" fill="white" />
        <path opacity="0.15" d="M238.163 296.197L296.798 330.077V335.313L238.163 301.433V296.197Z" fill="white" />
        <path opacity="0.3" d="M125.473 164.027L189.999 201.256V320.799L125.473 283.569V164.027Z" fill="url(#paint3_linear_901_493)" />
        <path opacity="0.15" d="M131.825 234.982L183.646 264.897V270.133L131.825 240.218V234.982Z" fill="white" />
        <path opacity="0.15" d="M135.444 247.264L179.989 272.982V278.218L135.444 252.5V247.264Z" fill="white" />
        <path d="M154.271 268.67L109.38 242.759V256.119L154.271 282.029V268.67Z" fill="#F2C94C" />
        <path d="M165.089 210.997C165.089 216.772 161.74 219.505 157.62 217.118C153.501 214.731 150.151 208.071 150.151 202.257C150.151 196.482 153.501 193.749 157.62 196.136C161.74 198.6 165.089 205.222 165.089 210.997Z" fill="#F2C94C" />
        <path d="M157.62 221.777C150.96 217.888 145.454 221.546 144.492 229.9C144.338 231.363 145.416 233.288 146.763 234.058L168.477 246.763C169.825 247.533 170.903 246.917 170.749 245.262C169.786 235.752 164.281 225.665 157.62 221.777Z" fill="#F2C94C" />
        <path opacity="0.3" d="M170.248 307.208L234.774 344.438V463.98L170.248 426.751V307.208Z" fill="url(#paint4_linear_901_493)" />
        <path opacity="0.15" d="M176.562 378.164L228.384 408.078V413.314L176.562 383.4V378.164Z" fill="white" />
        <path opacity="0.15" d="M180.181 390.445L224.726 416.163V421.399L180.181 395.681V390.445Z" fill="white" />
        <path d="M250.752 441.689L205.861 415.778V429.138L250.752 455.048V441.689Z" fill="#F2994A" />
        <path d="M209.826 354.178C209.826 359.953 206.477 362.687 202.357 360.3C198.238 357.874 194.888 351.252 194.888 345.439C194.888 339.664 198.238 336.93 202.357 339.317C206.477 341.743 209.826 348.403 209.826 354.178Z" fill="#F2994A" />
        <path d="M202.357 364.958C195.697 361.07 190.191 364.727 189.229 373.082C189.075 374.545 190.153 376.47 191.5 377.24L213.214 389.945C214.562 390.715 215.64 390.099 215.486 388.443C214.523 378.934 209.018 368.847 202.357 364.958Z" fill="#F2994A" />
        <path opacity="0.3" d="M151.576 296.775L37 230.593V290.307L141.489 350.636L151.615 365.613L151.576 296.775Z" fill="url(#paint5_linear_901_493)" />
        <path d="M128.283 303.32C128.283 308.248 131.209 313.907 134.79 315.986C138.37 318.065 141.296 315.755 141.296 310.827C141.296 305.899 138.37 300.24 134.79 298.161C131.209 296.082 128.283 298.392 128.283 303.32Z" fill="#F2C94C" />
        <path opacity="0.15" d="M122.123 294.272L97.0212 279.796V285.032L122.123 299.547V294.272Z" fill="white" />
        <path opacity="0.15" d="M122.123 304.783L47.1638 261.47V266.706L122.123 310.019V304.783Z" fill="white" />
        <path opacity="0.15" d="M122.123 315.293L63.4879 281.413V286.649L122.123 320.529V315.293Z" fill="white" />
        <path opacity="0.4" d="M321.13 149.397C256.142 111.859 203.012 156.327 203.012 249.651L186.418 240.064C186.457 134.651 246.556 83.3693 321.13 126.412V149.397Z" fill="url(#paint6_linear_901_493)" />
        <path opacity="0.4" d="M266.922 286.611C266.922 245.185 291.177 225.588 321.092 242.836V219.852C282.014 197.291 250.328 222.893 250.328 277.024L266.922 286.611Z" fill="url(#paint7_linear_901_493)" />
        <path opacity="0.4" d="M234.582 267.515C234.582 201.372 273.313 170.11 321.014 197.676V174.691C264.15 141.851 217.988 179.119 217.988 257.928L234.582 267.515Z" fill="url(#paint8_linear_901_493)" />
        <path opacity="0.4" d="M305.345 308.748C314.046 313.792 321.092 308.055 321.092 296.005C321.092 283.954 314.046 270.094 305.345 265.051C296.644 260.007 289.599 265.744 289.599 277.794C289.599 289.883 296.644 303.705 305.345 308.748Z" fill="url(#paint9_linear_901_493)" />
        <path opacity="0.07" d="M336.53 138.232C271.503 100.694 218.412 145.162 218.412 238.486L201.818 228.899C201.857 123.486 261.955 72.2043 336.53 115.247V138.232Z" fill="url(#paint10_linear_901_493)" />
        <path opacity="0.07" d="M282.322 275.446C282.322 234.02 306.577 214.423 336.492 231.671V208.687C297.414 186.126 265.729 211.728 265.729 265.859L282.322 275.446Z" fill="url(#paint11_linear_901_493)" />
        <path opacity="0.07" d="M249.982 256.35C249.982 190.207 288.713 158.945 336.414 186.511V163.526C279.55 130.686 233.388 167.954 233.388 246.763L249.982 256.35Z" fill="url(#paint12_linear_901_493)" />
        <path opacity="0.07" d="M320.745 297.583C329.446 302.627 336.492 296.89 336.492 284.84C336.492 272.789 329.446 258.929 320.745 253.886C312.044 248.842 304.999 254.579 304.999 266.629C304.999 278.718 312.044 292.54 320.745 297.583Z" fill="url(#paint13_linear_901_493)" />
        <path opacity="0.2" d="M270.31 357.374C272.62 358.683 274.468 361.917 274.468 364.573V376.316L282.245 380.782C284.555 382.091 286.403 385.325 286.403 388.02C286.403 390.676 284.555 391.754 282.245 390.445L274.468 385.979V397.722C274.468 400.378 272.62 401.456 270.31 400.147C268 398.838 266.152 395.604 266.152 392.909V381.167L258.375 376.701C256.065 375.392 254.217 372.158 254.217 369.501C254.217 366.845 256.065 365.767 258.375 367.076L266.152 371.542V359.799C266.152 357.143 268 356.065 270.31 357.374Z" fill="url(#paint14_linear_901_493)" />
        <path opacity="0.2" d="M86.8574 189.668L97.5604 210.689C99.0234 213.576 98.7924 216.464 97.0214 217.157C95.2504 217.85 92.6324 216.04 91.1694 213.153L91.0539 212.883V236.214C91.0539 238.871 89.2059 239.949 86.8959 238.64C84.5859 237.292 82.7379 234.097 82.7379 231.44V208.109L82.6224 208.225C81.1594 209.418 78.5029 208.186 76.7704 205.453C74.9994 202.719 74.7684 199.562 76.2314 198.369L86.8574 189.668Z" fill="url(#paint15_linear_901_493)" />
    </g>
    <defs>
        <linearGradient id="paint0_linear_901_493" x1="471.014" y1="346.342" x2="309.607" y2="575.75" gradientUnits="userSpaceOnUse">
            <stop stop-color="white" />
            <stop offset="1" stop-color="white" stop-opacity="0" />
        </linearGradient>
        <linearGradient id="paint1_linear_901_493" x1="558.262" y1="229.28" x2="508.033" y2="314.419" gradientUnits="userSpaceOnUse">
            <stop stop-color="white" />
            <stop offset="1" stop-color="white" stop-opacity="0" />
        </linearGradient>
        <linearGradient id="paint2_linear_901_493" x1="257.964" y1="245.627" x2="272.699" y2="365.756" gradientUnits="userSpaceOnUse">
            <stop stop-color="white" />
            <stop offset="1" stop-color="white" stop-opacity="0" />
        </linearGradient>
        <linearGradient id="paint3_linear_901_493" x1="196.909" y1="174.546" x2="139.634" y2="273.776" gradientUnits="userSpaceOnUse">
            <stop stop-color="white" />
            <stop offset="1" stop-color="white" stop-opacity="0" />
        </linearGradient>
        <linearGradient id="paint4_linear_901_493" x1="241.649" y1="317.719" x2="184.374" y2="416.949" gradientUnits="userSpaceOnUse">
            <stop stop-color="white" />
            <stop offset="1" stop-color="white" stop-opacity="0" />
        </linearGradient>
        <linearGradient id="paint5_linear_901_493" x1="126.579" y1="272.827" x2="67.4204" y2="319.125" gradientUnits="userSpaceOnUse">
            <stop stop-color="white" />
            <stop offset="1" stop-color="white" stop-opacity="0" />
        </linearGradient>
        <linearGradient id="paint6_linear_901_493" x1="298.237" y1="108.819" x2="202.506" y2="220.522" gradientUnits="userSpaceOnUse">
            <stop stop-color="white" />
            <stop offset="1" stop-color="white" stop-opacity="0" />
        </linearGradient>
        <linearGradient id="paint7_linear_901_493" x1="357.205" y1="159.4" x2="261.474" y2="271.103" gradientUnits="userSpaceOnUse">
            <stop stop-color="white" />
            <stop offset="1" stop-color="white" stop-opacity="0" />
        </linearGradient>
        <linearGradient id="paint8_linear_901_493" x1="328.333" y1="134.277" x2="232.602" y2="245.98" gradientUnits="userSpaceOnUse">
            <stop stop-color="white" />
            <stop offset="1" stop-color="white" stop-opacity="0" />
        </linearGradient>
        <linearGradient id="paint9_linear_901_493" x1="390.342" y1="187.741" x2="294.611" y2="299.444" gradientUnits="userSpaceOnUse">
            <stop stop-color="white" />
            <stop offset="1" stop-color="white" stop-opacity="0" />
        </linearGradient>
        <linearGradient id="paint10_linear_901_493" x1="313.636" y1="97.6544" x2="217.905" y2="209.358" gradientUnits="userSpaceOnUse">
            <stop stop-color="white" />
            <stop offset="1" stop-color="white" stop-opacity="0" />
        </linearGradient>
        <linearGradient id="paint11_linear_901_493" x1="372.604" y1="148.235" x2="276.873" y2="259.938" gradientUnits="userSpaceOnUse">
            <stop stop-color="white" />
            <stop offset="1" stop-color="white" stop-opacity="0" />
        </linearGradient>
        <linearGradient id="paint12_linear_901_493" x1="343.732" y1="123.112" x2="248.002" y2="234.815" gradientUnits="userSpaceOnUse">
            <stop stop-color="white" />
            <stop offset="1" stop-color="white" stop-opacity="0" />
        </linearGradient>
        <linearGradient id="paint13_linear_901_493" x1="405.742" y1="176.576" x2="310.011" y2="288.279" gradientUnits="userSpaceOnUse">
            <stop stop-color="white" />
            <stop offset="1" stop-color="white" stop-opacity="0" />
        </linearGradient>
        <linearGradient id="paint14_linear_901_493" x1="278.359" y1="372.397" x2="258.201" y2="388.305" gradientUnits="userSpaceOnUse">
            <stop stop-color="white" />
            <stop offset="1" stop-color="white" stop-opacity="0" />
        </linearGradient>
        <linearGradient id="paint15_linear_901_493" x1="94.4857" y1="210.86" x2="74.9583" y2="221.745" gradientUnits="userSpaceOnUse">
            <stop stop-color="white" />
            <stop offset="1" stop-color="white" stop-opacity="0" />
        </linearGradient>
    </defs>
</svg>